<?xml version="1.0" encoding="UTF-8"?>
<svg xmlns="http://www.w3.org/2000/svg" version="1.1" width="1000" height="1000">
    <path d="m 277.90608,405.65747 c -13.72459,1.36829 -38.44363,1.36829 -52.16822,1.36829 l 0,-61.7815 46.6726,0 c 6.87675,0 13.7278,1.36828 20.60134,1.36828 0,-1.36828 -1.36829,-4.11448 -1.36829,-5.49562 0,-1.36828 1.36829,-4.11448 1.36829,-5.49561 -6.87354,0 -13.72459,1.38113 -20.60134,1.38113 l -46.6726,0 0,-53.54932 28.83031,0 23.33791,1.38113 c 6.87675,0 13.73743,1.36186 20.60133,1.36186 0,-1.36186 -1.38113,-4.11769 -1.38113,-5.48277 0,-2.75583 1.38113,-4.12412 1.38113,-6.87032 l -93.37089,0 0,142.80569 94.73918,0 c 0,-1.38113 -1.36829,-4.11449 -1.36829,-5.49562 0,-2.74941 1.36829,-4.12733 1.36829,-6.8639 -6.8639,1.36828 -15.09287,1.36828 -21.96962,1.36828 m 192.24061,-131.81445 -8.25788,0 0,144.17397 c 1.38113,-1.36828 4.12733,-1.36828 6.87675,-1.36828 1.38113,0 4.12733,0 5.48277,1.36828 l 0,-113.96895 2.75905,0 100.23479,100.24115 c 5.48277,5.48277 9.60047,9.6101 12.35952,13.7278 l 6.87675,0 0,-144.17397 c -2.76227,0 -4.14018,1.37471 -6.87675,1.37471 -2.75905,0 -4.12734,-1.37471 -6.87675,-1.37471 l 0,108.47655 -1.35544,0 L 470.14669,273.84302 z M 183.1669,394.67909 c -4.11448,4.11448 -23.35075,16.474 -49.43486,16.474 -35.69421,0 -61.778318,-24.71582 -61.778318,-65.90883 0,-34.3259 20.588491,-65.91205 63.146598,-65.91205 24.71583,0 41.20268,13.73102 45.31717,17.85514 l 1.38113,0 c 1.36828,-5.49562 2.73657,-10.99124 4.11448,-16.47401 -15.10572,-5.49561 -32.95764,-9.61973 -49.43164,-9.61973 -49.434864,0 -87.87849,27.46523 -87.87849,74.15065 0,45.30749 31.579725,74.1378 82.38287,74.1378 17.83907,0 37.07534,-2.73335 50.81278,-10.97838 l 1.36828,-13.72459 z m 157.89863,-54.93045 0,-57.67022 c 9.6101,0 35.69421,-1.36508 43.93924,0 17.85192,2.75583 26.08411,12.35951 26.08411,26.0841 0,16.4804 -12.34667,27.45879 -30.18896,30.22105 -10.98802,2.73335 -35.70706,1.36507 -39.83439,1.36507 m 92.00582,60.41322 -48.06658,-54.9176 c 23.33469,-2.7462 48.06658,-15.10572 48.06658,-39.82152 0,-20.58849 -16.48686,-31.57972 -52.17143,-31.57972 l -59.0546,0 0,144.17397 c 4.12733,-1.36828 6.87354,-1.36828 10.99123,-1.36828 2.74621,0 6.86069,0 9.61011,1.36828 l 0,-70.02332 19.2202,0 17.85514,19.22021 27.45239,31.57969 c 5.49562,6.8639 9.6101,12.35952 15.10572,19.22342 4.11449,-1.36828 8.22897,-1.36828 13.73744,-1.36828 4.11449,0 8.21934,0 12.34667,1.36828 l -4.12733,-5.48277 -10.96554,-12.37236 z M 300.7911,716.47944 c -15.05433,-2.1809 -29.80995,-5.31896 -44.26365,-9.28249 36.60961,36.10855 80.748,64.16158 129.74282,81.5285 l 16.70205,-18.31766 C 365.74602,758.43692 331.1535,740.19314 300.7911,716.47944 m -76.1453,-476.40668 28.61833,0.22483 c 35.88371,-46.55697 127.93771,-115.54286 251.45902,-115.54286 26.86139,0 52.95835,3.29223 77.97931,9.36599 -9.82531,-10.2557 -20.30263,-19.86259 -31.41913,-28.73716 -15.24384,-2.01388 -30.7639,-3.16375 -46.56018,-3.16375 -110.47123,0 -212.55288,50.24426 -280.07735,137.84331 m 280.07735,546.49427 c -15.79629,0 -31.3035,-1.35543 -46.58588,-3.51385 l -18.19239,19.94931 c 21.07992,3.91535 42.70908,6.09625 64.77827,6.09625 100.44999,0 191.1614,-42.1791 255.57672,-109.68109 l -6.21188,-26.57232 c -60.71196,69.6058 -149.95873,113.7217 -249.36484,113.7217 M 799.46939,650.42604 c 28.78213,-43.41249 48.10191,-93.52186 55.3673,-147.39882 l 1.53209,0.22484 56.76128,-405.670293 -22.32293,-3.12521 -40.36115,288.428313 C 826.64555,269.71569 748.67909,176.28056 644.88227,131.2621 c 9.28569,12.14111 17.80374,24.87321 25.53165,38.13528 98.68022,57.33943 165.22826,164.14259 165.22826,286.25062 0,59.49784 -15.86053,115.30518 -43.45103,163.58374 l 7.27824,31.19109 z m -625.64921,-194.77483 0.0867,-7.78251 -22.52208,-0.49143 -0.0996,8.27394 c 0,29.23501 3.57489,58.26768 10.62829,86.34639 7.89172,31.41592 19.9718,60.82759 35.31842,87.95236 12.34667,6.95063 25.21688,12.9987 38.47895,18.29196 -23.59807,-32.97049 -41.59132,-70.53726 -51.94338,-111.73993 -6.59731,-26.2704 -9.94735,-53.47226 -9.94735,-80.85078 m 510.53353,-102.1844 c 0,182.46024 -148.45233,330.90936 -330.92867,330.90936 -152.00472,0 -283.992685,-102.83004 -320.95561,-250.04577 -6.600522,-26.28646 -9.950568,-53.50117 -9.950568,-80.86359 0,-182.46025 148.439478,-330.906193 330.906178,-330.906193 182.47634,0 330.92867,148.445943 330.92867,330.906193 M 353.42504,0.035332 C 158.5378,0.035332 0,158.58602 0,353.46681 c 0,29.22213 3.5620337,58.25479 10.612227,86.34636 0.754804,2.9614 1.769775,5.78469 2.585606,8.71397 l -0.176657,0.0321 88.591534,317.10451 21.6934,-6.07377 -55.229191,-197.68482 c 64.990251,89.00588 169.628601,144.98987 285.348121,144.98987 58.02679,0 112.78061,-14.15178 161.13626,-39.04426 l -282.49914,309.82627 30.50051,0 352.03107,-386.08719 -0.12527,-0.12848 c 47.71648,-52.26778 79.87114,-118.91539 89.38167,-192.55859 l 135.17742,578.77105 23.1484,0 -164.57303,-704.61773 -0.0642,0 C 670.56488,157.55499 586.86512,63.666968 477.47311,22.525286 l 522.52689,0 L 1000,0 353.42504,0 z" style="fill:#395ab0"/>
</svg>
