<?xml version="1.0" encoding="UTF-8"?>
<svg xmlns="http://www.w3.org/2000/svg" version="1.1" width="744.095" height="1052.3625">
    <path d="m 0,0 c -4.273,-0.426 -11.969,-0.426 -16.242,-0.426 l 0,19.235 14.531,0 c 2.141,0 4.274,-0.426 6.414,-0.426 0,0.426 -0.426,1.281 -0.426,1.711 0,0.426 0.426,1.281 0.426,1.711 -2.14,0 -4.273,-0.43 -6.414,-0.43 l -14.531,0 0,16.672 8.976,0 L 0,37.617 c 2.141,0 4.277,-0.424 6.414,-0.424 0,0.424 -0.43,1.282 -0.43,1.707 0,0.858 0.43,1.284 0.43,2.139 l -29.07,0 0,-44.461 29.496,0 c 0,0.43 -0.426,1.281 -0.426,1.711 0,0.856 0.426,1.285 0.426,2.137 C 4.703,0 2.141,0 0,0 m 59.852,41.039 -2.571,0 0,-44.887 c 0.43,0.426 1.285,0.426 2.141,0.426 0.43,0 1.285,0 1.707,-0.426 l 0,35.483 0.859,0 31.207,-31.209 c 1.707,-1.707 2.989,-2.992 3.848,-4.274 l 2.141,0 0,44.887 c -0.86,0 -1.289,-0.428 -2.141,-0.428 -0.859,0 -1.285,0.428 -2.141,0.428 l 0,-33.773 -0.422,0 -34.628,33.773 z M -29.496,3.418 c -1.281,-1.281 -7.27,-5.129 -15.391,-5.129 -11.113,0 -19.234,7.695 -19.234,20.52 0,10.687 6.41,20.521 19.66,20.521 7.695,0 12.828,-4.275 14.109,-5.559 l 0.43,0 c 0.426,1.711 0.852,3.422 1.281,5.129 -4.703,1.711 -10.261,2.995 -15.39,2.995 -15.391,0 -27.36,-8.551 -27.36,-23.086 0,-14.106 9.832,-23.082 25.649,-23.082 5.554,0 11.543,0.851 15.82,3.418 l 0.426,4.273 z m 49.16,17.102 0,17.955 c 2.992,0 11.113,0.425 13.68,0 5.558,-0.858 8.121,-3.848 8.121,-8.121 0,-5.131 -3.844,-8.549 -9.399,-9.409 C 28.645,20.094 20.949,20.52 19.664,20.52 M 48.309,1.711 33.344,18.809 c 7.265,0.855 14.965,4.703 14.965,12.398 0,6.41 -5.133,9.832 -16.243,9.832 l -18.386,0 0,-44.887 c 1.285,0.426 2.14,0.426 3.422,0.426 0.855,0 2.136,0 2.992,-0.426 l 0,21.801 5.984,0 5.559,-5.984 8.547,-9.832 c 1.711,-2.137 2.992,-3.848 4.703,-5.985 1.281,0.426 2.562,0.426 4.277,0.426 1.281,0 2.559,0 3.844,-0.426 l -1.285,1.707 -3.414,3.852 z M 7.125,-96.771 c -4.687,0.679 -9.281,1.656 -13.781,2.89 11.398,-11.242 25.14,-19.976 40.394,-25.383 l 5.2,5.703 c -11.59,3.727 -22.36,9.407 -31.813,16.79 M -16.582,51.553 -7.672,51.48 C 3.5,65.975 32.16,87.453 70.617,87.453 c 8.363,0 16.488,-1.025 24.278,-2.916 -3.059,3.193 -6.321,6.184 -9.782,8.947 -4.746,0.627 -9.578,0.985 -14.496,0.985 -34.394,0 -66.176,-15.643 -87.199,-42.916 m 87.199,-170.145 c -4.918,0 -9.746,0.422 -14.504,1.094 l -5.664,-6.211 c 6.563,-1.219 13.297,-1.898 20.168,-1.898 31.274,0 59.516,13.132 79.571,34.148 l -1.934,8.273 c -18.902,-21.671 -46.688,-35.406 -77.637,-35.406 m 91.766,42.383 c 8.961,13.516 14.976,29.117 17.238,45.891 l 0.477,-0.071 17.672,126.301 -6.95,0.973 -12.566,-89.799 c -7.41,35.234 -31.684,64.324 -64,78.34 2.891,-3.78 5.543,-7.744 7.949,-11.873 30.723,-17.852 51.442,-51.104 51.442,-89.121 0,-18.524 -4.938,-35.899 -13.528,-50.93 l 2.266,-9.711 z m -194.789,60.641 0.027,2.423 -7.012,0.153 -0.031,-2.576 c 0,-9.102 1.113,-18.141 3.309,-26.883 2.457,-9.781 6.218,-18.938 10.996,-27.383 3.844,-2.164 7.851,-4.047 11.98,-5.695 -7.347,10.265 -12.949,21.961 -16.172,34.789 -2.054,8.179 -3.097,16.648 -3.097,25.172 m 158.949,31.814 c 0,-56.807 -46.219,-103.025 -103.031,-103.025 -47.325,0 -88.418,32.015 -99.926,77.849 -2.055,8.184 -3.098,16.657 -3.098,25.176 0,56.807 46.215,103.024 103.024,103.024 56.812,0 103.031,-46.217 103.031,-103.024 M 23.512,126.283 c -60.676,0 -110.035,-49.363 -110.035,-110.037 0,-9.098 1.109,-18.137 3.304,-26.883 0.235,-0.922 0.551,-1.801 0.805,-2.713 l -0.055,-0.015 27.582,-98.727 6.754,1.891 -17.195,61.547 c 20.234,-27.711 52.812,-45.141 88.84,-45.141 18.066,0 35.113,4.406 50.168,12.156 l -87.953,-96.461 9.496,0 109.601,120.204 -0.039,0.039 c 14.856,16.273 24.867,37.023 27.828,59.951 l 42.086,-180.194 7.207,0 -51.238,219.375 -0.02,-0.005 c -8.398,35.96 -34.457,65.191 -68.515,78 l 162.683,0 0,7.013 -201.304,0 z" style="fill:#395ab0;"/>
</svg>