<?xml version="1.0"?>
<svg xmlns="http://www.w3.org/2000/svg" height="297mm" width="420mm" version="1.1">
 <g transform="matrix(1.0787825,0,0,1.0557507,0.58696247,-59.293563)" fill="none">
  <path stroke="#000" stroke-width="1.1" d="m0,1052.4,0,0"/>
  <g stroke="#000" stroke-width="0.5">
   <path d="m426.79,388.52,0.26576,0"/>
   <path d="m426.88,388.61,0-0.26574"/>
   <path d="m327.22,420.94,0.26577,0"/>
   <path d="m327.31,421.03,0-0.26573"/>
   <path d="m427.15,519.98,0.26574,0"/>
   <path d="m427.23,520.16,0-0.26574"/>
   <path d="m427.68,454.25,0.26576,0"/>
   <path d="m427.77,454.34,0-0.26579"/>
  </g>
  <g stroke="#000" stroke-width="1.4">
   <path d="m386.57,343.88,7.4409-13.465"/>
   <path d="M394.02,343.88,386.57,330.41"/>
   <path d="m386.57,343.88,0-13.465"/>
   <path d="m347.24,343.88,7.4409-13.465"/>
   <path d="m354.69,343.88-7.4409-13.465"/>
   <path d="m354.69,343.88,0-13.465"/>
   <path d="m347.24,343.88,0-13.465"/>
   <path d="m394.02,343.88,0-13.465"/>
   <path d="m386.57,330.41,7.4409,0"/>
   <path d="m354.69,330.41-7.4409,0"/>
   <path d="m995.4,542.66-14.085-3.5433"/>
   <path d="m992.75,538.41,2.6575,4.252"/>
   <path d="m888.75,455.67,4.4291,0"/>
   <path d="m478.61,434.94,2.3032,0"/>
   <path d="m442.82,436.36,4.4291,0"/>
   <path d="m445.48,434.94,1.7716,0"/>
   <path d="m424.22,434.94,2.6575,0"/>
   <path d="m426.88,411.56,0-0.70865"/>
   <path d="m442.82,411.56,0-23.032"/>
   <path d="m442.82,436.36,0-23.032"/>
   <path d="m459.48,386.4,0-1.4174"/>
   <path d="m426.88,395.26,0-6.7323"/>
   <path d="m426.88,434.94,0-21.614"/>
   <path d="m424.22,395.26,0-21.968"/>
   <path d="m424.22,434.94,0-24.094"/>
   <path d="m447.25,386.4,0-1.4174"/>
   <path d="m426.88,384.98,0-11.693"/>
   <path d="m461.78,434.94,0-28.701"/>
   <path d="m463.55,434.94,0-28.701"/>
   <path d="m445.48,434.94,0-49.961"/>
   <path d="m424.22,373.29,2.6575,0"/>
   <path d="m445.48,386.4,1.7716,0"/>
   <path d="m426.88,413.33,15.945,0"/>
   <path d="m426.88,411.56,15.945,0"/>
   <path d="m424.22,410.85,2.6575,0"/>
   <path d="m424.22,395.26,2.6575,0"/>
   <path d="m426.88,388.52,15.945,0"/>
   <path d="m445.48,406.24,35.433,0"/>
   <path d="m445.48,403.58,35.433,0"/>
   <path d="m459.48,384.98,21.437,0"/>
   <path d="m426.88,384.98,20.374,0"/>
   <path d="m459.48,386.4,21.437,0"/>
   <path d="m237.84,484.72,0,10.63"/>
   <path d="m216.94,482.07,0.70866,0"/>
   <path d="m216.94,356.28,0.70866,0"/>
   <path d="m217.74,356.19-0.0886,125.88"/>
   <path d="m216.94,356.28,0,125.79"/>
   <path d="m213.93,532.2,0,11.516"/>
   <path d="m215.7,533.98,0,5.5807"/>
   <path d="m236.07,533.98,0,10.364"/>
   <path d="m237.84,532.2,0,12.756"/>
   <path d="m215.7,533.98,20.374,0"/>
   <path d="m213.93,532.2,23.917,0"/>
   <path d="m351.05,496.77,0-2.8346"/>
   <path d="m350.34,495.35,0-1.4174"/>
   <path d="m350.34,478.35,0.70865,0"/>
   <path d="m350.34,493.94,0.70865,0"/>
   <path d="m351.05,356.28-0.70865,0"/>
   <path d="m974.5,358.94-2.6575,0"/>
   <path d="m971.93,358.85-0.0886,96.821"/>
   <path d="m974.5,358.94,0,96.732"/>
   <path d="m1095.3,455.67,1.4173,0"/>
   <path d="m1095.3,432.28,1.4173,0"/>
   <path d="m1095.3,432.28,0,23.386"/>
   <path d="m1096.7,432.28,0,23.386"/>
   <path d="m1095.3,415.81,1.4173,0"/>
   <path d="m1095.3,416.69,1.4173,0"/>
   <path d="m1095.3,415.81,0,0.88582"/>
   <path d="m1096.7,415.81,0,0.88582"/>
   <path d="m1092.7,414.39,0-2.6575"/>
   <path d="m1067,414.39,0-2.6575"/>
   <path d="m1092.7,414.39-25.689,0"/>
   <path d="m1092.7,411.73-25.689,0"/>
   <path d="m1096.2,411.38-2.6574,0"/>
   <path d="m1093.6,411.29-0.088-55.364"/>
   <path d="m1096.2,411.38,0-55.453"/>
   <path d="M930.56,298.35,917.63,270.53"/>
   <path d="m935.34,296.13-4.7835,2.2146"/>
   <path d="M931.89,294.63,919.58,268.14"/>
   <path d="m934.19,293.47-2.3031,1.1516"/>
   <path d="m934.19,293.47,1.1516,2.6575"/>
   <path d="m969.89,340.33-11.339,3.2776"/>
   <path d="m979.1,340.33-9.2126,0"/>
   <path d="m979.1,340.33,0,4.9606"/>
   <path d="m958.55,343.61,0,9.124"/>
   <path d="m942.17,289.75,1.2402,2.6575"/>
   <path d="m958.46,286.3-16.299,3.4547"/>
   <path d="m959.62,286.3-0.35435,0"/>
   <path d="m958.82,288.96-15.413,3.4547"/>
   <path d="m970.25,288.96-11.427,0"/>
   <path d="m979.1,286.3-20.64,0"/>
   <path d="m979.1,291.61-8.8583,0"/>
   <path d="m970.25,288.96,0,2.6575"/>
   <path d="m979.1,286.3,0,5.315"/>
   <path d="m966.17,288.96,0,52.441"/>
   <path d="m968.47,288.96,0,51.732"/>
   <path d="m973.79,291.61,0,48.72"/>
   <path d="m977.33,291.61,0,48.72"/>
   <path d="m542.04,544.61,4.4291,0"/>
   <path d="m542.04,528.13,4.4291,0"/>
   <path d="m546.56,528.04-0.0886,16.565"/>
   <path d="m542.04,528.13,0,16.476"/>
   <path d="m899.2,544.61,66.968,0"/>
   <path d="m542.04,496.95,0,1.7716"/>
   <path d="m485.34,496.95,0,1.7716"/>
   <path d="m542.04,450.89,0,2.6575"/>
   <path d="m485.34,450.89,0,2.6575"/>
   <path d="m480.92,403.58,0,2.6575"/>
   <path d="m480.92,384.98,0,1.4174"/>
   <path d="m480.92,436.36,0-1.4173"/>
   <path d="m478.61,436.36,0-1.4173"/>
   <path d="m542.04,498.72-56.693,0"/>
   <path d="m542.04,496.95-56.693,0"/>
   <path d="m542.04,453.54-56.693,0"/>
   <path d="m542.04,450.89-56.693,0"/>
   <path d="m463.55,434.94,2.8346,0"/>
   <path d="m459.48,434.94,2.3031,0"/>
   <path d="m466.39,436.36,0-1.4173"/>
   <path d="m459.48,436.36,0-1.4173"/>
   <path d="m447.25,436.36,0-1.4173"/>
   <path d="m478.61,436.36,2.3032,0"/>
   <path d="m459.48,436.36,6.9094,0"/>
   <path d="m896.37,340.25,2.2146,0"/>
   <path d="m898.67,340.16-8.2382,0.0886"/>
   <path d="M890.52,340.16,875.99,313.05"/>
   <path d="m876.08,312.96-9.2126,0.0886"/>
   <path d="m817.88,325.45,5.8465-12.402"/>
   <path d="m868.55,313.05-44.823,0"/>
   <path d="m900.97,416.16,0,35.433"/>
   <path d="m899.56,416.16,0,34.99"/>
   <path d="m907.18,416.16-10.807,0"/>
   <path d="m888.57,451.24-7.7953,0"/>
   <path d="m893.18,451.59-4.6063,0"/>
   <path d="m900.97,451.24-7.7953,0"/>
   <path d="m893.18,451.59,0-0.3543"/>
   <path d="m888.57,451.59,0-0.3543"/>
   <path d="m880.78,455.67,0-4.4291"/>
   <path d="m900.97,455.67,0-4.4291"/>
   <path d="m900.97,455.67-20.197,0"/>
   <path d="m896.37,340.25,0,75.915"/>
   <path d="m907.18,358.94,0,57.224"/>
   <path d="m807.08,451.24-7.7953,0"/>
   <path d="m811.68,451.59-4.6063,0"/>
   <path d="m819.48,451.24-7.7953,0"/>
   <path d="m811.68,451.59,0-0.3543"/>
   <path d="m807.08,451.59,0-0.3543"/>
   <path d="m799.28,455.67,0-4.4291"/>
   <path d="m819.48,455.67,0-4.4291"/>
   <path d="m819.48,455.67-20.197,0"/>
   <path d="m813.45,428.21-8.8583,0"/>
   <path d="M801.05,325.45,794.5,313.05"/>
   <path d="m794.59,312.96-9.2126,0.0886"/>
   <path d="m817.88,325.45-16.831,0"/>
   <path d="m804.6,325.45,0,102.76"/>
   <path d="m813.45,325.45,0,102.76"/>
   <path d="m725.58,451.24-7.7953,0"/>
   <path d="m730.19,451.59-4.6063,0"/>
   <path d="m737.98,451.24-7.7953,0"/>
   <path d="m730.19,451.59,0-0.3543"/>
   <path d="m725.58,451.59,0-0.3543"/>
   <path d="m717.79,455.67,0-4.4291"/>
   <path d="m737.98,455.67,0-4.4291"/>
   <path d="m737.98,455.67-20.197,0"/>
   <path d="m731.96,428.21-8.8583,0"/>
   <path d="M719.56,325.45,713,313.05"/>
   <path d="m736.39,325.45,5.8465-12.402"/>
   <path d="m713,313.05-9.1241,0"/>
   <path d="m787.06,313.05-44.823,0"/>
   <path d="m736.39,325.45-16.831,0"/>
   <path d="m723.1,325.45,0,102.76"/>
   <path d="m731.96,325.45,0,102.76"/>
   <path d="m644.08,451.24-7.7953,0"/>
   <path d="m648.69,451.59-4.6063,0"/>
   <path d="m656.49,451.24-7.7953,0"/>
   <path d="m648.69,451.59,0-0.3543"/>
   <path d="m644.08,451.59,0-0.3543"/>
   <path d="m636.29,455.67,0-4.4291"/>
   <path d="m656.49,455.67,0-4.4291"/>
   <path d="m656.49,455.67-20.197,0"/>
   <path d="m650.46,428.21-8.8583,0"/>
   <path d="M638.06,325.45,631.51,313.05"/>
   <path d="m654.89,325.45,5.8465-12.402"/>
   <path d="m709.64,313.05-48.898,0"/>
   <path d="m654.89,325.45-16.831,0"/>
   <path d="m641.6,325.45,0,102.76"/>
   <path d="m650.46,325.45,0,102.76"/>
   <path d="m891.41,304.28,0,1.4173"/>
   <path d="m564.54,304.28,0,1.4173"/>
   <path d="m891.41,304.28-326.87,0"/>
   <path d="m564.54,305.7,326.87,0"/>
   <path d="m550.19,335.02-1.2401-0.62009"/>
   <path d="m562.85,306.76-12.667,28.258"/>
   <path d="m561.53,306.23,1.3287,0.53147"/>
   <path d="m548.95,334.4,12.579-28.169"/>
   <path d="m460.28,625.13,6.5551-19.754"/>
   <path d="m458.95,624.6,1.3287,0.5315"/>
   <path d="m465.41,603.96-6.4666,20.64"/>
   <path d="m466.83,605.37,632.57,0"/>
   <path d="m465.41,603.96,635.23,0"/>
   <path d="m237.14,495.35,0.70865,0"/>
   <path d="m237.14,484.72,0.70865,0"/>
   <path d="m237.14,484.72,0,10.63"/>
   <path d="m888.57,544.61,0-21.26"/>
   <path d="m887.51,523.35,1.063,0"/>
   <path d="m887.51,521.4,3.189,0"/>
   <path d="m858.45,523.35,1.063,0"/>
   <path d="m858.45,544.61,0-21.26"/>
   <path d="m859.52,521.4,0,1.9488"/>
   <path d="m856.33,521.4,3.189,0"/>
   <path d="m856.33,540.18,0-18.78"/>
   <path d="m734.08,540.18,0,4.4291"/>
   <path d="m721.68,540.18,12.402,0"/>
   <path d="m721.68,544.61,0-4.4291"/>
   <path d="m734.08,544.61,109.84,0"/>
   <path d="m611.84,544.61,109.84,0"/>
   <path d="m843.93,544.61,0-7.2638"/>
   <path d="m611.84,540.18,0,4.4291"/>
   <path d="m599.44,540.18,12.402,0"/>
   <path d="m599.44,544.61,0-4.4291"/>
   <path d="m546.47,544.61,52.972,0"/>
   <path d="m542.04,537.34,0,7.2638"/>
   <path d="m489.95,544.61,52.087,0"/>
   <path d="m546.47,537.34,0,7.2638"/>
   <path d="m546.47,537.34,297.46,0"/>
   <path d="m489.77,537.34,52.264,0"/>
   <path d="m880.78,454.25,0,1.4174"/>
   <path d="m877.23,454.25,3.5433,0"/>
   <path d="m877.23,455.67,0-1.4174"/>
   <path d="m880.78,455.67-3.5433,0"/>
   <path d="m877.32,455.58-0.0886-1.3287"/>
   <path d="m819.48,454.25,0,1.4174"/>
   <path d="m859.87,454.25-40.394,0"/>
   <path d="m859.87,455.67,0-1.4174"/>
   <path d="m819.48,455.67,40.394,0"/>
   <path d="m1085.6,451.24,9.7441,0"/>
   <path d="m1085.6,451.59,0-0.3543"/>
   <path d="m1085.6,536.99,0-85.394"/>
   <path d="m1014,536.99,71.575,0"/>
   <path d="m1014,536.99,0,7.6181"/>
   <path d="m978.57,536.99,35.433,0"/>
   <path d="m978.57,544.61,0-7.6181"/>
   <path d="m300.03,422.89,0,0.70865"/>
   <path d="m217.65,422.89,0,0.70865"/>
   <path d="m217.74,423.51,82.293,0.0886"/>
   <path d="m217.65,422.89,82.382,0"/>
   <path d="m458.95,624.6,6.4666-20.64"/>
   <path d="m451.33,621.85,7.6181,2.7461"/>
   <path d="m459.39,595.81-8.061,26.043"/>
   <path d="m459.39,595.81,647.98,0"/>
   <path d="m552.84,455.67,0-4.4291"/>
   <path d="m562.59,451.24-9.7441,0"/>
   <path d="m567.19,451.59-4.6063,0"/>
   <path d="m574.99,451.24-7.7953,0"/>
   <path d="m567.19,451.59,0-0.3543"/>
   <path d="m562.59,451.59,0-0.3543"/>
   <path d="m574.99,455.67,0-4.4291"/>
   <path d="m574.99,455.67-22.146,0"/>
   <path d="m541.51,453.54-11.516,0"/>
   <path d="m541.51,453.54-11.516,3.8977"/>
   <path d="m529.99,453.54,11.516,3.8977"/>
   <path d="m541.59,457.35-11.604,0.0886"/>
   <path d="m529.99,453.54,0,3.8977"/>
   <path d="m541.51,453.54,0,3.8977"/>
   <path d="m539.91,357.52,0-0.53147"/>
   <path d="m495.62,356.99,44.291,0"/>
   <path d="m495.62,357.52,44.291,0"/>
   <path d="m556.39,343.26,8.5925,0"/>
   <path d="M638.06,325.45,631.51,313.05"/>
   <path d="m631.59,312.96-9.2126,0.0886"/>
   <path d="M564.98,343.26,579.24,313.05"/>
   <path d="m628.14,313.05-48.898,0"/>
   <path d="m1092.7,411.38,0,0.3543"/>
   <path d="m1093.6,411.38-0.8859,0"/>
   <path d="m1093.6,355.93-23.032,18.957"/>
   <path d="m1070.5,355.93,23.032,18.957"/>
   <path d="m1092.7,411.73-24.803,0"/>
   <path d="m1093.6,374.88,0-18.957"/>
   <path d="m1093.6,411.38,0-36.496"/>
   <path d="m1093.6,355.93-23.032,0"/>
   <path d="m1093.6,374.88-25.689,0"/>
   <path d="m1070.5,374.88,0-18.957"/>
   <path d="m1067.9,411.73,0-36.85"/>
   <path d="m809.73,451.59,0-23.386"/>
   <path d="m808.32,451.59,0-23.386"/>
   <path d="m898.58,340.25,8.5925,18.691"/>
   <path d="m325.01,496.77,26.043,0"/>
   <path d="m237.14,496.77,55.098,0"/>
   <path d="m325.01,495.35,25.335,0"/>
   <path d="m237.14,495.35,55.098,0"/>
   <path d="m325.01,496.77,0-1.4173"/>
   <path d="m327.31,495.35,0-74.409"/>
   <path d="m237.14,496.77,0-1.4173"/>
   <path d="m1007.9,541.77-6.4665,0.17718"/>
   <path d="m1002.1,538.85,5.7578,2.9232"/>
   <path d="M1007.9,541.77,992.75,538.41"/>
   <path d="m935.34,296.13-0.26579-0.62009"/>
   <path d="m943.41,292.41-0.26579-0.62004"/>
   <path d="m935.08,295.51,8.061-3.7204"/>
   <path d="m935.34,296.13,8.061-3.7205"/>
   <path d="m907.53,335.46,7.3524-5.2264"/>
   <path d="m907.53,335.46,0.35435,0.62009"/>
   <path d="m915.24,330.86-0.35425-0.62009"/>
   <path d="m907.88,336.08,7.3523-5.2264"/>
   <path d="m971.84,455.67,2.6575,0"/>
   <path d="m489.77,453.54-4.4291,0"/>
   <path d="m489.77,450.89-4.4291,0"/>
   <path d="m489.77,498.72,0,38.622"/>
   <path d="m489.77,453.54,0,43.406"/>
   <path d="m489.77,358.05,0,92.835"/>
   <path d="M904.87,332.98,893.36,306.76"/>
   <path d="m906.11,332.36-1.2402,0.62008"/>
   <path d="m894.51,306.41,11.604,25.955"/>
   <path d="m893.36,306.76,1.1516-0.3543"/>
   <path d="m485.34,358.05,4.4291,0"/>
   <path d="m485.34,540.18,0-182.13"/>
   <path d="m489.95,540.18-4.6063,0"/>
   <path d="m489.95,544.61,0-4.4291"/>
   <path d="m495.62,356.99,0,0.53147"/>
   <path d="m888.57,544.61,2.126,0"/>
   <path d="m856.33,544.61,2.126,0"/>
   <path d="m856.33,540.18,0,4.4291"/>
   <path d="m890.7,544.61,0-23.209"/>
   <path d="m887.51,521.4,0,1.9488"/>
   <path d="m1146.7,560.99,0-109.4"/>
   <path d="m1150.6,451.59-3.8976,0"/>
   <path d="m351.05,447.87-0.70865,0"/>
   <path d="m351.05,423.07,0,24.803"/>
   <path d="m350.34,423.07,0.70865,0"/>
   <path d="m350.34,447.87,0-24.803"/>
   <path d="m351.05,475.16-0.70865,0"/>
   <path d="m351.05,450.35-0.70865,0"/>
   <path d="m351.05,475.16,0-24.803"/>
   <path d="m350.34,450.35,0,24.803"/>
   <path d="m351.05,450.35,0-2.4804"/>
   <path d="m351.05,478.35,0-3.189"/>
   <path d="m350.34,450.35,0-2.4804"/>
   <path d="m350.34,478.35,0-3.189"/>
   <path d="m351.05,423.07,0-66.791"/>
   <path d="m350.34,423.07,0-66.791"/>
   <path d="m350.34,423.07,0.70865,0"/>
   <path d="m350.34,447.87,0.70865,0"/>
   <path d="m350.34,450.35,0.70865,0"/>
   <path d="m350.34,475.16,0.70865,0"/>
   <path d="m326.6,420.24,23.74,0"/>
   <path d="m327.31,420.94,23.032,0"/>
   <path d="m326.6,495.35,0.70865,0"/>
   <path d="m326.6,495.35,0-75.118"/>
   <path d="m965.46,283.82,0.53147,0"/>
   <path d="m966.08,283.73,11.073,0.0886"/>
   <path d="m1143.7,344.94,8.8583-19.134"/>
   <path d="m1143.7,325.81,8.8583,19.134"/>
   <path d="m1143.7,344.94,8.8583,0"/>
   <path d="m1143.7,325.81,8.8583,0"/>
   <path d="m1152.5,344.94,0-19.134"/>
   <path d="m1143.7,344.94,0-19.134"/>
   <path d="m1102.9,325.63,8.8583,0"/>
   <path d="m1102.9,344.94,8.8583-19.134"/>
   <path d="m1102.9,325.81,8.8583,19.134"/>
   <path d="m1102.9,344.94,8.8583,0"/>
   <path d="m1102.9,325.81,8.8583,0"/>
   <path d="m1111.8,344.94,0-19.134"/>
   <path d="m1102.9,344.94,0-19.134"/>
   <path d="m1146.7,593.59,0-17.008"/>
   <path d="m1149.2,593.59,0-17.008"/>
   <path d="m1146.7,593.59,2.4803,0"/>
   <path d="m1146.7,576.58,2.4803,0"/>
   <path d="m1149.2,546.82-2.4803,0"/>
   <path d="m1148.5,546.82,0-93.455"/>
   <path d="m1149.2,560.99,0-14.173"/>
   <path d="m1148.5,546.82,0-0.70865"/>
   <path d="m1146.7,560.99,2.4803,0"/>
   <path d="m1150.6,451.59,0,1.7716"/>
   <path d="m1148.5,453.37,2.126,0"/>
   <path d="m1146.7,451.59,0,108.87"/>
   <path d="m341.04,595.9-8.3268-2.9232"/>
   <path d="m341.04,595.9-8.3268-2.9232"/>
   <path d="m374.44,607.94,6.6437,2.3918"/>
   <path d="m374.44,607.94-1.6831-0.62006"/>
   <path d="m344.41,591.82-1.5945-0.62003"/>
   <path d="m1050.1,348.84,52.795,0"/>
   <path d="m1050.1,331.3,0,17.539"/>
   <path d="m1102.9,331.3-52.795,0"/>
   <path d="m1102.9,348.84,0-17.539"/>
   <path d="m1050.1,331.3,52.795,17.539"/>
   <path d="m1050.1,348.84,52.795-17.539"/>
   <path d="m1049.8,348.84,0.3543,0"/>
   <path d="m1050.1,331.3,52.795,0"/>
   <path d="m1050.1,331.3,0,17.539"/>
   <path d="m1049.8,330.94,0,17.894"/>
   <path d="m1049.8,330.94,52.795,0"/>
   <path d="m1143.7,325.81,1.4173,0"/>
   <path d="m1145.1,323.86,0,1.9488"/>
   <path d="m1143.7,323.86,0,1.9488"/>
   <path d="m1143.7,323.86,1.4173,0"/>
   <path d="m1149.5,600.68,0,1.7716"/>
   <path d="m1147.1,600.68,2.4803,0"/>
   <path d="m1147.1,602.45,0-1.7716"/>
   <path d="m1149.5,602.45-2.4803,0"/>
   <path d="m1149.5,618.04-2.4803,0"/>
   <path d="m213.57,544.69,1.6831,0.62004"/>
   <path d="m292.23,496.77,0-1.4173"/>
   <path d="m216.94,356.28,0.70866,0"/>
   <path d="m353.27,329-7.4409,0"/>
   <path d="m354.69,330.41-7.4409,0"/>
   <path d="m347.24,343.88,0-13.465"/>
   <path d="m354.69,343.88,0-13.465"/>
   <path d="m354.69,343.88-7.4409-13.465"/>
   <path d="m347.24,343.88,7.4409-13.465"/>
   <path d="m345.83,343.88,0-14.882"/>
   <path d="m353.27,327.49,0,1.5059"/>
   <path d="m354.69,330.41,0-2.9232"/>
   <path d="m354.77,327.4-1.5059,0.0886"/>
  </g>
  <g stroke="#000" stroke-width="0.7">
   <path d="m1117.9,415.45,4.6062,0"/>
   <path d="m1127.9,416.78,0-5.315"/>
   <path d="m1124.8,411.47,6.2008,0"/>
   <path d="m238.38,531.5,0-0.53147"/>
   <path d="m238.46,530.88,0.88582,0.0886"/>
   <path d="m239.08,530.96,0.26576,0"/>
   <path d="m238.11,531.5,0.97441,0"/>
   <path d="m238.11,531.5,0.26576,0"/>
   <path d="m239.35,530.96,0,0"/>
   <path d="m239.08,531.5,0-0.53147"/>
   <path d="m238.11,531.5,0,0"/>
   <path d="m238.11,531.5-0.26574,0"/>
   <path d="m237.84,532.2-0.62009,0"/>
   <path d="m237.31,532.12-0.0886-1.1516"/>
   <path d="m237.31,531.23,0-0.26574"/>
   <path d="m237.84,532.2,0-0.97438"/>
   <path d="m237.31,530.96,0-0.0886"/>
   <path d="m237.84,531.23-0.5315,0"/>
   <path d="m255.21,497.39,0-0.0886"/>
   <path d="m254.68,497.39,0-0.0886"/>
   <path d="m254.94,497.39-15.856,0"/>
   <path d="m239.35,498.01,12.49,0"/>
   <path d="m254.94,498.01,0-0.62009"/>
   <path d="m254.94,498.01-3.1004,0"/>
   <path d="m238.38,497.48,0,0.53153"/>
   <path d="m238.46,497.92,0.88582,0.0886"/>
   <path d="m239.08,497.92,0.26576,0"/>
   <path d="m238.11,497.39,0.97441,0"/>
   <path d="m238.11,497.48,0.26576,0"/>
   <path d="m239.35,497.92,0-0.0886"/>
   <path d="m239.08,497.39,0,0.53148"/>
   <path d="m238.11,497.39,0-0.0886"/>
   <path d="m238.11,497.39-0.26574,0"/>
   <path d="m237.84,496.77-0.62009,0"/>
   <path d="m237.31,496.68-0.0886,1.3287"/>
   <path d="m237.31,497.75,0,0.26574"/>
   <path d="m237.84,496.77,0,0.97444"/>
   <path d="m237.31,498.01,0-0.0886"/>
   <path d="m237.84,497.75-0.5315,0"/>
   <path d="m482.24,347.78,0-2.4803"/>
   <path d="m487.91,347.78-5.6692,0"/>
   <path d="m487.91,345.3,0,2.4803"/>
   <path d="m482.24,345.3,5.6692,0"/>
   <path d="m485.43,352.74-98.858,0"/>
   <path d="m485.43,348.31,0,4.4291"/>
   <path d="m395.43,348.31,90,0"/>
   <path d="m395.43,343.88,0,4.4291"/>
   <path d="m386.57,343.88,8.8583,0"/>
   <path d="m386.57,352.74,0-8.8583"/>
   <path d="m215.08,352.74,0-4.4291"/>
   <path d="m354.69,343.88,0,8.8583"/>
   <path d="m345.83,343.88,8.8583,0"/>
   <path d="m345.83,348.31,0-4.4291"/>
   <path d="m215.08,348.31,90,0"/>
   <path d="m206.22,347.78,0-2.4803"/>
   <path d="m225.35,347.78-19.134,0"/>
   <path d="m225.35,345.3,0,2.4803"/>
   <path d="m206.22,345.3,19.134,0"/>
   <path d="m458.86,384.71,0,0.26573"/>
   <path d="m408.45,357.87,0.35432,0"/>
   <path d="m408.81,358.23,0-0.35435"/>
   <path d="m408.45,357.87,0-0.26574"/>
   <path d="m408.81,358.23,14.439,0"/>
   <path d="m423.34,358.14-0.0886-0.26573"/>
   <path d="m423.51,357.87,0-0.26574"/>
   <path d="m423.25,357.87,0.26576,0"/>
   <path d="m408.45,357.61,15.059,0"/>
   <path d="m423.51,357.79,0.35433,0"/>
   <path d="m424.22,357.7,2.6575,0"/>
   <path d="m426.88,358.32,0.26576,0"/>
   <path d="m426.88,357.08,0.26576,0"/>
   <path d="m424.22,358.41,2.6575,0"/>
   <path d="m423.87,356.99,0.35433,0"/>
   <path d="m423.87,358.23,0.35433,0"/>
   <path d="m423.87,358.23,0-1.2402"/>
   <path d="m424.22,358.41,0-1.4173"/>
   <path d="m426.88,358.41,0-1.3287"/>
   <path d="m427.15,358.32,0-1.2402"/>
   <path d="m424.22,373.29,2.6575,0"/>
   <path d="m426.88,372.67,0.26576,0"/>
   <path d="m426.88,373.91,0.26576,0"/>
   <path d="m424.22,372.58,2.6575,0"/>
   <path d="m423.87,374,0.35433,0"/>
   <path d="m423.87,372.76,0.35433,0"/>
   <path d="m423.87,372.76,0,1.2402"/>
   <path d="m424.22,372.58,0,1.4174"/>
   <path d="m426.88,372.58,0,1.3287"/>
   <path d="m427.15,372.67,0,1.2401"/>
   <path d="m859.78,505.45,0,0.2658"/>
   <path d="m860.14,505.72-0.35435,0"/>
   <path d="m859.78,505.45-0.26573,0"/>
   <path d="m860.14,505.72,0,14.616"/>
   <path d="m860.23,520.25-0.44292,0.0886"/>
   <path d="m859.78,520.69-0.26573,0"/>
   <path d="m859.78,520.33,0,0.3543"/>
   <path d="m859.52,505.45,0,15.236"/>
   <path d="m859.61,520.69,0,0.35435"/>
   <path d="m860.05,521.04-1.2402,0"/>
   <path d="m887.33,506.43,0,0.26573"/>
   <path d="m886.98,506.43,0.35435,0"/>
   <path d="m887.33,506.69,0.26574,0"/>
   <path d="m886.98,506.43,0,13.907"/>
   <path d="m887.07,520.25,0.26574,0.0886"/>
   <path d="m887.33,520.69,0.26574,0"/>
   <path d="m887.33,520.33,0,0.3543"/>
   <path d="m887.6,506.69,0,13.996"/>
   <path d="m887.42,520.69,0,0.35435"/>
   <path d="m887.51,521.4,0,1.9488"/>
   <path d="m886.89,523.35,0,0.26573"/>
   <path d="m888.13,523.35,0,0.26573"/>
   <path d="m886.8,521.4,0,1.9488"/>
   <path d="m888.22,521.04,0,0.3543"/>
   <path d="m886.98,521.04,0,0.3543"/>
   <path d="m886.98,521.04,1.2402,0"/>
   <path d="m886.8,521.4,1.4174,0"/>
   <path d="m886.8,523.35,1.3287,0"/>
   <path d="m886.89,523.61,1.2401,0"/>
   <path d="m859.52,521.4,0,1.9488"/>
   <path d="m860.14,523.35,0,0.26573"/>
   <path d="m858.9,523.35,0,0.26573"/>
   <path d="m860.23,521.4,0,1.9488"/>
   <path d="m858.81,521.04,0,0.3543"/>
   <path d="m860.05,521.04,0,0.3543"/>
   <path d="m860.23,521.4-1.4173,0"/>
   <path d="m860.23,523.35-1.3287,0"/>
   <path d="m860.14,523.61-1.2402,0"/>
   <path d="m238.29,514.49-0.44291,0"/>
   <path d="m254.68,497.3,0.5315,0"/>
   <path d="m254.68,497.39,0.5315,0"/>
   <path d="m254.68,530.88,0.5315,0"/>
   <path d="m254.68,530.96,0.5315,0"/>
   <path d="m252.55,530.96,2.3917,0"/>
   <path d="m255.21,530.88,0-0.0886"/>
   <path d="m254.68,530.88,0-0.0886"/>
   <path d="m252.11,531.5-13.022,0"/>
   <path d="m239.35,530.96,13.465,0"/>
   <path d="m254.94,530.96,0,0.53147"/>
   <path d="m255.03,531.41-2.9232,0.0886"/>
   <path d="m423.51,450.44,0.35433,0"/>
   <path d="m424.22,450.53,2.6575,0"/>
   <path d="m426.88,449.91,0.26576,0"/>
   <path d="m426.88,451.15,0.26576,0"/>
   <path d="m424.22,449.82,2.6575,0"/>
   <path d="m423.87,451.24,0.35433,0"/>
   <path d="m423.87,450,0.35433,0"/>
   <path d="m423.87,450,0,1.2402"/>
   <path d="m424.22,449.82,0,1.4174"/>
   <path d="m426.88,449.82,0,1.3287"/>
   <path d="m427.15,449.91,0,1.2401"/>
   <path d="m424.22,434.94,2.6575,0"/>
   <path d="m426.88,435.56,0.26576,0"/>
   <path d="m426.88,434.32,0.26576,0"/>
   <path d="m424.22,435.65,2.6575,0"/>
   <path d="m423.87,434.23,0.35433,0"/>
   <path d="m423.87,435.47,0.35433,0"/>
   <path d="m423.87,435.47,0-1.2401"/>
   <path d="m424.22,435.65,0-1.4173"/>
   <path d="m426.88,435.65,0-1.3287"/>
   <path d="m427.15,435.56,0-1.2402"/>
   <path d="m408.45,410.58,0.35432,0"/>
   <path d="m408.81,410.23,0,0.35435"/>
   <path d="m408.45,410.58,0,0.26574"/>
   <path d="m408.81,410.23,14.439,0"/>
   <path d="m423.34,410.14-0.0886,0.44292"/>
   <path d="m423.51,410.58,0,0.26574"/>
   <path d="m423.25,410.58,0.26576,0"/>
   <path d="m408.45,410.85,15.059,0"/>
   <path d="m423.51,410.76,0.35433,0"/>
   <path d="m424.22,410.85,2.6575,0"/>
   <path d="m426.88,410.23,0.26576,0"/>
   <path d="m426.88,411.47,0.26576,0"/>
   <path d="m424.22,410.14,2.6575,0"/>
   <path d="m423.87,411.56,0.35433,0"/>
   <path d="m423.87,410.31,0.35433,0"/>
   <path d="m423.87,410.31,0,1.2401"/>
   <path d="m424.22,410.14,0,1.4173"/>
   <path d="m426.88,410.14,0,1.3288"/>
   <path d="m427.15,410.23,0,1.2402"/>
   <path d="m424.22,395.26,2.6575,0"/>
   <path d="m426.88,395.88,0.26576,0"/>
   <path d="m426.88,394.64,0.26576,0"/>
   <path d="m424.22,395.96,2.6575,0"/>
   <path d="m423.87,394.55,0.35433,0"/>
   <path d="m423.87,395.79,0.35433,0"/>
   <path d="m423.87,395.79,0-1.2401"/>
   <path d="m424.22,395.96,0-1.4173"/>
   <path d="m426.88,395.96,0-1.3287"/>
   <path d="m427.15,395.88,0-1.2402"/>
   <path d="m447.52,397.91,0.44291,0"/>
   <path d="m447.25,398.09,0.26577,0"/>
   <path d="m447.61,398-0.0886-0.0886"/>
   <path d="m447.96,387.19,0,10.719"/>
   <path d="m447.96,387.19-0.44291,0"/>
   <path d="m447.52,387.02,0,0.17712"/>
   <path d="m447.52,387.02-0.26577,0"/>
   <path d="m447.34,386.93-0.0886,11.161"/>
   <path d="m447.43,386.84-0.17718,0"/>
   <path d="m447.34,386.75,0,0.26579"/>
   <path d="m446.55,386.4,0,0.3543"/>
   <path d="m424.93,372.67-0.35435,0"/>
   <path d="m421.39,372.22-0.35436-0.0886"/>
   <path d="m418.11,371.07-0.35433-0.17718"/>
   <path d="m415.1,369.12-0.26576-0.26574"/>
   <path d="m412.71,366.56-0.17715-0.3543"/>
   <path d="m411.02,363.45-0.17717-0.3543"/>
   <path d="m410.05,360,0-0.26579"/>
   <path d="m254.94,497.39,0,0.35435"/>
   <path d="m254.5,500.94,0,0.26574"/>
   <path d="m251.66,507.31-0.17718,0.26574"/>
   <path d="m249.36,509.97-0.26574,0.26574"/>
   <path d="m246.53,512.1-0.35433,0.17717"/>
   <path d="m243.34,513.51-0.35435,0.17718"/>
   <path d="m239.88,514.31-0.35433,0.0886"/>
   <path d="m238.38,514.4,0.26574,0.0886"/>
   <path d="m241.83,514.93,0.26574,0.0886"/>
   <path d="m248.12,517.94,0.26574,0.17718"/>
   <path d="m250.78,520.33,0.17715,0.26574"/>
   <path d="m252.73,523.26,0.17717,0.26574"/>
   <path d="m254.14,526.45,0.0886,0.35435"/>
   <path d="m254.85,529.99,0,0.35435"/>
   <path d="m1069.6,385.87,4.6063,0"/>
   <path d="m663.48,488.18,3.8977,0"/>
   <path d="m668.89,485.61,6.2008,0"/>
   <path d="m606.44,573.4,3.9862,0"/>
   <path d="m611.93,570.74,6.2008,0"/>
   <path d="m442.65,473.74,4.6063,0"/>
   <path d="m302.07,535.39,3.8976,0"/>
   <path d="m307.56,532.82,6.1122,0"/>
   <path d="m330.32,535.39,3.9862,0"/>
   <path d="m424.75,445.84,3.9862,0"/>
   <path d="m430.25,443.27,6.2008,0"/>
   <path d="m437.95,445.84,3.9862,0"/>
   <path d="m450.8,445.84,3.8976,0"/>
   <path d="m426.79,396.41,3.8977,0"/>
   <path d="m432.19,393.84,6.2008,0"/>
   <path d="m454.96,396.41,3.9862,0"/>
   <path d="m443.89,368.68,3.8976,0"/>
   <path d="m449.38,366.02,6.2008,0"/>
   <path d="m457.09,368.68,3.8977,0"/>
   <path d="m446.63,384.71,0,0.26573"/>
   <path d="m447.25,384.98,0,1.4174"/>
   <path d="m447.79,386.4,0,0.3543"/>
   <path d="m447.87,384.71,0,0.26573"/>
   <path d="m447.79,386.75-1.2402,0"/>
   <path d="m447.96,386.4-1.4173,0"/>
   <path d="m447.96,384.98-1.3287,0"/>
   <path d="m447.87,384.71-1.2402,0"/>
   <path d="m460.19,386.75-1.2402,0"/>
   <path d="m460.19,386.4-1.4173,0"/>
   <path d="m460.1,384.98-1.3287,0"/>
   <path d="m458.95,386.4,0,0.3543"/>
   <path d="m460.1,384.71-1.2402,0"/>
   <path d="m459.48,384.98,0,1.4174"/>
   <path d="m460.19,386.4,0,0.3543"/>
   <path d="m460.1,384.71,0,0.26573"/>
   <path d="m447.96,384.98,0,1.4174"/>
   <path d="m458.77,384.98,0,1.4174"/>
   <path d="m351.05,478.97,0.26576,0"/>
   <path d="m351.05,477.73,0.26576,0"/>
   <path d="m350.34,479.06,0.70865,0"/>
   <path d="m349.99,477.64,0.35433,0"/>
   <path d="m349.99,478.88,0.35433,0"/>
   <path d="m349.99,478.88,0-1.2401"/>
   <path d="m350.34,479.06,0-1.4173"/>
   <path d="m351.05,479.06,0-1.3287"/>
   <path d="m351.32,478.97,0-1.2402"/>
   <path d="m459.3,423.34-0.44291,0"/>
   <path d="m459.57,423.16-0.26574,0"/>
   <path d="m459.39,423.07-0.0886,0.26579"/>
   <path d="m458.86,434.06,0-10.718"/>
   <path d="m458.86,434.06,0.44291,0"/>
   <path d="m459.3,434.23,0-0.17717"/>
   <path d="m459.3,434.23,0.26574,0"/>
   <path d="m459.66,434.14-0.0886-10.984"/>
   <path d="m459.3,434.41,0.26574,0"/>
   <path d="m459.48,434.59,0-0.3543"/>
   <path d="m460.19,434.94,0-0.35435"/>
   <path d="m460.1,436.62,0-0.26579"/>
   <path d="m459.48,436.36,0-1.4173"/>
   <path d="m458.95,434.94,0-0.35435"/>
   <path d="m458.86,436.62,0-0.26579"/>
   <path d="m458.95,434.59,1.2402,0"/>
   <path d="m458.77,434.94,1.4173,0"/>
   <path d="m458.77,436.36,1.3287,0"/>
   <path d="m458.86,436.62,1.2402,0"/>
   <path d="m446.55,434.59,1.2402,0"/>
   <path d="m446.55,434.94,1.4173,0"/>
   <path d="m446.63,436.36,1.3287,0"/>
   <path d="m447.79,434.94,0-0.35435"/>
   <path d="m446.63,436.62,1.2402,0"/>
   <path d="m447.25,436.36,0-1.4173"/>
   <path d="m446.55,434.94,0-0.35435"/>
   <path d="m446.63,436.62,0-0.26579"/>
   <path d="m458.77,436.36,0-1.4173"/>
   <path d="m447.96,436.36,0-1.4173"/>
   <path d="m447.87,436.62,0-0.26579"/>
   <path d="m478.44,423.34-0.44292,0"/>
   <path d="m478.7,423.16-0.26579,0"/>
   <path d="m478.52,423.07-0.0886,0.26579"/>
   <path d="m477.99,434.06,0-10.718"/>
   <path d="m477.99,434.06,0.44292,0"/>
   <path d="m478.44,434.23,0-0.17717"/>
   <path d="m478.44,434.23,0.26579,0"/>
   <path d="m478.79,434.14-0.0886-10.984"/>
   <path d="m478.44,434.41,0.26579,0"/>
   <path d="m478.61,434.59,0-0.3543"/>
   <path d="m479.32,434.94,0-0.35435"/>
   <path d="m479.23,436.62,0-0.26579"/>
   <path d="m478.61,436.36,0-1.4173"/>
   <path d="m478.08,434.94,0-0.35435"/>
   <path d="m477.99,436.62,0-0.26579"/>
   <path d="m478.08,434.59,1.2401,0"/>
   <path d="m477.9,434.94,1.4173,0"/>
   <path d="m477.9,436.36,1.3287,0"/>
   <path d="m477.99,436.62,1.2402,0"/>
   <path d="m465.68,434.59,1.2401,0"/>
   <path d="m465.68,434.94,1.4173,0"/>
   <path d="m465.77,436.36,1.3287,0"/>
   <path d="m466.92,434.94,0-0.35435"/>
   <path d="m465.77,436.62,1.2402,0"/>
   <path d="m466.39,436.36,0-1.4173"/>
   <path d="m465.68,434.94,0-0.35435"/>
   <path d="m465.77,436.62,0-0.26579"/>
   <path d="m477.9,436.36,0-1.4173"/>
   <path d="m467.1,436.36,0-1.4173"/>
   <path d="m467.01,436.62,0-0.26579"/>
   <path d="m408.45,450.27,0.35432,0"/>
   <path d="m408.81,449.91,0,0.3543"/>
   <path d="m408.45,450.27,0,0.26573"/>
   <path d="m408.81,449.91,14.439,0"/>
   <path d="m423.34,449.82-0.0886,0.44292"/>
   <path d="m423.51,450.27,0,0.26573"/>
   <path d="m423.25,450.27,0.26576,0"/>
   <path d="m408.45,450.53,15.059,0"/>
   <path d="m860.4,453.9-1.2401,0"/>
   <path d="m877.94,455.67,0,0.3543"/>
   <path d="m877.23,454.25,0,1.4174"/>
   <path d="m876.7,455.67,0,0.3543"/>
   <path d="m876.53,454.25,0,1.4174"/>
   <path d="m877.94,453.9,0,0.3543"/>
   <path d="m876.7,453.9,0,0.3543"/>
   <path d="m876.7,453.9,1.2401,0"/>
   <path d="m876.53,454.25,1.4173,0"/>
   <path d="m876.53,455.67,1.4173,0"/>
   <path d="m876.7,456.02,1.2401,0"/>
   <path d="M927.11,317.75,909.57,280.1"/>
   <path d="m922.41,264.77-25.158,30.03"/>
   <path d="m921.7,264.15-25.158,30.118"/>
   <path d="M937.38,312.96,917.63,270.53"/>
   <path d="m937.38,312.96-20.197,9.3898"/>
   <path d="m935.08,308.18-20.197,9.3898"/>
   <path d="m932.86,303.31-20.197,9.3897"/>
   <path d="m930.65,298.52-20.197,9.3897"/>
   <path d="m928.35,293.74-20.108,9.3012"/>
   <path d="m926.13,288.87-20.108,9.3898"/>
   <path d="m923.92,284.08-20.108,9.3012"/>
   <path d="m921.7,279.21-18.691,8.6811"/>
   <path d="m919.4,274.43-8.3268,3.8977"/>
   <path d="m1097,431.66,0,1.2402"/>
   <path d="m1097,417.31,0-1.2401"/>
   <path d="m1079.6,416.87,0.3544,0"/>
   <path d="m1079.9,417.22,0-0.35435"/>
   <path d="m1079.6,416.87,0-0.26574"/>
   <path d="m1079.9,417.22,14.439,0"/>
   <path d="m1094.4,417.14-0.089-0.26579"/>
   <path d="m1094.6,416.87,0-0.26574"/>
   <path d="m1094.4,416.87,0.2657,0"/>
   <path d="m1079.6,416.6,15.059,0"/>
   <path d="m1094.6,416.78,0.3544,0"/>
   <path d="m1095.3,416.69,1.4173,0"/>
   <path d="m1096.7,417.31,0.2658,0"/>
   <path d="m1096.7,416.07,0.2658,0"/>
   <path d="m1095.3,417.4,1.4173,0"/>
   <path d="m1095,415.98,0.3543,0"/>
   <path d="m1095,417.22,0.3543,0"/>
   <path d="m1095,417.22,0-1.2402"/>
   <path d="m1095.3,417.4,0-1.4174"/>
   <path d="m1096.7,417.4,0-1.3288"/>
   <path d="m1095.3,432.28,1.4173,0"/>
   <path d="m1096.7,431.66,0.2658,0"/>
   <path d="m1096.7,432.9,0.2658,0"/>
   <path d="m1095.3,431.57,1.4173,0"/>
   <path d="m1095,432.99,0.3543,0"/>
   <path d="m1095,431.75,0.3543,0"/>
   <path d="m1095,431.75,0,1.2401"/>
   <path d="m1095.3,431.57,0,1.4173"/>
   <path d="m1096.7,431.57,0,1.3287"/>
   <path d="m334.58,493.67,0.35433,0"/>
   <path d="m334.93,493.32,0,0.3543"/>
   <path d="m334.58,493.67,0,0.26574"/>
   <path d="m334.93,493.32,14.439,0"/>
   <path d="m349.46,493.23-0.0886,0.44291"/>
   <path d="m349.64,493.67,0,0.26574"/>
   <path d="m349.37,493.67,0.26577,0"/>
   <path d="m334.58,493.94,15.059,0"/>
   <path d="m349.64,493.85,0.35432,0"/>
   <path d="m350.34,493.94,0.70865,0"/>
   <path d="m351.05,493.32,0.26576,0"/>
   <path d="m351.05,494.56,0.26576,0"/>
   <path d="m350.34,493.23,0.70865,0"/>
   <path d="m349.99,494.65,0.35433,0"/>
   <path d="m349.99,493.41,0.35433,0"/>
   <path d="m349.99,493.41,0,1.2402"/>
   <path d="m350.34,493.23,0,1.4174"/>
   <path d="m351.05,493.23,0,1.3287"/>
   <path d="m351.32,493.32,0,1.2401"/>
   <path d="m350.34,478.35,0.70865,0"/>
   <path d="m978.57,544.61,0-4.4291"/>
   <path d="m966.17,544.61,0-4.4291"/>
   <path d="m736.21,549.04,105.59,0"/>
   <path d="m856.33,544.61,2.126,0"/>
   <path d="m734.08,544.61,109.84,0"/>
   <path d="m841.8,550.81,16.654,0"/>
   <path d="m843.93,540.18,12.402,0"/>
   <path d="m858.45,550.81,0-6.2008"/>
   <path d="m841.8,550.81,0-1.7717"/>
   <path d="m856.33,544.61,0-4.4291"/>
   <path d="m843.93,544.61,0-4.4291"/>
   <path d="m719.56,550.81,16.654,0"/>
   <path d="m721.68,540.18,12.402,0"/>
   <path d="m736.21,550.81,0-1.7717"/>
   <path d="m719.56,550.81,0-1.7717"/>
   <path d="m734.08,544.61,0-4.4291"/>
   <path d="m721.68,544.61,0-4.4291"/>
   <path d="m613.97,549.04,105.59,0"/>
   <path d="m611.84,544.61,109.84,0"/>
   <path d="m597.31,550.81,16.654,0"/>
   <path d="m599.44,540.18,12.402,0"/>
   <path d="m613.97,550.81,0-1.7717"/>
   <path d="m597.31,550.81,0-1.7717"/>
   <path d="m611.84,544.61,0-4.4291"/>
   <path d="m599.44,544.61,0-4.4291"/>
   <path d="m491.72,549.04,105.59,0"/>
   <path d="m491.72,544.61,107.72,0"/>
   <path d="m489.95,544.61,1.7716,0"/>
   <path d="m485.34,540.18,4.6063,0"/>
   <path d="m491.72,550.81,0-1.7717"/>
   <path d="m489.95,544.61,0-4.4291"/>
   <path d="m481.98,550.81,0-3.5433"/>
   <path d="m477.37,547.26,4.6062,0"/>
   <path d="m477.37,547.26,0-3.5433"/>
   <path d="m481.98,550.81,9.7441,0"/>
   <path d="m477.37,543.72,7.9724,0"/>
   <path d="m485.34,358.05,0,185.67"/>
   <path d="m480.92,543.72,0-185.67"/>
   <path d="m452.57,358.05,97.087,0"/>
   <path d="m548.95,334.4,1.5945,0.79726"/>
   <path d="m549.66,336.79,0.88583-1.5945"/>
   <path d="m547,337.94,1.9488-3.5433"/>
   <path d="m556.56,343.17-6.9094-6.378"/>
   <path d="m551.6,342.81-4.6063-4.872"/>
   <path d="m549.66,358.05,6.9094-14.882"/>
   <path d="m547,352.74,4.6063-9.9213"/>
   <path d="m538.14,352.74,0,3.5433"/>
   <path d="m538.23,356.19,1.6831,0.0886"/>
   <path d="m540,356.19-0.0886,1.8603"/>
   <path d="m495.62,356.28,1.7716,0"/>
   <path d="m497.39,352.74,0,3.5433"/>
   <path d="m495.62,356.28,0,1.7716"/>
   <path d="m452.57,356.28,0,1.7716"/>
   <path d="m426.88,356.28,25.689,0"/>
   <path d="m424.22,357.7,2.6575,0"/>
   <path d="m426.88,356.28,0,1.4173"/>
   <path d="m424.22,356.28,0,1.4173"/>
   <path d="m386.93,352.74,0,3.5433"/>
   <path d="m354.33,352.74,0,3.5433"/>
   <path d="m216.94,352.74,0,3.5433"/>
   <path d="m876.97,436.89,0-0.26573"/>
   <path d="m876.97,453.45,0-0.26579"/>
   <path d="m877.32,436.62-0.35436,0"/>
   <path d="m876.97,436.89-0.35435,0"/>
   <path d="m876.61,453.19,0-16.299"/>
   <path d="m876.97,453.19-0.35435,0"/>
   <path d="m877.32,453.45-0.35436,0"/>
   <path d="m877.32,453.45,0-16.831"/>
   <path d="m877.23,453.63-0.26574,0"/>
   <path d="m877.15,453.45,0,0.44291"/>
   <path d="m859.16,454.25,0-0.3543"/>
   <path d="m859.87,455.67,0-1.4174"/>
   <path d="m860.4,454.25,0-0.3543"/>
   <path d="m860.58,455.67,0-1.4174"/>
   <path d="m859.16,456.02,0-0.3543"/>
   <path d="m860.4,456.02,0-0.3543"/>
   <path d="m860.4,456.02-1.2401,0"/>
   <path d="m860.58,455.67-1.4173,0"/>
   <path d="m860.58,454.25-1.4173,0"/>
   <path d="m408.81,410.58,0-0.35435"/>
   <path d="m409.25,407.13,0.0886-0.3543"/>
   <path d="m410.49,403.76,0.17718-0.26574"/>
   <path d="m412.53,400.93,0.26574-0.26574"/>
   <path d="m415.19,398.53,0.26574-0.17718"/>
   <path d="m418.29,396.85,0.35433-0.0886"/>
   <path d="m421.65,395.96,0.35433,0"/>
   <path d="m458.95,386.49,0,0.35435"/>
   <path d="m458.5,389.94-0.0886,0.35429"/>
   <path d="m456.91,393.13-0.17718,0.26574"/>
   <path d="m454.52,395.7-0.26573,0.17718"/>
   <path d="m451.42,397.38-0.26577,0.0886"/>
   <path d="m447.79,434.85,0-0.35435"/>
   <path d="m448.32,431.31,0.0886-0.35436"/>
   <path d="M449.82,428.12,450,427.85"/>
   <path d="m452.21,425.55,0.26573-0.17717"/>
   <path d="m455.31,423.87,0.35435-0.0886"/>
   <path d="m466.92,434.85,0-0.35435"/>
   <path d="m467.45,431.31,0.0886-0.35436"/>
   <path d="m468.96,428.12,0.17713-0.26574"/>
   <path d="m471.35,425.55,0.26579-0.17717"/>
   <path d="m474.45,423.87,0.35435-0.0886"/>
   <path d="m408.81,450.27,0-0.3543"/>
   <path d="m409.25,446.81,0.0886-0.35435"/>
   <path d="m410.49,443.44,0.17718-0.26574"/>
   <path d="m412.53,440.61,0.26574-0.26579"/>
   <path d="m415.19,438.22,0.26574-0.17718"/>
   <path d="m418.29,436.54,0.35433-0.0886"/>
   <path d="m421.65,435.65,0.35433,0"/>
   <path d="m1095.3,431.66-0.3543,0"/>
   <path d="m1091.8,431.13-0.2658-0.17718"/>
   <path d="m1088.6,429.71-0.3543-0.17712"/>
   <path d="m1085.8,427.68-0.2657-0.26574"/>
   <path d="m1083.5,424.93-0.1771-0.26573"/>
   <path d="m1081.9,421.74-0.089-0.26573"/>
   <path d="m1081.1,418.38,0-0.35429"/>
   <path d="m334.93,493.67,0-0.3543"/>
   <path d="m335.37,490.22,0.0886-0.35435"/>
   <path d="m336.61,486.85,0.17718-0.26574"/>
   <path d="m338.65,484.02,0.26577-0.26579"/>
   <path d="m341.31,481.62,0.26577-0.17718"/>
   <path d="m344.41,479.94,0.35435-0.0886"/>
   <path d="m347.78,479.06,0.35432,0"/>
   <path d="m860.05,454.16,0-0.35436"/>
   <path d="m860.4,450.62,0-0.35435"/>
   <path d="m863.06,444.15,0.17718-0.2658"/>
   <path d="m865.36,441.41,0.26574-0.17718"/>
   <path d="m868.2,439.37,0.26579-0.17718"/>
   <path d="m871.39,437.86,0.35429-0.17717"/>
   <path d="m874.84,437.07,0.35435-0.0886"/>
   <path d="m429.54,548.15,0-4.4291"/>
   <path d="m425.11,543.72,4.4291,0"/>
   <path d="m425.11,548.15,4.4291,0"/>
   <path d="m426.88,450.53-2.6575,0"/>
   <path d="m426.88,451.59,0-1.063"/>
   <path d="m424.22,451.59,0-1.063"/>
   <path d="m424.22,461.16,3.5433,0"/>
   <path d="m427.85,461.07-0.0886-6.8209"/>
   <path d="m427.77,487.56,0-1.5945"/>
   <path d="m424.22,461.16,0-9.5669"/>
   <path d="m424.22,490.22,0-4.252"/>
   <path d="m424.31,485.88,3.4547,0.0886"/>
   <path d="m424.22,490.22,56.693,0"/>
   <path d="m427.77,487.56,53.15,0"/>
   <path d="m427.77,454.25,53.15,0"/>
   <path d="m426.88,451.59,54.035,0"/>
   <path d="m562.85,306.76,0.26574-0.62009"/>
   <path d="m561.53,306.23,1.3287,0.53147"/>
   <path d="m562.41,304.28-0.88583,1.9488"/>
   <path d="m564.54,305.7,0-1.4173"/>
   <path d="m562.77,318.37,4.4291,0"/>
   <path d="m562.77,325.45,0-7.0866"/>
   <path d="m567.19,325.45,0-7.0866"/>
   <path d="m562.77,325.45,4.4291,0"/>
   <path d="m888.75,318.37,4.4291,0"/>
   <path d="m888.75,325.45,0-7.0866"/>
   <path d="m893.18,325.45,0-7.0866"/>
   <path d="m888.75,325.45,4.4291,0"/>
   <path d="m807.25,318.37,4.4291,0"/>
   <path d="m807.25,325.45,0-7.0866"/>
   <path d="m811.68,325.45,0-7.0866"/>
   <path d="m807.25,325.45,4.4291,0"/>
   <path d="m725.76,318.37,4.4291,0"/>
   <path d="m725.76,325.45,0-7.0866"/>
   <path d="m730.19,325.45,0-7.0866"/>
   <path d="m725.76,325.45,4.4291,0"/>
   <path d="m644.26,318.37,4.4291,0"/>
   <path d="m644.26,325.45,0-7.0866"/>
   <path d="m648.69,325.45,0-7.0866"/>
   <path d="m644.26,325.45,4.4291,0"/>
   <path d="m562.77,460.1,0-4.4291"/>
   <path d="m567.19,460.1,0-4.4291"/>
   <path d="m562.77,455.67,4.4291,0"/>
   <path d="m562.77,460.1,4.4291,0"/>
   <path d="m644.26,460.1,0-4.4291"/>
   <path d="m648.69,460.1,0-4.4291"/>
   <path d="m644.26,455.67,4.4291,0"/>
   <path d="m644.26,460.1,4.4291,0"/>
   <path d="m725.76,460.1,0-4.4291"/>
   <path d="m730.19,460.1,0-4.4291"/>
   <path d="m725.76,455.67,4.4291,0"/>
   <path d="m725.76,460.1,4.4291,0"/>
   <path d="m807.25,460.1,0-4.4291"/>
   <path d="m811.68,460.1,0-4.4291"/>
   <path d="m807.25,455.67,4.4291,0"/>
   <path d="m807.25,460.1,4.4291,0"/>
   <path d="m888.75,460.1,0-4.4291"/>
   <path d="m893.18,460.1,0-4.4291"/>
   <path d="m888.75,460.1,4.4291,0"/>
   <path d="m970.25,460.1,0-4.4291"/>
   <path d="m974.68,460.1,0-4.4291"/>
   <path d="m970.25,455.67,4.4291,0"/>
   <path d="m970.25,460.1,4.4291,0"/>
   <path d="m1092.7,460.1,0-4.4291"/>
   <path d="m1097.1,460.1,0-4.4291"/>
   <path d="m1092.7,455.67,4.4292,0"/>
   <path d="m1092.7,460.1,4.4292,0"/>
   <path d="m1094.1,460.1,0,80.079"/>
   <path d="m1096.7,460.1,0,80.079"/>
   <path d="m980.7,544.61,107.54,0"/>
   <path d="m1086.5,550.81,10.63,0"/>
   <path d="m1088.2,540.18,8.8583,0"/>
   <path d="m1086.5,549.04,0,1.7717"/>
   <path d="m1097.1,550.81,0-10.63"/>
   <path d="m1088.2,544.61,0-4.4291"/>
   <path d="m980.7,549.04,105.77,0"/>
   <path d="m964.05,544.61,2.1259,0"/>
   <path d="m978.57,544.61,2.126,0"/>
   <path d="m964.05,550.81,16.653,0"/>
   <path d="m966.17,540.18,12.402,0"/>
   <path d="m980.7,550.81,0-1.7717"/>
   <path d="m964.05,550.81,0-6.2008"/>
   <path d="m375.94,598.46,1.2402-3.3661"/>
   <path d="m216.58,541.06,129.33,46.595"/>
   <path d="M347.16,584.29,217.82,537.7"/>
   <path d="m345.92,587.66,1.2402-3.3662"/>
   <path d="m217.82,537.7-1.2402,3.3661"/>
   <path d="m241.74,482.07,0,2.6575"/>
   <path d="m216.94,484.72,24.803,0"/>
   <path d="m216.94,482.07,24.803,0"/>
   <path d="m216.94,482.07,0,2.6575"/>
   <path d="m1092.7,415.81,0-4.4291"/>
   <path d="m1097.1,415.81,0-4.4291"/>
   <path d="m1092.7,411.38,4.4292,0"/>
   <path d="m1092.7,415.81,4.4292,0"/>
   <path d="m899.2,549.92,0-5.315"/>
   <path d="m888.57,549.92,0-5.315"/>
   <path d="m888.57,549.92,10.63,0"/>
   <path d="m888.57,544.61,10.63,0"/>
   <path d="m894.51,306.41-1.1516,0.3543"/>
   <path d="m892.82,305.7,0.53147,1.063"/>
   <path d="m893.53,304.28,0.97439,2.126"/>
   <path d="m891.41,304.28,2.126,0"/>
   <path d="m891.41,305.7,1.4174,0"/>
   <path d="m891.41,305.7,0-1.4173"/>
   <path d="m964.93,345.3,0,2.6575"/>
   <path d="m913.73,327.67,1.5945-0.7087"/>
   <path d="m915.24,330.86,4.7835-2.2146"/>
   <path d="m899.38,292.23,15.945,34.724"/>
   <path d="m901.86,289.22,18.159,39.419"/>
   <path d="m913.73,327.67,1.5059,3.189"/>
   <path d="m1048.9,355.93,62.894,0"/>
   <path d="m974.5,355.93,60.236,0"/>
   <path d="m968.83,352.74-10.276,0"/>
   <path d="m1034.7,348.84-52.087,0"/>
   <path d="m1048.9,355.93,0-2.6575"/>
   <path d="m1034.7,355.93,0-7.0866"/>
   <path d="m974.5,355.93,0,3.0118"/>
   <path d="m958.55,358.94,15.945,0"/>
   <path d="m982.65,345.3-17.717,0"/>
   <path d="m982.65,345.3,0,3.5433"/>
   <path d="m968.83,352.74,0-4.7835"/>
   <path d="m968.92,347.86-3.9862,0.0886"/>
   <path d="m958.55,352.74,0,6.2008"/>
   <path d="m903.63,340.87,5.315,11.87"/>
   <path d="m907.88,336.08-4.252,4.7834"/>
   <path d="m906.11,332.36,1.7716,3.7205"/>
   <path d="m904.87,332.98,1.2402-0.62008"/>
   <path d="m905.4,334.22-0.53147-1.2401"/>
   <path d="m898.58,340.25,6.8208-6.0236"/>
   <path d="M907.18,358.94,898.58,340.25"/>
   <path d="m907.18,358.94,12.402,0"/>
   <path d="m919.58,352.74-10.63,0"/>
   <path d="m919.58,352.74,0,6.2008"/>
   <path d="m425.11,548.15,0-4.4291"/>
   <path d="m562.41,304.28,2.126,0"/>
   <path d="m564.54,305.7-1.4173,0.44291"/>
   <path d="m427.23,531.85,6.2008-1.5945"/>
   <path d="m433.44,533.36-6.2008-1.5059"/>
   <path d="m427.23,531.85,42.431,0"/>
   <path d="m927.11,317.75-4.0748-4.9607"/>
   <path d="m925.87,311.46,1.2402,6.2894"/>
   <path d="m427.23,519.98,31.181,0"/>
   <path d="m477.37,543.72-47.835,0"/>
   <path d="m427.23,543.72,0-53.504"/>
   <path d="m888.75,455.67,4.4291,0"/>
   <path d="m901.86,289.22-2.4803,3.0118"/>
   <path d="m427.77,485.96-0.70865,0"/>
   <path d="m427.77,461.16-0.70865,0"/>
   <path d="m427.15,461.07-0.0886,24.892"/>
   <path d="m427.77,461.16,0,24.803"/>
   <path d="m901.86,289.22,15.325,33.13"/>
   <path d="m469.67,500.05,0,31.801"/>
   <path d="m427.23,531.85,42.431,0"/>
   <path d="m427.23,500.05,42.431,0"/>
   <path d="m453.99,543.72,0-23.74"/>
   <path d="m449.56,543.72,0-23.74"/>
   <path d="m445.04,543.72,0-23.74"/>
   <path d="m440.61,543.72,0-23.74"/>
   <path d="m436.18,543.72,0-23.74"/>
   <path d="m431.66,543.72,0-23.74"/>
   <path d="m452.21,509.88,0-19.665"/>
   <path d="m447.79,509.88,0-19.665"/>
   <path d="m443.27,509.88,0-19.665"/>
   <path d="m438.84,509.88,0-19.665"/>
   <path d="m434.41,509.88,0-19.665"/>
   <path d="m429.89,509.88,0-19.665"/>
   <path d="m480.92,490.22,0,53.504"/>
   <path d="m427.23,490.22,53.681,0"/>
   <path d="m427.23,543.72,0-23.74"/>
   <path d="m456.64,509.88,0-19.665"/>
   <path d="m458.42,543.72,0-33.839"/>
   <path d="m427.23,509.88,31.181,0"/>
   <path d="m427.23,543.72,53.681,0"/>
   <path d="m1146.7,561.61-0.2658,0"/>
   <path d="m1146.7,560.37-0.2658,0"/>
   <path d="m1149.2,561.7-2.4803,0"/>
   <path d="m1149.5,560.29-0.3543,0"/>
   <path d="m1149.5,561.53-0.3543,0"/>
   <path d="m1149.5,561.53,0-1.2402"/>
   <path d="m1149.2,561.7,0-1.4173"/>
   <path d="m1146.7,561.7,0-1.3287"/>
   <path d="m1146.4,561.61,0-1.2402"/>
   <path d="m1151.4,468.34,0.4429,0"/>
   <path d="m1151,468.51,0.4429,0"/>
   <path d="m1151.4,468.34,0,0.17717"/>
   <path d="m1151.8,454.07,0,14.262"/>
   <path d="m1151.8,454.07-0.4429,0"/>
   <path d="m333.34,437.42,3.9862,0"/>
   <path d="m338.83,434.85,6.2008,0"/>
   <path d="m266.99,434.5,3.8976,0"/>
   <path d="m272.48,431.84,6.2008,0"/>
   <path d="m1151.4,453.9,0,0.17712"/>
   <path d="m1151.4,453.9-0.4429,0"/>
   <path d="m1151,453.81-0.089,14.705"/>
   <path d="m1151.1,453.72-0.1771,0"/>
   <path d="m1151,453.63,0,0.26579"/>
   <path d="m1150,453.37,0,0.26574"/>
   <path d="m1150,451.33,0,0.26574"/>
   <path d="m1150.6,451.59,0,1.7716"/>
   <path d="m1151.1,453.37,0,0.26574"/>
   <path d="m1151.1,451.33,0,0.26574"/>
   <path d="m1151.1,453.63-1.1516,0"/>
   <path d="m1151.3,453.37-1.3287,0"/>
   <path d="m1151.3,451.59-1.3287,0"/>
   <path d="m1151.1,451.33-1.1516,0"/>
   <path d="m1151.3,451.59,0,1.7716"/>
   <path d="m324.39,497.04,1.2402,0"/>
   <path d="m324.83,479.59,0,0.26573"/>
   <path d="m324.48,479.85,0.35435,0"/>
   <path d="m324.83,479.59,0.26574,0"/>
   <path d="m324.48,479.85,0,14.439"/>
   <path d="m324.57,494.2,0.26577,0.0886"/>
   <path d="m324.83,494.65,0.26574,0"/>
   <path d="m324.83,494.29,0,0.35435"/>
   <path d="m325.1,479.59,0,15.059"/>
   <path d="m324.92,494.65,0,0.3543"/>
   <path d="m325.01,495.35,0,1.4173"/>
   <path d="m324.39,496.77,0,0.26574"/>
   <path d="m325.63,496.77,0,0.26574"/>
   <path d="m324.3,495.35,0,1.4173"/>
   <path d="m325.72,495,0,0.35435"/>
   <path d="m324.48,495,0,0.35435"/>
   <path d="m324.48,495,1.2402,0"/>
   <path d="m324.3,495.35,1.4173,0"/>
   <path d="m324.3,496.77,1.3287,0"/>
   <path d="m1160.9,323.59-0.2658,0"/>
   <path d="m1160.6,323.24,0,0.3543"/>
   <path d="m1160.9,323.59,0,0.26574"/>
   <path d="m1160.6,323.24-14.439,0"/>
   <path d="m1146.3,323.15-0.089,0.44292"/>
   <path d="m1145.8,323.59,0,0.26574"/>
   <path d="m1146.2,323.59-0.3544,0"/>
   <path d="m1160.9,323.86-15.059,0"/>
   <path d="m1145.8,323.77-0.3543,0"/>
   <path d="m1145.1,323.86-1.4173,0"/>
   <path d="m1143.7,323.24-0.2657,0"/>
   <path d="m1143.7,324.48-0.2657,0"/>
   <path d="m1145.1,323.15-1.4173,0"/>
   <path d="m1145.5,324.57-0.3544,0"/>
   <path d="m1145.5,323.33-0.3544,0"/>
   <path d="m1145.5,323.33,0,1.2402"/>
   <path d="m1145.1,323.15,0,1.4174"/>
   <path d="m1143.7,323.15,0,1.3288"/>
   <path d="m1048.9,348.84,54.035,0"/>
   <path d="m1048.9,353.27,50.492,0"/>
   <path d="m1048.9,348.84,0,4.4291"/>
   <path d="m1143.7,344.94,8.8583,0"/>
   <path d="m1102.9,344.94,8.8583,0"/>
   <path d="m982.82,286.3,0-2.4803"/>
   <path d="m964.93,286.3,0-2.4803"/>
   <path d="m982.82,283.82-17.894,0"/>
   <path d="m982.82,286.3-17.894,0"/>
   <path d="m1102.9,348.84,0-3.8976"/>
   <path d="m1143.7,353.27,8.8583,0"/>
   <path d="m1099.4,353.27,12.402,0"/>
   <path d="m1152.5,348.84,0-3.8976"/>
   <path d="m1143.7,353.27,0-8.3267"/>
   <path d="m1111.8,353.27,0-8.3267"/>
   <path d="m386.93,352.74,160.07,0"/>
   <path d="m386.93,356.28,37.293,0"/>
   <path d="m1146.7,600.68,0-7.0866"/>
   <path d="m1153.1,600.68-6.3779,0"/>
   <path d="m1153.1,593.59,0,7.0866"/>
   <path d="m1146.7,593.59,6.3779,0"/>
   <path d="m1143.7,353.27,0,2.6575"/>
   <path d="m1149.2,575.88,0-14.173"/>
   <path d="m1146.7,561.7,0,14.173"/>
   <path d="m1149.2,576.58-2.4803,0"/>
   <path d="m1146.7,575.96-0.2658,0"/>
   <path d="m1146.7,577.2-0.2658,0"/>
   <path d="m1149.2,575.88-2.4803,0"/>
   <path d="m1149.5,577.29-0.3543,0"/>
   <path d="m1149.5,576.05-0.3543,0"/>
   <path d="m1149.5,576.05,0,1.2402"/>
   <path d="m1149.2,575.88,0,1.4174"/>
   <path d="m1146.7,575.88,0,1.3287"/>
   <path d="m1146.4,575.96,0,1.2401"/>
   <path d="m1149.2,560.99-2.4803,0"/>
   <path d="m375.94,598.46-0.97442-0.3543"/>
   <path d="m375.06,597.76-0.0886,0.35436"/>
   <path d="m351.67,573.04,0.26574,0.0886"/>
   <path d="m351.85,573.31,0.26573,0.17717"/>
   <path d="m346.18,586.95-0.26574,0.7087"/>
   <path d="m346.89,587.66,0.17715,0"/>
   <path d="m347.07,587.3-0.17715,0.35435"/>
   <path d="m351.85,573.31,0.0886-0.17718"/>
   <path d="m346.98,586.86,0.0886-0.26574"/>
   <path d="m347.33,586.68,4.7835-13.199"/>
   <path d="m347.07,586.59,0.26576,0.0886"/>
   <path d="m346.71,586.77,0.26577,0.0886"/>
   <path d="m346.71,586.77,4.9606-13.73"/>
   <path d="m346.62,586.95,0.26577,0.0886"/>
   <path d="m346.8,586.77-0.0886,0.3543"/>
   <path d="m346.18,586.95,0.88583,0.35435"/>
   <path d="m345.92,587.66,1.063,0.3543"/>
   <path d="m347.07,587.66-0.0886,0.3543"/>
   <path d="m344.41,591.82,1.5059-4.1633"/>
   <path d="m332.72,592.97,1.6831-4.6949"/>
   <path d="m341.04,595.9-8.3268-2.9232"/>
   <path d="m342.73,591.29-1.6831,4.6063"/>
   <path d="m372.76,607.32,1.6831-4.6949"/>
   <path d="m381.08,610.33-8.3268-3.0118"/>
   <path d="m382.77,605.64-1.6831,4.6949"/>
   <path d="m219.6,540.97-4.1634-1.5059"/>
   <path d="m374.44,602.63,1.5059-4.1634"/>
   <path d="M345.92,587.66,219.24,542.04"/>
   <path d="M344.41,591.82,217.74,546.2"/>
   <path d="m1111.8,353.27,0,2.6575"/>
   <path d="m1112.3,368.06,0.4429,0"/>
   <path d="m1112.8,368.95,0.443,0"/>
   <path d="m1142.4,368.06,0.4429,0"/>
   <path d="m1142.8,368.95,0.4429,0"/>
   <path d="m1142.8,368.95,0-0.88583"/>
   <path d="m1112.8,368.95,0-0.88583"/>
   <path d="m1113.2,353.53,0,15.413"/>
   <path d="m1112.4,353.53,0.7972,0"/>
   <path d="m1112.4,352.74,0,0.79721"/>
   <path d="m1112.3,352.74,0,15.325"/>
   <path d="m1111.8,353.27,0-1.7717"/>
   <path d="m1112,353.27,0-0.88583"/>
   <path d="m1111.8,353.27,0.1772,0"/>
   <path d="m1112,352.38,1.1515,0"/>
   <path d="m1113.5,351.58,0-0.0886"/>
   <path d="m1113.1,352.38,0-0.79721"/>
   <path d="m1113.2,351.5,0.2658,0.0886"/>
   <path d="m1111.8,351.5,1.6831,0"/>
   <path d="m1142.1,351.5,1.5944,0"/>
   <path d="m1142.4,353.53,0,14.528"/>
   <path d="m1143.2,353.53-0.7972,0"/>
   <path d="m1143.2,352.74,0,0.79721"/>
   <path d="m1143.2,352.74,0,16.211"/>
   <path d="m1143.7,353.27,0-1.7717"/>
   <path d="m1143.5,353.27,0-0.88583"/>
   <path d="m1142.1,351.58,0-0.0886"/>
   <path d="m1142.5,352.38,0-0.79721"/>
   <path d="m1143.5,353.27,0.1771,0"/>
   <path d="m1142.5,352.38,1.0631,0"/>
   <path d="m1142.1,351.58,0.3542,0"/>
   <path d="m1143.4,323.24,0,1.2401"/>
   <path d="m1149.5,617.33,0-14.173"/>
   <path d="m1147.1,603.16,0,14.173"/>
   <path d="m1149.5,618.04-2.4803,0"/>
   <path d="m1147.1,617.42-0.2658,0"/>
   <path d="m1147.1,618.66-0.2658,0"/>
   <path d="m1149.5,617.33-2.4803,0"/>
   <path d="m1149.9,618.75-0.3543,0"/>
   <path d="m1149.9,617.51-0.3543,0"/>
   <path d="m1149.9,617.51,0,1.2402"/>
   <path d="m1149.5,617.33,0,1.4173"/>
   <path d="m1147.1,617.33,0,1.3287"/>
   <path d="m1146.8,617.42,0,1.2402"/>
   <path d="m1149.5,602.45-2.4803,0"/>
   <path d="m1147.1,603.07-0.2658,0"/>
   <path d="m1147.1,601.83-0.2658,0"/>
   <path d="m1149.5,603.16-2.4803,0"/>
   <path d="m1149.9,601.74-0.3543,0"/>
   <path d="m1149.9,602.98-0.3543,0"/>
   <path d="m1149.9,602.98,0-1.2402"/>
   <path d="m1149.5,603.16,0-1.4173"/>
   <path d="m1147.1,603.16,0-1.3287"/>
   <path d="m1146.8,603.07,0-1.2402"/>
   <path d="m380.91,583.58-0.26574-0.0886"/>
   <path d="m380.55,583.67-0.26577-0.0886"/>
   <path d="m376.21,597.76-0.26576,0.70866"/>
   <path d="m375.24,597.84-0.17718-0.0886"/>
   <path d="m375.32,597.49-0.0886,0.35435"/>
   <path d="m380.55,583.67,0.0886-0.17718"/>
   <path d="m375.68,597.22,0.0886-0.26574"/>
   <path d="m375.5,596.87,4.7835-13.287"/>
   <path d="m375.77,596.96-0.26577-0.0886"/>
   <path d="m375.94,597.31-0.26574-0.0886"/>
   <path d="m375.94,597.31,4.9606-13.73"/>
   <path d="m375.86,597.49-0.17715-0.0886"/>
   <path d="m375.86,597.22-0.17715,0.3543"/>
   <path d="m376.21,597.76-0.88583-0.26573"/>
   <path d="m352.12,573.48,0.35433,0.0886"/>
   <path d="m355.22,575.17,0.26573,0.17718"/>
   <path d="m357.87,577.56,0.17717,0.26574"/>
   <path d="M359.82,580.48,360,580.75"/>
   <path d="m360.97,583.76,0.0886,0.35435"/>
   <path d="m361.42,587.3,0,0.35435"/>
   <path d="m360.89,590.76-0.0886,0.35429"/>
   <path d="m361.06,591.73,0.17715-0.35435"/>
   <path d="m362.83,588.63,0.17715-0.26574"/>
   <path d="m365.14,585.97,0.26573-0.17718"/>
   <path d="m368.06,584.03,0.35433-0.17718"/>
   <path d="m371.34,582.61,0.35433,0"/>
   <path d="m374.88,582.17,0.35433,0"/>
   <path d="m378.34,582.43,0.35432,0.0886"/>
   <path d="m292.94,496.77-1.3287,0"/>
   <path d="m292.94,495.35-1.4173,0"/>
   <path d="m292.77,495-1.2402,0"/>
   <path d="m292.77,495,0,0.35435"/>
   <path d="m291.53,495,0,0.35435"/>
   <path d="m292.94,495.35,0,1.4173"/>
   <path d="m291.61,496.77,0,0.26574"/>
   <path d="m292.85,496.77,0,0.26574"/>
   <path d="m292.23,495.35,0,1.4173"/>
   <path d="m292.32,494.65,0,0.3543"/>
   <path d="m292.23,479.59,0,15.059"/>
   <path d="m292.5,494.29,0,0.35435"/>
   <path d="m292.59,494.56-0.35432,0.0886"/>
   <path d="m292.85,494.29-0.35433,0"/>
   <path d="m292.85,479.85,0,14.439"/>
   <path d="m292.5,479.59-0.26576,0"/>
   <path d="m292.85,479.85-0.35433,0"/>
   <path d="m292.5,479.59,0,0.26573"/>
   <path d="m292.85,497.04-1.2402,0"/>
   <path d="m340.51,356.28,13.819,0"/>
   <path d="m340.51,348.31,5.315,0"/>
   <path d="m216.94,352.74,0,3.5433"/>
   <path d="m354.33,352.74,0,3.5433"/>
   <path d="m216.94,356.28,88.14,0"/>
   <path d="m216.94,352.74,88.14,0"/>
   <path d="m340.51,356.28,0-7.9724"/>
   <path d="m305.08,356.28,0-7.9724"/>
   <path d="m353.8,326.6,0.88582,0"/>
   <path d="m354.77,326.52-0.0886,0.97444"/>
   <path d="m354.77,327.4-0.97441,0.0886"/>
   <path d="m353.89,327.4-0.0886-0.79721"/>
   <path d="m345.83,348.31,0-4.4291"/>
   <path d="m345.92,343.79,8.7697,0.0886"/>
   <path d="m354.77,343.79-0.0886,8.9469"/>
   <path d="m354.77,352.65-14.262,0.0886"/>
   <path d="m874.4,520.33,0-0.35435"/>
   <path d="m874.58,516.79,0.0886-0.35435"/>
   <path d="m875.64,513.51,0.17718-0.35435"/>
   <path d="m880.25,508.2,0.3543-0.17718"/>
   <path d="m883.44,506.69,0.35435-0.0886"/>
   <path d="m886.89,505.98,0.3543,0"/>
   <path d="m859.78,505.72,0.35435,0.0886"/>
   <path d="m863.24,506.25,0.35435,0"/>
   <path d="m866.6,507.4,0.26574,0.26574"/>
   <path d="m869.44,509.44,0.26573,0.26579"/>
   <path d="m871.83,512.1,0.17718,0.35435"/>
   <path d="m873.43,515.29,0.17717,0.26574"/>
   <path d="m874.22,518.65,0.0886,0.35436"/>
   <path d="m1128.6,353.53-0.089,0.35435"/>
   <path d="m1128.2,356.99-0.089,0.35435"/>
   <path d="M1125.2,363.37,1125,363.63"/>
   <path d="m1119.8,367.88-0.2657,0.0886"/>
   <path d="m1142.8,368.06-0.3544-0.0886"/>
   <path d="m1139.3,367.44-0.3544-0.0886"/>
   <path d="m1136,366.11-0.2658-0.17717"/>
   <path d="m1133.1,364.07-0.2657-0.26573"/>
   <path d="m1130.9,361.33-0.1771-0.26579"/>
   <path d="m1129.4,358.14-0.1771-0.35429"/>
   <path d="m1128.7,354.69-0.088-0.35435"/>
   <path d="m308.71,495.35,0.0886-0.35435"/>
   <path d="m309.15,491.81,0.0886-0.35435"/>
   <path d="m310.31,488.44,0.17717-0.26579"/>
   <path d="m312.25,485.52,0.17717-0.26574"/>
   <path d="M314.73,482.95,315,482.78"/>
   <path d="m317.75,481.18,0.26574-0.17717"/>
   <path d="m321.02,479.94,0.35432-0.0886"/>
   <path d="m292.85,479.85,0.35432,0"/>
   <path d="m296.31,480.3,0.35433,0.0886"/>
   <path d="m299.68,481.45,0.35435,0.17718"/>
   <path d="m302.69,483.31,0.26574,0.26579"/>
   <path d="m305.17,485.88,0.17718,0.26574"/>
   <path d="m306.94,488.89,0.17717,0.26573"/>
   <path d="m308.09,492.25,0.0886,0.3543"/>
  </g>
  <g stroke="#F00" stroke-width="0.9">
   <path d="m795.83,576.32,3.8976,0"/>
   <path d="m423.16,407.04,3.8976,0"/>
   <path d="m432.55,407.04,3.8977,0"/>
  </g>
 </g>
</svg>