<?xml version="1.0"?>
<svg xmlns="http://www.w3.org/2000/svg" height="297mm" width="420mm" version="1.1">
 <g fill="none" transform="matrix(1.0777563,0,0,1.0509242,0.58534064,-59.021152)">
  <g stroke="#000" stroke-width="1.4">
   <path d="m1120.9,524.06-1.7716,0"/>
   <path d="m1119.2,606.79,1.7716,0"/>
   <path d="m1119.2,606.79,0-82.736"/>
   <path d="m1120.9,606.79,0-82.736"/>
   <path d="m1117.7,605.55-3.8977,0"/>
   <path d="m1113.8,610.16,0-4.6063"/>
   <path d="m1113.8,609.45-110.91,0"/>
   <path d="m1113.8,610.16-110.91,0"/>
   <path d="m1117.7,605.55,0-81.496"/>
   <path d="m1117.7,538.23-22.854,0"/>
   <path d="m1095,538.14-0.089-28.612"/>
   <path d="m1076.1,474.27,0,9.9212"/>
   <path d="m1081.2,524.59-5.1377,0"/>
   <path d="m1081.2,484.19-5.1377,0"/>
   <path d="m1081.2,514.31-5.1377,0"/>
   <path d="m1076.1,524.59,0-10.276"/>
   <path d="m1081.2,524.59,0-10.276"/>
   <path d="m1109.8,509.53-14.882,0"/>
   <path d="m1109.8,514.31,0-4.7834"/>
   <path d="m1119.3,484.19-38.091,0"/>
   <path d="m1119.3,514.31-9.5669,0"/>
   <path d="m1119.3,485.08,0-1.7716"/>
   <path d="m1119.3,515.2,0-1.7717"/>
   <path d="m1120.7,485.08,0-1.7716"/>
   <path d="m1120.7,515.2,0-1.7717"/>
   <path d="m1119.3,485.08,1.4173,0"/>
   <path d="m1120.7,513.43-1.4173,0"/>
   <path d="m1119.3,483.31,1.4173,0"/>
   <path d="m1120.7,515.2-1.4173,0"/>
   <path d="m913.11,524.59,0-10.276"/>
   <path d="m918.25,524.59,0-10.276"/>
   <path d="m953.86,473.92,0,10.276"/>
   <path d="m959,473.92,0,10.276"/>
   <path d="m959,473.92-5.1377,0"/>
   <path d="m959,524.59-5.1377,0"/>
   <path d="m959,484.19-5.1377,0"/>
   <path d="m959,514.31-5.1377,0"/>
   <path d="m953.86,524.59,0-10.276"/>
   <path d="m959,524.59,0-10.276"/>
   <path d="m994.61,473.92,0,10.276"/>
   <path d="m999.74,473.92,0,10.276"/>
   <path d="m999.74,473.92-5.1377,0"/>
   <path d="m999.74,524.59-5.1377,0"/>
   <path d="m999.74,484.19-5.1377,0"/>
   <path d="m999.74,514.31-5.1377,0"/>
   <path d="m994.61,524.59,0-10.276"/>
   <path d="m999.74,524.59,0-10.276"/>
   <path d="m1035.4,473.92,0,10.276"/>
   <path d="m1040.5,474.27,0,9.9212"/>
   <path d="m1040.5,473.92-5.1377,0"/>
   <path d="m1040.5,524.59-5.1377,0"/>
   <path d="m1040.5,484.19-5.1377,0"/>
   <path d="m1040.5,514.31-5.1377,0"/>
   <path d="m1035.4,524.59,0-10.276"/>
   <path d="m1040.5,524.59,0-10.276"/>
   <path d="m1119.3,515.2,0-0.88583"/>
   <path d="m1117.2,515.2,2.126,0"/>
   <path d="m1117.2,524.06,0-8.8583"/>
   <path d="m1117.7,524.06-0.5316,0"/>
   <path d="m1117.7,598.82-608.56,0"/>
   <path d="m513.96,610.16,0-0.70865"/>
   <path d="m513.96,610.16,0-6.3779"/>
   <path d="m514.05,603.69-4.872,0.0886"/>
   <path d="m624.69,610.16,0-0.70865"/>
   <path d="m624.77,609.36-110.82,0.0886"/>
   <path d="m624.69,610.16-110.73,0"/>
   <path d="m628.23,610.16-3.5433,0"/>
   <path d="m628.23,606.79,0,3.3661"/>
   <path d="m632.66,606.79-4.4291,0"/>
   <path d="m632.66,610.16,0-3.3661"/>
   <path d="m636.2,610.16-3.5433,0"/>
   <path d="m636.2,610.16,0-0.70865"/>
   <path d="m624.69,610.16,0-4.6063"/>
   <path d="m636.2,610.16,0-4.6063"/>
   <path d="m636.29,605.46-11.604,0.0886"/>
   <path d="m746.93,610.16,0-0.70865"/>
   <path d="m747.02,609.36-110.82,0.0886"/>
   <path d="m746.93,610.16-110.73,0"/>
   <path d="m750.47,610.16-3.5433,0"/>
   <path d="m750.47,606.79,0,3.3661"/>
   <path d="m754.9,606.79-4.4291,0"/>
   <path d="m754.9,610.16,0-3.3661"/>
   <path d="m758.44,610.16-3.5433,0"/>
   <path d="m758.44,610.16,0-0.70865"/>
   <path d="m746.93,610.16,0-4.6063"/>
   <path d="m758.44,610.16,0-4.6063"/>
   <path d="m758.53,605.46-11.604,0.0886"/>
   <path d="m869.17,610.16,0-0.70865"/>
   <path d="m869.26,609.36-110.82,0.0886"/>
   <path d="m869.17,610.16-110.73,0"/>
   <path d="m872.72,610.16-3.5433,0"/>
   <path d="m872.72,606.79,0,3.3661"/>
   <path d="m877.15,606.79-4.4291,0"/>
   <path d="m877.15,610.16,0-3.3661"/>
   <path d="m880.69,610.16-3.5433,0"/>
   <path d="m880.69,610.16,0-0.70865"/>
   <path d="m869.17,610.16,0-4.6063"/>
   <path d="m880.69,610.16,0-4.6063"/>
   <path d="m880.78,605.46-11.604,0.0886"/>
   <path d="m991.42,610.16,0-0.70865"/>
   <path d="m991.51,609.36-110.82,0.0886"/>
   <path d="m991.42,610.16-110.73,0"/>
   <path d="m994.96,610.16-3.5433,0"/>
   <path d="m994.96,606.79,0,3.3661"/>
   <path d="m999.39,606.79-4.4291,0"/>
   <path d="m999.39,610.16,0-3.3661"/>
   <path d="m1002.9,610.16-3.5433,0"/>
   <path d="m1002.9,610.16,0-0.70865"/>
   <path d="m991.42,610.16,0-4.6063"/>
   <path d="m1002.9,610.16,0-4.6063"/>
   <path d="m1003,605.46-11.604,0.0886"/>
   <path d="m1113.8,610.16,0-0.70865"/>
   <path d="m511.12,524.41-1.9488,0"/>
   <path d="m511.12,515.02-3.7205,0"/>
   <path d="m511.12,524.41,0-9.3897"/>
   <path d="m509.17,603.78,0-79.37"/>
   <path d="m546.38,473.92,0,10.276"/>
   <path d="m551.52,473.92,0,10.276"/>
   <path d="m551.52,473.92-5.1378,0"/>
   <path d="m551.52,524.59-5.1378,0"/>
   <path d="m551.52,484.19-5.1378,0"/>
   <path d="m551.52,514.31-5.1378,0"/>
   <path d="m546.38,524.59,0-10.276"/>
   <path d="m551.52,524.59,0-10.276"/>
   <path d="m587.13,473.92,0,10.276"/>
   <path d="m592.26,473.92,0,10.276"/>
   <path d="m592.26,473.92-5.1378,0"/>
   <path d="m592.26,524.59-5.1378,0"/>
   <path d="m592.26,484.19-5.1378,0"/>
   <path d="m592.26,514.31-5.1378,0"/>
   <path d="m587.13,524.59,0-10.276"/>
   <path d="m592.26,524.59,0-10.276"/>
   <path d="m627.87,473.92,0,10.276"/>
   <path d="m633.01,473.92,0,10.276"/>
   <path d="m633.01,473.92-5.1378,0"/>
   <path d="m633.01,524.59-5.1378,0"/>
   <path d="m633.01,484.19-5.1378,0"/>
   <path d="m633.01,514.31-5.1378,0"/>
   <path d="m627.87,524.59,0-10.276"/>
   <path d="m633.01,524.59,0-10.276"/>
   <path d="m668.62,473.92,0,10.276"/>
   <path d="m673.76,473.92,0,10.276"/>
   <path d="m673.76,473.92-5.1378,0"/>
   <path d="m673.76,524.59-5.1378,0"/>
   <path d="m673.76,484.19-5.1378,0"/>
   <path d="m673.76,514.31-5.1378,0"/>
   <path d="m668.62,524.59,0-10.276"/>
   <path d="m673.76,524.59,0-10.276"/>
   <path d="m709.37,473.92,0,10.276"/>
   <path d="m714.51,473.92,0,10.276"/>
   <path d="m714.51,473.92-5.1378,0"/>
   <path d="m714.51,524.59-5.1378,0"/>
   <path d="m714.51,484.19-5.1378,0"/>
   <path d="m714.51,514.31-5.1378,0"/>
   <path d="m709.37,524.59,0-10.276"/>
   <path d="m714.51,524.59,0-10.276"/>
   <path d="m750.12,473.92,0,10.276"/>
   <path d="m755.26,473.92,0,10.276"/>
   <path d="m755.26,473.92-5.1378,0"/>
   <path d="m755.26,524.59-5.1378,0"/>
   <path d="m755.26,484.19-5.1378,0"/>
   <path d="m755.26,514.31-5.1378,0"/>
   <path d="m750.12,524.59,0-10.276"/>
   <path d="m755.26,524.59,0-10.276"/>
   <path d="m790.87,473.92,0,10.276"/>
   <path d="m796,473.92,0,10.276"/>
   <path d="m796,473.92-5.1378,0"/>
   <path d="m796,524.59-5.1378,0"/>
   <path d="m796,484.19-5.1378,0"/>
   <path d="m796,514.31-5.1378,0"/>
   <path d="m790.87,524.59,0-10.276"/>
   <path d="m796,524.59,0-10.276"/>
   <path d="m831.61,473.92,0,10.276"/>
   <path d="m836.75,473.92,0,10.276"/>
   <path d="m836.75,473.92-5.1378,0"/>
   <path d="m836.75,524.59-5.1378,0"/>
   <path d="m836.75,484.19-5.1378,0"/>
   <path d="m836.75,514.31-5.1378,0"/>
   <path d="m831.61,524.59,0-10.276"/>
   <path d="m836.75,524.59,0-10.276"/>
   <path d="m872.36,473.92,0,10.276"/>
   <path d="m877.5,473.92,0,10.276"/>
   <path d="m877.5,473.92-5.1378,0"/>
   <path d="m877.5,524.59-5.1378,0"/>
   <path d="m877.5,484.19-5.1378,0"/>
   <path d="m877.5,514.31-5.1378,0"/>
   <path d="m872.36,524.59,0-10.276"/>
   <path d="m877.5,524.59,0-10.276"/>
   <path d="m913.11,473.92,0,10.276"/>
   <path d="m918.25,473.92,0,10.276"/>
   <path d="m918.25,473.92-5.1377,0"/>
   <path d="m918.25,524.59-5.1377,0"/>
   <path d="m918.25,484.19-5.1377,0"/>
   <path d="m918.25,514.31-5.1377,0"/>
   <path d="m1040.1,473.92,36.319,0"/>
   <path d="m1076.1,484.19-35.61,0"/>
   <path d="m511.12,474.09-1.9488,0"/>
   <path d="m509.26,474.01-0.0886-53.593"/>
   <path d="m511.12,474.09,0,9.3897"/>
   <path d="m511.21,483.4-3.809,0.0886"/>
   <path d="m507.4,515.2,0-0.88583"/>
   <path d="m507.4,485.08,0-1.7716"/>
   <path d="m507.4,515.2,0-1.7717"/>
   <path d="m505.98,485.08,0-1.7716"/>
   <path d="m505.98,515.2,0-1.7717"/>
   <path d="m507.4,485.08-1.4173,0"/>
   <path d="m505.98,513.43,1.4173,0"/>
   <path d="m507.4,483.31-1.4173,0"/>
   <path d="m505.98,515.2,1.4173,0"/>
   <path d="m910.63,388.35-70.689,0"/>
   <path d="m958.11,420.59-9.2126,0"/>
   <path d="m984.69,420.59-9.2126,0"/>
   <path d="m958.11,421.3-9.2126,0"/>
   <path d="m984.69,421.3-9.2126,0"/>
   <path d="m975.56,421.21-0.0887-0.62009"/>
   <path d="m958.11,421.3,0-0.70865"/>
   <path d="m948.9,421.3,0-0.70865"/>
   <path d="m984.69,421.3,0-0.70865"/>
   <path d="m948.9,416.34-15.325,0"/>
   <path d="m948.9,425.55-16.122,0"/>
   <path d="m948.9,425.55,0-9.2126"/>
   <path d="m994.87,416.34-10.187,0"/>
   <path d="m1038.4,424.67-37.382,0"/>
   <path d="m1091.9,420.59-53.504,0"/>
   <path d="m984.69,425.55,0-9.2126"/>
   <path d="m1001,425.55,0-0.88582"/>
   <path d="m1038.4,424.67,0-4.0748"/>
   <path d="m1091.9,425.55-107.19,0"/>
   <path d="m1080.9,476.22,10.984,7.6181"/>
   <path d="m1091.9,476.22-10.984,7.6181"/>
   <path d="m1081,483.75-0.089-7.5295"/>
   <path d="m1091.9,476.22-10.984,0"/>
   <path d="m1091.9,476.22,0,7.6181"/>
   <path d="m1119.3,483.84-38.445,0"/>
   <path d="m1093.6,419.53-1.7716,0"/>
   <path d="m1091.9,438.13,1.7716,0"/>
   <path d="m1093.7,438.04-0.089-18.514"/>
   <path d="m1091.9,438.13,0-18.602"/>
   <path d="m1117.2,476.22,0-1.7716"/>
   <path d="m1091.9,476.22,0-1.7716"/>
   <path d="m1091.9,476.22,25.335,0"/>
   <path d="m1091.9,474.45,25.335,0"/>
   <path d="m1118.8,419.53,1.7717,0"/>
   <path d="m1120.6,474.45-1.7717,0"/>
   <path d="m1118.9,474.36-0.089-54.833"/>
   <path d="m1120.6,474.45,0-54.921"/>
   <path d="m1076.1,483.84-17.716-9.5669"/>
   <path d="m1058.4,483.84,17.716-9.5669"/>
   <path d="m1040.5,474.27,17.716,9.5669"/>
   <path d="m1058.2,474.27-17.716,9.5669"/>
   <path d="m1076.1,483.84-35.61,0"/>
   <path d="m1058.4,474.27,0,9.5669"/>
   <path d="m1058.2,474.27,0,9.5669"/>
   <path d="m1040.5,474.27,35.61,0"/>
   <path d="m1040.1,473.92,0,10.276"/>
   <path d="m1076.5,473.92,0,10.276"/>
   <path d="m476.57,479.59,0-2.3032"/>
   <path d="m476.66,477.19-1.5059,0.0886"/>
   <path d="m476.57,465.06-1.4173,0"/>
   <path d="m478.88,436.36,23.917,0"/>
   <path d="m478.88,422.36,0-1.9488"/>
   <path d="m478.88,436.36,0-1.7717"/>
   <path d="m477.46,422.36,0-1.9488"/>
   <path d="m477.46,437.78,0-3.189"/>
   <path d="m477.46,422.36,1.4173,0"/>
   <path d="m477.46,434.59,1.4173,0"/>
   <path d="m477.46,437.78,25.335,0"/>
   <path d="m479.41,458.68,0-7.9724"/>
   <path d="m479.41,458.68,23.386,0"/>
   <path d="m479.41,450.71-26.575,0"/>
   <path d="m475.16,465.06,0-10.098"/>
   <path d="m475.25,454.87-22.411,0.0886"/>
   <path d="m476.57,462.93,26.22,0"/>
   <path d="m449.29,421.83,0-1.4174"/>
   <path d="m449.29,462.4,0-24.98"/>
   <path d="m452.83,421.83,0-1.4174"/>
   <path d="m452.83,462.4,0-24.98"/>
   <path d="m449.29,478.88,0-0.88583"/>
   <path d="m452.83,478.88,0-0.88583"/>
   <path d="m452.83,437.42-3.5433,0"/>
   <path d="m452.83,421.83-3.5433,0"/>
   <path d="m452.83,462.4-3.5433,0"/>
   <path d="m453.72,478.88-0.88582,0"/>
   <path d="m453.72,479.59,0-0.70871"/>
   <path d="m453.72,479.59,49.075,0"/>
   <path d="m502.88,479.5-0.0886-59.085"/>
   <path d="m452.83,477.99-3.5433,0"/>
   <path d="m452.83,420.41-3.5433,0"/>
   <path d="m452.83,478.88-3.5433,0"/>
   <path d="m572.69,425.37-63.514,0"/>
   <path d="m522.02,419.7,0,0.70865"/>
   <path d="m562.77,420.41,0-0.70865"/>
   <path d="m562.85,419.62-40.837,0.0886"/>
   <path d="m562.77,420.41-40.748,0"/>
   <path d="m572.69,425.37,14.616-32.421"/>
   <path d="m918.43,394.02-331.56,0"/>
   <path d="m564.98,424.31,0-3.8977"/>
   <path d="m520.69,424.31,0-3.8977"/>
   <path d="m910.63,388.35,0,0.70865"/>
   <path d="m910.63,392.95,0-4.6062"/>
   <path d="m932.78,425.55-14.705-32.598"/>
   <path d="m918.16,392.86-7.5295,0.0886"/>
   <path d="m595.45,392.95,0-4.6062"/>
   <path d="m595.45,392.95-8.1496,0"/>
   <path d="m665.43,389.06-69.98,0"/>
   <path d="m665.43,388.35-69.98,0"/>
   <path d="m668.98,388.35-3.5433,0"/>
   <path d="m668.98,391.71,0-3.3661"/>
   <path d="m673.41,391.71-4.4291,0"/>
   <path d="m673.41,388.35,0,3.3661"/>
   <path d="m676.95,388.35-3.5433,0"/>
   <path d="m665.43,392.95,0-4.6062"/>
   <path d="m676.95,392.95,0-4.6062"/>
   <path d="m676.95,392.95-11.516,0"/>
   <path d="m746.93,389.06-69.98,0"/>
   <path d="m746.93,388.35-69.98,0"/>
   <path d="m750.47,388.35-3.5433,0"/>
   <path d="m750.47,391.71,0-3.3661"/>
   <path d="m754.9,391.71-4.4291,0"/>
   <path d="m754.9,388.35,0,3.3661"/>
   <path d="m758.44,388.35-3.5433,0"/>
   <path d="m746.93,392.95,0-4.6062"/>
   <path d="m758.44,392.95,0-4.6062"/>
   <path d="m758.44,392.95-11.516,0"/>
   <path d="m828.43,389.06-69.98,0"/>
   <path d="m828.43,388.35-69.98,0"/>
   <path d="m831.97,388.35-3.5433,0"/>
   <path d="m831.97,391.71,0-3.3661"/>
   <path d="m836.4,391.71-4.4291,0"/>
   <path d="m836.4,388.35,0,3.3661"/>
   <path d="m839.94,388.35-3.5433,0"/>
   <path d="m828.43,392.95,0-4.6062"/>
   <path d="m839.94,392.95,0-4.6062"/>
   <path d="m839.94,392.95-11.516,0"/>
   <path d="m910.63,389.06-70.689,0"/>
   <path d="m475.16,479.59,0-2.3032"/>
   <path d="m476.57,465.06,0-2.126"/>
   <path d="m455.67,621.58-0.97444,2.4803"/>
   <path d="m436.89,617.6,0.88583-2.4803"/>
   <path d="m422.1,658.35,0.88582-2.4803"/>
   <path d="m439.9,664.81,0.88583-2.4803"/>
   <path d="m437.78,615.12,17.894,6.4666"/>
   <path d="m439.9,664.81-17.805-6.4665"/>
   <path d="m440.79,662.33-17.805-6.4666"/>
   <path d="m436.89,617.6,17.805,6.4665"/>
   <path d="m429.18,611.93-0.97441,2.4803"/>
   <path d="m434.41,616.71,0.88583-2.5689"/>
   <path d="m435.38,614.06-6.2008-2.126"/>
   <path d="m434.41,616.71-6.2008-2.3032"/>
   <path d="m350.61,640.36,0-65.285"/>
   <path d="m346.18,508.64,0-3.189"/>
   <path d="m247.41,508.64,0-3.189"/>
   <path d="m260.88,607.77,0-8.4154"/>
   <path d="m247.41,599.35,13.465,0"/>
   <path d="m346.89,549.74,0.88583,0"/>
   <path d="m346.89,550.63,0-0.88583"/>
   <path d="m346.89,550.63,0.88583,0"/>
   <path d="m347.86,550.54-0.0886-0.79727"/>
   <path d="m247.41,549.74,0-3.189"/>
   <path d="m362.13,549.74,0-3.189"/>
   <path d="m247.41,549.74,114.71,0"/>
   <path d="m350.61,575.08,0-3.189"/>
   <path d="m364.78,575.08-14.173,0"/>
   <path d="m364.78,571.89-18.602,0"/>
   <path d="m364.78,575.08,0-3.189"/>
   <path d="m332.19,595.63-4.252,0"/>
   <path d="m332.19,592.44-8.5039,0"/>
   <path d="m332.19,595.63,0-3.189"/>
   <path d="m323.68,630.62,0-38.179"/>
   <path d="m327.93,630.35,0-34.724"/>
   <path d="m346.18,630.35-18.248,0"/>
   <path d="m247.41,546.56,114.71,0"/>
   <path d="m468.6,636.02,1.3287-3.7205"/>
   <path d="m457.71,665.79,1.3287-3.6319"/>
   <path d="m469.13,636.2,1.5059-4.1634"/>
   <path d="m458.15,666.5,1.5059-4.1634"/>
   <path d="m469.13,636.2-0.62004-0.26577"/>
   <path d="m459.66,662.33-0.62009-0.17718"/>
   <path d="M469.93,632.3,458.06,625.31"/>
   <path d="m457.71,665.79-13.553-2.2146"/>
   <path d="m432.19,622.74,2.2146-6.0236"/>
   <path d="m420.5,654.98,2.2146-6.1122"/>
   <path d="m432.81,622.91,2.2146-6.0236"/>
   <path d="m421.03,655.16,2.2146-6.0236"/>
   <path d="m432.19,622.74,0.62009,0.26574"/>
   <path d="m423.25,649.13-0.53147-0.26574"/>
   <path d="m434.41,616.71,0.62009,0.17715"/>
   <path d="m421.03,655.16-0.53147-0.17718"/>
   <path d="m247.41,420.41,100.01,0"/>
   <path d="m247.41,423.07,0-2.6575"/>
   <path d="m292.77,425.73-3.189,0"/>
   <path d="m289.58,423.07-42.165,0"/>
   <path d="m347.42,421.3-54.656,0"/>
   <path d="m289.58,425.73,0-2.6575"/>
   <path d="m292.77,425.73,0-4.4291"/>
   <path d="m344.94,505.45,1.2402,0"/>
   <path d="m292.77,505.45,22.766,0"/>
   <path d="m344.94,508.64,1.2402,0"/>
   <path d="m287.27,508.64,28.258,0"/>
   <path d="m315.62,508.55-0.0886-3.1004"/>
   <path d="m344.94,508.64,0-3.189"/>
   <path d="m287.27,505.45,2.3032,0"/>
   <path d="m247.41,442.91,45.354,0"/>
   <path d="m292.77,505.45,0-62.539"/>
   <path d="m247.41,446.1,42.165,0"/>
   <path d="m289.58,505.45,0-59.35"/>
   <path d="m247.41,505.45,23.74,0"/>
   <path d="m247.41,508.64,23.74,0"/>
   <path d="m287.27,508.64,0-3.189"/>
   <path d="m271.15,508.64,0-3.189"/>
   <path d="m350.61,420.41-3.189,0"/>
   <path d="m350.61,508.64,0-3.189"/>
   <path d="m347.42,481.36,0-60.945"/>
   <path d="m361.24,481.36-13.819,0"/>
   <path d="m361.24,505.45-10.63,0"/>
   <path d="m361.24,505.45,0-24.094"/>
   <path d="m350.61,478.17,0-57.756"/>
   <path d="m364.43,478.17-13.819,0"/>
   <path d="m364.43,508.64,0-30.472"/>
   <path d="m364.43,508.64-13.819,0"/>
   <path d="m1126.5,610.16-4.8721,0"/>
   <path d="m1121.6,606.97,4.8721,3.189"/>
   <path d="m1121.6,610.16,0-3.189"/>
   <path d="m1126.4,606.97-4.7835,3.189"/>
   <path d="m1126.4,609.45,0,0.70865"/>
   <path d="m1126.4,606.97,0,3.189"/>
   <path d="m1121.6,606.97,4.7835,0"/>
   <path d="m520.69,424.31-11.516,0"/>
   <path d="m573.13,424.31-8.1496,0"/>
   <path d="m458.06,625.31,0.26579-0.5315"/>
   <path d="m443.98,664.19,0.17715-0.62006"/>
   <path d="m470.64,632.04-12.313-7.2638"/>
   <path d="M458.15,666.5,443.98,664.19"/>
   <path d="m247.41,602.81,0-3.4547"/>
   <path d="m260.88,607.77-13.465-4.9606"/>
   <path d="m335.29,634.78-11.604-4.1634"/>
   <path d="m350.61,640.36-4.4291-1.5945"/>
   <path d="m346.18,630.35,0-58.465"/>
   <path d="m346.18,638.77,0-3.9862"/>
   <path d="m346.27,634.69-10.984,0.0886"/>
   <path d="m346.89,566.04-0.70868,0"/>
   <path d="m346.18,571.89,0.70868,0"/>
   <path d="m346.18,566.04,0,5.8464"/>
   <path d="m346.89,566.04,0,5.8464"/>
   <path d="m940.48,416.34,0.70871,0"/>
   <path d="m933.84,399.86-0.7086,0.35429"/>
   <path d="m933.84,399.86-0.35425-0.62009"/>
   <path d="m941.55,395.52,0.26568,0.62009"/>
   <path d="m933.48,399.24,8.061-3.7205"/>
   <path d="m933.84,399.86,7.9724-3.7205"/>
   <path d="m953.33,291.53,0.7087-0.26574"/>
   <path d="m905.76,313.67,0.70866-0.3543"/>
   <path d="m895.57,289.93,10.896,23.386"/>
   <path d="m942.43,268.05,10.896,23.474"/>
   <path d="m942.79,267.17,11.25,24.094"/>
   <path d="m894.6,289.58,11.161,24.094"/>
   <path d="m928.97,302.86,2.5689-1.1516"/>
   <path d="M969.45,383.3,931.54,301.71"/>
   <path d="M966.88,384.54,928.97,302.86"/>
   <path d="m969.45,383.3-2.5689,1.2401"/>
   <path d="m940.48,416.34-7.3523-16.122"/>
   <path d="m941.19,416.34-7.3524-16.476"/>
   <path d="m1120.9,573.66,0,0.7087"/>
   <path d="m1126.4,610.16,0.5315,0"/>
   <path d="m1126.4,609.45,0.5315,0"/>
   <path d="m1127,609.36-0.089,0.79724"/>
   <path d="m453.72,480.65,0-1.0629"/>
   <path d="m505.98,480.65-52.264,0"/>
   <path d="m505.98,420.41,0,60.236"/>
   <path d="m502.8,420.41,3.189,0"/>
   <path d="m477.46,420.41,1.4173,0"/>
   <path d="m247.41,442.91,0,3.189"/>
   <path d="M895.57,289.93,923.12,277.09"/>
   <path d="m940.66,268.14,2.126-0.97444"/>
   <path d="m894.6,289.58,29.675-13.819"/>
   <path d="m1003.7,294.27-6.2008,0"/>
   <path d="m1003.7,340.33-6.2008,0"/>
   <path d="m1003.7,346.18,0-5.8464"/>
   <path d="m997.53,340.33,0,5.8464"/>
   <path d="m1003.7,346.18-6.2008,0"/>
   <path d="m1003.7,350.43-6.2008,0"/>
   <path d="m1003.7,356.28,0-5.8465"/>
   <path d="m997.53,350.43,0,5.8465"/>
   <path d="m1003.7,356.28-6.2008,0"/>
   <path d="m420.5,412.44,0.35433,0"/>
   <path d="m996.47,278.33,1.063,0"/>
   <path d="m996.47,232.26,0,46.063"/>
   <path d="m997.53,232.26-1.063,0"/>
   <path d="m997.53,278.33,0-46.063"/>
   <path d="m996.47,340.33,1.063,0"/>
   <path d="m996.47,294.27,0,46.063"/>
   <path d="m997.53,294.27-1.063,0"/>
   <path d="m997.53,340.33,0-46.063"/>
   <path d="m1003.7,278.33-6.2008,0"/>
   <path d="m1003.7,232.26,0,46.063"/>
   <path d="m997.53,232.26,6.2008,0"/>
   <path d="m997.53,278.33,0-46.063"/>
   <path d="m1003.7,340.33-6.2008,0"/>
   <path d="m1003.7,294.27,0,46.063"/>
   <path d="m997.53,294.27,6.2008,0"/>
   <path d="m997.53,340.33,0-46.063"/>
   <path d="m1134.5,407.66-8.8583,0"/>
   <path d="m1003.7,225,0-1.4173"/>
   <path d="m1003.7,349.02,0-1.4173"/>
   <path d="m1003.7,222.17-6.2008,0"/>
   <path d="m1003.7,226.42-6.2008,0"/>
   <path d="m1003.7,232.26,0-5.8465"/>
   <path d="m997.53,226.42,0,5.8465"/>
   <path d="m1003.7,232.26-6.2008,0"/>
   <path d="m1003.7,278.33-6.2008,0"/>
   <path d="m1003.7,284.17,0-5.8464"/>
   <path d="m997.53,278.33,0,5.8464"/>
   <path d="m1003.7,284.17-6.2008,0"/>
   <path d="m1003.7,288.43-6.2008,0"/>
   <path d="m1003.7,294.27,0-5.8465"/>
   <path d="m997.53,288.43,0,5.8465"/>
   <path d="m235.9,618.22,1.6831,0.62009"/>
   <path d="m366.73,660.12,1.6831,0.53147"/>
   <path d="m400.04,672.17,6.7323,2.4803"/>
   <path d="m400.04,672.17-1.5945-0.62006"/>
   <path d="m370.19,655.95-1.6831-0.62008"/>
   <path d="m364.78,645.5,0-10.807"/>
   <path d="m412,420.41,37.293,0"/>
   <path d="m364.07,617.33,0-42.254"/>
   <path d="m364.78,617.33,0-42.254"/>
   <path d="m364.07,645.32,0-10.63"/>
   <path d="m364.78,634.69-0.70865,0"/>
  </g>
  <g stroke="#000" stroke-width="0.7">
   <path d="m1117.2,612.64-4.8721,0"/>
   <path d="m510.41,626.81,0-14.173"/>
   <path d="m510.41,626.81-4.4291,0"/>
   <path d="m508.64,606.79,1.7717,0"/>
   <path d="m510.41,610.16,0-3.3661"/>
   <path d="m1117.2,610.16-4.8721,0"/>
   <path d="m1117.2,626.81,0-14.173"/>
   <path d="m1121.6,626.81,0-14.173"/>
   <path d="m1121.6,626.81-4.4291,0"/>
   <path d="m1126.5,612.64-4.8721,0"/>
   <path d="m1117.2,610.16,0-3.3661"/>
   <path d="m1117.3,606.7,4.3404,0.0886"/>
   <path d="m1121.6,610.16,0-3.3661"/>
   <path d="m1126.5,610.16-4.8721,0"/>
   <path d="m999.39,474.45-4.4291,0"/>
   <path d="m999.39,483.31-4.4291,0"/>
   <path d="m999.39,515.2-4.4291,0"/>
   <path d="m999.39,524.06-4.4291,0"/>
   <path d="m999.39,474.45,0,8.8583"/>
   <path d="m994.96,474.45,0,8.8583"/>
   <path d="m994.96,524.06,0-8.8583"/>
   <path d="m999.39,524.06,0-8.8583"/>
   <path d="m1040.1,474.45-4.4292,0"/>
   <path d="m1040.1,483.31-4.4292,0"/>
   <path d="m1040.1,515.2-4.4292,0"/>
   <path d="m1040.1,524.06-4.4292,0"/>
   <path d="m1040.1,474.45,0,8.8583"/>
   <path d="m1035.7,474.45,0,8.8583"/>
   <path d="m1035.7,524.06,0-8.8583"/>
   <path d="m1040.1,524.06,0-8.8583"/>
   <path d="m1080.9,474.45-4.4291,0"/>
   <path d="m1080.9,483.31-4.4291,0"/>
   <path d="m1080.9,515.2-4.4291,0"/>
   <path d="m1080.9,524.06-4.4291,0"/>
   <path d="m1080.9,474.45,0,8.8583"/>
   <path d="m1076.5,474.45,0,8.8583"/>
   <path d="m1076.5,524.06,0-8.8583"/>
   <path d="m1080.9,524.06,0-8.8583"/>
   <path d="m1134.1,419.53-134.73,0"/>
   <path d="m985.13,416.87,149,0"/>
   <path d="m1134.1,419.53,0-2.6575"/>
   <path d="m1121.6,474.45-4.4291,0"/>
   <path d="m1121.6,483.31-4.4291,0"/>
   <path d="m1121.6,515.2-4.4291,0"/>
   <path d="m1121.6,524.06-4.4291,0"/>
   <path d="m1121.6,474.45,0,8.8583"/>
   <path d="m1117.2,474.45,0,8.8583"/>
   <path d="m1117.2,524.06,0-8.8583"/>
   <path d="m1121.6,524.06,0-8.8583"/>
   <path d="m994.96,610.16-4.872,0"/>
   <path d="m994.96,626.81,0-14.173"/>
   <path d="m999.39,626.81,0-14.173"/>
   <path d="m999.39,626.81-4.4291,0"/>
   <path d="m1004.3,612.64-4.8721,0"/>
   <path d="m994.96,610.16,0-3.3661"/>
   <path d="m995.05,606.7,4.3405,0.0886"/>
   <path d="m999.39,610.16,0-3.3661"/>
   <path d="m1004.3,610.16-4.8721,0"/>
   <path d="m515.29,610.16-4.872,0"/>
   <path d="m515.29,612.64-4.872,0"/>
   <path d="m1112.3,612.64,0-2.4803"/>
   <path d="m1126.5,612.64,0-2.4803"/>
   <path d="m494.29,595.45,0-31.624"/>
   <path d="m449.29,563.83,45,0"/>
   <path d="m484.02,608.74,0-24.803"/>
   <path d="m479.06,608.74,0-24.803"/>
   <path d="m474.09,605.64,0-21.703"/>
   <path d="m464.17,608.74,0-23.474"/>
   <path d="m459.21,608.74,0-24.803"/>
   <path d="m454.25,606.97,0-23.032"/>
   <path d="m484.02,573.84,0-20.02"/>
   <path d="m479.06,573.84,0-20.02"/>
   <path d="m474.09,573.84,0-20.02"/>
   <path d="m469.13,573.84,0-20.02"/>
   <path d="m464.17,573.84,0-20.02"/>
   <path d="m459.21,573.84,0-20.02"/>
   <path d="m454.25,573.84,0-20.02"/>
   <path d="m449.29,573.84,0-20.02"/>
   <path d="m448.94,583.94,0-10.098"/>
   <path d="m448.94,606.97,0-23.032"/>
   <path d="m485.96,583.94,0-10.098"/>
   <path d="m456.38,606.97-7.441,0"/>
   <path d="m485.96,576.5-37.028,0"/>
   <path d="m485.96,573.84-37.028,0"/>
   <path d="m505.81,553.82-56.516,0"/>
   <path d="M372.84,648.51,247.41,602.81"/>
   <path d="M371.69,651.79,245.11,605.73"/>
   <path d="m401.63,662.69,1.2402-3.2776"/>
   <path d="m371.69,651.79,1.1516-3.2776"/>
   <path d="m346.18,576.32,0-4.4291"/>
   <path d="m350.61,576.32-4.4291,0"/>
   <path d="m350.61,571.89-4.4291,0"/>
   <path d="m451.95,612.28,0-5.315"/>
   <path d="m505.81,608.74-49.429,0"/>
   <path d="m503.68,551.16-51.732,0"/>
   <path d="m505.81,553.82-56.516,0"/>
   <path d="m451.95,548.86-2.6575,0"/>
   <path d="m503.68,551.16,0-33.307"/>
   <path d="m449.29,524.06,0-8.3267"/>
   <path d="m449.29,553.82,0-4.9607"/>
   <path d="m451.95,551.16,0-2.3032"/>
   <path d="m453.72,524.06-4.4291,0"/>
   <path d="m453.72,524.06,0-6.2008"/>
   <path d="m503.68,517.85-49.961,0"/>
   <path d="m505.98,515.73-56.693,0"/>
   <path d="m412,416.87,0,3.5433"/>
   <path d="m379.4,420.41-131.99,0"/>
   <path d="m379.4,416.87-135.53,0"/>
   <path d="m247.41,420.41,0,88.406"/>
   <path d="m243.87,416.87,0,91.949"/>
   <path d="m453.72,480.65,52.264,0"/>
   <path d="m449.29,482.78,56.693,0"/>
   <path d="m510.41,483.31-4.4291,0"/>
   <path d="m510.41,474.45-1.7717,0"/>
   <path d="m510.41,474.45,0,8.8583"/>
   <path d="m562.77,420.41,0-3.5433"/>
   <path d="m572.6,420.41-9.8327,0"/>
   <path d="M572.6,420.41,585.53,391.71"/>
   <path d="m571.62,416.87,13.996-31.004"/>
   <path d="m571.62,416.87-8.8583,0"/>
   <path d="m913.46,388.35-4.872,0"/>
   <path d="m913.46,391.71,0-3.3661"/>
   <path d="m919.93,391.71-6.4666,0"/>
   <path d="M932.86,420.41,919.93,391.71"/>
   <path d="m933.75,416.87-13.996-31.004"/>
   <path d="m942.61,416.87-8.8583,0"/>
   <path d="m942.61,420.41-9.7441,0"/>
   <path d="m508.64,606.79,0-82.736"/>
   <path d="m510.41,524.06-1.7717,0"/>
   <path d="m510.41,524.06,0-8.8583"/>
   <path d="m510.5,515.11-4.5177,0.0886"/>
   <path d="m750.47,524.06,0-8.8583"/>
   <path d="m754.9,524.06,0-8.8583"/>
   <path d="m795.65,474.45-4.4291,0"/>
   <path d="m795.65,483.31-4.4291,0"/>
   <path d="m795.65,515.2-4.4291,0"/>
   <path d="m795.65,524.06-4.4291,0"/>
   <path d="m795.65,474.45,0,8.8583"/>
   <path d="m791.22,474.45,0,8.8583"/>
   <path d="m791.22,524.06,0-8.8583"/>
   <path d="m795.65,524.06,0-8.8583"/>
   <path d="m836.4,474.45-4.4291,0"/>
   <path d="m836.4,483.31-4.4291,0"/>
   <path d="m836.4,515.2-4.4291,0"/>
   <path d="m836.4,524.06-4.4291,0"/>
   <path d="m836.4,474.45,0,8.8583"/>
   <path d="m831.97,474.45,0,8.8583"/>
   <path d="m831.97,524.06,0-8.8583"/>
   <path d="m836.4,524.06,0-8.8583"/>
   <path d="m877.15,474.45-4.4291,0"/>
   <path d="m877.15,483.31-4.4291,0"/>
   <path d="m877.15,515.2-4.4291,0"/>
   <path d="m877.15,524.06-4.4291,0"/>
   <path d="m877.15,474.45,0,8.8583"/>
   <path d="m872.72,474.45,0,8.8583"/>
   <path d="m872.72,524.06,0-8.8583"/>
   <path d="m877.15,524.06,0-8.8583"/>
   <path d="m917.89,474.45-4.4291,0"/>
   <path d="m917.89,483.31-4.4291,0"/>
   <path d="m917.89,515.2-4.4291,0"/>
   <path d="m917.89,524.06-4.4291,0"/>
   <path d="m917.89,474.45,0,8.8583"/>
   <path d="m913.46,474.45,0,8.8583"/>
   <path d="m913.46,524.06,0-8.8583"/>
   <path d="m917.89,524.06,0-8.8583"/>
   <path d="m958.64,474.45-4.4291,0"/>
   <path d="m958.64,483.31-4.4291,0"/>
   <path d="m958.64,515.2-4.4291,0"/>
   <path d="m958.64,524.06-4.4291,0"/>
   <path d="m958.64,474.45,0,8.8583"/>
   <path d="m954.21,474.45,0,8.8583"/>
   <path d="m954.21,524.06,0-8.8583"/>
   <path d="m958.64,524.06,0-8.8583"/>
   <path d="m515.29,612.64,0-2.4803"/>
   <path d="m623.36,612.64,0-2.4803"/>
   <path d="m637.53,612.64,0-2.4803"/>
   <path d="m628.23,612.64-4.872,0"/>
   <path d="m628.23,610.16-4.872,0"/>
   <path d="m628.23,626.81,0-14.173"/>
   <path d="m632.66,626.81,0-14.173"/>
   <path d="m632.66,626.81-4.4291,0"/>
   <path d="m637.53,612.64-4.872,0"/>
   <path d="m628.23,610.16,0-3.3661"/>
   <path d="m628.32,606.7,4.3406,0.0886"/>
   <path d="m632.66,610.16,0-3.3661"/>
   <path d="m637.53,610.16-4.872,0"/>
   <path d="m745.6,612.64,0-2.4803"/>
   <path d="m759.77,612.64,0-2.4803"/>
   <path d="m750.47,612.64-4.872,0"/>
   <path d="m750.47,610.16-4.872,0"/>
   <path d="m750.47,626.81,0-14.173"/>
   <path d="m754.9,626.81,0-14.173"/>
   <path d="m754.9,626.81-4.4291,0"/>
   <path d="m759.77,612.64-4.872,0"/>
   <path d="m750.47,610.16,0-3.3661"/>
   <path d="m750.56,606.7,4.3406,0.0886"/>
   <path d="m754.9,610.16,0-3.3661"/>
   <path d="m759.77,610.16-4.872,0"/>
   <path d="m867.84,612.64,0-2.4803"/>
   <path d="m882.02,612.64,0-2.4803"/>
   <path d="m872.72,612.64-4.872,0"/>
   <path d="m872.72,610.16-4.872,0"/>
   <path d="m872.72,626.81,0-14.173"/>
   <path d="m877.15,626.81,0-14.173"/>
   <path d="m877.15,626.81-4.4291,0"/>
   <path d="m882.02,612.64-4.872,0"/>
   <path d="m872.72,610.16,0-3.3661"/>
   <path d="m872.81,606.7,4.3406,0.0886"/>
   <path d="m877.15,610.16,0-3.3661"/>
   <path d="m882.02,610.16-4.872,0"/>
   <path d="m990.09,612.64,0-2.4803"/>
   <path d="m1004.3,612.64,0-2.4803"/>
   <path d="m994.96,612.64-4.872,0"/>
   <path d="m668.98,388.35-4.872,0"/>
   <path d="m668.98,391.71,0-3.3661"/>
   <path d="m754.9,391.71-4.4291,0"/>
   <path d="m759.77,388.35,0-2.4804"/>
   <path d="m759.86,385.78-4.9606,0.0886"/>
   <path d="m759.77,388.35-4.872,0"/>
   <path d="m754.9,391.71,0-3.3661"/>
   <path d="m745.6,388.35,0-2.4804"/>
   <path d="m754.9,382.32-4.4291,0"/>
   <path d="m750.47,385.87-4.872,0"/>
   <path d="m750.47,385.87,0-3.5433"/>
   <path d="m754.9,385.87,0-3.5433"/>
   <path d="m750.47,388.35-4.872,0"/>
   <path d="m750.47,391.71,0-3.3661"/>
   <path d="m836.4,391.71-4.4291,0"/>
   <path d="m841.27,388.35,0-2.4804"/>
   <path d="m841.36,385.78-4.9606,0.0886"/>
   <path d="m841.27,388.35-4.872,0"/>
   <path d="m836.4,391.71,0-3.3661"/>
   <path d="m827.1,388.35,0-2.4804"/>
   <path d="m836.4,382.32-4.4291,0"/>
   <path d="m831.97,385.87-4.872,0"/>
   <path d="m831.97,385.87,0-3.5433"/>
   <path d="m836.4,385.87,0-3.5433"/>
   <path d="m831.97,388.35-4.872,0"/>
   <path d="m831.97,391.71,0-3.3661"/>
   <path d="m908.59,388.35,0-2.4804"/>
   <path d="m917.89,382.32-4.4291,0"/>
   <path d="m919.75,385.87-1.8603,0"/>
   <path d="m913.46,385.87-4.872,0"/>
   <path d="m913.46,385.87,0-3.5433"/>
   <path d="m917.89,385.87,0-3.5433"/>
   <path d="m942.61,420.41,0-3.5433"/>
   <path d="m999.39,420.41,0-0.88582"/>
   <path d="m999.39,420.41-14.262,0"/>
   <path d="m985.22,420.32-0.0886-3.4547"/>
   <path d="m551.16,474.45-4.4291,0"/>
   <path d="m551.16,483.31-4.4291,0"/>
   <path d="m551.16,515.2-4.4291,0"/>
   <path d="m551.16,524.06-4.4291,0"/>
   <path d="m551.16,474.45,0,8.8583"/>
   <path d="m546.73,474.45,0,8.8583"/>
   <path d="m546.73,524.06,0-8.8583"/>
   <path d="m551.16,524.06,0-8.8583"/>
   <path d="m591.91,474.45-4.4291,0"/>
   <path d="m591.91,483.31-4.4291,0"/>
   <path d="m591.91,515.2-4.4291,0"/>
   <path d="m591.91,524.06-4.4291,0"/>
   <path d="m591.91,474.45,0,8.8583"/>
   <path d="m587.48,474.45,0,8.8583"/>
   <path d="m587.48,524.06,0-8.8583"/>
   <path d="m591.91,524.06,0-8.8583"/>
   <path d="m632.66,474.45-4.4291,0"/>
   <path d="m632.66,483.31-4.4291,0"/>
   <path d="m632.66,515.2-4.4291,0"/>
   <path d="m632.66,524.06-4.4291,0"/>
   <path d="m632.66,474.45,0,8.8583"/>
   <path d="m628.23,474.45,0,8.8583"/>
   <path d="m628.23,524.06,0-8.8583"/>
   <path d="m632.66,524.06,0-8.8583"/>
   <path d="m673.41,474.45-4.4291,0"/>
   <path d="m673.41,483.31-4.4291,0"/>
   <path d="m673.41,515.2-4.4291,0"/>
   <path d="m673.41,524.06-4.4291,0"/>
   <path d="m673.41,474.45,0,8.8583"/>
   <path d="m668.98,474.45,0,8.8583"/>
   <path d="m668.98,524.06,0-8.8583"/>
   <path d="m673.41,524.06,0-8.8583"/>
   <path d="m714.15,474.45-4.4291,0"/>
   <path d="m714.15,483.31-4.4291,0"/>
   <path d="m714.15,515.2-4.4291,0"/>
   <path d="m714.15,524.06-4.4291,0"/>
   <path d="m714.15,474.45,0,8.8583"/>
   <path d="m709.72,474.45,0,8.8583"/>
   <path d="m709.72,524.06,0-8.8583"/>
   <path d="m714.15,524.06,0-8.8583"/>
   <path d="m754.9,474.45-4.4291,0"/>
   <path d="m754.9,483.31-4.4291,0"/>
   <path d="m754.9,515.2-4.4291,0"/>
   <path d="m754.9,524.06-4.4291,0"/>
   <path d="m754.9,474.45,0,8.8583"/>
   <path d="m750.47,474.45,0,8.8583"/>
   <path d="m1122,485.7,0,0.53153"/>
   <path d="m1121,485.7,0,0"/>
   <path d="m1121,485.7-0.2658,0"/>
   <path d="m1120.7,485.08-0.7086,0"/>
   <path d="m1120.1,484.99-0.089,1.3287"/>
   <path d="m1120.1,486.05,0,0.26574"/>
   <path d="m1120.7,485.08,0,0.97444"/>
   <path d="m1120.1,486.32,0-0.0886"/>
   <path d="m1120.7,486.05-0.62,0"/>
   <path d="m505.81,608.74,0-54.921"/>
   <path d="m456.38,608.74,49.429,0"/>
   <path d="m456.38,606.97,0,1.7716"/>
   <path d="m463.64,583.94-14.705,0"/>
   <path d="m485.96,583.94-21.171,0"/>
   <path d="m469.13,594.12,0-10.187"/>
   <path d="m469.13,608.74,0-11.959"/>
   <path d="m469.75,595.45,24.537,0"/>
   <path d="m448.94,595.45,19.665,0"/>
   <path d="M474.63,609.54,463.29,583.14"/>
   <path d="M475.78,609.54,464.44,583.14"/>
   <path d="m505.81,608.74,0-54.921"/>
   <path d="m422.98,655.87-2.4803-0.88583"/>
   <path d="m451.95,609.63-12.136,0"/>
   <path d="m451.95,606.97-13.996,0"/>
   <path d="m434.41,616.71,3.5433-9.7441"/>
   <path d="m416.96,664.55,3.5433-9.5669"/>
   <path d="m436.89,617.6,2.9232-7.9724"/>
   <path d="m419.53,665.43,3.4547-9.5669"/>
   <path d="m458.06,625.31-3.3661-1.2402"/>
   <path d="M416.96,664.55,402.87,659.41"/>
   <path d="m437.33,671.9-17.805-6.4665"/>
   <path d="m459.04,612.28-7.0866,0"/>
   <path d="m505.98,612.28-43.228,0"/>
   <path d="m454.69,624.06,4.3406-11.781"/>
   <path d="m458.06,625.31,4.6949-13.022"/>
   <path d="m444.15,663.57-3.3661-1.2402"/>
   <path d="m437.33,671.9,3.4547-9.5669"/>
   <path d="m440.61,673.14,3.5433-9.5669"/>
   <path d="m505.81,612.28,0-3.5433"/>
   <path d="m456.38,606.97-4.4291,0"/>
   <path d="m456.38,608.74,0-1.7716"/>
   <path d="m346.18,508.64,0-4.4291"/>
   <path d="m350.61,508.64,0-4.4291"/>
   <path d="m350.7,504.12-4.5177,0.0886"/>
   <path d="m350.61,508.64-4.4291,0"/>
   <path d="m247.41,546.56-3.5433,0"/>
   <path d="m247.41,508.82-3.5433,0"/>
   <path d="m379.4,416.87,0,3.5433"/>
   <path d="m453.72,478.88,0,1.7716"/>
   <path d="m449.29,478.88,4.4291,0"/>
   <path d="m449.29,478.88,0,3.8977"/>
   <path d="m508.64,474.45,0-54.035"/>
   <path d="m505.98,483.31,0-66.437"/>
   <path d="m505.98,420.41-93.986,0"/>
   <path d="m505.98,416.87-93.986,0"/>
   <path d="m522.02,416.87-16.033,0"/>
   <path d="m522.02,420.41-13.376,0"/>
   <path d="m522.02,420.41,0-3.5433"/>
   <path d="m591.91,391.71-6.378,0"/>
   <path d="m596.78,388.35,0-2.4804"/>
   <path d="m596.87,385.78-4.9606,0.0886"/>
   <path d="m596.78,388.35-4.872,0"/>
   <path d="m591.91,391.71,0-3.3661"/>
   <path d="m591.91,382.32-4.4291,0"/>
   <path d="m587.48,385.87-1.8603,0"/>
   <path d="m587.48,385.87,0-3.5433"/>
   <path d="m591.91,385.87,0-3.5433"/>
   <path d="m673.41,391.71-4.4291,0"/>
   <path d="m678.28,388.35,0-2.4804"/>
   <path d="m678.37,385.78-4.9606,0.0886"/>
   <path d="m678.28,388.35-4.872,0"/>
   <path d="m673.41,391.71,0-3.3661"/>
   <path d="m664.1,388.35,0-2.4804"/>
   <path d="m673.41,382.32-4.4291,0"/>
   <path d="m668.98,385.87-4.872,0"/>
   <path d="m668.98,385.87,0-3.5433"/>
   <path d="m673.41,385.87,0-3.5433"/>
   <path d="m1136,512.19,0-0.0886"/>
   <path d="m1135.5,512.19,0-0.0886"/>
   <path d="m1136,512.19-0.5315,0"/>
   <path d="m1134.7,512.54,0,0.26579"/>
   <path d="m1134.7,512.27,0,0.17718"/>
   <path d="m1122.3,512.45,0-0.17718"/>
   <path d="m1122.3,512.81,0-0.26579"/>
   <path d="m1122,512.45,13.022,0"/>
   <path d="m1135,512.54-13.022,0"/>
   <path d="m1135,512.81-13.022,0"/>
   <path d="m1122.3,512.19,12.49,0"/>
   <path d="m1135.7,512.19,0,0.62009"/>
   <path d="m1135,512.27-0.2658,0"/>
   <path d="m1136,512.19-1.2402,0"/>
   <path d="m1135.7,512.81-0.7086,0"/>
   <path d="m1135,512.27,0,0.53153"/>
   <path d="m1134.7,512.19,0-0.0886"/>
   <path d="m1121.3,512.72,0-0.53148"/>
   <path d="m1121.4,512.1,0.8859,0.0886"/>
   <path d="m1122,512.27,0.2658,0"/>
   <path d="m1121,512.81,0.9744,0"/>
   <path d="m1121,512.72,0.2658,0"/>
   <path d="m1122.3,512.27,0-0.0886"/>
   <path d="m1122,512.81,0-0.53153"/>
   <path d="m1121,512.81,0-0.0886"/>
   <path d="m1121,512.81-0.2658,0"/>
   <path d="m1120.7,513.43-0.7086,0"/>
   <path d="m1120.1,513.34-0.089-1.1516"/>
   <path d="m1120.1,512.45,0-0.26574"/>
   <path d="m1120.7,513.43,0-0.97438"/>
   <path d="m1120.1,512.19,0-0.0886"/>
   <path d="m1120.7,512.45-0.62,0"/>
   <path d="m1136,485.7,0,0"/>
   <path d="m1135.5,485.7,0,0"/>
   <path d="m1136,485.7-0.5315,0"/>
   <path d="m1134.7,485.96,0-0.26573"/>
   <path d="m1134.7,486.23,0-0.17718"/>
   <path d="m1122.3,486.05,0,0.17718"/>
   <path d="m1122.3,485.7,0,0.26573"/>
   <path d="m1122,486.05,13.022,0"/>
   <path d="m1135,485.96-13.022,0"/>
   <path d="m1135,485.7-13.022,0"/>
   <path d="m1122.3,486.32,12.49,0"/>
   <path d="m1135.7,486.32,0-0.62009"/>
   <path d="m1135,486.23-0.2658,0"/>
   <path d="m1135.7,486.32-0.9744,0"/>
   <path d="m1136,485.7-0.9744,0"/>
   <path d="m1135,486.23,0-0.53153"/>
   <path d="m1134.7,486.32,0-0.0886"/>
   <path d="m1121.3,485.79,0,0.53148"/>
   <path d="m1121.4,486.23,0.8859,0.0886"/>
   <path d="m1122,486.23,0.2658,0"/>
   <path d="m1121,485.7,0.9744,0"/>
   <path d="m1121,485.79,0.2658,0"/>
   <path d="m1122.3,486.23,0,0"/>
   <path d="m490.84,512.19,0-0.0886"/>
   <path d="m491.37,512.19,0-0.0886"/>
   <path d="m490.84,512.19,0.53153,0"/>
   <path d="m492.08,512.54,0,0.26579"/>
   <path d="m492.08,512.27,0,0.17718"/>
   <path d="m504.57,512.45,0-0.17718"/>
   <path d="m504.57,512.81,0-0.26579"/>
   <path d="m504.83,512.45-13.022,0"/>
   <path d="m491.81,512.54,13.022,0"/>
   <path d="m491.81,512.81,13.022,0"/>
   <path d="m504.57,512.19-12.49,0"/>
   <path d="m491.1,512.19,0,0.62009"/>
   <path d="m491.81,512.27,0.26574,0"/>
   <path d="m490.84,512.19,1.2402,0"/>
   <path d="m491.1,512.81,0.70865,0"/>
   <path d="m491.81,512.27,0,0.53153"/>
   <path d="m492.08,512.19,0-0.0886"/>
   <path d="m505.54,512.72,0-0.53148"/>
   <path d="m505.63,512.1-1.063,0.0886"/>
   <path d="m504.83,512.27-0.26579,0"/>
   <path d="m505.81,512.81-0.97439,0"/>
   <path d="m505.81,512.72-0.26574,0"/>
   <path d="m504.57,512.27,0-0.0886"/>
   <path d="m504.83,512.81,0-0.53153"/>
   <path d="m505.81,512.81,0-0.0886"/>
   <path d="m505.81,512.81,0.17717,0"/>
   <path d="m505.98,513.43,0.70865,0"/>
   <path d="m506.78,513.34-0.0886-1.1516"/>
   <path d="m506.69,512.45,0-0.26574"/>
   <path d="m505.98,513.43,0-0.97438"/>
   <path d="m506.69,512.19,0-0.0886"/>
   <path d="m505.98,512.45,0.70865,0"/>
   <path d="m490.84,485.7,0,0"/>
   <path d="m491.37,485.7,0,0"/>
   <path d="m490.84,485.7,0.53153,0"/>
   <path d="m492.08,485.96,0-0.26573"/>
   <path d="m492.08,486.23,0-0.17718"/>
   <path d="m504.57,486.05,0,0.17718"/>
   <path d="m504.57,485.7,0,0.26573"/>
   <path d="m504.83,486.05-13.022,0"/>
   <path d="m491.81,485.96,13.022,0"/>
   <path d="m491.81,485.7,13.022,0"/>
   <path d="m504.57,486.32-12.49,0"/>
   <path d="m491.1,486.32,0-0.62009"/>
   <path d="m491.81,486.23,0.26574,0"/>
   <path d="m491.1,486.32,0.97439,0"/>
   <path d="m490.84,485.7,0.97444,0"/>
   <path d="m491.81,486.23,0-0.53153"/>
   <path d="m492.08,486.32,0-0.0886"/>
   <path d="m505.54,485.79,0,0.53148"/>
   <path d="m505.63,486.23-1.063,0.0886"/>
   <path d="m504.83,486.23-0.26579,0"/>
   <path d="m505.81,485.7-0.97439,0"/>
   <path d="m505.81,485.79-0.26574,0"/>
   <path d="m504.57,486.23,0,0"/>
   <path d="m504.83,485.7,0,0.53153"/>
   <path d="m505.81,485.7,0,0"/>
   <path d="m505.81,485.7,0.17717,0"/>
   <path d="m505.98,485.08,0.70865,0"/>
   <path d="m506.78,484.99-0.0886,1.3287"/>
   <path d="m506.69,486.05,0,0.26574"/>
   <path d="m505.98,485.08,0,0.97444"/>
   <path d="m506.69,486.32,0-0.0886"/>
   <path d="m505.98,486.05,0.70865,0"/>
   <path d="m958.38,403.32,0-0.26574"/>
   <path d="m958.38,419.88,0-0.26574"/>
   <path d="m958.02,403.05,0.35436,0"/>
   <path d="m958.38,403.32,0.35435,0"/>
   <path d="m958.73,419.62,0-16.299"/>
   <path d="m958.38,419.62,0.35435,0"/>
   <path d="m958.02,419.88,0.35436,0"/>
   <path d="m958.02,419.88,0-16.831"/>
   <path d="m958.11,420.06,0.26579,0"/>
   <path d="m958.29,419.88,0,0.35435"/>
   <path d="m976.18,420.59,0-0.3543"/>
   <path d="m975.47,421.3,0-0.70865"/>
   <path d="m974.94,420.59,0-0.3543"/>
   <path d="m974.76,421.3,0-0.70865"/>
   <path d="m976.18,421.65,0-0.35435"/>
   <path d="m974.94,421.65,0-0.35435"/>
   <path d="m974.94,421.65,1.2402,0"/>
   <path d="m974.76,421.3,1.4173,0"/>
   <path d="m974.76,420.59,1.4173,0"/>
   <path d="m974.94,420.24,1.2402,0"/>
   <path d="m957.4,421.3,0,0.35435"/>
   <path d="m958.11,420.59,0,0.70865"/>
   <path d="m958.64,421.3,0,0.35435"/>
   <path d="m958.82,420.59,0,0.70865"/>
   <path d="m957.4,420.24,0,0.3543"/>
   <path d="m958.64,420.24,0,0.3543"/>
   <path d="m958.64,420.24-1.2401,0"/>
   <path d="m958.82,420.59-1.4173,0"/>
   <path d="m958.82,421.3-1.4173,0"/>
   <path d="m958.64,421.65-1.2401,0"/>
   <path d="m1093.6,438.13-1.7716,0"/>
   <path d="m1091.9,474.45,1.7716,0"/>
   <path d="m1093.7,474.36-0.089-36.23"/>
   <path d="m1091.9,474.45,0-36.319"/>
   <path d="m453.72,524.06-1.7716,0"/>
   <path d="m451.95,551.16,1.7716,0"/>
   <path d="m453.81,551.07-0.0886-27.018"/>
   <path d="m451.95,551.16,0-27.106"/>
   <path d="m448.94,438.13,0.35435,0"/>
   <path d="m448.94,436.89,0.35435,0"/>
   <path d="m448.94,436.89,0,1.2401"/>
   <path d="m449.29,436.71,0,1.4173"/>
   <path d="m452.83,436.71,0,1.3287"/>
   <path d="m453.1,436.8,0,1.2402"/>
   <path d="m449.29,421.83,3.5433,0"/>
   <path d="m452.83,422.45,0.26573,0"/>
   <path d="m452.83,421.21,0.26573,0"/>
   <path d="m449.29,422.54,3.5433,0"/>
   <path d="m448.94,421.12,0.35435,0"/>
   <path d="m448.94,422.36,0.35435,0"/>
   <path d="m448.94,422.36,0-1.2401"/>
   <path d="m449.29,422.54,0-1.4173"/>
   <path d="m452.83,422.54,0-1.3287"/>
   <path d="m453.1,422.45,0-1.2402"/>
   <path d="m465.94,422.63,0,0.44292"/>
   <path d="m465.77,422.36,0,0.26574"/>
   <path d="m465.86,422.54,0.0886,0.0886"/>
   <path d="m476.66,423.07-10.718,0"/>
   <path d="m476.66,423.07,0-0.44292"/>
   <path d="m476.84,422.63-0.17718,0"/>
   <path d="m476.84,422.63,0-0.26574"/>
   <path d="m476.93,422.27-11.161,0.0886"/>
   <path d="m477.02,422.54,0-0.17718"/>
   <path d="m477.11,422.45-0.26574,0"/>
   <path d="m477.46,421.65-0.35435,0"/>
   <path d="m479.14,421.74-0.26579,0"/>
   <path d="m478.88,422.36-1.4173,0"/>
   <path d="m477.46,422.89-0.35435,0"/>
   <path d="m479.14,422.98-0.26579,0"/>
   <path d="m477.11,422.89,0-1.2402"/>
   <path d="m477.46,423.07,0-1.4173"/>
   <path d="m478.88,423.07,0-1.3288"/>
   <path d="m479.14,422.98,0-1.2402"/>
   <path d="m477.11,435.3,0-1.2402"/>
   <path d="m477.46,435.3,0-1.4174"/>
   <path d="m478.88,435.21,0-1.3287"/>
   <path d="m477.46,434.06-0.35435,0"/>
   <path d="m479.14,435.21,0-1.2401"/>
   <path d="m478.88,434.59-1.4173,0"/>
   <path d="m477.46,435.3-0.35435,0"/>
   <path d="m479.14,435.21-0.26579,0"/>
   <path d="m478.88,423.07-1.4173,0"/>
   <path d="m478.88,433.88-1.4173,0"/>
   <path d="m479.14,433.97-0.26579,0"/>
   <path d="m488.18,477.11,0-0.44292"/>
   <path d="m488.36,477.37,0-0.26579"/>
   <path d="m488.44,477.02-0.26579,0.0886"/>
   <path d="m477.46,476.66,10.718,0"/>
   <path d="m477.46,476.66,0,0.44292"/>
   <path d="m477.28,477.11,0.17718,0"/>
   <path d="m477.28,477.11,0,0.26579"/>
   <path d="m477.37,477.28,10.984,0.0886"/>
   <path d="m477.11,477.11,0,0.26579"/>
   <path d="m476.93,477.28,0.3543,0"/>
   <path d="m476.57,477.99,0.35435,0"/>
   <path d="m474.89,477.9,0.26579,0"/>
   <path d="m475.16,477.28,1.4173,0"/>
   <path d="m476.57,476.75,0.35435,0"/>
   <path d="m474.89,476.66,0.26579,0"/>
   <path d="m476.93,476.75,0,1.2401"/>
   <path d="m476.57,476.57,0,1.4173"/>
   <path d="m475.16,476.57,0,1.3287"/>
   <path d="m474.89,476.66,0,1.2402"/>
   <path d="m476.93,464.35,0,1.2401"/>
   <path d="m476.57,464.35,0,1.4173"/>
   <path d="m475.16,464.44,0,1.3287"/>
   <path d="m476.57,465.59,0.35435,0"/>
   <path d="m474.89,464.44,0,1.2402"/>
   <path d="m475.16,465.06,1.4173,0"/>
   <path d="m476.57,464.35,0.35435,0"/>
   <path d="m474.89,464.44,0.26579,0"/>
   <path d="m475.16,476.57,1.4173,0"/>
   <path d="m475.16,465.77,1.4173,0"/>
   <path d="m474.89,465.68,0.26579,0"/>
   <path d="m423.96,648.43,0.0886-0.26574"/>
   <path d="m423.96,648.43,15.679,5.7579"/>
   <path d="m423.78,648.34,0.0886-0.17715"/>
   <path d="m423.96,648.34-0.35433-0.17715"/>
   <path d="m423.25,649.13,0.44291-1.3287"/>
   <path d="m422.72,648.87,0.44291-1.4173"/>
   <path d="m423.43,647.54-0.26574-0.0886"/>
   <path d="m441.67,627.08-0.0886,0.26576"/>
   <path d="m441.32,627.25-0.0886,0.35433"/>
   <path d="m432.81,623-0.62009-0.26574"/>
   <path d="m432.02,624.06-0.0886,0.17718"/>
   <path d="m432.28,624.24-0.26573-0.17718"/>
   <path d="m441.32,627.25,0.26574,0.0886"/>
   <path d="m432.73,624.15,0.26573,0.0886"/>
   <path d="m432.9,624.51,8.3268,3.1004"/>
   <path d="m432.99,624.24-0.0886,0.26573"/>
   <path d="m432.9,623.89-0.17717,0.26577"/>
   <path d="m432.9,623.89,8.7697,3.189"/>
   <path d="m432.73,623.8-0.0886,0.26574"/>
   <path d="m432.81,623.98-0.35433-0.0886"/>
   <path d="m432.81,623-0.53151,1.2402"/>
   <path d="m958.73,403.32,0.35424,0"/>
   <path d="m962.27,403.85,0.35424,0.0886"/>
   <path d="m968.56,406.86,0.26569,0.26573"/>
   <path d="m971.13,409.34,0.17712,0.26579"/>
   <path d="m973.08,412.26,0.17712,0.3543"/>
   <path d="m974.41,415.54,0.0886,0.35435"/>
   <path d="m974.94,419.08,0,0.35436"/>
   <path d="m477.37,434.06-0.35435,0"/>
   <path d="m473.92,433.61-0.35435-0.0886"/>
   <path d="m470.73,432.02-0.26579-0.17718"/>
   <path d="m468.16,429.63-0.17718-0.26573"/>
   <path d="m466.48,426.53-0.0886-0.26574"/>
   <path d="m476.66,465.59,0.35436,0"/>
   <path d="m480.21,466.12,0.35435,0.0886"/>
   <path d="m483.4,467.63,0.26574,0.17713"/>
   <path d="m485.96,470.02,0.17718,0.2658"/>
   <path d="m487.65,473.12,0.0886,0.35435"/>
   <path d="m432.19,622.74-0.53151,1.4173"/>
   <path d="m431.93,624.24-0.26577-0.0886"/>
   <path d="m436.89,617.6-2.4803-0.88583"/>
   <path d="m350.61,576.32,0-4.4291"/>
   <path d="m433.52,477.81,0.35432,0"/>
   <path d="m433.88,477.46,0,0.35435"/>
   <path d="m433.52,477.81,0,0.26574"/>
   <path d="m433.88,477.46,14.439,0"/>
   <path d="m448.41,477.37-0.0886,0.44291"/>
   <path d="m448.58,477.81,0,0.26574"/>
   <path d="m448.32,477.81,0.26574,0"/>
   <path d="m433.52,478.08,15.059,0"/>
   <path d="m448.58,477.9,0.35433,0"/>
   <path d="m449.29,477.99,3.5433,0"/>
   <path d="m452.83,477.37,0.26573,0"/>
   <path d="m452.83,478.61,0.26573,0"/>
   <path d="m449.29,477.28,3.5433,0"/>
   <path d="m448.94,478.7,0.35435,0"/>
   <path d="m448.94,477.46,0.35435,0"/>
   <path d="m448.94,477.46,0,1.2402"/>
   <path d="m449.29,477.28,0,1.4174"/>
   <path d="m452.83,477.28,0,1.3287"/>
   <path d="m453.1,477.37,0,1.2401"/>
   <path d="m449.29,462.4,3.5433,0"/>
   <path d="m452.83,463.02,0.26573,0"/>
   <path d="m452.83,461.78,0.26573,0"/>
   <path d="m449.29,463.11,3.5433,0"/>
   <path d="m448.94,461.69,0.35435,0"/>
   <path d="m448.94,462.93,0.35435,0"/>
   <path d="m448.94,462.93,0-1.2401"/>
   <path d="m449.29,463.11,0-1.4173"/>
   <path d="m452.83,463.11,0-1.3288"/>
   <path d="m453.1,463.02,0-1.2402"/>
   <path d="m433.52,437.24,0.35432,0"/>
   <path d="m433.88,436.89,0,0.3543"/>
   <path d="m433.52,437.24,0,0.26579"/>
   <path d="m433.88,436.89,14.439,0"/>
   <path d="m448.41,436.8-0.0886,0.44291"/>
   <path d="m448.58,437.24,0,0.26579"/>
   <path d="m448.32,437.24,0.26574,0"/>
   <path d="m433.52,437.51,15.059,0"/>
   <path d="m448.58,437.33,0.35433,0"/>
   <path d="m449.29,437.42,3.5433,0"/>
   <path d="m452.83,436.8,0.26573,0"/>
   <path d="m452.83,438.04,0.26573,0"/>
   <path d="m449.29,436.71,3.5433,0"/>
   <path d="m476.04,667.38,0.0886-0.17714"/>
   <path d="m475.87,667.12,0.0886-0.35433"/>
   <path d="m459.66,662.33-0.62009-0.17718"/>
   <path d="m459.74,661,0.0886-0.17718"/>
   <path d="m460.1,661.09-0.35436-0.0886"/>
   <path d="m475.87,667.12,0.26574,0.0886"/>
   <path d="m460.36,661.45,0.26574,0.0886"/>
   <path d="m460.72,661.18,15.236,5.5807"/>
   <path d="m460.63,661.54,0.0886-0.35432"/>
   <path d="m460.28,661.71,0.0886-0.26574"/>
   <path d="m460.28,661.71,15.768,5.6693"/>
   <path d="m460.1,661.62,0.0886-0.26574"/>
   <path d="m460.36,661.54-0.35435-0.0886"/>
   <path d="m459.66,662.33,0.44292-1.2402"/>
   <path d="m459.04,662.16,0.53148-1.4173"/>
   <path d="m459.83,660.83-0.26574-0.0886"/>
   <path d="m478.08,640.36-0.0886,0.17717"/>
   <path d="m477.73,640.45-0.17718,0.35432"/>
   <path d="m469.13,636.2-0.53148-0.17718"/>
   <path d="m468.34,637.35,0,0.17718"/>
   <path d="m468.69,637.44-0.35429-0.0886"/>
   <path d="m477.73,640.45,0.26573,0.0886"/>
   <path d="m469.13,637.35,0.26579,0.0886"/>
   <path d="m469.31,637.8,8.2382,3.0118"/>
   <path d="m469.4,637.44-0.0886,0.35433"/>
   <path d="m469.22,637.09-0.0886,0.26573"/>
   <path d="m469.22,637.09,8.8583,3.2775"/>
   <path d="m469.05,637.09-0.0886,0.17714"/>
   <path d="m469.22,637.26-0.44291-0.17714"/>
   <path d="m469.13,636.2-0.44292,1.2402"/>
   <path d="m468.6,636.02-0.53147,1.4173"/>
   <path d="m468.34,637.53-0.26574-0.0886"/>
   <path d="m439.64,654.18,0.0886-0.26574"/>
   <path d="m439.46,653.83,0.17715-0.35433"/>
   <path d="m423.25,649.13-0.53147-0.26574"/>
   <path d="m423.43,647.72,0-0.17718"/>
   <path d="m423.69,647.81-0.26573-0.0886"/>
   <path d="m439.46,653.83,0.26573,0.0886"/>
   <path d="m424.05,648.16,0.17715,0.0886"/>
   <path d="m424.4,647.98,15.236,5.4921"/>
   <path d="m424.22,648.25,0.17717-0.26574"/>
   <path d="m270.97,504.83,0,0.3543"/>
   <path d="m287.45,504.83,0,0.3543"/>
   <path d="m287.72,488,0-0.26579"/>
   <path d="m287.72,504.48,0-0.26574"/>
   <path d="m287.36,504.21,0-16.211"/>
   <path d="m287.72,504.21-0.35432,0"/>
   <path d="m287.98,504.48-0.26577,0"/>
   <path d="m287.98,504.48,0-16.742"/>
   <path d="m287.98,504.66-0.26577,0"/>
   <path d="m287.81,504.48,0,0.35435"/>
   <path d="m270.97,504.83-1.3287,0"/>
   <path d="m288.78,504.83-1.3287,0"/>
   <path d="m271.15,505.45-1.5059,0"/>
   <path d="m288.78,505.45-1.5059,0"/>
   <path d="m271.15,505.19,0,0.26573"/>
   <path d="m287.27,505.19,0,0.26573"/>
   <path d="m345.21,524.59,0,0.26573"/>
   <path d="m345.47,524.85-0.26574,0"/>
   <path d="m345.21,524.59-0.35435,0"/>
   <path d="m346.36,509.26,0-0.62009"/>
   <path d="m345.03,508.91-0.17718,0"/>
   <path d="m345.03,509.26,0-0.35435"/>
   <path d="m345.21,509.7,0,0.26573"/>
   <path d="m344.85,509.97,0,14.616"/>
   <path d="m345.21,509.97-0.35435,0"/>
   <path d="m345.47,509.7-0.26574,0"/>
   <path d="m345.47,509.7,0,15.148"/>
   <path d="m345.47,509.53-0.26574,0"/>
   <path d="m345.38,509.7,0-0.44292"/>
   <path d="m346.36,509.26-1.3287,0"/>
   <path d="m346.36,508.64-1.5059,0"/>
   <path d="m344.85,508.91,0-0.26574"/>
   <path d="m315.27,524.85,0.35433,0"/>
   <path d="m315,524.59,0.26574,0"/>
   <path d="m314.2,509.26,0-0.62009"/>
   <path d="m315.53,508.91,0.17715,0"/>
   <path d="m315.53,509.26,0-0.35435"/>
   <path d="m315.27,524.59,0,0.26573"/>
   <path d="m315.27,509.7,0,0.26573"/>
   <path d="m315.62,509.97,0,14.882"/>
   <path d="m315.27,509.97,0.35433,0"/>
   <path d="m315,509.7,0.26574,0"/>
   <path d="m315,509.7,0,14.882"/>
   <path d="m315,509.53,0.26574,0"/>
   <path d="m315.18,509.7,0-0.44292"/>
   <path d="m314.2,509.26,1.3287,0"/>
   <path d="m314.2,508.64,1.5059,0"/>
   <path d="m315.71,508.91,0-0.26574"/>
   <path d="m1127.9,607.94,0.2657,0"/>
   <path d="m1127.7,607.94,0.2658,0"/>
   <path d="m1127.7,608.92,0.5315,0"/>
   <path d="m1128.3,608.83-0.088-0.88583"/>
   <path d="m1128.2,608.21,0-0.26577"/>
   <path d="m1127.7,609.18,0-0.97441"/>
   <path d="m1127.7,609.18,0-0.26576"/>
   <path d="m1128.2,607.94,0,0"/>
   <path d="m1127.7,608.21,0.5315,0"/>
   <path d="m1127.7,609.18,0,0"/>
   <path d="m1127.7,609.18,0,0.26574"/>
   <path d="m1126.9,609.45,0,0.70865"/>
   <path d="m1127,610.07,1.1516,0.0886"/>
   <path d="m1127.9,610.07,0.2657,0"/>
   <path d="m1126.9,609.45,0.9745,0"/>
   <path d="m1128.2,610.07,0,0"/>
   <path d="m1127.9,609.45,0,0.62009"/>
   <path d="m330.94,550.19,0,0.26579"/>
   <path d="m331.21,550.45,0,0.3543"/>
   <path d="m346.18,566.04,0.70868,0"/>
   <path d="m346.18,549.74,0.70868,0"/>
   <path d="m346.54,564.98,0,0.17718"/>
   <path d="m346.54,550.63,0,0.17718"/>
   <path d="m346.18,565.16,0.35435,0"/>
   <path d="m346.18,550.63,0.35435,0"/>
   <path d="m331.21,550.45-0.26573,0"/>
   <path d="m345.83,550.45-0.26574,0"/>
   <path d="m345.56,550.81-14.35,0"/>
   <path d="m345.56,550.45,0,0.3543"/>
   <path d="m345.83,550.19,0,0.26579"/>
   <path d="m345.83,550.19-14.882,0"/>
   <path d="m346,550.19,0,0.26579"/>
   <path d="m345.83,550.28,0.35432,0"/>
   <path d="m346.18,565.16,0,0.88583"/>
   <path d="m346.18,549.74,0,0.88583"/>
   <path d="m346.89,564.98,0,1.063"/>
   <path d="m346.89,549.74,0,1.063"/>
   <path d="m346.54,564.98,0.35433,0"/>
   <path d="m346.54,550.81,0.35433,0"/>
   <path d="m287.98,487.74-0.26577,0"/>
   <path d="m287.72,488-0.35432,0"/>
   <path d="m269.65,504.83,0,0.62003"/>
   <path d="m288.78,504.83,0,0.62003"/>
   <path d="m271.15,505.19-0.17718,0"/>
   <path d="m287.45,505.19-0.17718,0"/>
   <path d="m433.88,477.81,0-0.35435"/>
   <path d="m434.32,474.27,0.0886-0.35436"/>
   <path d="m435.56,470.99,0.17715-0.35435"/>
   <path d="m437.6,468.07,0.26573-0.26579"/>
   <path d="m440.26,465.68,0.26573-0.17717"/>
   <path d="m443.36,464.08,0.35432-0.17718"/>
   <path d="m446.72,463.2,0.35435-0.0886"/>
   <path d="m433.88,437.24,0-0.3543"/>
   <path d="m434.32,433.7,0.0886-0.3543"/>
   <path d="m435.56,430.42,0.17715-0.35435"/>
   <path d="m437.6,427.5,0.26573-0.26574"/>
   <path d="m440.26,425.11,0.26573-0.17718"/>
   <path d="m443.36,423.51,0.35432-0.17712"/>
   <path d="m446.72,422.63,0.35435-0.0886"/>
   <path d="m344.94,524.59-0.35433-0.0886"/>
   <path d="m341.4,523.97-0.35432-0.0886"/>
   <path d="m338.12,522.73-0.26576-0.17713"/>
   <path d="m335.29,520.6-0.26573-0.17718"/>
   <path d="m332.98,517.94-0.26574-0.26573"/>
   <path d="m331.3,514.84-0.0886-0.35435"/>
   <path d="m330.41,511.39,0-0.35429"/>
   <path d="m331.21,509-0.0886,0.35435"/>
   <path d="m330.86,512.54-0.0886,0.35435"/>
   <path d="m329.79,515.91-0.17715,0.26574"/>
   <path d="m327.84,518.83-0.17717,0.3543"/>
   <path d="m325.36,521.4-0.26573,0.17717"/>
   <path d="m322.35,523.17-0.35433,0.17718"/>
   <path d="m318.99,524.23-0.35433,0.0886"/>
   <path d="m346.89,565.07-0.35433,0"/>
   <path d="m343.35,564.71-0.26576-0.0886"/>
   <path d="m340.07,563.65-0.35432-0.17717"/>
   <path d="m337.06,561.7-0.26574-0.17712"/>
   <path d="m334.58,559.13-0.17717-0.26574"/>
   <path d="m332.81,556.12-0.0886-0.3543"/>
   <path d="m331.83,552.76,0-0.35436"/>
   <path d="m271.15,505.45,0-0.35429"/>
   <path d="m271.42,501.91,0.0886-0.3543"/>
   <path d="m274.07,495.35,0.17717-0.26574"/>
   <path d="m276.29,492.7,0.26577-0.26574"/>
   <path d="m279.12,490.48,0.26574-0.17717"/>
   <path d="m282.31,488.98,0.26574-0.17718"/>
   <path d="m285.68,488.18,0.35433-0.0886"/>
   <path d="m1094.9,443.44,4.6062,0"/>
   <path d="m467.01,561.44,6.2008,0"/>
   <path d="m400.57,507.14,6.1122,0"/>
   <path d="m281.69,564.54,6.2008,0"/>
   <path d="m257.16,523.35,6.2008,0"/>
   <path d="m279.92,526,3.9862,0"/>
   <path d="m256.45,459.39,6.2008,0"/>
   <path d="m279.21,462.05,3.9862,0"/>
   <path d="m316.42,442.2,6.2008,0"/>
   <path d="m436.98,635.94,6.2008,0"/>
   <path d="m463.38,471.79,6.2008,0"/>
   <path d="m471.08,474.45,3.9862,0"/>
   <path d="m483.93,474.45,3.8976,0"/>
   <path d="m467.19,442.12,6.2008,0"/>
   <path d="m474.98,444.69,3.8976,0"/>
   <path d="m620.7,550.72,6.2008,0"/>
   <path d="m643.11,553.38,3.8977,0"/>
   <path d="m921.53,327.05,6.2008,0"/>
   <path d="m958.2,398,6.2008,0"/>
   <path d="m1104.2,491.37,6.1122,0"/>
   <path d="m1095.5,504.92,0,1.4173"/>
   <path d="m1094.9,504.92,0,1.3287"/>
   <path d="m1094.6,505.01,0,1.2402"/>
   <path d="m931.36,361.95,20.551-9.5669"/>
   <path d="M962.89,375.94,929.32,303.66"/>
   <path d="m908.77,313.23,33.573,72.284"/>
   <path d="m942.79,267.17,11.25,24.094"/>
   <path d="m941.99,267.52,0.79727-0.35435"/>
   <path d="m908.15,259.81,24.892-11.604"/>
   <path d="M724.96,345.03,908.15,259.81"/>
   <path d="m896.9,235.72,24.892-11.604"/>
   <path d="m894.51,236.87,2.3918-1.1516"/>
   <path d="m905.31,253.79,24.892-11.604"/>
   <path d="M902.48,247.77,927.37,236.16"/>
   <path d="m899.73,241.74,24.892-11.604"/>
   <path d="m896.9,235.72,11.25,24.094"/>
   <path d="m894.51,236.87,11.161,24.094"/>
   <path d="m921.79,224.11,11.25,24.094"/>
   <path d="m743.65,343.17,3.7205,8.061"/>
   <path d="m724.96,345.03,9.0354,19.222"/>
   <path d="m885.65,270.27,20.108,43.406"/>
   <path d="m933.04,248.21,8.9468,19.311"/>
   <path d="m962.89,375.94-20.551,9.5669"/>
   <path d="M960.68,371.16,940.13,380.73"/>
   <path d="m958.46,366.38-20.551,9.567"/>
   <path d="m956.25,361.51-20.64,9.567"/>
   <path d="m953.95,356.72-20.551,9.5669"/>
   <path d="m951.73,351.85-20.551,9.5669"/>
   <path d="m949.52,347.07-20.64,9.5669"/>
   <path d="m947.21,342.28-20.551,9.5669"/>
   <path d="m945,337.41-20.551,9.5669"/>
   <path d="m942.79,332.63-20.551,9.5669"/>
   <path d="m940.48,327.76-20.551,9.5669"/>
   <path d="m938.27,322.97-20.551,9.567"/>
   <path d="m936.05,318.19-20.551,9.5669"/>
   <path d="m933.75,313.32-20.551,9.5669"/>
   <path d="m931.54,308.53-20.551,9.5669"/>
   <path d="m929.32,303.66-20.551,9.5669"/>
   <path d="m946.24,319.25,10.098-4.6949"/>
   <path d="m931.54,301.71,20.817-9.7441"/>
   <path d="m908.33,312.43-2.5689,1.2401"/>
   <path d="m942.25,392.07-1.9488,0.88582"/>
   <path d="M942.25,392.07,905.76,313.67"/>
   <path d="m954.04,291.26-1.6831,0.70865"/>
   <path d="m994.87,371.69-3.4548,0"/>
   <path d="m991.51,371.6-37.471-80.344"/>
   <path d="M990.27,373.46,952.35,291.97"/>
   <path d="m941.81,396.14-1.5059-3.189"/>
   <path d="M946.33,394.1,908.33,312.43"/>
   <path d="m946.33,394.1-4.5178,2.0374"/>
   <path d="m933.84,399.86-6.3779,3.0118"/>
   <path d="m932.33,396.67-6.3779,2.9232"/>
   <path d="m933.84,399.86-1.5059-3.189"/>
   <path d="m994.87,373.46-4.6063,0"/>
   <path d="m505.98,515.2,0,0.53153"/>
   <path d="m941.9,296.84,38.002,81.585"/>
   <path d="m990.27,373.46-20.817,9.8327"/>
   <path d="m940.66,268.14,1.3287-0.62009"/>
   <path d="M734,364.25,924.27,275.76"/>
   <path d="m932.33,251.4,0.0886,0"/>
   <path d="m931.71,252.28,0.79716-0.3543"/>
   <path d="m938.62,267.34,0.88582-0.44292"/>
   <path d="m942.43,268.05-0.0886-0.0886"/>
   <path d="m940.93,268.58,1.4174-0.62009"/>
   <path d="m940.04,269.2,2.3918-1.1516"/>
   <path d="m939.77,268.67,0.26569-0.0886"/>
   <path d="m940.13,267.25,0.0886-0.0886"/>
   <path d="m939.6,267.52,0.53159-0.17717"/>
   <path d="m924.09,274.78,0.44292-0.26573"/>
   <path d="m940.93,268.58-0.70859-1.4174"/>
   <path d="M940.84,268.85,940.13,267.25"/>
   <path d="m940.04,268.58-0.44292-1.063"/>
   <path d="m940.04,269.2-0.26569-0.53153"/>
   <path d="m925.6,275.94-0.26579-0.53147"/>
   <path d="m925.07,275.58-0.53158-1.063"/>
   <path d="m925.07,275.58,0.26568-0.17712"/>
   <path d="m923.83,274.78,0.17712-0.0886"/>
   <path d="m924.54,276.2-0.7086-1.4173"/>
   <path d="m923.12,276.91,1.4173-0.70865"/>
   <path d="m923.21,277.09-0.0886-0.17717"/>
   <path d="m924.8,276.29-0.79727-1.5945"/>
   <path d="m923.21,277.09,2.3918-1.1516"/>
   <path d="m932.51,251.93-0.17712-0.53152"/>
   <path d="m938.62,267.34-6.9094-15.059"/>
   <path d="m939.6,267.17-0.0886-0.26574"/>
   <path d="m939.69,267.08-7.2638-15.679"/>
   <path d="m1094.9,505.63,0.62,0"/>
   <path d="m1095.5,509.53,0-3.8977"/>
   <path d="m1094.9,509.53,0-3.8977"/>
   <path d="m1101.5,485.08-0.2658,0"/>
   <path d="m1101.5,485.43,0-0.35435"/>
   <path d="m1101.3,485.08,0-0.26574"/>
   <path d="m1111,505.01,0,0.35435"/>
   <path d="m1111.3,505.36,0,0.26574"/>
   <path d="m1111.3,505.36-0.2658,0"/>
   <path d="m1111,505.01-14.528,0"/>
   <path d="m1096.6,504.92-0.089,0.44291"/>
   <path d="m1096.2,505.36,0,0.26574"/>
   <path d="m1096.5,505.36-0.2658,0"/>
   <path d="m1111.3,505.63-15.059,0"/>
   <path d="m1096.2,505.54-0.3543,0"/>
   <path d="m1095.9,505.1,0,1.2401"/>
   <path d="m1101.5,485.43-5.0492,0"/>
   <path d="m1096.6,485.34-0.089-0.26579"/>
   <path d="m1096.2,485.08,0-0.26574"/>
   <path d="m1096.5,485.08-0.2658,0"/>
   <path d="m1101.3,484.81-5.0492,0"/>
   <path d="m1096.2,484.99-0.3543,0"/>
   <path d="m1095.5,484.81-0.62,0"/>
   <path d="m1094.9,485.43-0.2658,0"/>
   <path d="m1094.9,484.19-0.2658,0"/>
   <path d="m1095.5,485.52-0.62,0"/>
   <path d="m1095.9,484.19-0.3544,0"/>
   <path d="m1095.9,485.34-0.3544,0"/>
   <path d="m1095.9,485.34,0-1.1516"/>
   <path d="m1095.5,485.52,0-1.3287"/>
   <path d="m1094.9,485.52,0-1.3287"/>
   <path d="m1094.6,485.43,0-1.2402"/>
   <path d="m1095.5,505.63-0.62,0"/>
   <path d="m1094.9,505.01-0.2658,0"/>
   <path d="m1094.9,506.25-0.2658,0"/>
   <path d="m1095.5,504.92-0.62,0"/>
   <path d="m1095.9,506.34-0.3544,0"/>
   <path d="m1095.9,505.1-0.3544,0"/>
   <path d="m997.53,232.26,0-5.8465"/>
   <path d="m1003.7,222.17-6.2008,0"/>
   <path d="m1003.7,226.42-6.2008,0"/>
   <path d="m1003.7,226.42,0-4.252"/>
   <path d="m997.53,232.26-2.6575,0"/>
   <path d="m997.53,284.17,0-5.8464"/>
   <path d="m997.53,294.27,0-5.8465"/>
   <path d="m1003.7,284.17-6.2008,0"/>
   <path d="m1003.7,288.43-6.2008,0"/>
   <path d="m1003.7,288.43,0-4.252"/>
   <path d="m994.87,294.27,0-15.945"/>
   <path d="m997.53,278.33-2.6575,0"/>
   <path d="m997.53,294.27-2.6575,0"/>
   <path d="m997.53,346.18,0-5.8464"/>
   <path d="m997.53,356.28,0-5.8465"/>
   <path d="m1003.7,346.18-6.2008,0"/>
   <path d="m1003.7,350.43-6.2008,0"/>
   <path d="m1003.7,350.43,0-4.252"/>
   <path d="m994.87,356.28,0-15.945"/>
   <path d="m997.53,340.33-2.6575,0"/>
   <path d="m997.53,356.28-2.6575,0"/>
   <path d="m1003.7,412.09,0-4.4291"/>
   <path d="m1125.6,412.09,0-4.4291"/>
   <path d="m997.53,407.66,0-5.315"/>
   <path d="m994.87,416.52,0-14.173"/>
   <path d="m1003.7,412.09,121.89,0"/>
   <path d="m1005.5,416.52-10.63,0"/>
   <path d="m1122.1,416.52,12.402,0"/>
   <path d="m1134.5,412.97,0-5.315"/>
   <path d="m1125.6,407.66,8.8583,0"/>
   <path d="m1134.5,416.52,0-8.8583"/>
   <path d="m1003.7,407.66-6.2008,0"/>
   <path d="m420.5,401.81-8.8583,0"/>
   <path d="m420.5,412.44,0-10.63"/>
   <path d="m502,412.44-81.496,0"/>
   <path d="m502,401.81,0,10.63"/>
   <path d="m507.84,401.81-5.8464,0"/>
   <path d="m507.84,399.15,0,2.6575"/>
   <path d="m510.5,399.15-2.6575,0"/>
   <path d="m510.5,416.87,0-17.717"/>
   <path d="m411.64,416.87,98.858,0"/>
   <path d="m411.64,401.81,0,15.059"/>
   <path d="m240.15,416.87,0-17.717"/>
   <path d="m379.75,416.87-139.61,0"/>
   <path d="m379.75,401.81,0,15.059"/>
   <path d="m370.9,401.81,8.8583,0"/>
   <path d="m370.9,412.44,0-10.63"/>
   <path d="m248.65,412.44,122.24,0"/>
   <path d="m248.65,401.81,0,10.63"/>
   <path d="m242.81,401.81,5.8465,0"/>
   <path d="m242.81,399.15,0,2.6575"/>
   <path d="m240.15,399.15,2.6575,0"/>
   <path d="m909.39,229.96,3.9862,4.9607"/>
   <path d="m910.54,236.25-1.1516-6.2894"/>
   <path d="m729.48,354.69,14.173-11.516"/>
   <path d="m747.37,351.23-17.894,3.4547"/>
   <path d="m952.62,380.73-3.9862-4.9606"/>
   <path d="m951.47,374.53,1.1516,6.2008"/>
   <path d="m941.9,296.84,14.439,17.717"/>
   <path d="m946.24,319.25-4.3405-22.411"/>
   <path d="m1094.9,484.81,0-0.62009"/>
   <path d="m1095.5,484.81-0.62,0"/>
   <path d="m1095.5,484.19,0,0.62009"/>
   <path d="m1094.9,484.19,0.62,0"/>
   <path d="m909.39,229.96,11.161,24.094"/>
   <path d="m729.48,354.69,160.6-74.764"/>
   <path d="M952.62,380.73,919.05,308.44"/>
   <path d="m448.94,595.45,6.2008-1.5059"/>
   <path d="M455.14,597.05,448.94,595.45"/>
   <path d="m924.54,274.52-0.0886-0.26579"/>
   <path d="m923.39,271.24-0.0886-0.35435"/>
   <path d="m923.21,264.15,0.0887-0.35435"/>
   <path d="m924.18,260.79,0.0886-0.35435"/>
   <path d="m925.87,257.69,0.17723-0.26579"/>
   <path d="m928.17,254.94,0.26568-0.17717"/>
   <path d="m930.92,252.81,0.35435-0.17717"/>
   <path d="m1096.5,490.57,0.3543,0"/>
   <path d="m1100,491.19,0.2657,0.0886"/>
   <path d="m1103.2,492.61,0.3543,0.17717"/>
   <path d="m1106,494.73,0.2658,0.26574"/>
   <path d="m1108.3,497.48,0.1772,0.26579"/>
   <path d="m1109.8,500.67,0.1771,0.3543"/>
   <path d="m1110.6,504.12,0,0.35436"/>
   <path d="m1101.9,484.46,0,0.3543"/>
   <path d="m1101,487.82-0.1772,0.3543"/>
   <path d="m1098.3,490.04-0.3543,0.0886"/>
   <path d="m468.07,526.8,6.2008,0"/>
   <path d="m490.93,529.37,3.8976,0"/>
   <path d="m241.3,603.25-5.4036,14.97"/>
   <path d="m400.13,666.85,1.5059-4.1634"/>
   <path d="M371.69,651.79,245.11,605.73"/>
   <path d="M370.19,655.95,243.6,609.89"/>
   <path d="m1005.5,416.52,116.57,0"/>
   <path d="m1005.5,416.52-10.63,0"/>
   <path d="m1012.5,385.16,0-0.0886"/>
   <path d="m1011.9,385.25,0,0.79722"/>
   <path d="m1011.9,385.25,0.62,0"/>
   <path d="m996.64,402.34-1.7716,0"/>
   <path d="m996.64,402.17-0.88583,0"/>
   <path d="m996.64,402.34,0-0.17718"/>
   <path d="m995.76,402.17,0-1.1516"/>
   <path d="m994.96,400.75,0-0.0886"/>
   <path d="m995.76,401.01-0.79726,0"/>
   <path d="m995.05,400.93-0.0887-0.17713"/>
   <path d="m994.87,402.34,0-1.5945"/>
   <path d="m994.87,386.31,0-1.683"/>
   <path d="m996.91,386.04,14.971,0"/>
   <path d="m996.91,385.25,0,0.79722"/>
   <path d="m996.11,385.25,0.79726,0"/>
   <path d="m996.2,385.16,16.299,0"/>
   <path d="m996.64,384.63-1.7716,0"/>
   <path d="m996.64,384.8-0.88583,0"/>
   <path d="m994.96,386.31,0-0.0886"/>
   <path d="m995.76,385.95-0.79726,0"/>
   <path d="m996.64,384.8,0-0.17718"/>
   <path d="m995.76,385.95,0-1.1516"/>
   <path d="m994.96,386.31,0-0.35429"/>
   <path d="m1135,431.31,0.4429,0"/>
   <path d="m1135.5,432.19,0.4429,0"/>
   <path d="m1135.5,432.19,0-0.88582"/>
   <path d="m1135.9,416.78,0,15.413"/>
   <path d="m1135.1,416.78,0.7973,0"/>
   <path d="m1135.1,415.98,0,0.79727"/>
   <path d="m1135,416.07,0,15.236"/>
   <path d="m1134.5,416.52,0-1.7717"/>
   <path d="m1134.7,416.52,0-0.88583"/>
   <path d="m1134.5,416.52,0.1772,0"/>
   <path d="m1134.7,415.63,1.1515,0"/>
   <path d="m1136.2,414.83,0-0.0886"/>
   <path d="m1135.8,415.63,0-0.79726"/>
   <path d="m1135.9,414.74,0.2657,0.0886"/>
   <path d="m1134.5,414.74,1.6831,0"/>
   <path d="m997.53,356.28,0,28.346"/>
   <path d="m994.87,384.63,0-28.346"/>
   <path d="m997.53,384.63-2.6575,0"/>
   <path d="m997.53,402.34-2.6575,0"/>
   <path d="m994.87,356.28,2.6575,0"/>
   <path d="m380.46,432.37,0.35432,0"/>
   <path d="m379.4,417.58,0-0.7087"/>
   <path d="m380.64,417.22,0.17715,0"/>
   <path d="m380.64,417.58,0-0.35435"/>
   <path d="m380.46,432.37,0,0.26579"/>
   <path d="m380.46,418.02,0,0.26573"/>
   <path d="m380.82,418.29,0,14.085"/>
   <path d="m380.46,418.29,0.35432,0"/>
   <path d="m380.2,418.02,0.26574,0"/>
   <path d="m380.2,418.02,0,14.616"/>
   <path d="m380.2,417.84,0.26574,0"/>
   <path d="m380.29,418.02,0-0.44292"/>
   <path d="m379.4,417.58,1.2402,0"/>
   <path d="m379.4,416.87,1.4173,0"/>
   <path d="m380.82,417.22,0-0.35435"/>
   <path d="m411.29,432.64-0.26574,0"/>
   <path d="m411.02,432.37-0.35432,0"/>
   <path d="m412,417.58,0-0.7087"/>
   <path d="m410.76,417.22-0.17717,0"/>
   <path d="m410.76,417.58,0-0.35435"/>
   <path d="m411.02,432.37,0,0.26579"/>
   <path d="m411.02,418.02,0,0.26573"/>
   <path d="m410.67,418.29,0,14.085"/>
   <path d="m411.02,418.29-0.35432,0"/>
   <path d="m411.29,418.02-0.26574,0"/>
   <path d="m411.29,418.02,0,14.616"/>
   <path d="m411.29,417.84-0.26574,0"/>
   <path d="m411.11,418.02,0-0.44292"/>
   <path d="m412,417.58-1.2402,0"/>
   <path d="m412,416.87-1.4173,0"/>
   <path d="m410.58,417.22,0-0.35435"/>
   <path d="m406.68,647.81-0.26577-0.0886"/>
   <path d="m406.33,647.98-0.35435-0.0886"/>
   <path d="m401.9,662.07-0.26577,0.62009"/>
   <path d="m400.93,662.07-0.17717-0.0886"/>
   <path d="m401.01,661.71-0.0886,0.35432"/>
   <path d="m406.33,647.98,0.0886-0.26573"/>
   <path d="m401.37,661.45,0.0886-0.26576"/>
   <path d="m401.19,661.09,4.7835-13.199"/>
   <path d="m401.46,661.18-0.26576-0.0886"/>
   <path d="m401.63,661.54-0.26573-0.0886"/>
   <path d="m401.63,661.54,5.0492-13.73"/>
   <path d="m401.55,661.71-0.17714-0.0886"/>
   <path d="m401.55,661.54-0.17714,0.35435"/>
   <path d="m401.9,662.07-0.88583-0.35432"/>
   <path d="m401.63,662.69-0.97441-0.35432"/>
   <path d="m400.75,661.98-0.0886,0.35435"/>
   <path d="m377.36,637.18,0.26573,0.0886"/>
   <path d="m377.54,637.53,0.35433,0.0886"/>
   <path d="m371.87,651.17-0.17715,0.62007"/>
   <path d="m372.58,651.79,0.17714,0.0886"/>
   <path d="m372.76,651.44-0.17714,0.35433"/>
   <path d="m377.54,637.53,0.0886-0.26577"/>
   <path d="m372.67,650.99,0.0886-0.26574"/>
   <path d="m373.11,650.91,4.7835-13.287"/>
   <path d="m372.76,650.73,0.35436,0.17715"/>
   <path d="m372.4,650.91,0.26576,0.0886"/>
   <path d="m372.4,650.91,4.9606-13.73"/>
   <path d="m372.4,651.08,0.17718,0.0886"/>
   <path d="m372.58,650.99-0.17718,0.35432"/>
   <path d="m371.87,651.17,0.88582,0.26574"/>
   <path d="m371.69,651.79,0.97441,0.35435"/>
   <path d="m372.76,651.88-0.0886,0.26576"/>
   <path d="m370.19,655.95,1.5059-4.1634"/>
   <path d="m358.41,657.02,1.7716-4.6063"/>
   <path d="m366.73,660.12-8.3268-3.1004"/>
   <path d="m368.5,655.42-1.7717,4.6949"/>
   <path d="m398.44,671.55,1.6831-4.6949"/>
   <path d="m406.77,674.65-8.3268-3.1004"/>
   <path d="m408.45,669.86-1.6831,4.7834"/>
   <path d="m245.46,604.75-4.1634-1.5059"/>
   <path d="m243.6,609.89,1.8602-5.1378"/>
   <path d="m245.99,616.27,1.7717-4.872"/>
   <path d="m241.83,614.76,4.1634,1.5059"/>
   <path d="m240.06,619.72,1.7717-4.9606"/>
   <path d="m235.9,618.22,4.1634,1.5059"/>
   <path d="m247.41,584.11-3.5433,0"/>
   <path d="m247.41,562.85-3.5433,0"/>
   <path d="m247.41,584.11,0,0.53148"/>
   <path d="m247.23,584.11,0.17715,0"/>
   <path d="m247.41,562.85-0.17715,0"/>
   <path d="m247.41,562.32,0,0.53153"/>
   <path d="m255.65,562.85-0.26576,0"/>
   <path d="m255.65,562.77,0,0"/>
   <path d="m255.38,562.85,0,0.53148"/>
   <path d="m247.23,563.56,0-0.70865"/>
   <path d="m247.23,563.56,0-0.0886"/>
   <path d="m247.23,563.3,0,0.26573"/>
   <path d="m247.77,563.3-0.5315,0"/>
   <path d="m247.77,562.32,0,0.97445"/>
   <path d="m247.41,562.32,0.35435,0"/>
   <path d="m247.94,562.77,0-0.0886"/>
   <path d="m247.77,562.77,0.26574,0"/>
   <path d="m247.94,562.77,0,0.17717"/>
   <path d="m255.65,562.77-7.6181,0"/>
   <path d="m255.38,563.39-7.0866,0"/>
   <path d="m248.3,562.85-0.26573,0"/>
   <path d="m248.3,562.85,0,0.53148"/>
   <path d="m248.03,562.77,0,0"/>
   <path d="m247.23,583.41,0,0.7087"/>
   <path d="m247.23,583.41,0-0.0886"/>
   <path d="m247.23,583.67,0-0.26579"/>
   <path d="m247.77,583.67-0.5315,0"/>
   <path d="m247.77,584.65,0-0.97439"/>
   <path d="m247.41,584.65,0.35435,0"/>
   <path d="m247.94,584.2,0,0.0886"/>
   <path d="m247.77,584.2,0.26574,0"/>
   <path d="m247.94,584.2,0-0.0886"/>
   <path d="m248.3,584.11-0.26573,0"/>
   <path d="m248.3,584.11,0-0.53152"/>
   <path d="m248.03,584.2,0-0.0886"/>
   <path d="m262.47,584.11,0.26577,0"/>
   <path d="m248.03,584.2,14.705,0"/>
   <path d="m248.3,583.58,14.173,0"/>
   <path d="m262.47,584.11,0-0.53152"/>
   <path d="m262.74,584.2,0-0.0886"/>
   <path d="m243.87,562.85,0-16.299"/>
   <path d="m243.87,604.22,0-20.108"/>
   <path d="m247.41,562.85,0-16.299"/>
   <path d="m247.41,602.81,0-18.691"/>
   <path d="m505.98,626.81,0-14.528"/>
   <path d="m380.2,432.64,0.26574,0"/>
   <path d="m382.15,634.43,0.26577,0"/>
   <path d="m365.58,634.43,0.26574,0"/>
   <path d="m382.41,634.78,0-0.35433"/>
   <path d="m382.15,634.43,0-0.35435"/>
   <path d="m365.85,634.07,16.299,0"/>
   <path d="m365.85,634.43,0-0.35435"/>
   <path d="m365.58,634.78,0-0.35433"/>
   <path d="m365.58,634.78,16.831,0"/>
   <path d="m365.4,634.69,0-0.26574"/>
   <path d="m365.58,634.52-0.44291,0"/>
   <path d="m364.78,616.62,0.35436,0"/>
   <path d="m364.07,617.33,0.70865,0"/>
   <path d="m364.78,617.86,0.35436,0"/>
   <path d="m364.07,618.04,0.70865,0"/>
   <path d="m363.72,616.62,0.35432,0"/>
   <path d="m363.72,617.86,0.35432,0"/>
   <path d="m363.72,617.86,0-1.2402"/>
   <path d="m364.07,618.04,0-1.4173"/>
   <path d="m364.78,618.04,0-1.4173"/>
   <path d="m365.14,617.86,0-1.2402"/>
   <path d="m364.07,635.4-0.35432,0"/>
   <path d="m364.78,634.69-0.70865,0"/>
   <path d="m364.07,634.16-0.35432,0"/>
   <path d="m364.78,633.99-0.70865,0"/>
   <path d="m365.14,635.4-0.35436,0"/>
   <path d="m365.14,634.16-0.35436,0"/>
   <path d="m365.14,634.16,0,1.2402"/>
   <path d="m364.78,633.99,0,1.4173"/>
   <path d="m364.07,633.99,0,1.4173"/>
   <path d="m363.72,634.16,0,1.2402"/>
   <path d="m1011.9,386.04-0.089,0.35435"/>
   <path d="m1010.9,389.41-0.089,0.35435"/>
   <path d="m1007,395.26-0.2658,0.26573"/>
   <path d="m1001,398.8-0.3544,0.17718"/>
   <path d="m993.99,399.51-0.26568-0.0886"/>
   <path d="m247.32,570.38,0.35433,0.0886"/>
   <path d="m250.87,570.83,0.35433,0.0886"/>
   <path d="m254.14,571.98,0.35433,0.17717"/>
   <path d="m257.07,574.02,0.26574,0.26573"/>
   <path d="m259.37,576.76,0.17717,0.26579"/>
   <path d="m260.88,579.86,0.0886,0.35436"/>
   <path d="m261.58,583.41,0,0.26579"/>
   <path d="m255.38,563.39,0,0.35435"/>
   <path d="m254.5,566.75-0.17715,0.35435"/>
   <path d="m252.11,569.32-0.26576,0.17717"/>
   <path d="m248.74,570.47-0.26574,0"/>
   <path d="m505.28,498.99-0.35435,0"/>
   <path d="m501.82,498.37-0.35436-0.0886"/>
   <path d="m498.54,496.86-0.26574-0.17718"/>
   <path d="m495.89,494.65-0.26574-0.26579"/>
   <path d="m493.76,491.72-0.0886-0.26574"/>
   <path d="m491.37,512.19,0-0.35435"/>
   <path d="m491.81,508.73,0.0886-0.35429"/>
   <path d="m493.23,505.45,0.17717-0.26573"/>
   <path d="m498.28,500.67,0.26574-0.17717"/>
   <path d="m501.56,499.34,0.3543,0"/>
   <path d="m505.1,498.99,0.17717,0"/>
   <path d="m466.03,646.12,0.35435,0.17718"/>
   <path d="m469.13,647.81,0.26579,0.26576"/>
   <path d="m473.92,652.94,0.17718,0.35432"/>
   <path d="m476.04,659.68,0.0886,0.35432"/>
   <path d="m477.55,640.81-0.0886,0.35433"/>
   <path d="m429.71,632.39,0.26574,0.17717"/>
   <path d="m432.81,634.07,0.26573,0.17718"/>
   <path d="m437.78,639.04,0.17715,0.35432"/>
   <path d="m439.37,642.22,0.17717,0.26574"/>
   <path d="m440.26,645.59,0.0886,0.35435"/>
   <path d="m440.43,649.13,0,0.35435"/>
   <path d="m439.9,652.68-0.0886,0.26577"/>
   <path d="m441.32,627.25-0.0886,0.26574"/>
   <path d="m439.55,630.27-0.26576,0.17717"/>
   <path d="m436.62,632.3-0.35433,0.0886"/>
   <path d="m433.17,633.1-0.35432-0.0886"/>
   <path d="m429.71,632.48,0-0.0886"/>
   <path d="m385.87,655.87,0.17715-0.35433"/>
   <path d="M387.64,652.77,387.81,652.5"/>
   <path d="m392.78,647.98,0.35433-0.17717"/>
   <path d="m399.51,645.86,0.35433,0"/>
   <path d="m377.54,637.53,0.35433,0.0886"/>
   <path d="m380.73,639.12,0.26576,0.26573"/>
   <path d="m383.3,641.52,0.26574,0.26574"/>
   <path d="m385.33,644.44,0.17717,0.26573"/>
   <path d="m386.49,647.72,0.0886,0.35432"/>
   <path d="m386.22,654.71-0.0886,0.35433"/>
   <path d="m396.32,419.26,0,0.35435"/>
   <path d="m395.61,422.72-0.17718,0.3543"/>
   <path d="m391.98,428.74-0.26574,0.26573"/>
   <path d="m386.13,432.64-0.26573,0.17712"/>
   <path d="m411.02,432.64-0.35432-0.0886"/>
   <path d="m407.48,432.19-0.35433-0.0886"/>
   <path d="m404.2,431.04-0.35432-0.17713"/>
   <path d="m401.28,429.09-0.26574-0.26579"/>
   <path d="m398.89,426.44-0.17714-0.35435"/>
   <path d="m396.41,419.88,0-0.35435"/>
   <path d="m1121.2,499.78,0.3544,0"/>
   <path d="m1124.6,500.4,0.3544,0.0886"/>
   <path d="m1127.8,501.91,0.2658,0.17717"/>
   <path d="m1132.4,507.14,0.1771,0.26573"/>
   <path d="m1135.7,486.32,0,0.35435"/>
   <path d="m1135.2,489.86-0.089,0.35435"/>
   <path d="m1133.9,493.05-0.1772,0.35435"/>
   <path d="m1128.9,498.01-0.2658,0.17718"/>
   <path d="m1125.6,499.34-0.3542,0.0886"/>
   <path d="m1122.2,499.78-0.3544,0"/>
   <path d="m364.78,618.04,0.35436,0"/>
   <path d="m368.33,618.4,0.35435,0.0886"/>
   <path d="m374.7,621.23,0.35433,0.17718"/>
   <path d="m379.31,626.55,0.17715,0.35436"/>
   <path d="m361.33,589.69,6.2008,0"/>
  </g>
  <g stroke="#F00" stroke-width="0.9">
   <path d="m463.73,461.96,3.8976,0"/>
   <path d="m287.81,540.18,3.9862,0"/>
   <path d="m283.82,582.52,3.9862,0"/>
   <path d="m310.31,469.13,3.8977,0"/>
   <path d="m1111.3,502.8,3.8976,0"/>
   <path d="m501.29,603.78,3.8976,0"/>
   <path d="m972.46,414.3,3.8976,0"/>
   <path d="m403.49,534.06,3.8976,0"/>
  </g>
 </g>
</svg>