<?xml version="1.0" encoding="UTF-8" standalone="no"?>
<svg
   xmlns:dc="http://purl.org/dc/elements/1.1/"
   xmlns:cc="http://creativecommons.org/ns#"
   xmlns:rdf="http://www.w3.org/1999/02/22-rdf-syntax-ns#"
   xmlns:svg="http://www.w3.org/2000/svg"
   xmlns="http://www.w3.org/2000/svg"
   xmlns:sodipodi="http://sodipodi.sourceforge.net/DTD/sodipodi-0.dtd"
   xmlns:inkscape="http://www.inkscape.org/namespaces/inkscape"
   width="210.47244"
   height="744.09448"
   id="svg2"
   version="1.1"
   inkscape:version="0.47pre4 r22446"
   sodipodi:docname="CERN_Library_bookmark_verso.svg"
   enable-background="new">
  <defs
     id="defs4">
    <clipPath
       clipPathUnits="userSpaceOnUse"
       id="clipPath7362-0">
      <rect
         style="fill:#000000;fill-opacity:1;fill-rule:nonzero;stroke:none;display:inline;enable-background:new"
         id="rect7364-8"
         width="210.47244"
         height="744.09448"
         x="0"
         y="0"
         rx="79.347435"
         ry="0" />
    </clipPath>
  </defs>
  <sodipodi:namedview
     id="base"
     pagecolor="#ffffff"
     bordercolor="#666666"
     borderopacity="1.0"
     inkscape:pageopacity="0.0"
     inkscape:pageshadow="2"
     inkscape:zoom="0.98994949"
     inkscape:cx="-225.89562"
     inkscape:cy="378.49763"
     inkscape:document-units="mm"
     inkscape:current-layer="layer5"
     showgrid="false"
     units="mm"
     inkscape:window-width="1280"
     inkscape:window-height="1000"
     inkscape:window-x="1920"
     inkscape:window-y="176"
     inkscape:window-maximized="1" />
  <metadata
     id="metadata7">
    <rdf:RDF>
      <cc:Work
         rdf:about="">
        <dc:format>image/svg+xml</dc:format>
        <dc:type
           rdf:resource="http://purl.org/dc/dcmitype/StillImage" />
        <dc:title />
      </cc:Work>
    </rdf:RDF>
  </metadata>
  <g
     inkscape:groupmode="layer"
     id="layer5"
     inkscape:label="Background"
     style="display:inline"
     sodipodi:insensitive="true">
    <rect
       style="fill:#ffffff;fill-opacity:1;fill-rule:nonzero;stroke:none;display:inline;enable-background:new"
       id="rect5446"
       width="210.47244"
       height="744.09448"
       x="0"
       y="0" />
  </g>
  <g
     inkscape:label="Feedback"
     inkscape:groupmode="layer"
     id="layer1"
     transform="translate(0,-308.26769)"
     style="display:inline"
     sodipodi:insensitive="true">
    <g
       id="g3323">
      <text
         transform="scale(0.99999849,1.0000015)"
         sodipodi:linespacing="100%"
         id="text2825"
         y="710.25452"
         x="8.812747"
         style="font-size:14.00002193px;font-style:normal;font-variant:normal;font-weight:normal;font-stretch:normal;text-align:start;line-height:100%;writing-mode:lr-tb;text-anchor:start;fill:#000000;fill-opacity:1;stroke:none;font-family:Verdana;-inkscape-font-specification:Verdana"
         xml:space="preserve"><tspan
           y="710.25452"
           x="8.812747"
           id="tspan2827"
           sodipodi:role="line">Feedback</tspan></text>
      <g
         id="g3313">
        <text
           xml:space="preserve"
           style="font-size:9.00001431px;font-style:normal;font-variant:normal;font-weight:normal;font-stretch:normal;text-align:start;line-height:100%;writing-mode:lr-tb;text-anchor:start;fill:#000000;fill-opacity:1;stroke:none;font-family:Verdana;-inkscape-font-specification:Verdana"
           x="9.7229052"
           y="722.98102"
           id="text2829"
           sodipodi:linespacing="100%"
           transform="scale(0.99999848,1.0000015)"><tspan
             sodipodi:role="line"
             x="9.7229052"
             y="722.98102"
             id="tspan3373">Help us and the environment when</tspan><tspan
             sodipodi:role="line"
             x="9.7229052"
             y="731.98102"
             id="tspan3381">returning your book - Share your thoughts</tspan><tspan
             id="tspan3287"
             sodipodi:role="line"
             x="9.7229052"
             y="740.98102">in the space below. We'll follow up at</tspan><tspan
             sodipodi:role="line"
             x="9.7229052"
             y="749.98108"
             id="tspan3415"
             style="fill:#0000cc;fill-opacity:1">library.cern.ch/feedback</tspan><tspan
             sodipodi:role="line"
             x="9.7229052"
             y="758.98108"
             id="tspan3417">and recycle the bookmark.</tspan></text>
        <text
           xml:space="preserve"
           style="font-size:9px;font-style:normal;font-variant:normal;font-weight:normal;font-stretch:normal;text-align:start;line-height:100%;writing-mode:lr-tb;text-anchor:start;fill:#000000;fill-opacity:1;stroke:none;font-family:Verdana;-inkscape-font-specification:Verdana"
           x="7.2352948"
           y="767.98224"
           id="text3399"
           sodipodi:linespacing="100%"><tspan
             sodipodi:role="line"
             id="tspan3401"
             x="7.2352948"
             y="767.98224" /></text>
      </g>
    </g>
  </g>
  <g
     inkscape:groupmode="layer"
     id="layer2"
     inkscape:label="Logo"
     style="display:inline"
     sodipodi:insensitive="true">
    <path
       id="path15802-0"
       style="fill:#3779c6;fill-opacity:1;fill-rule:nonzero;stroke:none;display:inline;enable-background:new"
       d="m 173.80733,350.90005 c -0.19838,-0.29696 -0.49573,-0.59551 -0.89287,-0.99147 l -7.23716,-7.23794 -0.19918,0 0,8.22941 c -0.0978,-0.0998 -0.29694,-0.0998 -0.39554,-0.0998 -0.19837,0 -0.39594,0 -0.49573,0.0998 l 0,-10.40991 0.59472,0 8.03104,7.83187 0.099,0 0,-7.83187 c 0.19837,0 0.29735,0.0986 0.49573,0.0986 0.19797,0 0.29696,-0.0986 0.49573,-0.0986 l 0,10.40991 -0.49573,0 z m -15.06983,-5.75038 c 1.2888,-0.19877 2.18088,-0.99145 2.18088,-2.18167 0,-0.99147 -0.59471,-1.68478 -1.88352,-1.88354 -0.59473,-0.0986 -2.47865,0 -3.17235,0 l 0,4.1642 c 0.29696,0 2.0819,0.0986 2.87499,-0.099 z m 0,-4.65953 c 2.57762,0 3.76706,0.79308 3.76706,2.28067 0,1.78376 -1.78455,2.67662 -3.46931,2.87499 l 3.46931,3.96543 0.79309,0.89168 0.29814,0.39714 c -0.29814,-0.10018 -0.59511,-0.10018 -0.89287,-0.10018 -0.39674,0 -0.69449,0 -0.99106,0.10018 -0.39674,-0.49573 -0.69529,-0.89206 -1.09083,-1.3886 l -1.98332,-2.27987 -1.28841,-1.38861 -1.3882,0 0,5.05708 c -0.19718,-0.0998 -0.49533,-0.0998 -0.69411,-0.0998 -0.29735,0 -0.49532,0 -0.79228,0.0998 l 0,-10.40991 4.26279,0 z m -7.83308,4.55975 c 0.49573,0 0.99185,-0.099 1.4872,-0.099 0,0.099 -0.0986,0.29736 -0.0986,0.39635 0,0.10018 0.0986,0.29855 0.0986,0.39714 -0.49535,0 -0.99147,-0.0986 -1.4872,-0.0986 l -3.36951,0 0,4.46076 c 0.99066,0 2.77599,0 3.76785,-0.0986 0.49453,0 1.08886,0 1.58498,-0.0998 0,0.19837 -0.099,0.29696 -0.099,0.49573 0,0.0986 0.099,0.29735 0.099,0.39595 l -6.84043,0 0,-10.31013 6.74144,0 c 0,0.19838 -0.0994,0.29736 -0.0994,0.49573 0,0.099 0.0994,0.29736 0.0994,0.39595 -0.49534,0 -0.99146,-0.0986 -1.48599,-0.0986 l -1.68635,-0.099 -2.0815,0 0,3.86564 3.36951,0 0,3.3e-4 z m -10.21073,5.94914 c -3.66888,0 -5.94875,-2.08149 -5.94875,-5.35323 0,-3.37112 2.7756,-5.35403 6.34469,-5.35403 1.18904,0 2.47824,0.29696 3.56988,0.69451 -0.10017,0.39594 -0.19957,0.79267 -0.29775,1.18903 l -0.0998,0 c -0.29736,-0.29736 -1.48759,-1.28922 -3.27174,-1.28922 -3.07295,0 -4.56054,2.28067 -4.56054,4.75971 0,2.97357 1.88434,4.75852 4.46156,4.75852 1.88313,0 3.27213,-0.89287 3.56868,-1.19022 l -0.0982,0.99144 c -0.99107,0.59473 -2.38006,0.79349 -3.66807,0.79349 z m 2.7756,2.67741 c 0,-0.29855 0,-0.5955 0,-0.89286 l -1.09005,0 c 0,0.29736 -0.10018,0.59431 -0.10018,0.89286 0,5.25385 1.28922,9.41805 4.06561,13.48247 l 1.88314,0.89367 c -3.27133,-4.1646 -4.75852,-8.62696 -4.75852,-14.37614 z m 24.2895,-25.48053 c -8.42698,0 -15.66454,3.96583 -20.22429,10.01356 l 0.79309,0.89287 c 4.46116,-5.94874 11.50035,-9.71621 19.4312,-9.71621 2.47905,0 4.16421,0.0986 6.44449,0.89248 l 3.47049,1.28881 c 8.62537,3.17235 14.37534,12.29224 14.37534,22.10902 0,5.05548 -1.09045,8.82374 -3.66808,12.78877 l 0.29737,1.58737 c 2.57722,-3.37311 3.76745,-6.64325 4.36256,-11.1056 l 3.86645,-29.84071 -1.09124,0 -2.87499,22.70333 c -1.48679,-9.41964 -7.13818,-17.05275 -15.9615,-19.72937 l -4.56096,-1.38778 c -1.78493,-0.49654 -2.67661,-0.49654 -4.65993,-0.49654 z m -10.90563,-6.04773 c -13.28488,0 -23.99254,10.80705 -23.99254,24.09194 0,9.61682 5.35443,18.53913 13.78102,21.71229 l 2.08229,0.79268 c 2.57883,0.99184 5.25425,1.48758 8.12964,1.48758 13.28568,0 23.99295,-10.70767 23.99295,-23.99255 0,-6.04734 -1.88353,-11.00582 -5.5524,-15.17002 l 2.77639,1.28921 c 2.08231,2.87499 3.07377,5.45341 3.86685,9.02211 l 5.84856,25.38194 0.39715,2.08111 5.15566,22.40678 -1.38901,0 -4.46075,-20.22629 -0.69371,-2.28027 -4.56054,-19.82836 c -0.59511,6.24691 -3.86724,11.50075 -7.83228,15.86292 l -11.79769,12.68939 -0.89248,0.99305 -11.8979,12.88774 -1.48638,0 11.79771,-12.78916 1.3886,-1.38779 8.32799,-9.02171 c -3.86684,2.28067 -8.22901,3.56869 -12.88895,3.56869 -2.18088,0 -3.66806,-0.0986 -5.65018,-0.6941 l -3.17354,-0.99147 c -5.35443,-1.68555 -9.31946,-5.05587 -12.29424,-9.51742 l 4.16501,15.26821 -1.48719,0 -5.84976,-21.81127 c -0.6933,-2.47944 -1.18903,-5.05708 -1.18903,-7.73329 0,-13.97899 11.30159,-25.38115 25.28137,-25.47974 l 0.0986,0 c 0,0 0,0 0.0998,0 l 45.70443,0 0,1.3878 -37.4774,0 c 4.36217,1.48719 7.43632,3.56908 10.41109,7.03919 l -2.7768,-0.79349 c -4.26319,-4.0644 -9.51822,-6.2457 -15.96231,-6.2457 z m 10.90563,57.00641 c 7.83308,0 14.17777,-2.7752 18.8373,-8.22782 l -0.39674,-1.38779 c -4.46156,5.55159 -10.70726,8.42738 -18.44056,8.42738 -1.78374,0 -2.57761,-0.099 -4.163,-0.39755 l -1.09163,0.99186 c 1.98331,0.39594 3.17314,0.59392 5.25463,0.59392 z m -7.73249,-1.387 0.79309,-0.89207 c -4.26318,-1.09045 -6.9398,-2.57803 -9.91497,-5.55241 l -1.88313,-0.49533 c 3.17234,3.66808 6.14672,5.552 11.00501,6.93981"
       clip-path="url(#clipPath7362-0)"
       transform="matrix(1.0000118,0,0,1,-2.3755677,-0.67856963)" />
  </g>
</svg>
