<?xml version="1.0" encoding="UTF-8"?>
<svg xmlns="http://www.w3.org/2000/svg" viewBox="0 0 1000 1000" version="1.1">
 <path fill="#395ab0" d="m277.91,405.66c-13.725,1.3683-38.444,1.3683-52.168,1.3683v-61.782h46.673c6.8768,0,13.728,1.3683,20.601,1.3683,0-1.3683-1.3683-4.1145-1.3683-5.4956,0-1.3683,1.3683-4.1145,1.3683-5.4956-6.8735,0-13.725,1.3811-20.601,1.3811h-46.673v-53.549h28.83l23.338,1.3811c6.8768,0,13.737,1.3619,20.601,1.3619,0-1.3619-1.3811-4.1177-1.3811-5.4828,0-2.7558,1.3811-4.1241,1.3811-6.8703h-93.371v142.81h94.739c0-1.3811-1.3683-4.1145-1.3683-5.4956,0-2.7494,1.3683-4.1273,1.3683-6.8639-6.8639,1.3683-15.093,1.3683-21.97,1.3683m192.24-131.81-8.2579,0,0,144.17c1.3811-1.3683,4.1273-1.3683,6.8768-1.3683,1.3811,0,4.1273,0,5.4828,1.3683v-113.97h2.759l100.23,100.24c5.4828,5.4828,9.6005,9.6101,12.36,13.728h6.8768v-144.17c-2.7623,0-4.1402,1.3747-6.8768,1.3747-2.759,0-4.1273-1.3747-6.8768-1.3747v108.48h-1.3554l-111.21-108.49zm-286.98,120.83c-4.1145,4.1145-23.351,16.474-49.435,16.474-35.694,0-61.778-24.716-61.778-65.909,0-34.326,20.588-65.912,63.147-65.912,24.716,0,41.203,13.731,45.317,17.855h1.3811c1.3683-5.4956,2.7366-10.991,4.1145-16.474-15.106-5.4956-32.958-9.6197-49.432-9.6197-49.435,0-87.878,27.465-87.878,74.151,0,45.307,31.58,74.138,82.383,74.138,17.839,0,37.075-2.7334,50.813-10.978l1.3683-13.725zm157.9-54.93,0-57.67c9.6101,0,35.694-1.3651,43.939,0,17.852,2.7558,26.084,12.36,26.084,26.084,0,16.48-12.347,27.459-30.189,30.221-10.988,2.7334-35.707,1.3651-39.834,1.3651m92.006,60.413-48.067-54.918c23.335-2.7462,48.067-15.106,48.067-39.822,0-20.588-16.487-31.58-52.171-31.58h-59.055v144.17c4.1273-1.3683,6.8735-1.3683,10.991-1.3683,2.7462,0,6.8607,0,9.6101,1.3683v-70.023h19.22l17.855,19.22,27.452,31.58c5.4956,6.8639,9.6101,12.36,15.106,19.223,4.1145-1.3683,8.229-1.3683,13.737-1.3683,4.1145,0,8.2193,0,12.347,1.3683l-4.1273-5.4828-10.966-12.372zm-132.29,316.32c-15.054-2.1809-29.81-5.319-44.264-9.2825,36.61,36.109,80.748,64.162,129.74,81.528l16.702-18.318c-37.22-11.97-71.82-30.22-102.18-53.93m-76.145-476.41,28.618,0.22483c35.884-46.557,127.94-115.54,251.46-115.54,26.861,0,52.958,3.2922,77.979,9.366-9.8253-10.256-20.303-19.863-31.419-28.737-15.244-2.0139-30.764-3.1638-46.56-3.1638-110.47,0-212.55,50.244-280.08,137.84m280.08,546.49c-15.796,0-31.304-1.3554-46.586-3.5138l-18.192,19.949c21.08,3.9154,42.709,6.0962,64.778,6.0962,100.45,0,191.16-42.179,255.58-109.68l-6.2119-26.572c-60.712,69.606-149.96,113.72-249.36,113.72m294.74-136.13c28.782-43.412,48.102-93.522,55.367-147.4l1.5321,0.22484,56.761-405.67-22.323-3.1252-40.361,288.43c-23.8-113.16-101.77-206.6-205.57-251.62,9.2857,12.141,17.804,24.873,25.532,38.135,98.68,57.339,165.23,164.14,165.23,286.25,0,59.498-15.861,115.31-43.451,163.58l7.2782,31.191zm-625.65-194.77,0.0867-7.7825-22.522-0.49143-0.0996,8.2739c0,29.235,3.5749,58.268,10.628,86.346,7.8917,31.416,19.972,60.828,35.318,87.952,12.347,6.9506,25.217,12.999,38.479,18.292-23.598-32.97-41.591-70.537-51.943-111.74-6.5973-26.27-9.9474-53.472-9.9474-80.851m510.53-102.18c0,182.46-148.45,330.91-330.93,330.91-152,0-283.99-102.83-320.96-250.05-6.6005-26.286-9.9506-53.501-9.9506-80.864,0-182.46,148.44-330.91,330.91-330.91,182.48,0,330.93,148.45,330.93,330.91m-330.93-353.44c-194.89,0-353.43,158.55-353.43,353.43,0,29.222,3.562,58.255,10.612,86.346,0.7548,2.9614,1.7698,5.7847,2.5856,8.714l-0.17666,0.0321,88.592,317.1,21.693-6.0738-55.229-197.68c64.99,89.006,169.63,144.99,285.35,144.99,58.027,0,112.78-14.152,161.14-39.044l-282.5,309.83h30.501l352.03-386.09-0.12527-0.12848c47.716-52.268,79.871-118.92,89.382-192.56l135.18,578.77h23.148l-164.57-704.62h-0.0642c-26.98-115.51-110.67-209.39-220.07-250.54h522.53v-22.525h-646.57z"/>
</svg>