<?xml version="1.0"?>
<svg xmlns="http://www.w3.org/2000/svg" viewBox="0 0 65535 65535" version="1.1">
<path d="M52449,26933 L52220,26933 M23964,27598 L23964,26933 M23964,27598 L23756,27598 M23881,26659 L23964,26659 M23964,26817 L23964,26659 M52449,26817 L52220,26817 M52449,27598 L52449,26933 M52656,27598 L52656,26933 M52656,27598 L52449,27598 M52885,26933 L52656,26933 M52449,26817 L52449,26659 M52453,26655 L52656,26659 M52656,26817 L52656,26659 M52885,26817 L52656,26817 M46918,20446 L46710,20446 M46918,20862 L46710,20862 M46918,22359 L46710,22359 M46918,22775 L46710,22775 M46918,20446 L46918,20862 M46710,20446 L46710,20862 M46710,22775 L46710,22359 M46918,22775 L46918,22359 M48831,20446 L48623,20446 M48831,20862 L48623,20862 M48831,22359 L48623,22359 M48831,22775 L48623,22775 M48831,20446 L48831,20862 M48623,20446 L48623,20862 M48623,22775 L48623,22359 M48831,22775 L48831,22359 M50744,20446 L50536,20446 M50744,20862 L50536,20862 M50744,22359 L50536,22359 M50744,22775 L50536,22775 M50744,20446 L50744,20862 M50536,20446 L50536,20862 M50536,22775 L50536,22359 M50744,22775 L50744,22359 M53243,17868 L46918,17868 M46249,17743 L53243,17743 M53243,17868 L53243,17743 M52656,20446 L52449,20446 M52656,20862 L52449,20862 M52656,22359 L52449,22359 M52656,22775 L52449,22775 M52656,20446 L52656,20862 M52449,20446 L52449,20862 M52449,22775 L52449,22359 M52656,22775 L52656,22359 " style="stroke:#2E8B57; fill:None;"/>
<path d="M46710,26817 L46481,26817 M46710,27598 L46710,26933 M46918,27598 L46918,26933 M46918,27598 L46710,27598 M47147,26933 L46918,26933 M46710,26817 L46710,26659 M46714,26655 L46918,26659 M46918,26817 L46918,26659 M47147,26817 L46918,26817 M24193,26817 L23964,26817 M24193,26933 L23964,26933 M52220,26933 L52220,26817 M52885,26933 L52885,26817 " style="stroke:#2E8B57; fill:None;"/>
<path d="M23207,26126 L23207,24642 M21095,24642 L23207,24642 M22725,26750 L22725,25586 M22492,26750 L22492,25586 M22259,26605 L22259,25586 M21794,26750 L21794,25648 M21561,26750 L21561,25586 M21328,26667 L21328,25586 M22725,25112 L22725,24172 M22492,25112 L22492,24172 M22259,25112 L22259,24172 M22026,25112 L22026,24172 M21794,25112 L21794,24172 M21561,25112 L21561,24172 M21328,25112 L21328,24172 M21095,25112 L21095,24172 M21078,25586 L21078,25112 M21078,26667 L21078,25586 M22817,25586 L22817,25112 M21428,26667 L21078,26667 M22817,25237 L21078,25237 M22817,25112 L21078,25112 M23748,24172 L21095,24172 " style="stroke:#080808; fill:None;"/>
<path d="M17506,28617 L11618,26472 M17452,28771 L11510,26609 M18858,29283 L18916,29129 M17452,28771 L17506,28617 M16255,25228 L16255,25020 M16463,25228 L16255,25228 M16463,25020 L16255,25020 M21220,26917 L21220,26667 M23748,26750 L21428,26750 M23648,24047 L21220,24047 M23748,24172 L21095,24172 M21220,23939 L21095,23939 M23648,24047 L23648,22484 M21095,22775 L21095,22384 M21095,24172 L21095,23939 M21220,24047 L21220,23939 M21303,22775 L21095,22775 M21303,22775 L21303,22484 M23648,22484 L21303,22484 M23756,22384 L21095,22384 M19344,17743 L19344,17910 M17814,17910 L11618,17910 M17814,17743 L11452,17743 M11618,17910 L11618,22060 M11452,17743 L11452,22060 M21303,20737 L23756,20737 M21095,20837 L23756,20837 M23964,20862 L23756,20862 M23964,20446 L23881,20446 M23964,20446 L23964,20862 M26422,17910 L26422,17743 M26883,17910 L26422,17910 M26883,17910 L27490,16562 M26838,17743 L27495,16288 M26838,17743 L26422,17743 M42884,16404 L42656,16404 M42884,16562 L42884,16404 M43188,16562 L42884,16562 M43795,17910 L43188,16562 M43837,17743 L43180,16288 M44253,17743 L43837,17743 M44253,17910 L43795,17910 M23881,26659 L23881,22775 M23964,22775 L23881,22775 M23964,22775 L23964,22359 M23968,22355 L23756,22359 M35233,22775 L35233,22359 M35441,22775 L35441,22359 M37354,20446 L37146,20446 M37354,20862 L37146,20862 M37354,22359 L37146,22359 M37354,22775 L37146,22775 M37354,20446 L37354,20862 M37146,20446 L37146,20862 M37146,22775 L37146,22359 M37354,22775 L37354,22359 M39267,20446 L39059,20446 M39267,20862 L39059,20862 M39267,22359 L39059,22359 M39267,22775 L39059,22775 M39267,20446 L39267,20862 M39059,20446 L39059,20862 M39059,22775 L39059,22359 M39267,22775 L39267,22359 M41180,20446 L40972,20446 M41180,20862 L40972,20862 M41180,22359 L40972,22359 M41180,22775 L40972,22775 M41180,20446 L41180,20862 M40972,20446 L40972,20862 M40972,22775 L40972,22359 M41180,22775 L41180,22359 M43092,20446 L42884,20446 M43092,20862 L42884,20862 M43092,22359 L42884,22359 M43092,22775 L42884,22775 M43092,20446 L43092,20862 M42884,20446 L42884,20862 M42884,22775 L42884,22359 M43092,22775 L43092,22359 M45005,20446 L44797,20446 M45005,20862 L44797,20862 M45005,22359 L44797,22359 M45005,22775 L44797,22775 M45005,20446 L45005,20862 M44797,20446 L44797,20862 M44797,22775 L44797,22359 M45005,22775 L45005,22359 M24193,26933 L24193,26817 M29266,26933 L29266,26817 M29931,26933 L29931,26817 M29495,26933 L29266,26933 M29495,26817 L29266,26817 M29495,27598 L29495,26933 M29703,27598 L29703,26933 M29703,27598 L29495,27598 M29931,26933 L29703,26933 M29495,26817 L29495,26659 M29499,26655 L29703,26659 M29703,26817 L29703,26659 M29931,26817 L29703,26817 M35005,26933 L35005,26817 M35670,26933 L35670,26817 M35233,26933 L35005,26933 M35233,26817 L35005,26817 M35233,27598 L35233,26933 M35441,27598 L35441,26933 M35441,27598 L35233,27598 M35670,26933 L35441,26933 M35233,26817 L35233,26659 M35237,26655 L35441,26659 M35441,26817 L35441,26659 M35670,26817 L35441,26817 M40743,26933 L40743,26817 M41408,26933 L41408,26817 M40972,26933 L40743,26933 M40972,26817 L40743,26817 M40972,27598 L40972,26933 M41180,27598 L41180,26933 M41180,27598 L40972,27598 M41408,26933 L41180,26933 M40972,26817 L40972,26659 M40976,26655 L41180,26659 M41180,26817 L41180,26659 M41408,26817 L41180,26817 M46481,26933 L46481,26817 M47147,26933 L47147,26817 M46710,26933 L46481,26933 " style="stroke:#2E8B57; fill:None;"/>
<path d="M31408,16404 L31179,16404 M31408,16562 L31408,16404 M35441,16562 L35233,16562 M35670,16404 L35670,16288 M35674,16284 L35441,16288 M35670,16404 L35441,16404 M35441,16562 L35441,16404 M35005,16404 L35005,16288 M35441,16122 L35233,16122 M35233,16288 L35005,16288 M35233,16288 L35233,16122 M35441,16288 L35441,16122 M35233,16404 L35005,16404 M35233,16562 L35233,16404 M39267,16562 L39059,16562 M39495,16404 L39495,16288 M39500,16284 L39267,16288 M39495,16404 L39267,16404 M39267,16562 L39267,16404 M38830,16404 L38830,16288 M39267,16122 L39059,16122 M39059,16288 L38830,16288 M39059,16288 L39059,16122 M39267,16288 L39267,16122 M39059,16404 L38830,16404 M39059,16562 L39059,16404 M42656,16404 L42656,16288 M43092,16122 L42884,16122 M43180,16288 L43092,16288 M42884,16288 L42656,16288 M42884,16288 L42884,16122 M43092,16288 L43092,16122 M44253,17910 L44253,17743 M46918,17910 L46918,17868 M46918,17910 L46249,17910 M46253,17906 L46249,17743 M25877,20446 L25669,20446 M25877,20862 L25669,20862 M25877,22359 L25669,22359 M25877,22775 L25669,22775 M25877,20446 L25877,20862 M25669,20446 L25669,20862 M25669,22775 L25669,22359 M25877,22775 L25877,22359 M27790,20446 L27582,20446 M27790,20862 L27582,20862 M27790,22359 L27582,22359 M27790,22775 L27582,22775 M27790,20446 L27790,20862 M27582,20446 L27582,20862 M27582,22775 L27582,22359 M27790,22775 L27790,22359 M29703,20446 L29495,20446 M29703,20862 L29495,20862 M29703,22359 L29495,22359 M29703,22775 L29495,22775 M29703,20446 L29703,20862 M29495,20446 L29495,20862 M29495,22775 L29495,22359 M29703,22775 L29703,22359 M31615,20446 L31408,20446 M31615,20862 L31408,20862 M31615,22359 L31408,22359 M31615,22775 L31408,22775 M31615,20446 L31615,20862 M31408,20446 L31408,20862 M31408,22775 L31408,22359 M31615,22775 L31615,22359 M33528,20446 L33320,20446 M33528,20862 L33320,20862 M33528,22359 L33320,22359 M33528,22775 L33320,22775 M33528,20446 L33528,20862 M33320,20446 L33320,20862 M33320,22775 L33320,22359 M33528,22775 L33528,22359 M35441,20446 L35233,20446 M35441,20862 L35233,20862 M35441,22359 L35233,22359 M35441,22775 L35233,22775 M35441,20446 L35441,20862 M35233,20446 L35233,20862 " style="stroke:#2E8B57; fill:None;"/>
<path d="M52673,20974 L52673,20999 M52627,20974 L52615,20974 M52615,20945 L52582,20945 M52586,20941 L52582,21003 M52586,20991 L52586,21003 M52615,20945 L52615,20991 M52586,21003 L52586,20999 M52615,20991 L52586,20991 " style="stroke:#080808; fill:None;"/>
<path d="M52623,22775 L52540,22775 M52540,26659 L52623,26659 M52540,26659 L52540,22775 M52623,26659 L52623,22775 " style="stroke:#A0522D; fill:None;"/>
<path d="M23748,26750 L23748,24172 M21428,26750 L23748,26750 M21428,26667 L21428,26750 M21769,25586 L21078,25586 M22817,25586 L21823,25586 M22026,26064 L22026,25586 M22026,26750 L22026,26189 M22056,26126 L23207,26126 M21078,26126 L22002,26126 M22284,26788 L21752,25548 M22338,26788 L21806,25548 " style="stroke:#080808; fill:None;"/>
<path d="M23748,26750 L23748,24172 M19860,28962 L19744,28921 M21220,26792 L20650,26792 M21220,26667 L20563,26667 M20396,27124 L20563,26667 M19577,29370 L19744,28921 M20513,27166 L20650,26792 M19698,29411 L19860,28962 M21507,27528 L21349,27470 M19577,29370 L18916,29129 M20534,29715 L19698,29411 M21552,26917 L21220,26917 M23756,26917 L21727,26917 M21349,27470 L21552,26917 M21507,27528 L21727,26917 M20854,29324 L20696,29266 M20534,29715 L20696,29266 M20688,29773 L20854,29324 M23748,26917 L23748,26750 M21428,26667 L21220,26667 M21428,26750 L21428,26667 M16255,22051 L16255,21843 M16463,22051 L16463,21843 M16467,21839 L16255,21843 M16463,22051 L16255,22051 M11618,23831 L11452,23831 M11618,22060 L11452,22060 M17814,17743 L17814,17910 M21303,20654 L21303,20737 M21095,20654 L21303,20654 M21095,20654 L21095,20837 M23881,20446 L23881,17910 M23756,20862 L23756,17743 M23756,17910 L19344,17910 M23756,17743 L19344,17743 M24509,17743 L23756,17743 M24509,17910 L23881,17910 M24509,17910 L24509,17743 M27790,16562 L27490,16562 M28019,16404 L28019,16288 M28023,16284 L27790,16288 M28019,16404 L27790,16404 M27790,16562 L27790,16404 M27790,16122 L27582,16122 M27582,16288 L27495,16288 M27582,16288 L27582,16122 M27790,16288 L27790,16122 M31615,16562 L31408,16562 M31844,16404 L31844,16288 M31848,16284 L31615,16288 M31844,16404 L31615,16404 M31615,16562 L31615,16404 M31179,16404 L31179,16288 M31615,16122 L31408,16122 M31408,16288 L31179,16288 M31408,16288 L31408,16122 M31615,16288 L31615,16122 " style="stroke:#2E8B57; fill:None;"/>
<path d="M52473,26600 L52291,26600 M52291,26817 L52291,26600 " style="stroke:#A0522D; fill:None;"/>
<path d="M52291,26783 L47084,26783 M52291,26817 L47084,26817 " style="stroke:#87CEFA; fill:None;"/>
<path d="M52473,26600 L52473,22775 M52473,23440 L51401,23440 M51405,23436 L51401,22093 M50519,20438 L50519,20904 M50760,22800 L50519,22800 M50760,20904 L50519,20904 M50760,22317 L50519,22317 M50519,22800 L50519,22317 M50760,22800 L50760,22317 M52099,22093 L51401,22093 M52099,22317 L52099,22093 M52548,20904 L50760,20904 M52548,22317 L52099,22317 M52548,20945 L52548,20862 M52548,22359 L52548,22276 M52615,20945 L52615,20862 M52615,22359 L52615,22276 M52548,20945 L52615,20945 M52615,22276 L52548,22276 M52548,20862 L52615,20862 M52615,22359 L52548,22359 " style="stroke:#A0522D; fill:None;"/>
<path d="M53330,22218 L53330,22214 M53305,22218 L53305,22214 M53330,22218 L53305,22218 M53272,22234 L53272,22247 M53272,22222 L53272,22230 M52686,22230 L52686,22222 M52686,22247 L52686,22234 M52673,22230 L53284,22230 M53284,22234 L52673,22234 M53284,22247 L52673,22247 M52686,22218 L53272,22218 M53318,22218 L53318,22247 M53284,22222 L53272,22222 M53330,22218 L53272,22218 M53318,22247 L53284,22247 M53284,22222 L53284,22247 M53272,22218 L53272,22214 M52640,22243 L52640,22218 M52644,22214 L52686,22218 M52673,22222 L52686,22222 M52627,22247 L52673,22247 M52627,22243 L52640,22243 M52686,22222 L52686,22218 M52673,22247 L52673,22222 M52627,22247 L52627,22243 M52627,22247 L52615,22247 M52615,22276 L52582,22276 M52586,22272 L52582,22218 M52586,22230 L52586,22218 M52615,22276 L52615,22230 M52586,22218 L52586,22214 M52615,22230 L52586,22230 M53330,20974 L53330,20974 M53305,20974 L53305,20974 M53330,20974 L53305,20974 M53272,20987 L53272,20974 M53272,20999 L53272,20991 M52686,20991 L52686,20999 M52686,20974 L52686,20987 M52673,20991 L53284,20991 M53284,20987 L52673,20987 M53284,20974 L52673,20974 M52686,21003 L53272,21003 M53318,21003 L53318,20974 M53284,20999 L53272,20999 M53318,21003 L53272,21003 M53330,20974 L53284,20974 M53284,20999 L53284,20974 M53272,21003 L53272,20999 M52640,20979 L52640,21003 M52644,20999 L52686,21003 M52673,20999 L52686,20999 M52627,20974 L52673,20974 M52627,20979 L52640,20979 M52686,20999 L52686,20999 M52623,20970 L52627,20979 L52619,20983 M52623,22243 L52627,22247 L52619,22251 " style="stroke:#080808; fill:None;"/>
<path d="M42868,22800 L42868,22317 M43109,22800 L43109,22317 M44781,20421 L44781,20904 M45022,20421 L45022,20904 M45022,20421 L44781,20421 M45022,22800 L44781,22800 M45022,20904 L44781,20904 M45022,22317 L44781,22317 M44781,22800 L44781,22317 M45022,22800 L45022,22317 M46693,20421 L46693,20904 M46935,20421 L46935,20904 M46935,20421 L46693,20421 M46935,22800 L46693,22800 M46935,20904 L46693,20904 M46935,22317 L46693,22317 M46693,22800 L46693,22317 M46935,22800 L46935,22317 M48606,20421 L48606,20904 M48847,20438 L48847,20904 M48847,20421 L48606,20421 M48847,22800 L48606,22800 M48847,20904 L48606,20904 M48847,22317 L48606,22317 M48606,22800 L48606,22317 M48847,22800 L48847,22317 M52548,22359 L52548,22317 M52449,22359 L52548,22359 M52449,22775 L52449,22359 M52473,22775 L52449,22775 M52473,26284 L23906,26284 M24131,26817 L24131,26783 M24131,26817 L24131,26517 M24135,26513 L23906,26517 M29328,26817 L29328,26783 " style="stroke:#A0522D; fill:None;"/>
<path d="M29333,26779 L24131,26783 M29328,26817 L24131,26817 " style="stroke:#87CEFA; fill:None;"/>
<path d="M29495,26817 L29328,26817 M29495,26659 L29495,26817 M29703,26659 L29495,26659 M29703,26817 L29703,26659 M29869,26817 L29703,26817 M29869,26817 L29869,26783 M29328,26817 L29328,26600 M29869,26817 L29869,26600 M29873,26596 L29328,26600 M35067,26817 L35067,26783 " style="stroke:#A0522D; fill:None;"/>
<path d="M35071,26779 L29869,26783 M35067,26817 L29869,26817 " style="stroke:#87CEFA; fill:None;"/>
<path d="M35233,26817 L35067,26817 M35233,26659 L35233,26817 M35441,26659 L35233,26659 M35441,26817 L35441,26659 M35607,26817 L35441,26817 M35607,26817 L35607,26783 M35067,26817 L35067,26600 M35607,26817 L35607,26600 M35612,26596 L35067,26600 M40805,26817 L40805,26783 " style="stroke:#A0522D; fill:None;"/>
<path d="M40809,26779 L35607,26783 M40805,26817 L35607,26817 " style="stroke:#87CEFA; fill:None;"/>
<path d="M40972,26817 L40805,26817 M40972,26659 L40972,26817 M41180,26659 L40972,26659 M41180,26817 L41180,26659 M41346,26817 L41180,26817 M41346,26817 L41346,26783 M40805,26817 L40805,26600 M41346,26817 L41346,26600 M41350,26596 L40805,26600 M46544,26817 L46544,26783 " style="stroke:#A0522D; fill:None;"/>
<path d="M46548,26779 L41346,26783 M46544,26817 L41346,26817 " style="stroke:#87CEFA; fill:None;"/>
<path d="M46710,26817 L46544,26817 M46710,26659 L46710,26817 M46918,26659 L46710,26659 M46918,26817 L46918,26659 M47084,26817 L46918,26817 M47084,26817 L47084,26783 M46544,26817 L46544,26600 M47084,26817 L47084,26600 M47089,26596 L46544,26600 M52291,26817 L52291,26783 M23998,22792 L23906,22792 M23998,22351 L23823,22351 M23998,22792 L23998,22351 M23906,26517 L23906,22792 M25653,20421 L25653,20904 M25894,20421 L25894,20904 M25894,20421 L25653,20421 M25894,22800 L25653,22800 M25894,20904 L25653,20904 M25894,22317 L25653,22317 M25653,22800 L25653,22317 M25894,22800 L25894,22317 M27565,20421 L27565,20904 M27806,20421 L27806,20904 M27806,20421 L27565,20421 M27806,22800 L27565,22800 M27806,20904 L27565,20904 M27806,22317 L27565,22317 M27565,22800 L27565,22317 M27806,22800 L27806,22317 M29478,20421 L29478,20904 M29719,20421 L29719,20904 M29719,20421 L29478,20421 M29719,22800 L29478,22800 M29719,20904 L29478,20904 M29719,22317 L29478,22317 M29478,22800 L29478,22317 M29719,22800 L29719,22317 M31391,20421 L31391,20904 M31632,20421 L31632,20904 M31632,20421 L31391,20421 M31632,22800 L31391,22800 M31632,20904 L31391,20904 M31632,22317 L31391,22317 M31391,22800 L31391,22317 M31632,22800 L31632,22317 M33304,20421 L33304,20904 M33545,20421 L33545,20904 M33545,20421 L33304,20421 M33545,22800 L33304,22800 M33545,20904 L33304,20904 M33545,22317 L33304,22317 M33304,22800 L33304,22317 M33545,22800 L33545,22317 M35217,20421 L35217,20904 M35458,20421 L35458,20904 M35458,20421 L35217,20421 M35458,22800 L35217,22800 M35458,20904 L35217,20904 M35458,22317 L35217,22317 M35217,22800 L35217,22317 M35458,22800 L35458,22317 M37129,20421 L37129,20904 M37371,20421 L37371,20904 M37371,20421 L37129,20421 M37371,22800 L37129,22800 M37371,20904 L37129,20904 M37371,22317 L37129,22317 M37129,22800 L37129,22317 M37371,22800 L37371,22317 M39042,20421 L39042,20904 M39283,20421 L39283,20904 M39283,20421 L39042,20421 M39283,22800 L39042,22800 M39283,20904 L39042,20904 M39283,22317 L39042,22317 M39042,22800 L39042,22317 M39283,22800 L39283,22317 M40955,20421 L40955,20904 M41196,20421 L41196,20904 M41196,20421 L40955,20421 M41196,22800 L40955,22800 M41196,20904 L40955,20904 M41196,22317 L40955,22317 M40955,22800 L40955,22317 M41196,22800 L41196,22317 M42868,20421 L42868,20904 M43109,20421 L43109,20904 M43109,20421 L42868,20421 M43109,22800 L42868,22800 M43109,20904 L42868,20904 M43109,22317 L42868,22317 M48831,20421 L50536,20421 M50519,20904 L48847,20904 M23998,20430 L23906,20430 M23910,20425 L23906,17910 M23998,20430 L23998,20870 M24002,20866 L23823,20870 M23823,22359 L23823,22317 M23823,20945 L23823,20862 M23823,22359 L23823,22276 M23756,20945 L23756,20862 M23756,22359 L23756,22276 M23823,20945 L23756,20945 M23756,22276 L23823,22276 M23823,20862 L23756,20862 M23756,22359 L23823,22359 " style="stroke:#A0522D; fill:None;"/>
<path d="M23045,22218 L23045,22214 M23070,22218 L23070,22214 M23045,22218 L23070,22218 M23103,22234 L23103,22247 M23103,22222 L23103,22230 M23690,22230 L23690,22222 M23690,22247 L23690,22234 M23702,22230 L23091,22230 M23091,22234 L23702,22234 M23091,22247 L23702,22247 M23690,22218 L23103,22218 M23058,22218 L23058,22247 M23091,22222 L23103,22222 M23045,22218 L23103,22218 M23058,22247 L23091,22247 M23091,22222 L23091,22247 M23103,22218 L23103,22214 M23736,22243 L23736,22218 M23740,22214 L23690,22218 M23702,22222 L23690,22222 M23748,22247 L23702,22247 M23748,22243 L23736,22243 M23690,22222 L23690,22218 M23702,22247 L23702,22222 M23748,22247 L23748,22243 M23748,22247 L23756,22247 M23756,22276 L23790,22276 M23794,22272 L23790,22218 M23790,22230 L23790,22218 M23756,22276 L23756,22230 M23790,22218 L23790,22214 M23756,22230 L23790,22230 M23045,20974 L23045,20974 M23070,20974 L23070,20974 M23045,20974 L23070,20974 M23103,20987 L23103,20974 M23103,20999 L23103,20991 M23690,20991 L23690,20999 M23690,20974 L23690,20987 M23702,20991 L23091,20991 M23091,20987 L23702,20987 M23091,20974 L23702,20974 M23690,21003 L23103,21003 M23058,21003 L23058,20974 M23091,20999 L23103,20999 M23058,21003 L23103,21003 M23045,20974 L23091,20974 M23091,20999 L23091,20974 M23103,21003 L23103,20999 M23736,20979 L23736,21003 M23740,20999 L23690,21003 M23702,20999 L23690,20999 M23748,20974 L23702,20974 M23748,20979 L23736,20979 M23690,20999 L23690,20999 M23702,20974 L23702,20999 M23748,20974 L23756,20974 M23756,20945 L23790,20945 M23794,20941 L23790,21003 M23790,20991 L23790,21003 M23756,20945 L23756,20991 M23790,21003 L23790,20999 M23756,20991 L23790,20991 M23752,22243 L23756,22247 L23752,22251 M23752,20970 L23756,20979 L23752,20983 " style="stroke:#080808; fill:None;"/>
<path d="M42751,16404 L39433,16404 " style="stroke:#87CEFA; fill:None;"/>
<path d="M44993,17107 L44993,17095 M44993,17885 L44993,17872 M44976,17095 L44993,17095 M44993,17107 L45009,17107 M45009,17872 L45009,17107 M44993,17872 L45009,17872 M44976,17885 L44993,17885 M44976,17885 L44976,17095 M44980,17893 L44993,17893 M44989,17885 L44989,17901 M45829,17918 L45829,17901 M45795,17951 L45795,17918 M45770,17918 L45770,17901 M45762,17951 L45762,17918 M45829,17968 L45829,17951 M45770,17968 L45770,17951 M45770,17968 L45829,17968 M45762,17951 L45829,17951 M45762,17918 L45829,17918 M45770,17901 L45829,17901 M44947,17951 L44947,17968 M44980,17918 L44980,17951 M45005,17951 L45005,17968 M45014,17918 L45014,17951 M44947,17901 L44947,17918 M45005,17901 L45005,17918 M45005,17901 L44947,17901 M45014,17918 L44947,17918 M45014,17951 L44947,17951 M45005,17968 L44947,17968 " style="stroke:#080808; fill:None;"/>
<path d="M44980,17918 L44548,17918 M46228,17918 L45795,17918 M44980,17951 L44548,17951 M46228,17951 L45795,17951 M45799,17947 L45795,17918 M44980,17951 L44980,17918 " style="stroke:#87CEFA; fill:None;"/>
<path d="M44548,17951 L44548,17918 M46228,17951 L46228,17918 M44548,17718 L43828,17718 M44548,18151 L43791,18151 M44548,18151 L44548,17718 M46706,17718 L46228,17718 M48748,18109 L46993,18109 M51259,17918 L48748,17918 M46228,18151 L46228,17718 M46993,18151 L46993,18109 M48748,18109 L48748,17918 M51259,18151 L46228,18151 " style="stroke:#A0522D; fill:None;"/>
<path d="M51342,18741 L51259,18741 M51259,20446 L51342,20446 M51347,20442 L51342,18741 " style="stroke:#080808; fill:None;"/>
<path d="M50744,20529 L51259,20887 M51259,20529 L50744,20887 M50748,20883 L50744,20529 M51259,20529 L50744,20529 M51259,20529 L51259,20887 M52548,20887 L50744,20887 " style="stroke:#A0522D; fill:None;"/>
<path d="M51259,20446 L51259,18741 " style="stroke:#080808; fill:None;"/>
<path d="M51342,17868 L51259,17868 M51259,18741 L51342,18741 M51347,18737 L51342,17868 M51259,18741 L51259,17868 M52449,20529 L52449,20446 M51259,20529 L51259,20446 M51259,20529 L52449,20529 M51259,20446 L52449,20446 M52523,17868 L52607,17868 M52607,20446 L52523,20446 M52528,20442 L52523,17868 M52607,20446 L52607,17868 M50519,20887 L49687,20438 M49687,20887 L50519,20438 M48847,20438 L49679,20887 M49679,20438 L48847,20887 M50519,20887 L48847,20887 M49687,20438 L49687,20887 M49679,20438 L49679,20887 M48847,20438 L50519,20438 M48831,20421 L48831,20904 M50536,20421 L50536,20904 M22376,20687 L22376,20579 M22380,20575 L22309,20579 M22376,20005 L22309,20005 M22484,18658 L23607,18658 M22484,18001 L22484,17910 M22484,18658 L22484,18575 M22417,18001 L22417,17910 M22417,18725 L22417,18575 M22417,18001 L22484,18001 M22417,18575 L22484,18575 M22417,18725 L23607,18725 M22509,19706 L22509,19332 M22509,19706 L23607,19706 M22509,19332 L21261,19332 M22309,20005 L22309,19531 M22313,19527 L21261,19531 M22376,19906 L23607,19906 M21095,17976 L21095,17910 M21095,19881 L21095,18708 M21261,17976 L21261,17910 M21261,19881 L21261,18708 M21095,20654 L21095,20613 M21261,20654 L21261,20613 M21261,18708 L21095,18708 M21261,17976 L21095,17976 M21261,19881 L21095,19881 M21303,20654 L21261,20654 M21303,20687 L21303,20654 M21303,20687 L23607,20687 M23611,20683 L23607,17910 M21261,20613 L21095,20613 M21261,17910 L21095,17910 M21261,20654 L21095,20654 " style="stroke:#A0522D; fill:None;"/>
<path d="M21303,22775 L21220,22775 M21220,24047 L21303,24047 M21307,24043 L21303,22775 M21220,24047 L21220,22775 " style="stroke:#080808; fill:None;"/>
<path d="M26888,18143 L23906,18143 " style="stroke:#A0522D; fill:None;"/>
<path d="M24509,17876 L24509,17910 M26422,17910 L26422,17876 M26426,17872 L24509,17876 M26422,17910 L24509,17910 " style="stroke:#87CEFA; fill:None;"/>
<path d="M26888,18143 L27574,16621 M43117,16671 L27553,16671 M26526,18093 L26526,17910 M24447,18093 L24447,17910 M42751,16404 L42751,16438 M42751,16621 L42751,16404 M43791,18151 L43101,16621 M43105,16616 L42751,16621 M27956,16621 L27956,16404 M27956,16621 L27574,16621 " style="stroke:#A0522D; fill:None;"/>
<path d="M31241,16438 L27956,16438 M31241,16404 L27956,16404 " style="stroke:#87CEFA; fill:None;"/>
<path d="M31408,16404 L31241,16404 M31408,16562 L31408,16404 M31615,16562 L31408,16562 M31615,16404 L31615,16562 M31782,16404 L31615,16404 M31241,16621 L31241,16404 M31782,16621 L31782,16404 M31782,16621 L31241,16621 " style="stroke:#A0522D; fill:None;"/>
<path d="M35067,16438 L31782,16438 M35067,16404 L31782,16404 " style="stroke:#87CEFA; fill:None;"/>
<path d="M35233,16404 L35067,16404 M35233,16562 L35233,16404 M35441,16562 L35233,16562 M35441,16404 L35441,16562 M35607,16404 L35441,16404 M35067,16621 L35067,16404 M35607,16621 L35607,16404 M35607,16621 L35067,16621 " style="stroke:#A0522D; fill:None;"/>
<path d="M38893,16438 L35607,16438 M38893,16404 L35607,16404 " style="stroke:#87CEFA; fill:None;"/>
<path d="M39059,16404 L38893,16404 M39059,16562 L39059,16404 M39267,16562 L39059,16562 M39267,16404 L39267,16562 M39433,16404 L39267,16404 M38893,16621 L38893,16404 M39433,16621 L39433,16404 M39433,16621 L38893,16621 " style="stroke:#A0522D; fill:None;"/>
<path d="M42751,16438 L39433,16438 " style="stroke:#87CEFA; fill:None;"/>
<path d="M21078,18741 L21095,18741 M21078,18683 L21095,18683 M21078,18683 L21078,18741 M21095,18675 L21095,18741 M21261,18675 L21261,18737 M21274,18679 L21274,18737 M21095,17976 L21261,17976 M21261,18005 L21274,18005 M21261,17947 L21274,17947 M21095,18009 L21261,18009 M21078,17943 L21095,17943 M21078,18001 L21095,18001 M21078,18001 L21078,17943 M21095,18009 L21095,17943 M21261,18009 L21261,17947 M21274,18005 L21274,17947 M21877,18014 L21877,18034 M21868,18001 L21868,18014 M21873,18009 L21877,18014 M22380,18034 L21877,18034 M22380,18034 L22380,18014 M22388,18014 L22380,18014 M22388,18014 L22388,18001 M22392,17997 L21868,18001 M22397,18009 L22397,18001 M22401,18005 L22388,18005 M22417,17968 L22401,17968 M22496,17972 L22484,17972 M22484,18001 L22417,18001 M22417,18026 L22401,18026 M22496,18030 L22484,18030 M22401,18026 L22401,17968 M22417,18034 L22417,17968 M22484,18034 L22484,17972 M22496,18030 L22496,17972 M22401,18608 L22401,18550 M22417,18608 L22417,18542 M22484,18604 L22484,18542 M22417,18550 L22401,18550 M22496,18604 L22496,18546 M22484,18575 L22417,18575 M22417,18608 L22401,18608 M22496,18604 L22484,18604 M22484,18034 L22417,18034 M22484,18542 L22417,18542 M22496,18546 L22484,18546 M22921,20571 L22921,20550 M22929,20583 L22929,20571 M22933,20567 L22921,20571 M22417,20550 L22921,20550 M22417,20550 L22417,20571 M22409,20571 L22417,20571 M22409,20571 L22409,20583 M22413,20579 L22929,20583 M22401,20571 L22401,20583 M22392,20579 L22409,20579 M22376,20613 L22392,20613 M22297,20608 L22309,20608 M22309,20579 L22376,20579 M22376,20554 L22392,20554 M22297,20550 L22309,20550 M22392,20554 L22392,20613 M22376,20546 L22376,20613 M22309,20546 L22309,20608 M22297,20550 L22297,20608 M22392,19972 L22392,20030 M22376,19972 L22376,20039 M22309,19976 L22309,20039 M22376,20030 L22392,20030 M22297,19976 L22297,20035 M22309,20005 L22376,20005 M22376,19972 L22392,19972 M22297,19976 L22309,19976 M22309,20546 L22376,20546 M22309,20039 L22376,20039 M22297,20035 L22309,20035 " style="stroke:#080808; fill:None;"/>
<path d="M22309,20687 L22309,20579 M22376,20005 L22376,19906 " style="stroke:#A0522D; fill:None;"/>
<path d="M19906,28613 L19910,28601 M19906,28613 L20642,28883 M19897,28609 L19902,28601 M19906,28609 L19889,28601 M19872,28646 L19893,28584 M19848,28634 L19868,28567 M19881,28572 L19868,28567 M20737,27611 L20733,27623 M20721,27619 L20717,27636 M20322,27420 L20292,27407 M20284,27470 L20280,27478 M20297,27478 L20284,27470 M20721,27619 L20733,27623 M20317,27474 L20330,27478 M20326,27490 L20717,27636 M20330,27478 L20326,27490 M20326,27461 L20317,27474 M20326,27461 L20737,27611 M20317,27457 L20313,27470 M20322,27465 L20305,27461 M20322,27420 L20297,27478 M45009,17107 L45026,17107 M45176,17132 L45192,17136 M45330,17186 L45342,17190 L45346,17194 M45471,17273 L45483,17286 M45592,17390 L45600,17402 M45683,17527 L45691,17544 M45745,17681 L45750,17698 M45770,17847 L45770,17864 M44989,17885 L44993,17893 L44989,17897 M22413,18550 L22397,18550 M22251,18529 L22234,18525 M22101,18454 L22089,18446 M21981,18342 L21972,18330 M21902,18197 L21898,18184 M21868,18034 L21868,18022 L21868,18018 M22397,18001 L22401,18005 L22392,18009 M22397,18001 L22401,18005 L22392,18009 M22380,20030 L22397,20030 M22546,20055 L22563,20060 M22696,20126 L22708,20134 M22817,20238 L22825,20251 M22896,20384 L22900,20401 M22925,20546 L22929,20563 M22401,20571 L22405,20579 L22397,20583 L22397,20579 M22401,20571 L22405,20579 L22397,20583 L22397,20579 " style="stroke:#080808; fill:None;"/>
<path d="M20292,27407 L20268,27474 M20280,27478 L20268,27474 " style="stroke:#080808; fill:None;"/>
<path d="M21394,27353 L21349,27470 M20513,27166 L20554,27050 M19818,29079 L19860,28962 M20654,29382 L20696,29266 M20554,27050 L21394,27353 M20654,29382 L19818,29079 M20696,29266 L19860,28962 M20513,27166 L21349,27470 M20151,26900 L20105,27016 M20396,27124 L20438,27004 M20442,27000 L20151,26900 M20396,27124 L20105,27016 " style="stroke:#A0522D; fill:None;"/>
<path d="M20513,27166 L20396,27124 M16463,25228 L16463,25020 " style="stroke:#2E8B57; fill:None;"/>
<path d="M16463,28235 L16463,25170 " style="stroke:#A0522D; fill:None;"/>
<path d="M20355,20604 L20371,20604 M20371,20588 L20371,20604 M20355,20604 L20355,20617 M20371,20588 L21049,20588 M21053,20583 L21049,20604 M21062,20604 L21062,20617 M21049,20604 L21062,20604 M20355,20617 L21062,20617 M21062,20608 L21078,20608 M21095,20613 L21261,20613 M21261,20583 L21274,20583 M21261,20642 L21274,20642 M21095,20579 L21261,20579 M21078,20646 L21095,20646 M21078,20588 L21095,20588 M21078,20588 L21078,20646 M21095,20579 L21095,20646 M21261,20579 L21261,20642 M21274,20583 L21274,20642 M21095,19881 L21261,19881 M21261,19910 L21274,19910 M21261,19852 L21274,19852 M21095,19914 L21261,19914 M21078,19847 L21095,19847 M21078,19906 L21095,19906 M21078,19906 L21078,19847 M21095,19914 L21095,19847 M21261,19914 L21261,19852 M21274,19910 L21274,19852 M20355,18700 L20371,18700 M20371,18683 L20371,18700 M20355,18700 L20355,18712 M20371,18683 L21049,18683 M21053,18679 L21049,18700 M21062,18700 L21062,18712 M21049,18700 L21062,18700 M20355,18712 L21062,18712 M21062,18704 L21078,18704 M21095,18708 L21261,18708 M21261,18679 L21274,18679 M21261,18737 L21274,18737 M21095,18675 L21261,18675 " style="stroke:#080808; fill:None;"/>
<path d="M16255,22051 L16255,21902 M11618,22051 L11618,21902 M12250,26704 L12250,26309 M11618,26309 L12250,26309 M16288,23981 L16330,23981 M16288,24022 L16288,23981 M16288,24022 L16330,24022 M16334,24018 L16330,23981 M11618,23981 L11618,23831 M17003,23981 L17003,23831 M11618,23981 L17003,23981 M16463,25170 L16463,25020 M17128,25170 L16463,25170 M17128,25020 L16255,25020 M17128,25170 L17128,25020 M15598,26135 L15398,26135 M15598,25985 L15199,25985 M15598,26135 L15598,25985 M15199,27777 L15199,25985 M15398,27765 L15398,26135 M16255,27765 L15398,27765 M11618,23831 L17003,23831 " style="stroke:#A0522D; fill:None;"/>
<path d="M22351,29503 L22355,29495 M22343,29490 L22347,29474 M21582,29266 L21552,29258 M21586,29204 L21590,29195 M21602,29208 L21586,29204 M22343,29490 L22355,29495 M21615,29224 L21627,29229 M21631,29212 L22347,29474 M21627,29229 L21631,29212 M21611,29237 L21615,29224 M21611,29237 L22351,29503 M21602,29233 L21606,29220 M21615,29229 L21598,29224 M21582,29266 L21602,29208 M21552,29258 L21577,29191 M21590,29195 L21577,29191 M22446,28235 L22442,28243 M22430,28239 L22422,28255 M22026,28039 L22002,28031 M21989,28093 L21989,28102 M22006,28097 L21989,28093 M22430,28239 L22442,28243 M22026,28093 L22039,28097 M22035,28114 L22422,28255 M22039,28097 L22035,28114 M22031,28081 L22026,28093 M22031,28081 L22446,28235 M22022,28081 L22018,28089 M22031,28089 L22010,28081 M22026,28039 L22006,28097 M22002,28031 L21977,28097 M21989,28102 L21977,28097 " style="stroke:#080808; fill:None;"/>
<path d="M22002,28031 L22064,27856 M21490,29428 L21552,29258 M22026,28039 L22097,27844 M21511,29461 L21582,29266 M22026,28039 L21997,28027 M21582,29266 L21552,29258 M22064,27856 L21507,27528 M21490,29428 L20854,29324 M20292,27407 L20396,27124 M19744,28921 L19848,28634 M20322,27416 L20426,27133 M19769,28929 L19872,28646 M20292,27407 L20322,27420 M19872,28646 L19848,28634 M20396,27124 L20426,27133 M19769,28929 L19744,28921 " style="stroke:#87CEFA; fill:None;"/>
<path d="M20642,28883 L20646,28871 M20633,28867 L20642,28850 M19872,28646 L19848,28634 M19881,28580 L19881,28572 M19893,28584 L19881,28580 M20633,28867 L20646,28871 M19910,28601 L19918,28605 M19927,28592 L20642,28850 M19918,28605 L19927,28592 M12724,21873 L12724,21889 M13498,21873 L13498,21889 M13510,21082 L13510,21070 M13510,21856 L13510,21843 M13494,21843 L13494,21082 M13510,21843 L13494,21843 M13523,21856 L13510,21856 M13523,21856 L13523,21070 M13523,21864 L13510,21864 M13514,21856 L13514,21873 M12724,21873 L12662,21873 M13560,21873 L13498,21873 M12733,21902 L12662,21902 M13560,21902 L13489,21902 M12733,21889 L12733,21902 M13489,21889 L13489,21902 M16209,22800 L16209,22812 M16221,22812 L16209,22812 M16209,22800 L16192,22800 M16263,22080 L16263,22051 M16201,22064 L16192,22064 M16201,22080 L16201,22064 M16209,22101 L16209,22114 M16192,22114 L16192,22800 M16209,22114 L16192,22114 M16221,22101 L16209,22101 M16221,22101 L16221,22812 M16221,22093 L16209,22093 M16217,22101 L16217,22080 M16263,22080 L16201,22080 M16263,22051 L16192,22051 M16192,22064 L16192,22051 M14804,22812 L14820,22812 M14791,22800 L14804,22800 M14754,22080 L14754,22051 M14816,22064 L14824,22064 M14816,22080 L14816,22064 M14804,22800 L14804,22812 M14804,22101 L14804,22114 M14820,22114 L14820,22812 M14804,22114 L14820,22114 M14791,22101 L14804,22101 M14791,22101 L14791,22800 M14791,22093 L14804,22093 M14799,22101 L14799,22080 M14754,22080 L14816,22080 M14754,22051 L14824,22051 M14824,22064 L14824,22051 " style="stroke:#080808; fill:None;"/>
<path d="M11618,17910 L16313,17910 M11618,18034 L11618,17910 M13747,18159 L13598,18159 M13598,18034 L11618,18034 M16313,17951 L13747,17951 M13598,18159 L13598,18034 M13747,18159 L13747,17951 M16197,21902 L16255,21902 M13747,21902 L14816,21902 M16197,22051 L16255,22051 M13489,22051 L14816,22051 M14820,22047 L14816,21902 M16197,22051 L16197,21902 M13489,21902 L13598,21902 M11618,18966 L13747,18966 M13747,21902 L13747,18966 M11618,19116 L13598,19116 M13598,21902 L13598,19116 M11618,21902 L12733,21902 M11618,22051 L12733,22051 M13489,22051 L13489,21902 M12733,22051 L12733,21902 M16463,17910 L16313,17910 M16463,22051 L16463,21902 M16313,20771 L16313,17910 M16962,20771 L16313,20771 M16962,21902 L16463,21902 M16962,21902 L16962,20771 M16463,20621 L16463,17910 M17111,20621 L16463,20621 M17111,22051 L17111,20621 M17111,22051 L16463,22051 " style="stroke:#A0522D; fill:None;"/>
<path d="M52952,26713 L52964,26713 M52939,26713 L52952,26713 M52939,26759 L52964,26759 M52968,26754 L52964,26713 M52964,26725 L52964,26713 M52939,26771 L52939,26725 M52939,26771 L52939,26759 M52964,26713 L52964,26713 M52939,26725 L52964,26725 M52939,26771 L52939,26783 M52906,26783 L52906,26817 M52910,26813 L52964,26817 M52952,26813 L52964,26813 M52906,26783 L52952,26783 M52964,26813 L52964,26813 M52952,26783 L52952,26813 " style="stroke:#080808; fill:None;"/>
<path d="M52885,26817 L52656,26817 M52656,26667 L52885,26817 M52656,26817 L52656,26667 M52881,26667 L52656,26817 M52881,26783 L52881,26817 M52881,26667 L52881,26817 M52656,26667 L52881,26667 M24447,18093 L23906,18093 M26908,18093 L26526,18093 " style="stroke:#A0522D; fill:None;"/>
<path d="M21507,27528 L21519,27503 M20846,29353 L20854,29324 M22097,27844 L21519,27503 M21511,29461 L20846,29353 " style="stroke:#87CEFA; fill:None;"/>
<path d="M11618,26472 L11618,26309 M12250,26704 L11618,26472 M15743,27973 L15199,27777 M16463,28235 L16255,28160 M16255,27765 L16255,25020 M16255,28160 L16255,27973 M16259,27969 L15743,27973 M16288,24746 L16255,24746 M16255,25020 L16288,25020 M16255,24746 L16255,25020 M16288,24746 L16288,25020 " style="stroke:#A0522D; fill:None;"/>
<path d="m 15540,24002 0,12 m 12,0 0,17 m 703,715 33,0 m -33,-765 33,0 m -17,715 0,8 m 0,-682 0,9 m -16,673 16,0 m -16,-682 16,0 m -719,-8 -12,0 m 698,0 -12,0 m 0,17 -674,0 m 674,-17 0,17 m 12,-29 0,12 m 0,-12 -698,0 m 706,0 0,12 m -8,-8 17,0 m 0,698 0,42 m 0,-765 0,41 m 33,674 0,50 m 0,-765 0,50 m -17,665 17,0 m -17,-665 17,0 m -2765,-2961 -13,0 m 0,12 -16,0 m -832,791 0,29 m 898,-29 0,29 m -827,-13 -9,0 m 774,0 -9,0 m 6408,6712 9,4 -9,4 m 416,-1152 4,8 -4,5 m 58,-6866 0,-16 m 21,-150 4,-17 m 54,-137 9,-17 m 87,-120 13,-13 m 112,-99 12,-9 m 133,-66 17,-9 m 141,-33 17,-4 m 79,690 8,4 -8,5 m -699,-1913 0,-17 m 21,-150 4,-16 m 54,-137 9,-17 m 87,-121 13,-12 m 112,-100 12,-8 m 133,-67 17,-8 m 141,-33 17,-5 m 79,691 8,4 -8,4 m 536,10512 5,9 -5,4 m 416,-1152 4,4 -8,4 m -8504,-6233 9,8 -9,4 m 2683,932 -17,-4 m -150,-25 -16,-4 m -138,-54 -12,-9 m -121,-91 -12,-9 m -96,-116 -12,-13 m -67,-133 -4,-16 m -37,-146 0,-16 m 702,-79 4,8 -4,4 m -665,-29 -4,17 m -13,149 -4,17 m -46,141 -8,13 m -83,125 -8,16 m -108,104 -13,8 m -129,75 -16,9 m -142,41 -16,4 m -163,-702 5,8 -5,4 m 38140,4674 4,8 -8,4 m -36647,-2083 -17,0 m -149,-16 -13,-5 m -141,-45 -17,-9 m -125,-83 -12,-8 m -104,-112 -8,-13 m -75,-129 -4,-16 m -42,-142 0,-16 m 665,-104 5,4 -5,4 m -3513,-2108 0,-17 m 12,-150 4,-16 m 42,-146 0,-8 4,-4 m 75,-133 8,-13 m 96,-112 12,-13 m 121,-91 12,-8 m 138,-63 12,-8 m 146,-29 16,-4" style="stroke:#080808; fill:None;"/>
<path d="M51430,21877 L51430,21943 M51401,21877 L51401,21939 M51388,21881 L51388,21939 " style="stroke:#080808; fill:None;"/>
<path d="M43724,15165 L44689,14716 " style="stroke:#2E8B57; fill:None;"/>
<path d="M45205,15822 L43629,12429 M42664,12878 L44240,16271 " style="stroke:#080808; fill:None;"/>
<path d="M44261,10716 L44789,11847 M44223,10733 L44261,10716 M42635,10371 L43803,9826 M34036,14371 L42635,10371 M42107,9240 L43275,8695 M41995,9294 L42107,9240 M42502,10088 L43670,9543 M42369,9805 L43537,9260 M42240,9522 L43408,8978 M42107,9240 L42635,10371 M41995,9294 L42519,10425 M43275,8695 L43803,9826 M34913,14284 L35088,14662 M34036,14371 L34460,15273 M41579,10861 L42523,12899 M43803,9826 L44223,10733 " style="stroke:#2E8B57; fill:None;"/>
<path d="M44153,17718 L44186,17718 M43841,16945 L43808,16962 " style="stroke:#A0522D; fill:None;"/>
<path d="M43841,16945 L43824,16916 M44203,16741 L44215,16770 M43824,16916 L44203,16741 M43841,16945 L44215,16770 " style="stroke:#87CEFA; fill:None;"/>
<path d="M45205,15822 L44240,16271 M45101,15598 L44136,16047 M44997,15373 L44032,15822 M44893,15144 L43924,15594 M44785,14920 L43820,15369 M44681,14691 L43716,15140 M44577,14467 L43608,14916 M44469,14242 L43504,14691 M44365,14013 L43400,14462 M44261,13789 L43296,14238 M44153,13560 L43188,14009 M44049,13336 L43084,13785 M43945,13111 L42980,13560 M43837,12882 L42872,13331 M43733,12658 L42768,13107 M43629,12429 L42664,12878 " style="stroke:#080808; fill:None;"/>
<path d="M44423,13161 L44897,12941 M43733,12338 L44710,11880 " style="stroke:#2E8B57; fill:None;"/>
<path d="M44756,11859 L44789,11847 M42523,12899 L42556,12882 M42044,11785 L42556,12882 M44244,10757 L44756,11859 M44261,10716 L44789,11847 M41999,11768 L42523,12899 " style="stroke:#87CEFA; fill:None;"/>
<path d="M42643,12841 L42523,12899 M44236,16579 L44144,16621 M44236,16579 L42523,12899 M44789,11847 L44710,11880 " style="stroke:#2E8B57; fill:None;"/>
<path d="M43612,12392 L43733,12338 " style="stroke:#A0522D; fill:None;"/>
<path d="M46706,15623 L46544,15623 M46548,15618 L44789,11847 M46490,15706 L44710,11880 " style="stroke:#2E8B57; fill:None;"/>
<path d="M45513,16167 L43733,12338 M45392,16226 L43612,12392 " style="stroke:#A0522D; fill:None;"/>
<path d="M44215,16770 L44144,16621 M44427,16675 L42643,12841 M44427,16675 L44215,16770 " style="stroke:#2E8B57; fill:None;"/>
<path d="M45513,16167 L45392,16226 " style="stroke:#A0522D; fill:None;"/>
<path d="M43841,16945 L43541,17086 M43770,16795 L43471,16933 M43841,16945 L43770,16795 M46706,15706 L46490,15706 " style="stroke:#2E8B57; fill:None;"/>
<path d="M44153,17718 L43808,16962 M44186,17718 L43841,16945 M52623,25104 L52623,25137 M52881,26817 L52906,26817 M52881,26783 L52906,26783 M52910,26779 L52906,26817 " style="stroke:#A0522D; fill:None;"/>
<path d="M23756,22359 L23756,22384 M44219,12109 L46003,15939 M46490,15706 L45513,16167 " style="stroke:#2E8B57; fill:None;"/>
<path d="M21303,20737 L21303,20687 M23756,20737 L21303,20737 M23756,17910 L23756,20737 M23607,17910 L23756,17910 M22417,17910 L22484,17910 M11618,18966 L11618,19116 " style="stroke:#A0522D; fill:None;"/>
<path d="M44161,10762 L44223,10733 M34460,15273 L43392,11119 " style="stroke:#2E8B57; fill:None;"/>
<path d="M42044,11785 L43338,11182 M44161,10762 L44261,10716 M41999,11768 L43392,11119 " style="stroke:#87CEFA; fill:None;"/>
<path d="M43770,9976 L43774,9976 M43741,10017 L43778,10001 M44065,10724 L44107,10703 M44244,10757 L44240,10753 M44174,10782 L44240,10753 M44132,10812 L44244,10757 M44119,10787 L44132,10782 M44136,10720 L44140,10716 M44111,10733 L44136,10724 M43383,11073 L43404,11061 M44174,10782 L44140,10716 M44169,10795 L44136,10720 M44132,10782 L44111,10733 M44132,10812 L44119,10787 M43454,11128 L43442,11103 M43429,11111 L43404,11061 M43429,11111 L43442,11103 M43371,11073 L43379,11069 M43404,11140 L43371,11073 M43338,11173 L43404,11140 M43342,11182 L43338,11173 M43417,11144 L43379,11069 M43342,11182 L43454,11128 M43778,10001 L43770,9976 M44065,10724 L43741,10017 M44111,10716 L44107,10703 M44115,10712 L43774,9976 M51401,21910 L51430,21910 M51430,22093 L51430,21910 M51401,22093 L51401,21910 M51713,20945 L51700,20945 M51713,20962 L51713,20945 M51700,20945 L51700,20933 M52157,21881 L52157,21897 M52170,21897 L52170,21910 M52170,21897 L52157,21897 M52157,21881 L51475,21881 M51480,21877 L51475,21897 M51463,21897 L51463,21910 M51475,21897 L51463,21897 M52170,21910 L51463,21910 M51463,21906 L51446,21906 M51446,21885 L51446,21943 M51713,20962 L51475,20962 M51480,20958 L51475,20945 M51463,20945 L51463,20933 M51475,20945 L51463,20945 M51700,20933 L51463,20933 M51463,20941 L51446,20941 M51430,20933 L51401,20933 M51401,20962 L51388,20962 M51401,20904 L51388,20904 M51430,20966 L51401,20966 M51446,20904 L51430,20904 M51446,20958 L51430,20958 M51446,20958 L51446,20904 M51430,20966 L51430,20904 M51401,20966 L51401,20904 M51388,20962 L51388,20904 M51430,21910 L51401,21910 M51401,21881 L51388,21881 M51401,21939 L51388,21939 M51430,21877 L51401,21877 M51446,21943 L51430,21943 M51446,21885 L51430,21885 " style="stroke:#080808; fill:None;"/>
<path d="M47122,11988 L46831,11988 M47122,14151 L46831,14151 M47122,14425 L47122,14151 M46831,14151 L46831,14425 M47122,14425 L46831,14425 M47122,14625 L46831,14625 M47122,14899 L47122,14625 M46831,14625 L46831,14899 M47122,14899 L46831,14899 " style="stroke:#A0522D; fill:None;"/>
<path d="M46831,9078 L46831,8803 M47122,8603 L46831,8603 M47122,8803 L46831,8803 M47122,8803 L47122,8603 M46831,9078 L46706,9078 M46831,11514 L46831,11240 M46831,11988 L46831,11714 M47122,11514 L46831,11514 M47122,11714 L46831,11714 M47122,11714 L47122,11514 M46706,11988 L46706,11240 M46831,11240 L46706,11240 M46831,11988 L46706,11988 M46831,14425 L46831,14151 M46831,14899 L46831,14625 M47122,14425 L46831,14425 M47122,14625 L46831,14625 M47122,14625 L47122,14425 M46706,14899 L46706,14151 M46831,14151 L46706,14151 M46831,14899 L46706,14899 M47122,17519 L47122,17311 M52844,17519 L52844,17311 M46831,17311 L46831,17061 M46706,17727 L46706,17061 M47122,17519 L52844,17519 M47205,17727 L46706,17727 M52677,17727 L53259,17727 M53259,17560 L53259,17311 M52844,17311 L53259,17311 M53259,17727 L53259,17311 M47122,17311 L46831,17311 " style="stroke:#2E8B57; fill:None;"/>
<path d="M19744,17535 L19760,17535 " style="stroke:#A0522D; fill:None;"/>
<path d="M19744,17036 L19328,17036 M19744,17535 L19744,17036 M23569,17535 L19744,17535 M23569,17036 L23569,17535 M23844,17036 L23569,17036 M23844,16912 L23844,17036 M23968,16912 L23844,16912 M23968,17743 L23968,16912 M19328,17743 L23968,17743 M19328,17036 L19328,17743 M11277,17743 L11277,16912 M17831,17743 L11277,17743 M17831,17036 L17831,17743 M17415,17036 L17831,17036 M17415,17535 L17415,17036 M11676,17535 L17415,17535 M11676,17036 L11676,17535 M11402,17036 L11676,17036 M11402,16912 L11402,17036 M11277,16912 L11402,16912 M42693,8969 L42880,9202 M42747,9265 L42693,8969 M34248,14824 L34913,14284 M35088,14662 L34248,14824 " style="stroke:#2E8B57; fill:None;"/>
<path d="M44722,16047 L44535,15814 M44668,15756 L44722,16047 " style="stroke:#080808; fill:None;"/>
<path d="M44219,12109 L44897,12941 M44423,13161 L44219,12109 " style="stroke:#2E8B57; fill:None;"/>
<path d="M51401,20933 L51401,20904 M51430,20933 L51401,20933 M51430,20904 L51430,20933 M51401,20904 L51430,20904 " style="stroke:#080808; fill:None;"/>
<path d="M42693,8969 L43217,10100 M34248,14824 L41787,11315 " style="stroke:#2E8B57; fill:None;"/>
<path d="M44722,16047 L43146,12654 M21078,26126 L21369,26056 M21369,26201 L21078,26126 M43404,11061 L43400,11049 M43350,10907 L43346,10891 M43329,10741 L43329,10728 L43329,10724 M43342,10574 L43346,10558 M43388,10416 L43392,10400 M43467,10271 L43475,10258 M43575,10142 L43587,10134 M43704,10042 L43720,10034 M44124,10708 L44132,10716 L44132,10720 M51475,21203 L51492,21203 M51642,21232 L51654,21236 M51792,21299 L51808,21307 M51925,21398 L51937,21411 M52029,21527 L52037,21540 M52099,21677 L52108,21694 M52137,21839 L52137,21856 M51729,20916 L51729,20933 M51688,21074 L51679,21091 M51563,21178 L51546,21182 M51455,21897 L51463,21906 L51455,21910 M51455,20933 L51463,20941 L51455,20945 " style="stroke:#080808; fill:None;"/>
<path d="M11331,26492 L11078,27195 M18787,29478 L18858,29283 M17452,28771 L11510,26609 M17382,28967 L11439,26804 " style="stroke:#2E8B57; fill:None;"/>
<path d="M46781,11240 L46831,11240 M46781,9078 L46781,11240 M46831,9078 L46781,9078 M46831,11240 L46831,9078 M46781,14151 L46831,14151 M46781,11988 L46781,14151 M46831,11988 L46781,11988 M46831,14151 L46831,11988 " style="stroke:#87CEFA; fill:None;"/>
<path d="M47122,11240 L46831,11240 M47122,9078 L47122,11240 M46831,9078 L47122,9078 M46831,11240 L46831,9078 M47122,14151 L46831,14151 M47122,11988 L47122,14151 M46831,11988 L47122,11988 M46831,14151 L46831,11988 M53259,17311 L52844,17311 " style="stroke:#A0522D; fill:None;"/>
<path d="M47205,17727 L52677,17727 M47205,17727 L46706,17727 " style="stroke:#2E8B57; fill:None;"/>
<path d="M47533,16255 L47533,16251 M47504,16259 L47504,16296 M47504,16259 L47533,16259 M46789,17061 L46706,17061 M46789,17053 L46748,17053 M46789,17061 L46789,17053 M46748,17053 L46748,16999 M46710,16987 L46710,16982 M46748,16999 L46710,16999 M46714,16995 L46710,16987 M46706,17061 L46706,16987 M46706,16309 L46706,16230 M46802,16296 L47504,16296 M46802,16259 L46802,16296 M46764,16259 L46802,16259 M46768,16255 L47533,16255 M46789,16230 L46706,16230 M46789,16238 L46748,16238 M46710,16309 L46710,16305 M46748,16292 L46710,16292 M46789,16238 L46789,16230 M46748,16292 L46748,16238 M46710,16309 L46710,16292 M53284,18421 L53305,18421 M53305,18463 L53326,18463 M53305,18463 L53305,18421 M53326,17739 L53326,18463 M53289,17739 L53326,17739 M53289,17702 L53289,17739 M53284,17706 L53284,18421 M53259,17727 L53259,17644 M53268,17727 L53268,17685 M53259,17727 L53268,17727 M53268,17685 L53322,17685 M53338,17648 L53338,17644 M53322,17685 L53322,17648 M53326,17644 L53338,17648 M53259,17644 L53338,17644 " style="stroke:#080808; fill:None;"/>
<path d="M46831,14899 L46831,16230 M46706,16230 L46706,14899 M46831,16230 L46706,16230 M46831,17061 L46706,17061 M46706,14899 L46831,14899 " style="stroke:#2E8B57; fill:None;"/>
<path d="M47122,8737 L47122,8670 M47122,14558 L47122,14492 M47122,8603 L46831,8603 M47122,8803 L46831,8803 M47122,9078 L47122,8803 M46831,8803 L46831,9078 M47122,9078 L46831,9078 M47122,11240 L46831,11240 M47122,11514 L47122,11240 M46831,11240 L46831,11514 M47122,11514 L46831,11514 M47122,11714 L46831,11714 M47122,11988 L47122,11714 M46831,11714 L46831,11988 " style="stroke:#A0522D; fill:None;"/>
<path d="M17864,18471 L17881,18471 M17814,17777 L17814,17743 M17872,17760 L17881,17760 M17872,17777 L17872,17760 M17864,18471 L17864,18484 M17864,17797 L17864,17810 M17881,17810 L17881,18471 M17864,17810 L17881,17810 M17852,17797 L17864,17797 M17852,17797 L17852,18484 M17852,17789 L17864,17789 M17856,17797 L17856,17777 M17814,17777 L17872,17777 M17814,17743 L17881,17743 M17881,17760 L17881,17743 M19311,18484 L19299,18484 M19299,18471 L19282,18471 M19344,17777 L19344,17743 M19286,17760 L19278,17760 M19286,17777 L19286,17760 M19299,18471 L19299,18484 M19299,17797 L19299,17810 M19282,17810 L19282,18471 M19299,17810 L19282,17810 M19311,17797 L19299,17797 M19311,17797 L19311,18484 M19311,17789 L19299,17789 M19303,17797 L19303,17777 M19344,17777 L19286,17777 M19344,17743 L19278,17743 M19278,17760 L19278,17743 M19095,28584 L19082,28580 M19078,28592 L19062,28588 M18870,29253 L18858,29283 M18825,29253 L18816,29249 M18829,29237 L18825,29253 M19078,28592 L19082,28580 M18845,29224 L18850,29212 M18837,29208 L19062,28588 M18850,29212 L18837,29208 M18858,29229 L18845,29224 M18858,29229 L19095,28584 M18854,29237 L18845,29233 M18854,29229 L18845,29245 M18870,29253 L18829,29237 M18858,29283 L18812,29266 M18816,29249 L18812,29266 M17718,28085 L17731,28089 M17727,28102 L17743,28106 M17461,28742 L17452,28771 M17494,28771 L17502,28775 M17502,28754 L17494,28771 M17727,28102 L17731,28089 M17498,28734 L17502,28721 M17519,28730 L17743,28106 M17502,28721 L17519,28730 M17486,28730 L17498,28734 M17486,28730 L17718,28085 M17486,28738 L17494,28742 M17494,28734 L17486,28750 M17461,28742 L17502,28754 M17452,28771 L17498,28788 M17502,28775 L17498,28788 " style="stroke:#080808; fill:None;"/>
<path d="M11078,27195 L11157,27224 " style="stroke:#87CEFA; fill:None;"/>
<path d="M17219,29162 L17298,29187 M18783,29728 L19099,29844 M18783,29728 L18708,29698 " style="stroke:#A0522D; fill:None;"/>
<path d="M17382,28967 L17452,28771 " style="stroke:#2E8B57; fill:None;"/>
<path d="M17382,28967 L17303,28937 " style="stroke:#A0522D; fill:None;"/>
<path d="M16829,29016 L16912,28800 M17219,29162 L16829,29016 M17303,28942 L17219,29162 M18708,29698 L18787,29478 M19099,29844 L18708,29698 M19178,29619 L19099,29844 M11527,26563 L11331,26492 M11439,26804 L11527,26563 M11552,27104 L11635,26875 M11356,27033 L11552,27104 M11273,27266 L11356,27033 M11078,27195 L11273,27266 M11618,25594 L11452,25594 M11618,24596 L11452,24596 " style="stroke:#2E8B57; fill:None;"/>
<path d="M11618,25594 L11618,25619 M11610,25594 L11618,25594 M11618,24596 L11610,24596 M11618,24571 L11618,24596 M12005,24596 L11993,24596 M12005,24592 L12005,24592 M11993,24596 L11993,24621 M11610,24629 L11610,24596 M11610,24629 L11610,24625 M11610,24617 L11610,24629 M11635,24617 L11610,24617 M11635,24571 L11635,24617 M11618,24571 L11635,24571 M11643,24592 L11643,24588 M11635,24592 L11647,24592 M11643,24592 L11643,24600 M12005,24592 L11647,24592 M11993,24621 L11660,24621 M11660,24596 L11647,24596 M11660,24596 L11660,24621 M11647,24592 L11647,24592 M11610,25561 L11610,25594 M11610,25561 L11610,25557 M11610,25573 L11610,25561 M11635,25573 L11610,25573 M11635,25619 L11635,25573 M11618,25619 L11635,25619 M11643,25598 L11643,25603 M11635,25598 L11647,25598 M11643,25598 L11643,25594 M11660,25594 L11647,25594 M11660,25594 L11660,25569 M11647,25598 L11647,25594 M12325,25594 L12338,25594 M11647,25598 L12338,25598 M11660,25569 L12325,25569 M12325,25594 L12325,25569 M12338,25598 L12338,25594 " style="stroke:#080808; fill:None;"/>
<path d="M11452,24596 L11452,23831 M11452,26538 L11452,25594 M11618,24596 L11618,23831 M11618,26472 L11618,25594 M23756,27598 L23756,26917 " style="stroke:#2E8B57; fill:None;"/>
<path d="M17852,18484 L17864,18484 " style="stroke:#080808; fill:None;"/>
<path d="M17128,28476 L17128,27969 M19344,17910 L21095,17910 M17095,27154 L17095,25170 M17128,27154 L17128,25170 M17095,28468 L17095,27969 " style="stroke:#A0522D; fill:None;"/>
<path d="M17943,27956 L17956,27956 M17165,27956 L17178,27956 M17956,27973 L17956,27956 M17943,27956 L17943,27939 M17178,27939 L17943,27939 M17178,27956 L17178,27939 M17165,27973 L17165,27956 M17165,27973 L17956,27973 M17157,27969 L17157,27956 M17165,27960 L17145,27960 M17128,27120 L17145,27120 M17095,27154 L17128,27154 M17128,27178 L17145,27178 M17095,27187 L17128,27187 M17078,27120 L17095,27120 M17078,27178 L17095,27178 M17078,27178 L17078,27120 M17095,27187 L17095,27120 M17128,27187 L17128,27120 M17145,27178 L17145,27120 M17095,28002 L17078,28002 M17128,27969 L17095,27969 M17095,27944 L17078,27944 M17128,27935 L17095,27935 M17145,28002 L17128,28002 M17145,27944 L17128,27944 M17145,27944 L17145,28002 M17128,27935 L17128,28002 M17095,27935 L17095,28002 M17078,27944 L17078,28002 " style="stroke:#080808; fill:None;"/>
<path d="M17128,27969 L17095,27969 " style="stroke:#A0522D; fill:None;"/>
<path d="M47504,16296 L47500,16313 M47459,16454 L47454,16471 M47384,16604 L47375,16616 M47276,16729 L47263,16741 M47147,16829 L47143,16833 L47130,16837 M46993,16895 L46976,16903 M46831,16933 L46827,16933 L46814,16933 M46664,16928 L46652,16924 M46756,16242 L46768,16251 L46764,16255 M17856,17781 L17864,17789 L17856,17793 M19303,17781 L19311,17789 L19303,17793 M18850,29229 L18854,29237 L18850,29241 M17490,28734 L17494,28742 L17490,28746 M11614,24950 L11631,24954 M11780,24970 L11797,24975 M11934,25025 L11951,25033 M12072,25120 L12084,25133 M12180,25249 L12188,25262 M12250,25395 L12254,25411 M12284,25561 L12284,25573 M11993,24621 L11993,24638 M11951,24779 L11943,24796 M11839,24900 L11826,24908 M11681,24954 L11668,24954 M23723,21598 L23706,21598 M23561,21569 L23544,21565 M23407,21498 L23395,21490 M23282,21394 L23270,21382 M23182,21257 L23178,21245 M23124,21103 L23120,21103 L23120,21087 M23070,22218 L23070,22201 M23091,22055 L23095,22039 M23158,21902 L23166,21889 M23257,21773 L23266,21764 L23270,21760 M23395,21677 L23407,21669 M23548,21615 L23565,21615 M23715,21598 L23723,21598 M11643,24588 L11647,24596 L11639,24600 M11643,25594 L11647,25598 L11639,25603 M21881,28505 L21898,28513 M22026,28584 L22039,28596 M22155,28692 L22155,28696 L22164,28705 M22251,28825 L22259,28842 M22322,28979 L22322,28983 L22326,28992 M22351,29141 L22355,29158 M22351,29308 L22351,29316 L22347,29324 M22422,28255 L22417,28272 M22334,28393 L22330,28397 L22322,28405 M22197,28488 L22189,28493 L22180,28497 M22035,28526 L22026,28530 L22018,28526 M20176,27860 L20189,27869 M20322,27939 L20334,27948 M20450,28043 L20459,28052 L20463,28056 M20554,28172 L20563,28189 M20629,28322 L20638,28334 M20671,28480 L20675,28497 M20679,28646 L20679,28663 M20654,28813 L20650,28825 M20721,27619 L20717,27632 M20638,27761 L20625,27769 M20500,27856 L20484,27860 M20338,27894 L20322,27890 M20176,27865 L20176,27860 M18118,28962 L18126,28946 M18201,28817 L18209,28804 M18309,28692 L18313,28688 L18321,28680 M18442,28592 L18459,28584 M18596,28526 L18604,28522 L18613,28522 M18758,28493 L18775,28493 M18924,28497 L18941,28497 M17727,28102 L17743,28106 M17876,28176 L17889,28189 M17997,28289 L18010,28301 M18093,28426 L18101,28438 M18147,28580 L18151,28596 M18163,28746 L18163,28754 L18159,28763 M18134,28908 L18130,28925 M18608,17856 L18608,17872 M18575,18018 L18567,18034 M18509,18172 L18504,18172 L18496,18184 M18405,18301 L18392,18313 M18280,18409 L18276,18413 L18267,18421 M18130,18484 L18118,18492 M17972,18529 L17964,18529 L17956,18529 M19299,18484 L19282,18479 M19132,18463 L19116,18459 M18978,18409 L18962,18400 M18841,18317 L18829,18305 M18729,18192 L18721,18176 M18650,18047 L18646,18030 M18613,17885 L18613,17868 M52636,21636 L52652,21636 M52798,21665 L52814,21669 M52948,21735 L52960,21744 M53076,21839 L53076,21843 L53085,21852 M53164,21981 L53172,21993 M53318,21003 L53318,21020 M53293,21170 L53289,21186 M53230,21319 L53222,21336 M53130,21453 L53122,21461 L53118,21465 M52997,21552 L52985,21561 M52844,21615 L52827,21619 M52681,21636 L52665,21636 M17128,27187 L17145,27187 M17294,27203 L17311,27208 M17452,27253 L17457,27253 L17469,27258 M17594,27337 L17610,27345 M17718,27449 L17723,27453 L17727,27461 M17810,27586 L17818,27603 M17872,27740 L17876,27748 L17881,27756 " style="stroke:#080808; fill:None;"/>
</svg>
