<?xml version="1.0"?>
<svg xmlns="http://www.w3.org/2000/svg" viewBox="0 0 65535 65535" version="1.1">
<path d="M20039,16413 L20051,16413 M20043,16417 L20043,16404 M15365,17935 L15377,17935 M15369,17939 L15369,17926 M20055,22584 L20068,22584 M20060,22592 L20060,22579 M20080,19498 L20093,19498 M20085,19502 L20085,19490 " style="stroke:#000000; fill:None;"/>
<path d="M11194,23124 L11194,23099 M11198,23095 L11240,23099 M11227,23099 L11240,23099 M11182,23124 L11227,23124 M11182,23124 L11194,23124 M11240,23099 L11240,23099 M11227,23124 L11227,23099 M11182,23124 L11169,23124 M11169,23157 L11140,23157 M11144,23153 L11140,23099 M11144,23112 L11144,23099 M11169,23157 L11169,23112 M11144,23099 L11144,23095 M11169,23112 L11144,23112 M11984,21523 L11984,21519 M11959,21523 L11959,21519 M11972,21523 L11227,21523 M11240,21552 L11826,21552 M11972,21552 L11972,21523 M11972,21552 L11826,21552 M11194,21527 L11194,21552 M11198,21548 L11240,21552 M11227,21548 L11240,21548 M11182,21523 L11227,21523 M11182,21527 L11194,21527 M11240,21548 L11240,21544 M11227,21523 L11227,21548 M11182,21523 L11182,21519 M11182,21523 L11169,21523 M11169,21494 L11140,21494 M11144,21490 L11140,21552 M11144,21540 L11144,21552 M11169,21494 L11169,21540 M11144,21552 L11144,21548 M11169,21540 L11144,21540 " style="stroke:#080808; fill:None;"/>
<path d="M18151,14317 L18500,13685 M18500,14317 L18151,13685 M18151,14317 L18151,13685 M16305,14317 L16654,13685 M16654,14317 L16305,13685 M16654,14317 L16654,13685 " style="stroke:#FFA500; fill:None;"/>
<path d="M16305,14317 L16305,13685 M18500,14317 L18500,13685 M18151,13685 L18500,13685 M16654,13685 L16305,13685 " style="stroke:#A0522D; fill:None;"/>
<path d="M22642,14500 L22642,14383 M22908,14500 L22642,14500 M22908,14383 L22908,14500 M22642,14383 L22908,14383 M22792,14733 L18151,14733 M22792,14525 L22792,14733 M18567,14525 L22792,14525 M18567,14317 L18567,14525 M18151,14317 L18567,14317 M18151,14733 L18151,14317 M10100,14733 L10100,14525 M16654,14317 L16654,14733 M16238,14317 L16654,14317 M16238,14525 L16238,14317 M10100,14525 L14325,14525 M9685,14500 L9685,14383 M10583,14500 L9685,14500 M10583,14383 L10583,14500 M9685,14383 L10583,14383 " style="stroke:#2E8B57; fill:None;"/>
<path d="m 21544,16234 0,12 m -2366,-1272 17,0 m 0,17 0,-17 m -17,0 0,-13 m 17,30 677,0 m 5,-5 -5,-12 m 13,0 0,-13 m -13,13 13,0 m -707,-13 707,0 m 0,9 17,0 m 16,-4 125,0 m 0,29 12,0 m -12,-58 12,0 m -137,62 125,0 m -141,-67 16,0 m -16,59 16,0 m -16,0 0,-59 m 16,67 0,-67 m 125,67 0,-62 m 12,58 0,-58 m -137,760 125,0 m 0,-29 12,0 m -12,59 12,0 m -137,-63 125,0 m -141,67 16,0 m -16,-58 16,0 m -16,0 0,58 m 16,-67 0,67 m 125,-67 0,63 m 12,-59 0,59 m 20310,6175 0,12 m 16,0 -16,0 m 0,-12 -13,0 m 29,12 0,686 m 4,-4 -20,4 m 0,17 -13,0 m 13,-17 0,17 m -13,-715 0,715 m 4,0 0,16 m 21,0 -58,0 m 1339,-686 0,13 m -17,-13 17,0 m 0,13 12,0 m -29,-13 0,653 m 4,-4 13,4 m 0,17 12,0 m -12,-17 0,17 m 12,-657 0,657 m -8,0 0,16 m 4,17 0,92 m -29,0 0,12 m 58,-12 0,12 m -62,-104 0,92 m 66,-109 0,17 m -58,-17 0,17 m 0,-17 58,0 m -66,17 66,0 m -66,92 62,0 m -58,12 58,0 m -1343,-104 0,92 m 29,0 0,12 m -58,-12 0,12 m 62,-104 0,92 m -66,-109 0,17 m 58,-17 0,17 m 8,0 -66,0 m 66,92 -62,0 m 58,12 -58,0 m -29133,-428 -21,0 m 790,-807 25,0 m -25,4 25,0 m -25,1572 25,0 m -25,4 25,0 m -125,0 113,0 m 12,-4 0,-4 m -25,4 0,-4 m -120,33 -612,0 m 13,-25 632,0 m 100,0 0,25 m 4,-4 -137,4 m 8046,-3805 17,0 m 16,5 125,0 m 0,-30 12,0 m -12,59 12,0 m -137,-63 125,0 m -141,67 16,0 m -16,-58 16,0 m -16,0 0,58 m 16,-67 0,67 m 125,-67 0,63 m 12,-59 0,59 m -137,-761 125,0 m 0,29 12,0 m -12,-58 12,0 m -137,62 125,0 m -141,-67 16,0 m -16,59 16,0 m -16,0 0,-59 m 16,67 0,-67 m 125,67 0,-62 m 12,58 0,-58 m -877,-1115 17,0 m 0,-17 0,17 m -17,0 0,13 m 17,-30 677,0 m 5,-4 -5,21 m 13,0 0,13 m -13,-13 13,0 m -707,13 707,0 m 0,-5 17,0 m 16,5 125,0 m 0,-30 12,0 m -12,59 12,0 m -137,-63 125,0 m -141,67 16,0 m -16,-58 16,0 m -16,0 0,58 m 16,-67 0,67 m 125,-67 0,63 m 12,-59 0,59 m -137,-761 125,0 m 0,29 12,0 m -12,-58 12,0 m -137,62 125,0 m -141,-67 16,0 m -16,59 16,0 m -16,0 0,-59 m 16,67 0,-67 m 125,67 0,-62 m 12,58 0,-58 m 957,153 21,0 m -34,9 13,0 m 4,-4 -4,-5 m 21,-503 0,503 m 0,-503 -21,0 m 0,-8 0,8 m 0,-8 -13,0 m 5,-4 -5,524 m 9,-528 -9,0 m 5,-4 0,12 m -38,-29 0,17 m -9789,6790 5,8 -9,4 m 4,-1617 5,8 -9,4 m 8778,-5859 -16,0 m -150,-20 -16,-5 m -138,-49 -16,-9 m -125,-83 -13,-12 m -99,-109 -9,-16 m -70,-129 -9,-17 m -37,-145 0,-13 m 640,-100 9,9 -9,4 m 20463,7643 9,8 -9,4 m 1306,-12 8,8 -8,4 m -29690,-1106 0,17 m -21,150 0,12 m -50,146 -4,12 m -79,129 -8,12 m -100,113 -13,12 m -120,88 -17,8 m -133,58 -17,8 m -145,29 -17,5 m -54,0 13,4 m 149,21 13,4 m 141,50 13,4 4,4 m 125,79 12,8 m 112,104 9,13 m 83,124 8,13 m 58,137 4,17 m 30,149 0,17" style="stroke:#080808; fill:None;"/>
<path d="M20970,16234 L20970,16246 M20999,16246 L20999,16313 M21024,16313 L21024,16330 M21028,16234 L21028,16246 M21024,16330 L20966,16330 M21033,16313 L20966,16313 M21033,16246 L20970,16246 M21028,16234 L20970,16234 M21606,16330 L21548,16330 M21606,16313 L21540,16313 M21602,16246 L21540,16246 M21548,16313 L21548,16330 M21602,16234 L21544,16234 M21573,16246 L21573,16313 M21606,16313 L21606,16330 M21602,16234 L21602,16246 M21033,16246 L21033,16313 M21540,16246 L21540,16313 M16483,20658 L16496,20658 M16483,20600 L16496,20600 M16450,20662 L16483,20662 M16434,20596 L16450,20596 M16434,20654 L16450,20654 M16434,20654 L16434,20596 M16450,20662 L16450,20596 M16483,20662 L16483,20600 M16496,20658 L16496,20600 M21565,18047 L21544,18047 M21577,18039 L21565,18039 M21569,18034 L21565,18047 M21544,18550 L21544,18047 M21544,18550 L21565,18550 M21565,18558 L21565,18550 M21565,18558 L21577,18558 M21582,18554 L21577,18039 M21565,18567 L21577,18567 M21573,18575 L21573,18558 M21606,18592 L21606,18575 M21602,18671 L21602,18658 M21573,18658 L21573,18592 M21548,18592 L21548,18575 M21544,18671 L21544,18658 M21548,18575 L21606,18575 M21540,18592 L21606,18592 M21540,18658 L21602,18658 M21544,18671 L21602,18671 M20966,18575 L21024,18575 M20966,18592 L21033,18592 M20970,18658 L21033,18658 M21024,18592 L21024,18575 M20970,18671 L21028,18671 M20999,18658 L20999,18592 M20966,18592 L20966,18575 M20970,18671 L20970,18658 M21540,18658 L21540,18592 M21033,18658 L21033,18592 M21028,18671 L21028,18658 M22463,18047 L22442,18047 M22476,18039 L22463,18039 M22467,18034 L22463,18047 M22442,18550 L22442,18047 M22442,18550 L22463,18550 M22463,18558 L22463,18550 M22463,18558 L22476,18558 M22480,18554 L22476,18039 M22463,18567 L22476,18567 M22471,18575 L22471,18558 M22505,18592 L22505,18575 M22501,18671 L22501,18658 M22471,18658 L22471,18592 M22446,18592 L22446,18575 M22442,18671 L22442,18658 M22446,18575 L22505,18575 M22438,18592 L22505,18592 M22438,18658 L22501,18658 M22442,18671 L22501,18671 M21864,18575 L21923,18575 M21864,18592 L21931,18592 M21868,18658 L21931,18658 M21923,18592 L21923,18575 M21868,18671 L21927,18671 M21898,18658 L21898,18592 M21864,18592 L21864,18575 M21868,18671 L21868,18658 M22438,18658 L22438,18592 M21931,18658 L21931,18592 M21927,18671 L21927,18658 M19178,19311 L19195,19311 M19195,19294 L19195,19311 M19178,19311 L19178,19324 M19195,19294 L19872,19294 M19877,19290 L19872,19311 M19885,19311 L19885,19324 M19872,19311 L19885,19311 M19178,19324 L19885,19324 M40394,19482 L40335,19482 M41217,19565 L41217,19581 M41184,19498 L41184,19565 M41159,19565 L41159,19581 M41150,19498 L41150,19565 M41217,19482 L41217,19498 M41159,19482 L41159,19498 M41159,19482 L41217,19482 M41150,19498 L41217,19498 M41150,19565 L41217,19565 M41159,19581 L41217,19581 M43525,13090 L42702,11323 M43304,10604 L42123,12013 M43271,10574 L42090,11988 M44007,12866 L43080,10874 M44007,12866 L43059,13306 M43899,12641 L42951,13082 M43795,12412 L42847,12853 M43691,12188 L42743,12629 M43583,11963 L42639,12400 M43479,11735 L42535,12175 M43375,11510 L42431,11947 M43271,11281 L42394,11689 M43163,11057 L42772,11240 M51500,18438 L51500,18496 M51500,17764 L51500,17706 M50681,17743 L50698,17743 M50698,17760 L50698,17743 M50681,17743 L50681,17731 M50698,17760 L51376,17760 M51380,17756 L51376,17743 M51388,17743 L51388,17731 M51376,17743 L51388,17743 M50681,17731 L51388,17731 M51388,17739 L51405,17739 M51421,17735 L51488,17735 M51488,17764 L51500,17764 M51488,17706 L51500,17706 M51421,17768 L51488,17768 M51405,17702 L51421,17702 M51405,17760 L51421,17760 M51405,17760 L51405,17702 M51421,17768 L51421,17702 M51488,17768 L51488,17706 M51421,18467 L51488,18467 M51488,18438 L51500,18438 M51488,18496 L51500,18496 M51421,18434 L51488,18434 M51405,18500 L51421,18500 M51405,18442 L51421,18442 M51405,18442 L51405,18500 M51421,18434 L51421,18500 M51488,18434 L51488,18496 M15710,21349 L15727,21349 M15727,21332 L15727,21349 M15710,21349 L15710,21361 M15727,21332 L16404,21332 M16409,21328 L16404,21349 M16417,21349 L16417,21361 M16404,21349 L16417,21349 M15710,21361 L16417,21361 M16417,21357 L16434,21357 M16450,21361 L16483,21361 M16483,21332 L16496,21332 M16483,21390 L16496,21390 M16450,21328 L16483,21328 M16434,21394 L16450,21394 M16434,21336 L16450,21336 M16434,21336 L16434,21394 M16450,21328 L16450,21394 M16483,21328 L16483,21390 M16496,21332 L16496,21390 M16450,20629 L16483,20629 " style="stroke:#080808; fill:None;"/>
<path d="M45941,23740 L45941,23532 M45359,23740 L45359,23532 M34564,23948 L39520,23948 M40202,23740 L40302,23740 M34464,23740 L39620,23740 M39520,24031 L40302,24031 M39620,23532 L40202,23532 M40302,24031 L40302,23740 M39520,24031 L39520,23948 M40202,23740 L40202,23532 M39620,23740 L39620,23532 M33782,24031 L34564,24031 M33882,23532 L34464,23532 M34564,24031 L34564,23948 M33782,24031 L33782,23948 M34464,23740 L34464,23532 M33882,23740 L33882,23532 M28825,23948 L33782,23948 M28725,23740 L33882,23740 M28044,24031 L28825,24031 M28143,23532 L28725,23532 M28825,24031 L28825,23948 M28044,24031 L28044,23948 M28725,23740 L28725,23532 M28143,23740 L28143,23532 M23087,23948 L28044,23948 M23087,23740 L28143,23740 M23004,23740 L23087,23740 M22787,23532 L23004,23532 M23087,24031 L23087,23948 M23004,23740 L23004,23532 M22629,24031 L22629,23864 M22413,23864 L22629,23864 M22413,23864 L22413,23698 M22629,24031 L23087,24031 M22413,23698 L22787,23698 M22787,14982 L22787,23698 M22580,23698 L22580,14982 M21249,14982 L25806,14982 M25773,13872 L25848,13909 M25806,13984 L25848,13909 M25682,14038 L25773,13872 M26131,14284 L25806,13984 M25898,14267 L25682,14038 M25806,14982 L26131,14284 M25682,14733 L25898,14267 M25266,14733 L25266,14899 M25270,14895 L25349,14899 M25353,14895 L25349,14982 M23270,14899 L23353,14899 M23353,14733 L23353,14899 M23270,14899 L23270,14982 M21249,14899 L21249,14982 M20043,14899 L21249,14899 M19918,14966 L20043,14966 M20043,14899 L20043,14966 M19918,14899 L19918,14966 M18168,14733 L18168,14899 M16637,14733 L16637,14899 M10188,14733 L10188,14899 " style="stroke:#2E8B57; fill:None;"/>
<path d="M46731,23648 L46070,23482 M46606,23449 L46731,23648 " style="stroke:#A0522D; fill:None;"/>
<path d="M41171,18683 L41171,18671 M41171,19461 L41171,19448 M41188,18671 L41171,18671 M41171,18683 L41155,18683 M41155,19448 L41155,18683 M41171,19448 L41155,19448 M41188,19461 L41171,19461 M41188,19461 L41188,18671 M41184,19469 L41171,19469 M41180,19461 L41180,19482 M40335,19498 L40335,19482 M40369,19565 L40369,19498 M40394,19498 L40394,19482 M40402,19565 L40402,19498 M40335,19581 L40335,19565 M40394,19581 L40394,19565 M40394,19581 L40335,19581 M40402,19565 L40335,19565 M40402,19498 L40335,19498 M19195,17448 L19195,17431 M19215,17286 L19220,17269 M19274,17128 L19282,17115 M19369,16995 L19382,16982 M19494,16883 L19507,16874 M19640,16804 L19656,16799 M19798,16762 L19814,16762 M19893,17448 L19902,17456 L19893,17461 M21548,16317 L21548,16334 M21527,16479 L21523,16496 M21453,16629 L21444,16641 M21340,16750 L21328,16758 M21195,16829 L21182,16833 M21033,16862 L21020,16862 L21016,16862 M21004,16330 L21008,16338 L20999,16338 M21004,16330 L21008,16338 L20999,16338 M21024,18587 L21024,18571 M21049,18421 L21053,18405 M21120,18271 L21128,18259 M21232,18151 L21245,18143 M21378,18072 L21394,18068 M21540,18043 L21557,18039 M21573,18563 L21577,18567 L21569,18571 M21573,18563 L21577,18567 L21569,18571 M21923,18587 L21923,18571 M21947,18421 L21952,18405 M22018,18271 L22026,18259 M22130,18151 L22143,18143 M22276,18072 L22293,18068 M22438,18043 L22455,18039 M22471,18563 L22476,18567 L22467,18571 M22471,18563 L22476,18567 L22467,18571 M19195,19311 L19195,19294 M19215,19149 L19220,19132 M19274,18991 L19282,18978 M19369,18858 L19382,18845 M19494,18746 L19507,18737 M19640,18667 L19656,18662 M19798,18625 L19814,18625 M19893,19311 L19902,19319 L19893,19324 M51421,18438 L51405,18438 M51255,18413 L51243,18405 M51105,18346 L51089,18338 M50972,18251 L50960,18238 M50864,18122 L50856,18109 M50789,17972 L50785,17960 M50752,17814 L50752,17797 M51396,17731 L51405,17739 L51396,17743 M15727,21349 L15727,21332 M15747,21186 L15752,21170 M15806,21028 L15814,21016 M15901,20895 L15914,20883 M16026,20783 L16039,20775 M16172,20704 L16188,20700 M16330,20662 L16346,20662 M16425,21349 L16434,21357 L16425,21361 M40377,19494 L40377,19477 M40394,19328 L40394,19311 M40439,19170 L40439,19157 L40444,19153 M40518,19024 L40527,19012 M40627,18895 L40639,18887 M40760,18800 L40772,18791 M40909,18729 L40926,18721 M41071,18691 L41088,18687 M41180,19465 L41184,19473 L41175,19473 " style="stroke:#080808; fill:None;"/>
<path d="M20168,23906 L20168,23698 M19960,23698 L20168,23698 M19960,23906 L20168,23906 M20043,19324 L19918,19324 M20043,19373 L20043,19324 M19918,19373 L19918,19324 M19918,19823 L20085,19823 M20089,19818 L20085,19498 M20085,21062 L20085,20987 M19918,19823 L19918,19373 M19918,21186 L19918,20987 M19922,20983 L20085,20987 M19918,21186 L22580,21186 M20085,21062 L22580,21062 M20085,19498 L22580,19498 M20043,19373 L22580,19373 M26426,12575 L26438,12546 M26364,12550 L26426,12575 M26405,12458 L26364,12550 M26505,12525 L26505,12458 M26422,13119 L26630,13119 M26422,13452 L26422,13119 M26630,13452 L26630,13119 M26422,13452 L26630,13452 M41724,13119 L41932,13119 M41724,13452 L41724,13119 M41932,13452 L41932,13119 M41724,13452 L41932,13452 M37899,13119 L38107,13119 M37899,13452 L37899,13119 M38107,13452 L38107,13119 M37899,13452 L38107,13452 M34073,13119 L34281,13119 M34073,13452 L34073,13119 M34281,13452 L34281,13119 M34073,13452 L34281,13452 M30247,13119 L30455,13119 M30247,13452 L30247,13119 M30455,13452 L30455,13119 M30247,13452 L30455,13452 M26422,19773 L26422,19565 M26630,19773 L26630,19565 M26422,19565 L26630,19565 M26422,19773 L26630,19773 M30247,19773 L30247,19565 M30455,19773 L30455,19565 M30247,19565 L30455,19565 M30247,19773 L30455,19773 M34073,19773 L34073,19565 M34281,19773 L34281,19565 M34073,19565 L34281,19565 M34073,19773 L34281,19773 M37899,19773 L37899,19565 M38107,19773 L38107,19565 M37899,19565 L38107,19565 M37899,19773 L38107,19773 M41724,19773 L41724,19565 M41932,19773 L41932,19565 " style="stroke:#2E8B57; fill:None;"/>
<path d="M41724,19565 L41932,19565 " style="stroke:#A0522D; fill:None;"/>
<path d="M41724,19773 L41932,19773 M45550,19773 L45550,19565 M45758,19773 L45758,19565 M45550,19565 L45758,19565 M45550,19773 L45758,19773 M51297,19773 L51297,19565 M51505,19773 L51505,19565 M51297,19565 L51505,19565 M51297,19773 L51505,19773 M51363,19773 L51363,23532 M51488,19773 L51488,23532 M46041,23740 L51089,23740 M51006,24031 L51505,24031 M51089,23532 L51505,23532 M51006,23948 L51006,24031 M51505,24031 L51505,23532 M51089,23740 L51089,23532 M46041,23948 L51006,23948 M45259,23740 L45359,23740 M45941,23740 L46041,23740 M45259,24031 L46041,24031 M45359,23532 L45941,23532 M46041,24031 L46041,23948 M45259,24031 L45259,23740 " style="stroke:#2E8B57; fill:None;"/>
<path d="M22471,18592 L22580,18592 M20791,18658 L20999,18658 M20916,18592 L20999,18592 M19918,18592 L20043,18592 M20043,17494 L20043,17461 M20791,17494 L20791,16413 M20791,18658 L20791,17577 M21573,16313 L21573,16246 M20043,16729 L20043,16413 M20043,18592 L20043,17577 M19918,16729 L19918,15697 M19918,18592 L19918,17461 M20999,16313 L20999,16246 M20043,16246 L20043,15697 M21681,18592 L21681,17244 M21765,18592 L21765,17244 M20916,18592 L20916,16246 M19918,15697 L20043,15697 M20916,16313 L20999,16313 M20043,17577 L20791,17577 M20043,17494 L20791,17494 M19918,17461 L20043,17461 M19918,16729 L20043,16729 M20043,16413 L20791,16413 M20916,17244 L22580,17244 M20916,17120 L22580,17120 M21573,16246 L22580,16246 M20043,16246 L20999,16246 M21573,16313 L22580,16313 " style="stroke:#A0522D; fill:None;"/>
<path d="M17652,26268 L17710,26110 M10171,23573 L16242,25761 M16301,25603 L10229,23415 M16242,25761 L16301,25603 M10229,23415 L10171,23573 M11352,20804 L11352,20929 M10188,20929 L11352,20929 M10188,20804 L11352,20804 M10188,20804 L10188,20929 M51297,17693 L51297,17486 M51505,17693 L51505,17486 M51297,17486 L51505,17486 M51297,17693 L51505,17693 M42215,23989 L42215,23740 M41716,23989 L41716,23740 M41716,23989 L42215,23989 M41716,23740 L42215,23740 M41995,12558 L41941,12575 M41916,12525 L41941,12575 M41949,12458 L41995,12558 M41849,12458 L41949,12458 M41849,12525 L41916,12525 M41849,12525 L41849,12458 M45300,14383 L45300,14508 M42897,13556 L42972,13523 M42968,13706 L43192,13602 M42223,11893 L42972,13523 M42340,11751 L43192,13602 M42897,13556 L42968,13706 M49242,14882 L52195,14882 M45750,14882 L48577,14882 M45483,14733 L45001,14733 M48577,14550 L46132,14550 M49242,14882 L49242,14758 M48577,14882 L48577,14550 M45750,14882 L45750,15024 M45001,15024 L45750,15024 M46132,14383 L45300,14383 M46132,14383 L46132,14550 M45483,14733 L45483,14508 M45488,14504 L45300,14508 M45001,14733 L45001,15024 M42423,14176 L42672,14733 M42622,13951 L42423,14176 M42539,13776 L42622,13951 M42481,13805 L42539,13776 M42506,13864 L42481,13805 M42186,14146 L42506,13864 M42589,15024 L42186,14146 M42589,15024 L43171,15024 M43171,14733 L42672,14733 M43171,14733 L43171,15024 M19960,23906 L19960,23698 " style="stroke:#2E8B57; fill:None;"/>
<path d="M11169,20929 L11169,21428 M10188,20804 L10221,20804 M10188,14899 L10221,14899 M10225,14895 L10221,20804 M10188,14899 L10188,20804 " style="stroke:#87CEFA; fill:None;"/>
<path d="M10046,23157 L10046,23698 M10130,23241 L10130,23503 M11086,23241 L11086,23727 M11169,23157 L11169,23756 M10130,23241 L11086,23241 M10046,23157 L11169,23157 M16483,21494 L16483,21361 M16450,21428 L16450,21361 M16450,20629 L16483,20629 M16450,21361 L16483,21361 M16483,14899 L16450,14899 M45750,15024 L45625,15024 M45629,15020 L45625,19565 M45750,15024 L45750,19565 M51421,19565 L51488,19565 M51421,18467 L51488,18467 M51421,18467 L51421,19565 M51488,18467 L51488,19565 M51421,17693 L51488,17693 M51421,17735 L51488,17735 M51421,17693 L51421,17735 M51488,17693 L51488,17735 M51297,17627 L51297,17502 M50091,17627 L50091,17502 M51297,17627 L50091,17627 M51297,17502 L50091,17502 M51463,17486 L51338,17486 M51342,17481 L51338,14882 M51463,17486 L51463,14882 M43687,12180 L43080,10874 M43912,12076 L43687,12180 M43749,12005 L43171,10762 M43858,11951 L43749,12005 M43858,11951 L43912,12076 M45533,14151 L45001,14304 M45966,14151 L45533,14151 M45966,14151 L45966,14383 M45001,14304 L45001,14733 M44232,11776 L44290,11901 M44997,11614 L44232,11776 M45051,11614 L45034,11614 M45014,11739 L44290,11901 M45550,11739 L45014,11739 M45966,11614 L44997,11614 M45966,11864 L45550,11864 M45550,11739 L45550,11864 M45966,11614 L45966,11864 M45359,11739 L45359,14201 M45467,11739 L45467,14167 M45716,11864 L45716,14151 M45883,11864 L45883,14151 M25449,23740 L25657,23740 M25449,22966 L25657,22966 M25661,22962 L25657,23740 M25449,22966 L25449,23740 M42215,23740 L45359,23740 M25449,21502 L25449,21586 M22787,21502 L22787,21586 M25449,19340 L25449,19465 M22787,19340 L22787,19465 M22580,17120 L22580,17244 M22580,16246 L22580,16313 M22580,18658 L22580,18592 M22471,18658 L22471,18592 M25449,21586 L22787,21586 M25449,21502 L22787,21502 M25449,19465 L22787,19465 M25449,19340 L22787,19340 M21765,18592 L21898,18592 M21573,18592 L21681,18592 M21898,18658 L21898,18592 M21573,18658 L21573,18592 M20999,18658 L20999,18592 M22471,18658 L22580,18658 M21573,18658 L21898,18658 " style="stroke:#A0522D; fill:None;"/>
<path d="M42082,14146 L42186,14146 M42190,14142 L41803,14146 M41807,14142 L41126,12870 M41130,12866 L40697,12870 M38398,13452 L38672,12870 M40776,12870 L38672,12870 M42298,17710 L42298,19373 M42232,17710 L42232,19353 M42589,17710 L42082,17710 M41716,19357 L41350,19357 M41932,19373 L41716,19373 M42298,19357 L41932,19357 M41932,19373 L41932,19357 M41716,19373 L41716,19357 M41350,19565 L41350,19357 M42298,19565 L42298,19357 M42298,19565 L41350,19565 M42082,14146 L42082,17710 M42589,15024 L42589,17710 M37890,19357 L37524,19357 M38107,19373 L37890,19373 M38473,19357 L38107,19357 M38107,19373 L38107,19357 M37890,19373 L37890,19357 M37524,19565 L37524,19357 M38473,19565 L38473,19357 M38473,19565 L37524,19565 M38190,18276 L37774,18276 M37608,13452 L37300,12870 M37304,12866 L36872,12870 M38398,13452 L37608,13452 M37774,13452 L37774,18276 M38190,13452 L38190,18276 M34065,19357 L33699,19357 M34281,19373 L34065,19373 M34647,19357 L34281,19357 M34281,19373 L34281,19357 M34065,19373 L34065,19357 M33699,19565 L33699,19357 M34647,19565 L34647,19357 M34647,19565 L33699,19565 M34364,18276 L33948,18276 M33782,13452 L33474,12870 M34572,13452 L34846,12870 M33474,12870 L33046,12870 M36951,12870 L34846,12870 M34572,13452 L33782,13452 M33948,13452 L33948,18276 M34364,13452 L34364,18276 M30239,19357 L29873,19357 M30455,19373 L30239,19373 M30821,19357 L30455,19357 M30455,19373 L30455,19357 M30239,19373 L30239,19357 M29873,19565 L29873,19357 M30821,19565 L30821,19357 M30821,19565 L29873,19565 M30538,18276 L30123,18276 M29956,13452 L29649,12870 M30746,13452 L31021,12870 M33316,12870 L31021,12870 M30746,13452 L29956,13452 M30123,13452 L30123,18276 M30538,13452 L30538,18276 " style="stroke:#A0522D; fill:None;"/>
<path d="M41849,12458 L41849,12525 M26505,12458 L26505,12525 M41849,12458 L26505,12458 " style="stroke:#87CEFA; fill:None;"/>
<path d="M26405,12458 L26505,12458 M26505,12525 L26438,12546 " style="stroke:#2E8B57; fill:None;"/>
<path d="M26505,12525 L41849,12525 M25831,13901 L25773,13872 M26426,12575 L25831,13901 M26364,12550 L26426,12575 M25773,13872 L26364,12550 M21611,27519 L21918,26592 M21548,27495 L21611,27519 M21852,26526 L21548,27495 M21918,26592 L51613,26592 M21852,26526 L51671,26526 M11136,21428 L11169,21428 M11136,20929 L11169,20929 M11136,20929 L11136,21428 " style="stroke:#87CEFA; fill:None;"/>
<path d="M41716,23740 L41716,22742 M41666,22742 L41716,22742 M41666,22650 L41816,22650 M40302,22742 L40352,22742 M40302,23740 L40302,22742 M40352,22650 L40352,22742 M40202,22650 L40352,22650 M40202,23532 L40202,22650 M34464,23532 L34464,23740 M33882,23532 L34464,23532 M33882,23740 L33882,23532 M34464,23740 L39620,23740 M28725,23740 L33882,23740 M39620,23740 L39620,23399 M28725,23532 L28725,23740 M28143,23532 L28725,23532 M28143,23740 L28143,23532 M25657,23740 L28143,23740 M25449,23399 L25449,23740 M23004,23740 L25449,23740 M25657,23399 L25657,23740 M25657,23399 L39620,23399 M22995,23399 L25449,23399 M41350,19498 L41350,19565 M41184,19498 L41350,19498 M41184,19565 L41184,19498 M41350,19565 L41184,19565 M41188,19561 L41184,19498 M38473,19498 L38473,19565 M40369,19498 L38473,19498 M40369,19565 L40369,19498 M38473,19565 L40369,19565 M50964,19357 L51421,19357 M50964,19373 L50964,19357 M50964,23382 L50964,19373 M47604,23382 L50964,23382 M47604,23382 L47604,23740 M45941,23382 L47604,23382 M45941,23740 L45941,23382 M14088,18026 L14088,18059 M10221,18026 L10221,18059 M10225,18055 L14088,18059 M10221,18026 L14088,18026 M21548,27495 L21852,26526 M21191,27366 L21548,27495 M21569,26143 L21191,27366 M21569,26143 L51987,26143 M25956,19565 L25956,19357 M26413,19357 L25956,19357 M26630,19373 L26413,19373 M26996,19357 L26630,19357 M26630,19373 L26630,19357 M26413,19373 L26413,19357 M26996,19565 L26996,19357 M26996,19565 L25956,19565 M25424,19465 L24883,19465 M25424,19465 L24883,19648 M24883,19465 L25424,19648 M25428,19644 L24883,19648 M24883,19465 L24883,19648 M25424,19465 L25424,19648 M25349,14957 L25349,14932 M23270,14932 L25349,14932 M23270,14957 L25349,14957 M26122,14288 L26526,14288 M29956,13452 L29649,12870 M29653,12866 L29220,12870 M26526,14288 L27195,12870 M29491,12870 L27195,12870 " style="stroke:#A0522D; fill:None;"/>
<path d="M51297,17486 L51297,17502 M51338,17486 L51297,17486 M51338,14882 L50257,15772 M50257,14882 L51338,15772 M51297,17502 L50132,17502 M51338,15772 L51338,14882 M51338,17486 L51338,15772 M51338,14882 L50257,14882 M51338,15772 L50132,15772 M50257,15772 L50257,14882 M50132,17502 L50132,15772 " style="stroke:#FFA500; fill:None;"/>
<path d="M38015,19373 L38015,18276 M37949,19373 L37949,18276 M42186,14146 L42589,15024 M15261,21494 L16483,21494 M11136,21494 L13722,21494 M15261,21428 L16450,21428 M11136,21428 L13722,21428 M15261,21494 L15261,21428 M15369,21428 L15369,17935 M11136,21494 L11136,21428 " style="stroke:#A0522D; fill:None;"/>
<path d="M20060,23141 L20351,23066 M20351,23211 L20060,23141 " style="stroke:#080808; fill:None;"/>
<path d="M47317,23607 L47014,23615 M47047,23469 L47317,23607 " style="stroke:#A0522D; fill:None;"/>
<path d="M20060,23141 L22051,23141 " style="stroke:#080808; fill:None;"/>
<path d="M47317,23607 L46606,23449 " style="stroke:#A0522D; fill:None;"/>
<path d="M43525,13090 L43334,12857 M43467,12795 L43525,13090 " style="stroke:#080808; fill:None;"/>
<path d="M43912,12076 L43899,12047 M44290,11901 L44277,11872 M43899,12047 L44277,11872 M43912,12076 L44290,11901 M42606,13922 L42951,13677 M42606,13922 L42622,13951 M42968,13706 L42951,13677 M42622,13951 L42968,13706 " style="stroke:#87CEFA; fill:None;"/>
<path d="M20060,22584 L21523,22584 " style="stroke:#080808; fill:None;"/>
<path d="M22413,23698 L20168,23698 M20060,23698 L20060,21186 " style="stroke:#2E8B57; fill:None;"/>
<path d="M45625,19565 L45750,19565 " style="stroke:#A0522D; fill:None;"/>
<path d="M41724,19565 L41932,19565 M42340,11751 L42223,11893 " style="stroke:#2E8B57; fill:None;"/>
<path d="M20085,20987 L20051,20987 M20085,19823 L20051,19823 M20055,19818 L20051,20987 M20085,19823 L20085,20987 " style="stroke:#080808; fill:None;"/>
<path d="M22995,19465 L22787,19465 M22995,19340 L22787,19340 " style="stroke:#87CEFA; fill:None;"/>
<path d="M22995,21586 L22995,23399 M22995,19465 L22995,21502 M22995,14982 L22995,19340 " style="stroke:#A0522D; fill:None;"/>
<path d="M42481,13805 L41941,12575 M42539,13776 L42481,13805 M41995,12558 L42539,13776 M41941,12575 L41995,12558 " style="stroke:#87CEFA; fill:None;"/>
<path d="M42340,11751 L43059,13306 M22051,21648 L22051,23141 M20060,23141 L22051,23141 M20060,21648 L22051,21648 M21315,23698 L21315,22584 M21107,23698 L21107,22584 M20895,23698 L20895,22584 M20688,23698 L20688,22584 M20480,23698 L20480,22584 M20268,23698 L20268,22584 M21232,22110 L21232,21186 M21024,22110 L21024,21186 M20812,22110 L20812,21186 M20604,22110 L20604,21186 M20396,22110 L20396,21186 M20184,22110 L20184,21186 M22580,21186 L22580,23698 M20060,21186 L22580,21186 M20060,23698 L20060,22584 M21440,22110 L21440,21186 M21523,23698 L21523,22110 M20060,22110 L21523,22110 M20060,23698 L22580,23698 " style="stroke:#080808; fill:None;"/>
<path d="M22787,14982 L22995,14982 M22787,23532 L22787,14982 M23004,23532 L22787,23532 M23004,23740 L23004,23532 M23270,14932 L23270,14957 M41716,23740 L41816,23740 M40202,23740 L40302,23740 M40202,23532 L40202,23740 M41816,23740 L41816,22650 M41666,22650 L41666,22742 " style="stroke:#A0522D; fill:None;"/>
<path d="M53833,24538 L53821,24538 M53833,24480 L53821,24480 M53950,24542 L53833,24542 M53966,24476 L53950,24476 M53966,24534 L53950,24534 M53966,24534 L53966,24476 M53950,24542 L53950,24476 M53833,24542 L53833,24480 M53821,24538 L53821,24480 " style="stroke:#080808; fill:None;"/>
<path d="M53833,24509 L53833,19373 M54016,19373 L53833,19373 " style="stroke:#A0522D; fill:None;"/>
<path d="m 54054,20159 20,0 m -41,9 21,0 m 0,-9 0,9 m 20,-678 0,669 m 0,-669 -20,0" style="stroke:#080808; fill:None;"/>
<path d="M54054,19482 L54054,19490 M54054,19482 L54033,19482 M54037,19477 L54033,20168 M54041,19473 L54033,19473 M54037,19469 L54037,19482 M53987,19457 L53987,19469 M53987,19361 L53987,19373 M54016,19373 L54016,19457 M54041,19457 L54041,19469 M54041,19361 L54041,19373 M54041,19469 L53987,19469 M54049,19457 L53987,19457 M54049,19373 L53987,19373 M54041,19361 L53987,19361 M54049,19373 L54049,19457 " style="stroke:#080808; fill:None;"/>
<path d="M16483,19199 L16450,19199 M16483,18034 L16483,19199 M16450,18034 L16483,18034 M16450,19199 L16450,18034 M16483,20480 L16450,20480 M16483,19315 L16450,19315 M16483,20480 L16483,19315 M16450,19315 L16450,20480 " style="stroke:#87CEFA; fill:None;"/>
<path d="M16483,19315 L16483,19199 M16483,20629 L16483,20480 M16450,19315 L16450,19199 M16450,20629 L16450,20480 M16483,18034 L16483,14899 M16450,18034 L16450,14899 M16450,18034 L16483,18034 M16450,19199 L16483,19199 M16450,19315 L16483,19315 M16450,20480 L16483,20480 M15336,17901 L16450,17901 M15369,17935 L16450,17935 M15336,21428 L15369,21428 M15336,21428 L15336,17901 " style="stroke:#A0522D; fill:None;"/>
<path d="M15232,21507 L15290,21507 M15253,20687 L15253,20700 M15236,20700 L15253,20700 M15253,20687 L15265,20687 M15236,20700 L15236,21378 M15240,21374 L15253,21378 M15253,21394 L15265,21394 M15253,21378 L15253,21394 M15265,20687 L15265,21394 M15257,21394 L15257,21411 M15261,21428 L15261,21494 M15232,21494 L15232,21507 M15290,21494 L15290,21507 M15228,21428 L15228,21494 M15294,21411 L15294,21428 M15236,21411 L15236,21428 M15236,21411 L15294,21411 M15228,21428 L15294,21428 M15228,21494 L15290,21494 M54499,13365 L54486,13365 M54486,13348 L54486,13365 M54499,13365 L54499,13377 M54486,13348 L53808,13348 M53812,13344 L53808,13365 M53792,13365 L53792,13377 M53808,13365 L53792,13365 M54499,13377 L53792,13377 M53792,13373 L53775,13373 M53758,13377 L53692,13377 M53692,13348 L53679,13348 M53692,13406 L53679,13406 M53758,13344 L53692,13344 M53775,13410 L53758,13410 M53775,13352 L53758,13352 M53775,13352 L53775,13410 M53758,13344 L53758,13410 M53692,13344 L53692,13406 " style="stroke:#080808; fill:None;"/>
<path d="M45325,11498 L45350,11498 " style="stroke:#87CEFA; fill:None;"/>
<path d="M45354,11493 L45874,11498 " style="stroke:#A0522D; fill:None;"/>
<path d="M49242,14550 L51779,14550 M49242,14758 L51613,14758 M49242,14550 L49242,14758 " style="stroke:#2E8B57; fill:None;"/>
<path d="M53692,14367 L54108,13469 M53692,13469 L54108,14367 M53692,14367 L54108,14367 M53692,13469 L54108,13469 M54108,14367 L54108,13469 M53692,14367 L53692,13469 M51779,13460 L52195,13460 M51779,14367 L52195,13469 M51779,13469 L52195,14367 M51779,14367 L52195,14367 M51779,13469 L52195,13469 M52195,14367 L52195,13469 M51779,14367 L51779,13469 " style="stroke:#FFA500; fill:None;"/>
<path d="M53692,14367 L54108,14367 M51779,14367 L52195,14367 M46140,11614 L46140,11498 M45300,11614 L45300,11498 M46140,11498 L45300,11498 M46140,11614 L45300,11614 M51779,14550 L51779,14367 M53692,14758 L54108,14758 M51613,14758 L52195,14758 M54108,14550 L54108,14367 M53692,14758 L53692,14367 M52195,14758 L52195,14367 M18168,14733 L25682,14733 M18168,14899 L19918,14899 M53833,26372 L53833,26039 M54133,26372 L53833,26372 M54133,26039 L54133,26372 M53833,26039 L54133,26039 " style="stroke:#2E8B57; fill:None;"/>
<path d="M53833,26039 L53833,25241 M53950,26039 L53950,25241 M53833,26039 L53950,26039 M53833,25241 L53950,25241 M53950,23844 L53833,23844 M53916,23844 L53916,19457 M53950,24509 L53950,23844 " style="stroke:#A0522D; fill:None;"/>
<path d="M53916,23844 L53916,23810 " style="stroke:#FFA500; fill:None;"/>
<path d="M53833,24509 L53950,24509 M54016,19373 L54016,19457 M53916,19457 L54016,19457 M53833,19373 L53833,24484 " style="stroke:#A0522D; fill:None;"/>
<path d="M53692,14758 L53692,14882 " style="stroke:#2E8B57; fill:None;"/>
<path d="M53950,25207 L53950,24542 M53833,24542 L53833,25207 M53950,25241 L53833,25241 M53833,25212 L53821,25212 M53833,25270 L53821,25270 M53950,25207 L53833,25207 M53966,25274 L53950,25274 M53966,25216 L53950,25216 M53966,25216 L53966,25274 M53950,25207 L53950,25274 M53833,25207 L53833,25270 M53821,25212 L53821,25270 M53950,24509 L53833,24509 M17652,26268 L17606,26251 M17610,26235 L17606,26251 M16513,25074 L16525,25079 M16521,25087 L16533,25095 M16255,25727 L16242,25761 M16288,25761 L16296,25761 M16296,25744 L16288,25761 M16521,25087 L16525,25079 M16292,25723 L16296,25711 M16309,25715 L16533,25095 M16296,25711 L16309,25715 M16280,25719 L16292,25723 M16280,25719 L16513,25074 M16276,25727 L16288,25731 M16284,25719 L16280,25736 M16255,25727 L16296,25744 M16242,25761 L16292,25777 M16296,25761 L16292,25777 " style="stroke:#080808; fill:None;"/>
<path d="M16014,26147 L15623,26010 M16014,26147 L15623,26010 M17581,26713 L17893,26825 " style="stroke:#FFA500; fill:None;"/>
<path d="M17581,26713 L17502,26684 " style="stroke:#A0522D; fill:None;"/>
<path d="M16172,25956 L16242,25761 " style="stroke:#2E8B57; fill:None;"/>
<path d="M16172,25956 L16097,25927 " style="stroke:#A0522D; fill:None;"/>
<path d="M15623,26010 L15702,25790 M16014,26147 L15623,26010 M16093,25931 L16014,26147 M17502,26684 L17581,26463 M17893,26825 L17502,26684 M17972,26605 L17893,26825 M10313,23569 L10117,23498 M17581,26463 L17652,26268 M16242,25761 L10296,23619 M16172,25956 L10225,23814 M52195,14758 L52195,14882 " style="stroke:#2E8B57; fill:None;"/>
<path d="M49301,14550 L51779,14550 M49301,13726 L49301,14550 M51779,13726 L49301,13726 " style="stroke:#A0522D; fill:None;"/>
<path d="M51779,14550 L51779,13726 " style="stroke:#FFA500; fill:None;"/>
<path d="M49301,13726 L51779,14550 M49301,14550 L51779,13726 M49284,14550 L49301,14550 M49301,13726 L51779,13726 M49301,13726 L49301,14550 M49284,13710 L49284,14550 M49284,13710 L51762,13710 " style="stroke:#A0522D; fill:None;"/>
<path d="M52220,15452 L52241,15452 M52241,15494 L52261,15494 M53629,15452 L53650,15452 M53650,15494 L53671,15494 M53650,15494 L53650,15452 M52241,15494 L52241,15452 M52261,14770 L52261,15494 M52224,14770 L52261,14770 M52224,14733 L52224,14770 M52220,14733 L52220,15452 M52195,14758 L52195,14675 M52203,14758 L52203,14716 M52195,14758 L52203,14758 M52203,14716 L52257,14716 M52274,14679 L52274,14675 M52257,14716 L52257,14679 M52261,14675 L52274,14679 M52195,14675 L52274,14675 M53617,14675 L53692,14675 M53629,14770 L53629,15452 M53667,14770 L53629,14770 M53667,14733 L53667,14770 M53671,14733 L53671,15494 M53692,14758 L53692,14675 M53684,14758 L53684,14716 M53617,14679 L53617,14675 M53634,14716 L53634,14679 M53684,14758 L53692,14758 M53634,14716 L53684,14716 M53617,14679 L53634,14679 " style="stroke:#080808; fill:None;"/>
<path d="M53692,13469 L53758,13469 M53758,13377 L53758,13469 M53692,13377 L53692,13469 M53692,13377 L53758,13377 " style="stroke:#A0522D; fill:None;"/>
<path d="M53679,13348 L53679,13406 " style="stroke:#080808; fill:None;"/>
<path d="M53966,26372 L53966,26455 M53850,26372 L53966,26372 M53850,26455 L53850,26372 M53966,26455 L53850,26455 M53966,27187 L53850,27187 " style="stroke:#A0522D; fill:None;"/>
<path d="M53966,27154 L53966,26488 M53850,26488 L53850,27154 M53966,27187 L53850,27187 M53850,27158 L53837,27158 M53850,27216 L53837,27216 M53966,27154 L53850,27154 M53983,27220 L53966,27220 M53983,27162 L53966,27162 M53983,27162 L53983,27220 M53966,27154 L53966,27220 M53850,27154 L53850,27216 M53837,27158 L53837,27216 M53966,26455 L53850,26455 M53850,26484 L53837,26484 M53850,26426 L53837,26426 M53966,26488 L53850,26488 M53983,26422 L53966,26422 M53983,26480 L53966,26480 M53983,26480 L53983,26422 M53966,26488 L53966,26422 M53850,26488 L53850,26426 M53837,26484 L53837,26426 " style="stroke:#080808; fill:None;"/>
<path d="M10030,23744 L10109,23773 " style="stroke:#87CEFA; fill:None;"/>
<path d="M17885,25569 L17872,25565 M17868,25573 L17856,25569 M17664,26235 L17652,26268 M17619,26239 L17610,26235 M17623,26222 L17619,26239 M17868,25573 L17872,25565 M17639,26210 L17644,26197 M17631,26193 L17856,25569 M17644,26197 L17631,26193 M17652,26214 L17639,26210 M17652,26214 L17885,25569 M17648,26222 L17639,26218 M17648,26210 L17639,26226 M17664,26235 L17623,26222 M54037,19469 L54041,19477 L54033,19477 M54037,19469 L54041,19477 L54033,19477 M15257,21394 L15265,21403 L15257,21407 M53783,13365 L53792,13373 L53783,13377 M16284,25723 L16288,25727 L16280,25731 M16533,25095 L16550,25099 M16679,25174 L16691,25183 M16804,25286 L16812,25299 M16895,25424 L16903,25436 M16949,25578 L16953,25594 M16970,25744 L16970,25761 M16945,25906 L16941,25923 M16953,25952 L16962,25935 M17037,25806 L17045,25794 M17145,25682 L17157,25673 M17282,25590 L17298,25582 M17436,25524 L17452,25524 M17602,25503 L17619,25503 M17764,25515 L17781,25519 M17644,26214 L17648,26218 L17644,26222 " style="stroke:#080808; fill:None;"/>
<path d="M10579,14521 L10587,14529 L10595,14521 L10587,14512 L10579,14521 M13756,21494 L13693,21494 M13756,21428 L13689,21428 M13747,21411 L13689,21411 M13747,21411 L13747,21428 M13689,21411 L13689,21428 M13756,21428 L13756,21494 M13693,21494 L13693,21507 M13751,21494 L13751,21507 M13722,21428 L13722,21494 M13727,21394 L13727,21411 M13722,20687 L13722,21394 M13735,21378 L13735,21394 M13739,21390 L13722,21394 M13751,21378 L13735,21378 M13751,20700 L13751,21378 M13735,20687 L13722,20687 M13751,20700 L13735,20700 M13735,20687 L13735,20700 M13751,21507 L13693,21507 " style="stroke:#080808; fill:None;"/>
<path d="M13722,21494 L13722,21428 " style="stroke:#A0522D; fill:None;"/>
<path d="M15989,14899 L16637,14899 M15989,14525 L16238,14525 M10188,14733 L10188,14899 M16637,14733 L16637,14899 " style="stroke:#2E8B57; fill:None;"/>
<path d="M10188,14899 L10221,14899 " style="stroke:#87CEFA; fill:None;"/>
<path d="M10188,14899 L14325,14899 M10188,14733 L14325,14733 " style="stroke:#2E8B57; fill:None;"/>
<path d="M16587,13618 L16238,13618 M16654,13685 L16305,13685 M16305,14317 L16305,13685 " style="stroke:#A0522D; fill:None;"/>
<path d="M16654,14317 L16654,13685 M16654,14317 L16305,13685 M16305,14317 L16654,13685 " style="stroke:#FFA500; fill:None;"/>
<path d="M15989,14899 L15989,14525 M14325,14899 L14325,14525 " style="stroke:#2E8B57; fill:None;"/>
<path d="M16238,14317 L16238,13618 M16587,13548 L16587,13618 M16654,13685 L16654,13548 M16658,13544 L16587,13548 " style="stroke:#A0522D; fill:None;"/>
<path d="M16612,13506 L16654,13506 M16658,13502 L16654,13548 M16658,13544 L16612,13548 M16617,13544 L16612,13506 " style="stroke:#080808; fill:None;"/>
<path d="M16238,14525 L16238,14317 M16242,14313 L16654,14317 M16658,14313 L16654,14733 M16658,14729 L15989,14733 " style="stroke:#2E8B57; fill:None;"/>
<path d="M41051,22600 L41051,22584 M41059,22434 L41063,22417 M41109,22280 L41117,22263 M41200,22139 L41209,22130 L41213,22126 M41325,22031 L41342,22022 M41475,21960 L41491,21956 M41637,21927 L41654,21927 M40365,21914 L40381,21918 M40527,21939 L40543,21939 M40685,21993 L40697,22006 M40818,22089 L40830,22101 M40930,22214 L40938,22230 M41005,22363 L41013,22376 M41042,22521 L41047,22538 M52985,14770 L52981,14787 M52964,14932 L52960,14949 M52910,15090 L52910,15095 L52902,15107 M52823,15232 L52814,15244 M52711,15352 L52702,15357 L52698,15361 M52569,15444 L52557,15448 M52415,15502 L52403,15506 L52399,15506 M53650,15452 L53634,15448 M53484,15423 L53467,15419 M53330,15361 L53318,15352 M53197,15265 L53185,15253 M53093,15136 L53085,15124 M53022,14986 L53014,14970 M52989,14824 L52985,14808 M14496,21428 L14500,21411 M14517,21261 L14521,21245 M14571,21103 L14579,21091 M14662,20966 L14670,20954 M14779,20845 L14791,20837 M14920,20762 L14932,20754 M15074,20704 L15090,20700 M13751,20700 L13768,20700 M13914,20721 L13930,20725 M14072,20775 L14088,20783 M14213,20862 L14226,20875 M14329,20983 L14338,20995 M14413,21124 L14421,21137 M14467,21282 L14471,21299 " style="stroke:#080808; fill:None;"/>
</svg>
