<?xml version="1.0"?>
<svg xmlns="http://www.w3.org/2000/svg" viewBox="0 0 65535 65535" >
<path d="M51342,17868 L52523,17868 L52523,20446 L51342,20446 L51342,17868 " style="stroke:#00BFFF; fill:None;"/>
<path d="M52449,26933 L52220,26933 M23964,27598 L23964,26933 M23964,27598 L23756,27598 M23881,26659 L23964,26659 M23964,26817 L23964,26659 M52449,26817 L52220,26817 M52449,27598 L52449,26933 M52656,27598 L52656,26933 M52656,27598 L52449,27598 M52885,26933 L52656,26933 M52449,26817 L52449,26659 M52453,26655 L52656,26659 M52656,26817 L52656,26659 M52885,26817 L52656,26817 M46918,20446 L46710,20446 M46918,20862 L46710,20862 M46918,22359 L46710,22359 M46918,22775 L46710,22775 M46918,20446 L46918,20862 M46710,20446 L46710,20862 M46710,22775 L46710,22359 M46918,22775 L46918,22359 M48831,20446 L48623,20446 M48831,20862 L48623,20862 M48831,22359 L48623,22359 M48831,22775 L48623,22775 M48831,20446 L48831,20862 M48623,20446 L48623,20862 M48623,22775 L48623,22359 M48831,22775 L48831,22359 M50744,20446 L50536,20446 M50744,20862 L50536,20862 M50744,22359 L50536,22359 M50744,22775 L50536,22775 M50744,20446 L50744,20862 M50536,20446 L50536,20862 M50536,22775 L50536,22359 M50744,22775 L50744,22359 M53243,17868 L46918,17868 M46249,17743 L53243,17743 M53243,17868 L53243,17743 M52656,20446 L52449,20446 M52656,20862 L52449,20862 M52656,22359 L52449,22359 M52656,22775 L52449,22775 M52656,20446 L52656,20862 M52449,20446 L52449,20862 M52449,22775 L52449,22359 M52656,22775 L52656,22359 " style="stroke:#2E8B57; fill:None;"/>
<path d="M21303,22484 L23648,22484 L23648,24047 L21303,24047 L21303,22484 " style="stroke:#00BFFF; fill:None;"/>
<path d="M46710,26817 L46481,26817 M46710,27598 L46710,26933 M46918,27598 L46918,26933 M46918,27598 L46710,27598 M47147,26933 L46918,26933 M46710,26817 L46710,26659 M46714,26655 L46918,26659 M46918,26817 L46918,26659 M47147,26817 L46918,26817 M24193,26817 L23964,26817 M24193,26933 L23964,26933 M52220,26933 L52220,26817 M52885,26933 L52885,26817 " style="stroke:#2E8B57; fill:None;"/>
<path d="M23207,26126 L23207,24642 M21095,24642 L23207,24642 M22725,26750 L22725,25586 M22492,26750 L22492,25586 M22259,26605 L22259,25586 M21794,26750 L21794,25648 M21561,26750 L21561,25586 M21328,26667 L21328,25586 M22725,25112 L22725,24172 M22492,25112 L22492,24172 M22259,25112 L22259,24172 M22026,25112 L22026,24172 M21794,25112 L21794,24172 M21561,25112 L21561,24172 M21328,25112 L21328,24172 M21095,25112 L21095,24172 M21078,25586 L21078,25112 M21078,26667 L21078,25586 M22817,25586 L22817,25112 M21428,26667 L21078,26667 M22817,25237 L21078,25237 M22817,25112 L21078,25112 M23748,24172 L21095,24172 " style="stroke:#080808; fill:None;"/>
<path d="M17506,28617 L11618,26472 M17452,28771 L11510,26609 M18858,29283 L18916,29129 M17452,28771 L17506,28617 M16255,25228 L16255,25020 M16463,25228 L16255,25228 M16463,25020 L16255,25020 M21220,26917 L21220,26667 M23748,26750 L21428,26750 M23648,24047 L21220,24047 M23748,24172 L21095,24172 M21220,23939 L21095,23939 M23648,24047 L23648,22484 M21095,22775 L21095,22384 M21095,24172 L21095,23939 M21220,24047 L21220,23939 M21303,22775 L21095,22775 M21303,22775 L21303,22484 M23648,22484 L21303,22484 M23756,22384 L21095,22384 M19344,17743 L19344,17910 M17814,17910 L11618,17910 M17814,17743 L11452,17743 M11618,17910 L11618,22060 M11452,17743 L11452,22060 M21303,20737 L23756,20737 M21095,20837 L23756,20837 M23964,20862 L23756,20862 M23964,20446 L23881,20446 M23964,20446 L23964,20862 M26422,17910 L26422,17743 M26883,17910 L26422,17910 M26883,17910 L27490,16562 M26838,17743 L27495,16288 M26838,17743 L26422,17743 M42884,16404 L42656,16404 M42884,16562 L42884,16404 M43188,16562 L42884,16562 M43795,17910 L43188,16562 M43837,17743 L43180,16288 M44253,17743 L43837,17743 M44253,17910 L43795,17910 M23881,26659 L23881,22775 M23964,22775 L23881,22775 M23964,22775 L23964,22359 M23968,22355 L23756,22359 M35233,22775 L35233,22359 M35441,22775 L35441,22359 M37354,20446 L37146,20446 M37354,20862 L37146,20862 M37354,22359 L37146,22359 M37354,22775 L37146,22775 M37354,20446 L37354,20862 M37146,20446 L37146,20862 M37146,22775 L37146,22359 M37354,22775 L37354,22359 M39267,20446 L39059,20446 M39267,20862 L39059,20862 M39267,22359 L39059,22359 M39267,22775 L39059,22775 M39267,20446 L39267,20862 M39059,20446 L39059,20862 M39059,22775 L39059,22359 M39267,22775 L39267,22359 M41180,20446 L40972,20446 M41180,20862 L40972,20862 M41180,22359 L40972,22359 M41180,22775 L40972,22775 M41180,20446 L41180,20862 M40972,20446 L40972,20862 M40972,22775 L40972,22359 M41180,22775 L41180,22359 M43092,20446 L42884,20446 M43092,20862 L42884,20862 M43092,22359 L42884,22359 M43092,22775 L42884,22775 M43092,20446 L43092,20862 M42884,20446 L42884,20862 M42884,22775 L42884,22359 M43092,22775 L43092,22359 M45005,20446 L44797,20446 M45005,20862 L44797,20862 M45005,22359 L44797,22359 M45005,22775 L44797,22775 M45005,20446 L45005,20862 M44797,20446 L44797,20862 M44797,22775 L44797,22359 M45005,22775 L45005,22359 M24193,26933 L24193,26817 M29266,26933 L29266,26817 M29931,26933 L29931,26817 M29495,26933 L29266,26933 M29495,26817 L29266,26817 M29495,27598 L29495,26933 M29703,27598 L29703,26933 M29703,27598 L29495,27598 M29931,26933 L29703,26933 M29495,26817 L29495,26659 M29499,26655 L29703,26659 M29703,26817 L29703,26659 M29931,26817 L29703,26817 M35005,26933 L35005,26817 M35670,26933 L35670,26817 M35233,26933 L35005,26933 M35233,26817 L35005,26817 M35233,27598 L35233,26933 M35441,27598 L35441,26933 M35441,27598 L35233,27598 M35670,26933 L35441,26933 M35233,26817 L35233,26659 M35237,26655 L35441,26659 M35441,26817 L35441,26659 M35670,26817 L35441,26817 M40743,26933 L40743,26817 M41408,26933 L41408,26817 M40972,26933 L40743,26933 M40972,26817 L40743,26817 M40972,27598 L40972,26933 M41180,27598 L41180,26933 M41180,27598 L40972,27598 M41408,26933 L41180,26933 M40972,26817 L40972,26659 M40976,26655 L41180,26659 M41180,26817 L41180,26659 M41408,26817 L41180,26817 M46481,26933 L46481,26817 M47147,26933 L47147,26817 M46710,26933 L46481,26933 " style="stroke:#2E8B57; fill:None;"/>
<path d="M31408,16404 L31179,16404 M31408,16562 L31408,16404 M35441,16562 L35233,16562 M35670,16404 L35670,16288 M35674,16284 L35441,16288 M35670,16404 L35441,16404 M35441,16562 L35441,16404 M35005,16404 L35005,16288 M35441,16122 L35233,16122 M35233,16288 L35005,16288 M35233,16288 L35233,16122 M35441,16288 L35441,16122 M35233,16404 L35005,16404 M35233,16562 L35233,16404 M39267,16562 L39059,16562 M39495,16404 L39495,16288 M39500,16284 L39267,16288 M39495,16404 L39267,16404 M39267,16562 L39267,16404 M38830,16404 L38830,16288 M39267,16122 L39059,16122 M39059,16288 L38830,16288 M39059,16288 L39059,16122 M39267,16288 L39267,16122 M39059,16404 L38830,16404 M39059,16562 L39059,16404 M42656,16404 L42656,16288 M43092,16122 L42884,16122 M43180,16288 L43092,16288 M42884,16288 L42656,16288 M42884,16288 L42884,16122 M43092,16288 L43092,16122 M44253,17910 L44253,17743 M46918,17910 L46918,17868 M46918,17910 L46249,17910 M46253,17906 L46249,17743 M25877,20446 L25669,20446 M25877,20862 L25669,20862 M25877,22359 L25669,22359 M25877,22775 L25669,22775 M25877,20446 L25877,20862 M25669,20446 L25669,20862 M25669,22775 L25669,22359 M25877,22775 L25877,22359 M27790,20446 L27582,20446 M27790,20862 L27582,20862 M27790,22359 L27582,22359 M27790,22775 L27582,22775 M27790,20446 L27790,20862 M27582,20446 L27582,20862 M27582,22775 L27582,22359 M27790,22775 L27790,22359 M29703,20446 L29495,20446 M29703,20862 L29495,20862 M29703,22359 L29495,22359 M29703,22775 L29495,22775 M29703,20446 L29703,20862 M29495,20446 L29495,20862 M29495,22775 L29495,22359 M29703,22775 L29703,22359 M31615,20446 L31408,20446 M31615,20862 L31408,20862 M31615,22359 L31408,22359 M31615,22775 L31408,22775 M31615,20446 L31615,20862 M31408,20446 L31408,20862 M31408,22775 L31408,22359 M31615,22775 L31615,22359 M33528,20446 L33320,20446 M33528,20862 L33320,20862 M33528,22359 L33320,22359 M33528,22775 L33320,22775 M33528,20446 L33528,20862 M33320,20446 L33320,20862 M33320,22775 L33320,22359 M33528,22775 L33528,22359 M35441,20446 L35233,20446 M35441,20862 L35233,20862 M35441,22359 L35233,22359 M35441,22775 L35233,22775 M35441,20446 L35441,20862 M35233,20446 L35233,20862 " style="stroke:#2E8B57; fill:None;"/>
<path d="M52673,20974 L52673,20999 M52627,20974 L52615,20974 M52615,20945 L52582,20945 M52586,20941 L52582,21003 M52586,20991 L52586,21003 M52615,20945 L52615,20991 M52586,21003 L52586,20999 M52615,20991 L52586,20991 " style="stroke:#080808; fill:None;"/>
<path d="M52623,22775 L52540,22775 M52540,26659 L52623,26659 M52540,26659 L52540,22775 M52623,26659 L52623,22775 " style="stroke:#A0522D; fill:None;"/>
<path d="M23748,26750 L23748,24172 M21428,26750 L23748,26750 M21428,26667 L21428,26750 M21769,25586 L21078,25586 M22817,25586 L21823,25586 M22026,26064 L22026,25586 M22026,26750 L22026,26189 M22056,26126 L23207,26126 M21078,26126 L22002,26126 M22284,26788 L21752,25548 M22338,26788 L21806,25548 " style="stroke:#080808; fill:None;"/>
<path d="M23748,26750 L23748,24172 M19860,28962 L19744,28921 M21220,26792 L20650,26792 M21220,26667 L20563,26667 M20396,27124 L20563,26667 M19577,29370 L19744,28921 M20513,27166 L20650,26792 M19698,29411 L19860,28962 M21507,27528 L21349,27470 M19577,29370 L18916,29129 M20534,29715 L19698,29411 M21552,26917 L21220,26917 M23756,26917 L21727,26917 M21349,27470 L21552,26917 M21507,27528 L21727,26917 M20854,29324 L20696,29266 M20534,29715 L20696,29266 M20688,29773 L20854,29324 M23748,26917 L23748,26750 M21428,26667 L21220,26667 M21428,26750 L21428,26667 M16255,22051 L16255,21843 M16463,22051 L16463,21843 M16467,21839 L16255,21843 M16463,22051 L16255,22051 M11618,23831 L11452,23831 M11618,22060 L11452,22060 M17814,17743 L17814,17910 M21303,20654 L21303,20737 M21095,20654 L21303,20654 M21095,20654 L21095,20837 M23881,20446 L23881,17910 M23756,20862 L23756,17743 M23756,17910 L19344,17910 M23756,17743 L19344,17743 M24509,17743 L23756,17743 M24509,17910 L23881,17910 M24509,17910 L24509,17743 M27790,16562 L27490,16562 M28019,16404 L28019,16288 M28023,16284 L27790,16288 M28019,16404 L27790,16404 M27790,16562 L27790,16404 M27790,16122 L27582,16122 M27582,16288 L27495,16288 M27582,16288 L27582,16122 M27790,16288 L27790,16122 M31615,16562 L31408,16562 M31844,16404 L31844,16288 M31848,16284 L31615,16288 M31844,16404 L31615,16404 M31615,16562 L31615,16404 M31179,16404 L31179,16288 M31615,16122 L31408,16122 M31408,16288 L31179,16288 M31408,16288 L31408,16122 M31615,16288 L31615,16122 " style="stroke:#2E8B57; fill:None;"/>
<path d="M52473,26600 L52291,26600 M52291,26817 L52291,26600 " style="stroke:#A0522D; fill:None;"/>
<path d="M52291,26783 L47084,26783 M52291,26817 L47084,26817 " style="stroke:#87CEFA; fill:None;"/>
<path d="M52473,26600 L52473,22775 M52473,23440 L51401,23440 M51405,23436 L51401,22093 M50519,20438 L50519,20904 M50760,22800 L50519,22800 M50760,20904 L50519,20904 M50760,22317 L50519,22317 M50519,22800 L50519,22317 M50760,22800 L50760,22317 M52099,22093 L51401,22093 M52099,22317 L52099,22093 M52548,20904 L50760,20904 M52548,22317 L52099,22317 M52548,20945 L52548,20862 M52548,22359 L52548,22276 M52615,20945 L52615,20862 M52615,22359 L52615,22276 M52548,20945 L52615,20945 M52615,22276 L52548,22276 M52548,20862 L52615,20862 M52615,22359 L52548,22359 " style="stroke:#A0522D; fill:None;"/>
<path d="M53330,22218 L53330,22214 M53305,22218 L53305,22214 M53330,22218 L53305,22218 M53272,22234 L53272,22247 M53272,22222 L53272,22230 M52686,22230 L52686,22222 M52686,22247 L52686,22234 M52673,22230 L53284,22230 M53284,22234 L52673,22234 M53284,22247 L52673,22247 M52686,22218 L53272,22218 M53318,22218 L53318,22247 M53284,22222 L53272,22222 M53330,22218 L53272,22218 M53318,22247 L53284,22247 M53284,22222 L53284,22247 M53272,22218 L53272,22214 M52640,22243 L52640,22218 M52644,22214 L52686,22218 M52673,22222 L52686,22222 M52627,22247 L52673,22247 M52627,22243 L52640,22243 M52686,22222 L52686,22218 M52673,22247 L52673,22222 M52627,22247 L52627,22243 M52627,22247 L52615,22247 M52615,22276 L52582,22276 M52586,22272 L52582,22218 M52586,22230 L52586,22218 M52615,22276 L52615,22230 M52586,22218 L52586,22214 M52615,22230 L52586,22230 M53330,20974 L53330,20974 M53305,20974 L53305,20974 M53330,20974 L53305,20974 M53272,20987 L53272,20974 M53272,20999 L53272,20991 M52686,20991 L52686,20999 M52686,20974 L52686,20987 M52673,20991 L53284,20991 M53284,20987 L52673,20987 M53284,20974 L52673,20974 M52686,21003 L53272,21003 M53318,21003 L53318,20974 M53284,20999 L53272,20999 M53318,21003 L53272,21003 M53330,20974 L53284,20974 M53284,20999 L53284,20974 M53272,21003 L53272,20999 M52640,20979 L52640,21003 M52644,20999 L52686,21003 M52673,20999 L52686,20999 M52627,20974 L52673,20974 M52627,20979 L52640,20979 M52686,20999 L52686,20999 M52623,20970 L52627,20979 L52619,20983 M52623,22243 L52627,22247 L52619,22251 " style="stroke:#080808; fill:None;"/>
<path d="M42868,22800 L42868,22317 M43109,22800 L43109,22317 M44781,20421 L44781,20904 M45022,20421 L45022,20904 M45022,20421 L44781,20421 M45022,22800 L44781,22800 M45022,20904 L44781,20904 M45022,22317 L44781,22317 M44781,22800 L44781,22317 M45022,22800 L45022,22317 M46693,20421 L46693,20904 M46935,20421 L46935,20904 M46935,20421 L46693,20421 M46935,22800 L46693,22800 M46935,20904 L46693,20904 M46935,22317 L46693,22317 M46693,22800 L46693,22317 M46935,22800 L46935,22317 M48606,20421 L48606,20904 M48847,20438 L48847,20904 M48847,20421 L48606,20421 M48847,22800 L48606,22800 M48847,20904 L48606,20904 M48847,22317 L48606,22317 M48606,22800 L48606,22317 M48847,22800 L48847,22317 M52548,22359 L52548,22317 M52449,22359 L52548,22359 M52449,22775 L52449,22359 M52473,22775 L52449,22775 M52473,26284 L23906,26284 M24131,26817 L24131,26783 M24131,26817 L24131,26517 M24135,26513 L23906,26517 M29328,26817 L29328,26783 " style="stroke:#A0522D; fill:None;"/>
<path d="M29333,26779 L24131,26783 M29328,26817 L24131,26817 " style="stroke:#87CEFA; fill:None;"/>
<path d="M29495,26817 L29328,26817 M29495,26659 L29495,26817 M29703,26659 L29495,26659 M29703,26817 L29703,26659 M29869,26817 L29703,26817 M29869,26817 L29869,26783 M29328,26817 L29328,26600 M29869,26817 L29869,26600 M29873,26596 L29328,26600 M35067,26817 L35067,26783 " style="stroke:#A0522D; fill:None;"/>
<path d="M35071,26779 L29869,26783 M35067,26817 L29869,26817 " style="stroke:#87CEFA; fill:None;"/>
<path d="M35233,26817 L35067,26817 M35233,26659 L35233,26817 M35441,26659 L35233,26659 M35441,26817 L35441,26659 M35607,26817 L35441,26817 M35607,26817 L35607,26783 M35067,26817 L35067,26600 M35607,26817 L35607,26600 M35612,26596 L35067,26600 M40805,26817 L40805,26783 " style="stroke:#A0522D; fill:None;"/>
<path d="M40809,26779 L35607,26783 M40805,26817 L35607,26817 " style="stroke:#87CEFA; fill:None;"/>
<path d="M40972,26817 L40805,26817 M40972,26659 L40972,26817 M41180,26659 L40972,26659 M41180,26817 L41180,26659 M41346,26817 L41180,26817 M41346,26817 L41346,26783 M40805,26817 L40805,26600 M41346,26817 L41346,26600 M41350,26596 L40805,26600 M46544,26817 L46544,26783 " style="stroke:#A0522D; fill:None;"/>
<path d="M46548,26779 L41346,26783 M46544,26817 L41346,26817 " style="stroke:#87CEFA; fill:None;"/>
<path d="M46710,26817 L46544,26817 M46710,26659 L46710,26817 M46918,26659 L46710,26659 M46918,26817 L46918,26659 M47084,26817 L46918,26817 M47084,26817 L47084,26783 M46544,26817 L46544,26600 M47084,26817 L47084,26600 M47089,26596 L46544,26600 M52291,26817 L52291,26783 M23998,22792 L23906,22792 M23998,22351 L23823,22351 M23998,22792 L23998,22351 M23906,26517 L23906,22792 M25653,20421 L25653,20904 M25894,20421 L25894,20904 M25894,20421 L25653,20421 M25894,22800 L25653,22800 M25894,20904 L25653,20904 M25894,22317 L25653,22317 M25653,22800 L25653,22317 M25894,22800 L25894,22317 M27565,20421 L27565,20904 M27806,20421 L27806,20904 M27806,20421 L27565,20421 M27806,22800 L27565,22800 M27806,20904 L27565,20904 M27806,22317 L27565,22317 M27565,22800 L27565,22317 M27806,22800 L27806,22317 M29478,20421 L29478,20904 M29719,20421 L29719,20904 M29719,20421 L29478,20421 M29719,22800 L29478,22800 M29719,20904 L29478,20904 M29719,22317 L29478,22317 M29478,22800 L29478,22317 M29719,22800 L29719,22317 M31391,20421 L31391,20904 M31632,20421 L31632,20904 M31632,20421 L31391,20421 M31632,22800 L31391,22800 M31632,20904 L31391,20904 M31632,22317 L31391,22317 M31391,22800 L31391,22317 M31632,22800 L31632,22317 M33304,20421 L33304,20904 M33545,20421 L33545,20904 M33545,20421 L33304,20421 M33545,22800 L33304,22800 M33545,20904 L33304,20904 M33545,22317 L33304,22317 M33304,22800 L33304,22317 M33545,22800 L33545,22317 M35217,20421 L35217,20904 M35458,20421 L35458,20904 M35458,20421 L35217,20421 M35458,22800 L35217,22800 M35458,20904 L35217,20904 M35458,22317 L35217,22317 M35217,22800 L35217,22317 M35458,22800 L35458,22317 M37129,20421 L37129,20904 M37371,20421 L37371,20904 M37371,20421 L37129,20421 M37371,22800 L37129,22800 M37371,20904 L37129,20904 M37371,22317 L37129,22317 M37129,22800 L37129,22317 M37371,22800 L37371,22317 M39042,20421 L39042,20904 M39283,20421 L39283,20904 M39283,20421 L39042,20421 M39283,22800 L39042,22800 M39283,20904 L39042,20904 M39283,22317 L39042,22317 M39042,22800 L39042,22317 M39283,22800 L39283,22317 M40955,20421 L40955,20904 M41196,20421 L41196,20904 M41196,20421 L40955,20421 M41196,22800 L40955,22800 M41196,20904 L40955,20904 M41196,22317 L40955,22317 M40955,22800 L40955,22317 M41196,22800 L41196,22317 M42868,20421 L42868,20904 M43109,20421 L43109,20904 M43109,20421 L42868,20421 M43109,22800 L42868,22800 M43109,20904 L42868,20904 M43109,22317 L42868,22317 M48831,20421 L50536,20421 M50519,20904 L48847,20904 M23998,20430 L23906,20430 M23910,20425 L23906,17910 M23998,20430 L23998,20870 M24002,20866 L23823,20870 M23823,22359 L23823,22317 M23823,20945 L23823,20862 M23823,22359 L23823,22276 M23756,20945 L23756,20862 M23756,22359 L23756,22276 M23823,20945 L23756,20945 M23756,22276 L23823,22276 M23823,20862 L23756,20862 M23756,22359 L23823,22359 " style="stroke:#A0522D; fill:None;"/>
<path d="M23045,22218 L23045,22214 M23070,22218 L23070,22214 M23045,22218 L23070,22218 M23103,22234 L23103,22247 M23103,22222 L23103,22230 M23690,22230 L23690,22222 M23690,22247 L23690,22234 M23702,22230 L23091,22230 M23091,22234 L23702,22234 M23091,22247 L23702,22247 M23690,22218 L23103,22218 M23058,22218 L23058,22247 M23091,22222 L23103,22222 M23045,22218 L23103,22218 M23058,22247 L23091,22247 M23091,22222 L23091,22247 M23103,22218 L23103,22214 M23736,22243 L23736,22218 M23740,22214 L23690,22218 M23702,22222 L23690,22222 M23748,22247 L23702,22247 M23748,22243 L23736,22243 M23690,22222 L23690,22218 M23702,22247 L23702,22222 M23748,22247 L23748,22243 M23748,22247 L23756,22247 M23756,22276 L23790,22276 M23794,22272 L23790,22218 M23790,22230 L23790,22218 M23756,22276 L23756,22230 M23790,22218 L23790,22214 M23756,22230 L23790,22230 M23045,20974 L23045,20974 M23070,20974 L23070,20974 M23045,20974 L23070,20974 M23103,20987 L23103,20974 M23103,20999 L23103,20991 M23690,20991 L23690,20999 M23690,20974 L23690,20987 M23702,20991 L23091,20991 M23091,20987 L23702,20987 M23091,20974 L23702,20974 M23690,21003 L23103,21003 M23058,21003 L23058,20974 M23091,20999 L23103,20999 M23058,21003 L23103,21003 M23045,20974 L23091,20974 M23091,20999 L23091,20974 M23103,21003 L23103,20999 M23736,20979 L23736,21003 M23740,20999 L23690,21003 M23702,20999 L23690,20999 M23748,20974 L23702,20974 M23748,20979 L23736,20979 M23690,20999 L23690,20999 M23702,20974 L23702,20999 M23748,20974 L23756,20974 M23756,20945 L23790,20945 M23794,20941 L23790,21003 M23790,20991 L23790,21003 M23756,20945 L23756,20991 M23790,21003 L23790,20999 M23756,20991 L23790,20991 M23752,22243 L23756,22247 L23752,22251 M23752,20970 L23756,20979 L23752,20983 " style="stroke:#080808; fill:None;"/>
<path d="M42751,16404 L39433,16404 " style="stroke:#87CEFA; fill:None;"/>
<path d="M44993,17107 L44993,17095 M44993,17885 L44993,17872 M44976,17095 L44993,17095 M44993,17107 L45009,17107 M45009,17872 L45009,17107 M44993,17872 L45009,17872 M44976,17885 L44993,17885 M44976,17885 L44976,17095 M44980,17893 L44993,17893 M44989,17885 L44989,17901 M45829,17918 L45829,17901 M45795,17951 L45795,17918 M45770,17918 L45770,17901 M45762,17951 L45762,17918 M45829,17968 L45829,17951 M45770,17968 L45770,17951 M45770,17968 L45829,17968 M45762,17951 L45829,17951 M45762,17918 L45829,17918 M45770,17901 L45829,17901 M44947,17951 L44947,17968 M44980,17918 L44980,17951 M45005,17951 L45005,17968 M45014,17918 L45014,17951 M44947,17901 L44947,17918 M45005,17901 L45005,17918 M45005,17901 L44947,17901 M45014,17918 L44947,17918 M45014,17951 L44947,17951 M45005,17968 L44947,17968 " style="stroke:#080808; fill:None;"/>
<path d="M44980,17918 L44548,17918 M46228,17918 L45795,17918 M44980,17951 L44548,17951 M46228,17951 L45795,17951 M45799,17947 L45795,17918 M44980,17951 L44980,17918 " style="stroke:#87CEFA; fill:None;"/>
<path d="M44548,17951 L44548,17918 M46228,17951 L46228,17918 M44548,17718 L43828,17718 M44548,18151 L43791,18151 M44548,18151 L44548,17718 M46706,17718 L46228,17718 M48748,18109 L46993,18109 M51259,17918 L48748,17918 M46228,18151 L46228,17718 M46993,18151 L46993,18109 M48748,18109 L48748,17918 M51259,18151 L46228,18151 " style="stroke:#A0522D; fill:None;"/>
<path d="M51342,18741 L51259,18741 M51259,20446 L51342,20446 M51347,20442 L51342,18741 " style="stroke:#080808; fill:None;"/>
<path d="M50744,20529 L51259,20887 M51259,20529 L50744,20887 M50748,20883 L50744,20529 M51259,20529 L50744,20529 M51259,20529 L51259,20887 M52548,20887 L50744,20887 " style="stroke:#A0522D; fill:None;"/>
<path d="M51259,20446 L51259,18741 " style="stroke:#080808; fill:None;"/>
<path d="M51342,17868 L51259,17868 M51259,18741 L51342,18741 M51347,18737 L51342,17868 M51259,18741 L51259,17868 M52449,20529 L52449,20446 M51259,20529 L51259,20446 M51259,20529 L52449,20529 M51259,20446 L52449,20446 M52523,17868 L52607,17868 M52607,20446 L52523,20446 M52528,20442 L52523,17868 M52607,20446 L52607,17868 M50519,20887 L49687,20438 M49687,20887 L50519,20438 M48847,20438 L49679,20887 M49679,20438 L48847,20887 M50519,20887 L48847,20887 M49687,20438 L49687,20887 M49679,20438 L49679,20887 M48847,20438 L50519,20438 M48831,20421 L48831,20904 M50536,20421 L50536,20904 M22376,20687 L22376,20579 M22380,20575 L22309,20579 M22376,20005 L22309,20005 M22484,18658 L23607,18658 M22484,18001 L22484,17910 M22484,18658 L22484,18575 M22417,18001 L22417,17910 M22417,18725 L22417,18575 M22417,18001 L22484,18001 M22417,18575 L22484,18575 M22417,18725 L23607,18725 M22509,19706 L22509,19332 M22509,19706 L23607,19706 M22509,19332 L21261,19332 M22309,20005 L22309,19531 M22313,19527 L21261,19531 M22376,19906 L23607,19906 M21095,17976 L21095,17910 M21095,19881 L21095,18708 M21261,17976 L21261,17910 M21261,19881 L21261,18708 M21095,20654 L21095,20613 M21261,20654 L21261,20613 M21261,18708 L21095,18708 M21261,17976 L21095,17976 M21261,19881 L21095,19881 M21303,20654 L21261,20654 M21303,20687 L21303,20654 M21303,20687 L23607,20687 M23611,20683 L23607,17910 M21261,20613 L21095,20613 M21261,17910 L21095,17910 M21261,20654 L21095,20654 " style="stroke:#A0522D; fill:None;"/>
<path d="M21303,22775 L21220,22775 M21220,24047 L21303,24047 M21307,24043 L21303,22775 M21220,24047 L21220,22775 " style="stroke:#080808; fill:None;"/>
<path d="M26888,18143 L23906,18143 " style="stroke:#A0522D; fill:None;"/>
<path d="M24509,17876 L24509,17910 M26422,17910 L26422,17876 M26426,17872 L24509,17876 M26422,17910 L24509,17910 " style="stroke:#87CEFA; fill:None;"/>
<path d="M26888,18143 L27574,16621 M43117,16671 L27553,16671 M26526,18093 L26526,17910 M24447,18093 L24447,17910 M42751,16404 L42751,16438 M42751,16621 L42751,16404 M43791,18151 L43101,16621 M43105,16616 L42751,16621 M27956,16621 L27956,16404 M27956,16621 L27574,16621 " style="stroke:#A0522D; fill:None;"/>
<path d="M31241,16438 L27956,16438 M31241,16404 L27956,16404 " style="stroke:#87CEFA; fill:None;"/>
<path d="M31408,16404 L31241,16404 M31408,16562 L31408,16404 M31615,16562 L31408,16562 M31615,16404 L31615,16562 M31782,16404 L31615,16404 M31241,16621 L31241,16404 M31782,16621 L31782,16404 M31782,16621 L31241,16621 " style="stroke:#A0522D; fill:None;"/>
<path d="M35067,16438 L31782,16438 M35067,16404 L31782,16404 " style="stroke:#87CEFA; fill:None;"/>
<path d="M35233,16404 L35067,16404 M35233,16562 L35233,16404 M35441,16562 L35233,16562 M35441,16404 L35441,16562 M35607,16404 L35441,16404 M35067,16621 L35067,16404 M35607,16621 L35607,16404 M35607,16621 L35067,16621 " style="stroke:#A0522D; fill:None;"/>
<path d="M38893,16438 L35607,16438 M38893,16404 L35607,16404 " style="stroke:#87CEFA; fill:None;"/>
<path d="M39059,16404 L38893,16404 M39059,16562 L39059,16404 M39267,16562 L39059,16562 M39267,16404 L39267,16562 M39433,16404 L39267,16404 M38893,16621 L38893,16404 M39433,16621 L39433,16404 M39433,16621 L38893,16621 " style="stroke:#A0522D; fill:None;"/>
<path d="M42751,16438 L39433,16438 " style="stroke:#87CEFA; fill:None;"/>
<path d="M21078,18741 L21095,18741 M21078,18683 L21095,18683 M21078,18683 L21078,18741 M21095,18675 L21095,18741 M21261,18675 L21261,18737 M21274,18679 L21274,18737 M21095,17976 L21261,17976 M21261,18005 L21274,18005 M21261,17947 L21274,17947 M21095,18009 L21261,18009 M21078,17943 L21095,17943 M21078,18001 L21095,18001 M21078,18001 L21078,17943 M21095,18009 L21095,17943 M21261,18009 L21261,17947 M21274,18005 L21274,17947 M21877,18014 L21877,18034 M21868,18001 L21868,18014 M21873,18009 L21877,18014 M22380,18034 L21877,18034 M22380,18034 L22380,18014 M22388,18014 L22380,18014 M22388,18014 L22388,18001 M22392,17997 L21868,18001 M22397,18009 L22397,18001 M22401,18005 L22388,18005 M22417,17968 L22401,17968 M22496,17972 L22484,17972 M22484,18001 L22417,18001 M22417,18026 L22401,18026 M22496,18030 L22484,18030 M22401,18026 L22401,17968 M22417,18034 L22417,17968 M22484,18034 L22484,17972 M22496,18030 L22496,17972 M22401,18608 L22401,18550 M22417,18608 L22417,18542 M22484,18604 L22484,18542 M22417,18550 L22401,18550 M22496,18604 L22496,18546 M22484,18575 L22417,18575 M22417,18608 L22401,18608 M22496,18604 L22484,18604 M22484,18034 L22417,18034 M22484,18542 L22417,18542 M22496,18546 L22484,18546 M22921,20571 L22921,20550 M22929,20583 L22929,20571 M22933,20567 L22921,20571 M22417,20550 L22921,20550 M22417,20550 L22417,20571 M22409,20571 L22417,20571 M22409,20571 L22409,20583 M22413,20579 L22929,20583 M22401,20571 L22401,20583 M22392,20579 L22409,20579 M22376,20613 L22392,20613 M22297,20608 L22309,20608 M22309,20579 L22376,20579 M22376,20554 L22392,20554 M22297,20550 L22309,20550 M22392,20554 L22392,20613 M22376,20546 L22376,20613 M22309,20546 L22309,20608 M22297,20550 L22297,20608 M22392,19972 L22392,20030 M22376,19972 L22376,20039 M22309,19976 L22309,20039 M22376,20030 L22392,20030 M22297,19976 L22297,20035 M22309,20005 L22376,20005 M22376,19972 L22392,19972 M22297,19976 L22309,19976 M22309,20546 L22376,20546 M22309,20039 L22376,20039 M22297,20035 L22309,20035 " style="stroke:#080808; fill:None;"/>
<path d="M22309,20687 L22309,20579 M22376,20005 L22376,19906 " style="stroke:#A0522D; fill:None;"/>
<path d="M19906,28613 L19910,28601 M19906,28613 L20642,28883 M19897,28609 L19902,28601 M19906,28609 L19889,28601 M19872,28646 L19893,28584 M19848,28634 L19868,28567 M19881,28572 L19868,28567 M20737,27611 L20733,27623 M20721,27619 L20717,27636 M20322,27420 L20292,27407 M20284,27470 L20280,27478 M20297,27478 L20284,27470 M20721,27619 L20733,27623 M20317,27474 L20330,27478 M20326,27490 L20717,27636 M20330,27478 L20326,27490 M20326,27461 L20317,27474 M20326,27461 L20737,27611 M20317,27457 L20313,27470 M20322,27465 L20305,27461 M20322,27420 L20297,27478 M45009,17107 L45026,17107 M45176,17132 L45192,17136 M45330,17186 L45342,17190 L45346,17194 M45471,17273 L45483,17286 M45592,17390 L45600,17402 M45683,17527 L45691,17544 M45745,17681 L45750,17698 M45770,17847 L45770,17864 M44989,17885 L44993,17893 L44989,17897 M22413,18550 L22397,18550 M22251,18529 L22234,18525 M22101,18454 L22089,18446 M21981,18342 L21972,18330 M21902,18197 L21898,18184 M21868,18034 L21868,18022 L21868,18018 M22397,18001 L22401,18005 L22392,18009 M22397,18001 L22401,18005 L22392,18009 M22380,20030 L22397,20030 M22546,20055 L22563,20060 M22696,20126 L22708,20134 M22817,20238 L22825,20251 M22896,20384 L22900,20401 M22925,20546 L22929,20563 M22401,20571 L22405,20579 L22397,20583 L22397,20579 M22401,20571 L22405,20579 L22397,20583 L22397,20579 " style="stroke:#080808; fill:None;"/>
<path d="M20292,27407 L20268,27474 M20280,27478 L20268,27474 " style="stroke:#080808; fill:None;"/>
<path d="M21394,27353 L21349,27470 M20513,27166 L20554,27050 M19818,29079 L19860,28962 M20654,29382 L20696,29266 M20554,27050 L21394,27353 M20654,29382 L19818,29079 M20696,29266 L19860,28962 M20513,27166 L21349,27470 M20151,26900 L20105,27016 M20396,27124 L20438,27004 M20442,27000 L20151,26900 M20396,27124 L20105,27016 " style="stroke:#A0522D; fill:None;"/>
<path d="M20513,27166 L20396,27124 M16463,25228 L16463,25020 " style="stroke:#2E8B57; fill:None;"/>
<path d="M16463,28235 L16463,25170 " style="stroke:#A0522D; fill:None;"/>
<path d="M20355,20604 L20371,20604 M20371,20588 L20371,20604 M20355,20604 L20355,20617 M20371,20588 L21049,20588 M21053,20583 L21049,20604 M21062,20604 L21062,20617 M21049,20604 L21062,20604 M20355,20617 L21062,20617 M21062,20608 L21078,20608 M21095,20613 L21261,20613 M21261,20583 L21274,20583 M21261,20642 L21274,20642 M21095,20579 L21261,20579 M21078,20646 L21095,20646 M21078,20588 L21095,20588 M21078,20588 L21078,20646 M21095,20579 L21095,20646 M21261,20579 L21261,20642 M21274,20583 L21274,20642 M21095,19881 L21261,19881 M21261,19910 L21274,19910 M21261,19852 L21274,19852 M21095,19914 L21261,19914 M21078,19847 L21095,19847 M21078,19906 L21095,19906 M21078,19906 L21078,19847 M21095,19914 L21095,19847 M21261,19914 L21261,19852 M21274,19910 L21274,19852 M20355,18700 L20371,18700 M20371,18683 L20371,18700 M20355,18700 L20355,18712 M20371,18683 L21049,18683 M21053,18679 L21049,18700 M21062,18700 L21062,18712 M21049,18700 L21062,18700 M20355,18712 L21062,18712 M21062,18704 L21078,18704 M21095,18708 L21261,18708 M21261,18679 L21274,18679 M21261,18737 L21274,18737 M21095,18675 L21261,18675 " style="stroke:#080808; fill:None;"/>
<path d="M16255,22051 L16255,21902 M11618,22051 L11618,21902 M12250,26704 L12250,26309 M11618,26309 L12250,26309 M16288,23981 L16330,23981 M16288,24022 L16288,23981 M16288,24022 L16330,24022 M16334,24018 L16330,23981 M11618,23981 L11618,23831 M17003,23981 L17003,23831 M11618,23981 L17003,23981 M16463,25170 L16463,25020 M17128,25170 L16463,25170 M17128,25020 L16255,25020 M17128,25170 L17128,25020 M15598,26135 L15398,26135 M15598,25985 L15199,25985 M15598,26135 L15598,25985 M15199,27777 L15199,25985 M15398,27765 L15398,26135 M16255,27765 L15398,27765 M11618,23831 L17003,23831 " style="stroke:#A0522D; fill:None;"/>
<path d="M22351,29503 L22355,29495 M22343,29490 L22347,29474 M21582,29266 L21552,29258 M21586,29204 L21590,29195 M21602,29208 L21586,29204 M22343,29490 L22355,29495 M21615,29224 L21627,29229 M21631,29212 L22347,29474 M21627,29229 L21631,29212 M21611,29237 L21615,29224 M21611,29237 L22351,29503 M21602,29233 L21606,29220 M21615,29229 L21598,29224 M21582,29266 L21602,29208 M21552,29258 L21577,29191 M21590,29195 L21577,29191 M22446,28235 L22442,28243 M22430,28239 L22422,28255 M22026,28039 L22002,28031 M21989,28093 L21989,28102 M22006,28097 L21989,28093 M22430,28239 L22442,28243 M22026,28093 L22039,28097 M22035,28114 L22422,28255 M22039,28097 L22035,28114 M22031,28081 L22026,28093 M22031,28081 L22446,28235 M22022,28081 L22018,28089 M22031,28089 L22010,28081 M22026,28039 L22006,28097 M22002,28031 L21977,28097 M21989,28102 L21977,28097 " style="stroke:#080808; fill:None;"/>
<path d="M22002,28031 L22064,27856 M21490,29428 L21552,29258 M22026,28039 L22097,27844 M21511,29461 L21582,29266 M22026,28039 L21997,28027 M21582,29266 L21552,29258 M22064,27856 L21507,27528 M21490,29428 L20854,29324 M20292,27407 L20396,27124 M19744,28921 L19848,28634 M20322,27416 L20426,27133 M19769,28929 L19872,28646 M20292,27407 L20322,27420 M19872,28646 L19848,28634 M20396,27124 L20426,27133 M19769,28929 L19744,28921 " style="stroke:#87CEFA; fill:None;"/>
<path d="M20642,28883 L20646,28871 M20633,28867 L20642,28850 M19872,28646 L19848,28634 M19881,28580 L19881,28572 M19893,28584 L19881,28580 M20633,28867 L20646,28871 M19910,28601 L19918,28605 M19927,28592 L20642,28850 M19918,28605 L19927,28592 M12724,21873 L12724,21889 M13498,21873 L13498,21889 M13510,21082 L13510,21070 M13510,21856 L13510,21843 M13494,21843 L13494,21082 M13510,21843 L13494,21843 M13523,21856 L13510,21856 M13523,21856 L13523,21070 M13523,21864 L13510,21864 M13514,21856 L13514,21873 M12724,21873 L12662,21873 M13560,21873 L13498,21873 M12733,21902 L12662,21902 M13560,21902 L13489,21902 M12733,21889 L12733,21902 M13489,21889 L13489,21902 M16209,22800 L16209,22812 M16221,22812 L16209,22812 M16209,22800 L16192,22800 M16263,22080 L16263,22051 M16201,22064 L16192,22064 M16201,22080 L16201,22064 M16209,22101 L16209,22114 M16192,22114 L16192,22800 M16209,22114 L16192,22114 M16221,22101 L16209,22101 M16221,22101 L16221,22812 M16221,22093 L16209,22093 M16217,22101 L16217,22080 M16263,22080 L16201,22080 M16263,22051 L16192,22051 M16192,22064 L16192,22051 M14804,22812 L14820,22812 M14791,22800 L14804,22800 M14754,22080 L14754,22051 M14816,22064 L14824,22064 M14816,22080 L14816,22064 M14804,22800 L14804,22812 M14804,22101 L14804,22114 M14820,22114 L14820,22812 M14804,22114 L14820,22114 M14791,22101 L14804,22101 M14791,22101 L14791,22800 M14791,22093 L14804,22093 M14799,22101 L14799,22080 M14754,22080 L14816,22080 M14754,22051 L14824,22051 M14824,22064 L14824,22051 " style="stroke:#080808; fill:None;"/>
<path d="M11618,17910 L16313,17910 M11618,18034 L11618,17910 M13747,18159 L13598,18159 M13598,18034 L11618,18034 M16313,17951 L13747,17951 M13598,18159 L13598,18034 M13747,18159 L13747,17951 M16197,21902 L16255,21902 M13747,21902 L14816,21902 M16197,22051 L16255,22051 M13489,22051 L14816,22051 M14820,22047 L14816,21902 M16197,22051 L16197,21902 M13489,21902 L13598,21902 M11618,18966 L13747,18966 M13747,21902 L13747,18966 M11618,19116 L13598,19116 M13598,21902 L13598,19116 M11618,21902 L12733,21902 M11618,22051 L12733,22051 M13489,22051 L13489,21902 M12733,22051 L12733,21902 M16463,17910 L16313,17910 M16463,22051 L16463,21902 M16313,20771 L16313,17910 M16962,20771 L16313,20771 M16962,21902 L16463,21902 M16962,21902 L16962,20771 M16463,20621 L16463,17910 M17111,20621 L16463,20621 M17111,22051 L17111,20621 M17111,22051 L16463,22051 " style="stroke:#A0522D; fill:None;"/>
<path d="M52952,26713 L52964,26713 M52939,26713 L52952,26713 M52939,26759 L52964,26759 M52968,26754 L52964,26713 M52964,26725 L52964,26713 M52939,26771 L52939,26725 M52939,26771 L52939,26759 M52964,26713 L52964,26713 M52939,26725 L52964,26725 M52939,26771 L52939,26783 M52906,26783 L52906,26817 M52910,26813 L52964,26817 M52952,26813 L52964,26813 M52906,26783 L52952,26783 M52964,26813 L52964,26813 M52952,26783 L52952,26813 " style="stroke:#080808; fill:None;"/>
<path d="M52885,26817 L52656,26817 M52656,26667 L52885,26817 M52656,26817 L52656,26667 M52881,26667 L52656,26817 M52881,26783 L52881,26817 M52881,26667 L52881,26817 M52656,26667 L52881,26667 M24447,18093 L23906,18093 M26908,18093 L26526,18093 " style="stroke:#A0522D; fill:None;"/>
<path d="M21507,27528 L21519,27503 M20846,29353 L20854,29324 M22097,27844 L21519,27503 M21511,29461 L20846,29353 " style="stroke:#87CEFA; fill:None;"/>
<path d="M11618,26472 L11618,26309 M12250,26704 L11618,26472 M15743,27973 L15199,27777 M16463,28235 L16255,28160 M16255,27765 L16255,25020 M16255,28160 L16255,27973 M16259,27969 L15743,27973 M16288,24746 L16255,24746 M16255,25020 L16288,25020 M16255,24746 L16255,25020 M16288,24746 L16288,25020 " style="stroke:#A0522D; fill:None;"/>
<path d="M15540,24002 L15540,24014 M15552,24014 L15552,24031 M16255,24746 L16288,24746 M16255,23981 L16288,23981 M16271,24696 L16271,24704 M16271,24022 L16271,24031 M16255,24704 L16271,24704 M16255,24022 L16271,24022 M15552,24014 L15540,24014 M16238,24014 L16226,24014 M16226,24031 L15552,24031 M16226,24014 L16226,24031 M16238,24002 L16238,24014 M16238,24002 L15540,24002 M16246,24002 L16246,24014 M16238,24006 L16255,24006 M16255,24704 L16255,24746 M16255,23981 L16255,24022 M16288,24696 L16288,24746 M16288,23981 L16288,24031 M16271,24696 L16288,24696 M16271,24031 L16288,24031 M13523,21070 L13510,21070 M13510,21082 L13494,21082 M12662,21873 L12662,21902 M13560,21873 L13560,21902 M12733,21889 L12724,21889 M13498,21889 L13489,21889 M19897,28601 L19906,28605 L19897,28609 M20313,27457 L20317,27465 L20313,27470 M20371,20604 L20371,20588 M20392,20438 L20396,20421 M20450,20284 L20459,20267 M20546,20147 L20559,20134 M20671,20035 L20683,20026 M20816,19960 L20833,19951 M20974,19918 L20991,19914 M21070,20604 L21078,20608 L21070,20613 M20371,18700 L20371,18683 M20392,18533 L20396,18517 M20450,18380 L20459,18363 M20546,18242 L20559,18230 M20671,18130 L20683,18122 M20816,18055 L20833,18047 M20974,18014 L20991,18009 M21070,18700 L21078,18704 L21070,18708 M21606,29220 L21611,29229 L21606,29233 M22022,28081 L22026,28085 L22018,28089 M13514,21856 L13523,21864 L13514,21868 M16197,22800 L16180,22796 M16030,22771 L16014,22767 M15876,22713 L15864,22704 M15743,22613 L15731,22604 M15635,22488 L15623,22475 M15556,22342 L15552,22326 M15515,22180 L15515,22164 M16217,22085 L16221,22093 L16217,22097 M15552,22068 L15548,22085 M15535,22234 L15531,22251 M15485,22392 L15477,22405 M15394,22530 L15386,22546 M15278,22650 L15265,22658 M15136,22733 L15120,22742 M14978,22783 L14962,22787 M14799,22085 L14804,22093 L14799,22097 M52939,26771 L52943,26779 L52935,26783 M16288,24700 L16271,24700 M16122,24684 L16109,24679 M15968,24634 L15951,24625 M15826,24542 L15814,24534 M15710,24422 L15702,24409 M15627,24280 L15623,24264 M15581,24122 L15581,24106 M16246,24002 L16251,24006 L16246,24010 M12733,21902 L12733,21885 M12745,21735 L12749,21719 M12791,21573 L12791,21565 L12795,21561 M12870,21428 L12878,21415 M12974,21303 L12986,21290 M13107,21199 L13119,21191 M13257,21128 L13269,21120 M13415,21091 L13431,21087 M51363,19053 L51509,18804 L51654,19053 M51401,18991 L51617,18991 M51729,19012 L51742,19032 L51762,19049 L51812,19053 L51937,19053 L51987,19049 L52004,19032 L52020,19012 L52020,18978 L52008,18958 L51987,18941 L51937,18933 L51808,18924 L51762,18916 L51742,18899 L51729,18879 L51729,18858 L51737,18833 L51762,18816 L51808,18804 L51925,18804 L51974,18816 L51999,18833 L52012,18854 M52370,18862 L52361,18829 L52336,18812 L52282,18804 L52199,18804 L52141,18812 L52116,18829 L52099,18854 L52091,18899 L52091,18962 L52099,19007 L52116,19028 L52145,19049 L52199,19053 L52282,19053 L52336,19049 L52365,19032 L52374,19003 M52444,19053 L52469,19053 L52469,19041 L52444,19041 L52444,19053 " style="stroke:#080808; fill:None;"/>
<path d="M21232,19644 L21266,19619 L21303,19610 L21419,19610 L21469,19619 L21494,19635 L21507,19660 L21507,19681 L21494,19706 L21469,19719 L21419,19727 L21324,19727 M21419,19727 L21478,19735 L21507,19752 L21515,19777 L21515,19814 L21503,19839 L21478,19852 L21415,19860 L21315,19860 L21261,19852 L21224,19831 M21627,19860 L21656,19860 L21656,19843 L21627,19843 L21627,19860 M21773,19706 L21881,19610 L21881,19860 M21773,19860 L21956,19860 M22076,19839 L22101,19852 L22147,19860 L22263,19860 L22313,19856 L22338,19839 L22359,19798 L22359,19677 L22338,19635 L22318,19623 L22263,19610 L22160,19610 L22114,19623 L22089,19635 L22072,19660 L22072,19714 L22089,19739 L22114,19752 L22160,19760 L22263,19760 L22313,19752 L22338,19739 L22359,19710 M22463,19527 L22471,19544 L22501,19556 L22546,19565 L22671,19565 L22721,19556 L22746,19540 L22754,19511 L22754,19457 L22746,19423 L22721,19411 L22671,19403 L22542,19403 L22501,19411 L22463,19444 L22463,19315 L22746,19315 M22871,19565 L22896,19565 L22896,19548 L22871,19548 L22871,19565 M23020,19365 L23037,19340 L23074,19324 L23120,19315 L23203,19315 L23249,19324 L23282,19340 L23303,19365 L23303,19411 L23282,19432 L23249,19448 L23062,19473 L23037,19490 L23020,19511 L23012,19565 L23303,19565 M23507,19436 L23453,19444 L23428,19457 L23420,19482 L23420,19519 L23428,19544 L23453,19556 L23511,19565 L23611,19565 L23673,19556 L23698,19544 L23706,19519 L23706,19482 L23698,19457 L23673,19444 L23615,19436 L23507,19436 L23461,19423 L23436,19411 L23428,19386 L23428,19369 L23436,19340 L23461,19324 L23507,19315 L23615,19315 L23661,19324 L23690,19340 L23698,19365 L23698,19386 L23686,19411 L23665,19423 L23615,19436 M20347,28642 L20347,28393 L20089,28584 L20380,28584 M20492,28642 L20521,28642 L20521,28630 L20492,28630 L20492,28642 M20721,28513 L20671,28522 L20642,28538 L20633,28559 L20633,28601 L20646,28621 L20671,28638 L20725,28642 L20825,28642 L20887,28638 L20912,28621 L20925,28601 L20925,28559 L20912,28538 L20887,28522 L20833,28513 L20721,28513 L20679,28505 L20650,28488 L20646,28468 L20646,28447 L20650,28422 L20679,28405 L20725,28393 L20833,28393 L20875,28405 L20908,28422 L20912,28443 L20912,28468 L20904,28493 L20879,28505 L20833,28513 M21295,28642 L21295,28393 L21037,28584 L21328,28584 M11834,20729 L12126,20729 L11909,20979 M12242,20979 L12267,20979 L12267,20962 L12242,20962 L12242,20979 M12392,20954 L12417,20970 L12458,20979 L12575,20979 L12629,20970 L12654,20958 L12670,20916 L12670,20796 L12654,20754 L12629,20737 L12579,20729 L12475,20729 L12425,20737 L12400,20754 L12383,20779 L12383,20829 L12404,20854 L12429,20870 L12475,20879 L12579,20879 L12629,20870 L12650,20854 L12670,20829 M12787,20729 L13078,20729 L12862,20979 " style="stroke:#FF0000; fill:None;"/>
<path d="M21565,24654 L21565,24405 L21773,24405 L21819,24413 L21844,24430 L21856,24455 L21856,24501 L21844,24521 L21819,24538 L21777,24546 L21565,24546 M21777,24546 L21819,24555 L21844,24567 L21856,24592 L21856,24654 M21927,24530 L22218,24530 M22297,24455 L22313,24430 L22351,24413 L22397,24405 L22480,24405 L22525,24413 L22559,24430 L22580,24455 L22580,24501 L22559,24521 L22525,24538 L22343,24563 L22313,24580 L22297,24600 L22288,24654 L22580,24654 M22654,24505 L22654,24563 L22671,24605 L22692,24625 L22725,24650 L22762,24654 L22821,24654 L22854,24650 L22891,24625 L22908,24600 L22925,24563 L22925,24501 L22908,24463 L22887,24438 L22850,24417 L22812,24405 L22758,24405 L22721,24417 L22688,24438 L22671,24459 L22654,24505 M23253,24654 L23253,24405 L22995,24592 L23286,24592 M18442,22105 L18442,21856 L18654,21856 L18700,21864 L18721,21881 L18733,21906 L18733,21952 L18721,21972 L18700,21989 L18658,21997 L18442,21997 M18658,21997 L18700,22006 L18725,22022 L18733,22043 L18733,22105 M18808,21981 L19095,21981 M19174,21906 L19195,21881 L19228,21864 L19274,21856 L19357,21856 L19403,21864 L19440,21881 L19461,21906 L19461,21952 L19440,21972 L19403,21989 L19220,22014 L19195,22031 L19178,22051 L19170,22105 L19461,22105 M19531,21956 L19531,22014 L19552,22055 L19569,22076 L19606,22101 L19644,22105 L19702,22105 L19735,22101 L19769,22076 L19789,22051 L19806,22014 L19806,21952 L19785,21914 L19764,21889 L19727,21868 L19694,21856 L19635,21856 L19602,21868 L19565,21889 L19552,21910 L19531,21956 M19885,21906 L19902,21881 L19939,21864 L19985,21856 L20068,21856 L20114,21864 L20147,21881 L20168,21906 L20168,21952 L20147,21972 L20114,21989 L19927,22014 L19902,22031 L19885,22051 L19877,22105 L20168,22105 M12866,24800 L12866,24550 L13078,24550 L13119,24555 L13144,24571 L13157,24596 L13157,24642 L13144,24667 L13124,24684 L13082,24688 L12866,24688 M13082,24688 L13124,24696 L13149,24713 L13157,24738 L13157,24800 M13228,24675 L13519,24675 M13593,24646 L13593,24704 L13610,24746 L13631,24771 L13664,24792 L13702,24800 L13760,24800 L13793,24792 L13830,24771 L13847,24746 L13864,24704 L13864,24642 L13847,24605 L13826,24580 L13789,24559 L13751,24550 L13697,24550 L13660,24559 L13627,24584 L13610,24605 L13593,24646 M13934,24646 L13934,24704 L13955,24746 L13972,24771 L14009,24792 L14047,24800 L14105,24800 L14138,24792 L14176,24771 L14192,24746 L14209,24704 L14209,24642 L14192,24605 L14171,24580 L14130,24559 L14097,24550 L14043,24550 L14005,24559 L13972,24584 L13955,24605 L13934,24646 M14562,24575 L14537,24559 L14483,24550 L14367,24550 L14325,24559 L14296,24575 L14280,24613 L14280,24738 L14300,24779 L14325,24792 L14371,24800 L14471,24800 L14525,24792 L14550,24775 L14571,24754 L14571,24700 L14554,24675 L14525,24659 L14475,24650 L14367,24650 L14325,24659 L14296,24675 L14280,24700 M11710,22866 L11710,22617 L11922,22617 L11968,22625 L11993,22642 L12001,22667 L12001,22713 L11993,22733 L11968,22750 L11926,22758 L11714,22758 M11926,22758 L11968,22767 L11993,22779 L12001,22804 L12001,22866 M12076,22742 L12367,22742 M12446,22667 L12462,22642 L12496,22625 L12546,22617 L12625,22617 L12674,22625 L12708,22642 L12729,22667 L12729,22708 L12708,22733 L12674,22750 L12487,22775 L12462,22792 L12446,22812 L12437,22866 L12729,22866 M12799,22713 L12799,22775 L12820,22816 L12837,22837 L12874,22862 L12911,22866 L12970,22866 L13003,22858 L13040,22837 L13057,22812 L13074,22775 L13074,22713 L13057,22671 L13036,22650 L12995,22625 L12961,22617 L12907,22617 L12870,22629 L12837,22650 L12820,22671 L12799,22713 M13144,22713 L13257,22617 L13257,22866 M13144,22866 L13331,22866 M11681,19864 L11681,19615 L11893,19615 L11934,19623 L11959,19640 L11972,19664 L11972,19710 L11959,19731 L11938,19748 L11897,19756 L11681,19756 M11897,19756 L11938,19760 L11963,19777 L11972,19802 L11972,19864 M12042,19739 L12333,19739 M12662,19864 L12662,19615 L12408,19802 L12695,19802 M12770,19710 L12770,19773 L12787,19814 L12808,19835 L12841,19860 L12878,19864 L12936,19864 L12970,19856 L13007,19835 L13024,19810 L13040,19773 L13040,19710 L13024,19669 L13003,19648 L12966,19623 L12928,19615 L12874,19615 L12837,19627 L12803,19648 L12787,19669 L12770,19710 M13111,19710 L13223,19615 L13223,19864 M13111,19864 L13298,19864 M14496,19057 L14496,18808 L14708,18808 L14749,18816 L14774,18833 L14787,18858 L14787,18904 L14774,18924 L14749,18941 L14708,18949 L14496,18949 M14708,18949 L14749,18958 L14779,18970 L14787,18995 L14787,19057 M14858,18933 L15149,18933 M15477,19057 L15477,18808 L15219,18995 L15510,18995 M15581,18904 L15581,18966 L15602,19007 L15619,19028 L15656,19053 L15693,19057 L15752,19057 L15781,19053 L15818,19028 L15839,19003 L15856,18966 L15856,18904 L15835,18866 L15814,18841 L15777,18820 L15743,18808 L15685,18808 L15652,18820 L15614,18841 L15602,18862 L15581,18904 M15935,18858 L15951,18833 L15989,18816 L16034,18808 L16118,18808 L16163,18816 L16197,18833 L16217,18858 L16217,18904 L16197,18924 L16163,18941 L15976,18966 L15951,18983 L15935,19003 L15926,19057 L16217,19057 M20155,28152 L20155,27902 L20367,27902 L20409,27910 L20434,27927 L20446,27952 L20446,27998 L20434,28018 L20409,28035 L20371,28043 L20155,28043 M20371,28043 L20409,28052 L20438,28068 L20446,28089 L20446,28152 M20517,28027 L20808,28027 M20887,27952 L20904,27927 L20941,27910 L20987,27902 L21070,27902 L21116,27910 L21149,27927 L21170,27952 L21170,27998 L21149,28018 L21116,28035 L20933,28060 L20904,28077 L20891,28097 L20879,28152 L21170,28152 M21245,28002 L21245,28060 L21261,28102 L21282,28122 L21315,28147 L21353,28152 L21415,28152 L21444,28147 L21482,28122 L21503,28097 L21515,28060 L21515,27998 L21498,27960 L21478,27935 L21440,27915 L21403,27902 L21349,27902 L21315,27915 L21278,27935 L21266,27956 L21245,28002 M21598,27935 L21631,27915 L21669,27902 L21785,27902 L21835,27910 L21860,27927 L21873,27952 L21873,27973 L21860,27998 L21835,28010 L21785,28018 L21690,28018 M21785,28018 L21844,28031 L21873,28043 L21881,28068 L21881,28110 L21868,28131 L21844,28147 L21781,28152 L21681,28152 L21627,28147 L21590,28122 M21394,20446 L21394,20197 L21602,20197 L21648,20205 L21673,20222 L21685,20247 L21685,20292 L21673,20313 L21648,20330 L21606,20338 L21394,20338 M21606,20338 L21648,20346 L21673,20359 L21685,20384 L21685,20446 M21756,20321 L22047,20321 M22118,20292 L22230,20197 L22230,20446 M22118,20446 L22305,20446 M22376,20292 L22376,20355 L22392,20396 L22413,20417 L22451,20442 L22484,20446 L22546,20446 L22575,20442 L22613,20417 L22634,20392 L22646,20355 L22646,20292 L22629,20255 L22609,20230 L22571,20209 L22534,20197 L22480,20197 L22446,20209 L22409,20230 L22397,20251 L22376,20292 M22721,20292 L22833,20197 L22833,20446 M22721,20446 L22904,20446 M21573,19049 L21573,18800 L21785,18800 L21827,18808 L21852,18825 L21864,18849 L21864,18895 L21852,18916 L21827,18933 L21789,18941 L21573,18941 M21789,18941 L21827,18949 L21856,18966 L21864,18991 L21864,19049 M21935,18928 L22226,18928 M22301,18895 L22409,18800 L22409,19049 M22301,19049 L22484,19049 M22555,18899 L22555,18958 L22575,18999 L22592,19020 L22629,19045 L22667,19049 L22725,19049 L22758,19045 L22792,19020 L22812,18999 L22829,18958 L22829,18895 L22808,18858 L22787,18833 L22750,18812 L22717,18800 L22659,18800 L22625,18812 L22592,18833 L22575,18854 L22555,18899 M22908,18849 L22925,18825 L22962,18808 L23008,18800 L23091,18800 L23137,18808 L23170,18825 L23191,18849 L23191,18895 L23170,18916 L23137,18937 L22954,18958 L22925,18974 L22908,18999 L22900,19049 L23191,19049 M28775,24151 L28775,23902 L28987,23902 L29033,23910 L29058,23927 L29066,23952 L29066,23997 L29058,24018 L29033,24035 L28992,24043 L28780,24043 M28992,24043 L29033,24051 L29058,24064 L29066,24089 L29066,24151 M29141,24027 L29432,24027 M29503,23997 L29503,24060 L29524,24101 L29541,24122 L29578,24147 L29615,24151 L29674,24151 L29703,24147 L29740,24122 L29761,24097 L29778,24060 L29778,23997 L29757,23960 L29736,23935 L29699,23914 L29661,23902 L29607,23902 L29574,23914 L29536,23935 L29524,23956 L29503,23997 M29848,23997 L29848,24060 L29865,24101 L29886,24122 L29923,24147 L29960,24151 L30019,24151 L30048,24147 L30085,24122 L30106,24097 L30119,24060 L30119,23997 L30102,23960 L30081,23935 L30044,23914 L30006,23902 L29952,23902 L29919,23914 L29881,23935 L29869,23956 L29848,23997 M30193,23997 L30306,23902 L30306,24151 M30193,24151 L30376,24151 " style="stroke:#080808; fill:None;"/>
<path d="M13514,23378 L13627,23282 L13627,23532 M13514,23532 L13702,23532 M14072,23532 L14072,23282 L13814,23469 L14105,23469 M14217,23532 L14246,23532 L14246,23515 L14217,23515 L14217,23532 M14363,23378 L14363,23440 L14379,23482 L14400,23503 L14433,23528 L14471,23532 L14529,23532 L14562,23528 L14600,23503 L14616,23478 L14633,23440 L14633,23378 L14616,23340 L14596,23315 L14558,23295 L14521,23282 L14467,23282 L14429,23295 L14396,23315 L14379,23336 L14363,23378 M14754,23332 L14774,23307 L14808,23291 L14853,23282 L14937,23282 L14982,23291 L15020,23307 L15041,23332 L15041,23378 L15020,23399 L14982,23415 L14799,23440 L14774,23457 L14758,23478 L14749,23532 L15041,23532 M38539,23985 L38572,23964 L38610,23952 L38726,23952 L38776,23964 L38801,23977 L38809,24006 L38809,24027 L38801,24047 L38776,24064 L38726,24072 L38631,24072 M38726,24072 L38784,24081 L38809,24097 L38822,24118 L38822,24160 L38809,24180 L38784,24197 L38722,24201 L38622,24201 L38568,24197 L38531,24172 M38934,24164 L38942,24180 L38972,24197 L39017,24201 L39142,24201 L39192,24197 L39217,24180 L39225,24147 L39225,24093 L39217,24060 L39192,24047 L39142,24039 L39013,24039 L38972,24047 L38934,24081 L38934,23952 L39217,23952 M39620,23977 L39595,23964 L39545,23952 L39429,23952 L39383,23964 L39358,23977 L39342,24018 L39342,24143 L39358,24180 L39383,24197 L39433,24201 L39533,24201 L39587,24197 L39612,24180 L39633,24160 L39633,24101 L39612,24081 L39587,24064 L39537,24056 L39429,24056 L39383,24064 L39354,24081 L39342,24101 M39749,24201 L39774,24201 L39774,24189 L39749,24189 L39749,24201 M39899,23985 L39932,23964 L39970,23952 L40086,23952 L40136,23964 L40161,23977 L40173,24006 L40173,24027 L40161,24047 L40136,24064 L40086,24072 L39990,24072 M40086,24072 L40144,24081 L40173,24097 L40182,24118 L40182,24160 L40169,24180 L40144,24197 L40082,24201 L39986,24201 L39928,24197 L39890,24172 M40302,24002 L40323,23977 L40356,23960 L40402,23952 L40485,23952 L40531,23964 L40568,23977 L40589,24002 L40589,24047 L40568,24068 L40531,24089 L40348,24110 L40319,24126 L40306,24151 L40298,24201 L40589,24201 M12928,25320 L12949,25295 L12982,25278 L13028,25270 L13111,25270 L13157,25282 L13194,25295 L13215,25320 L13215,25365 L13194,25386 L13157,25407 L12974,25428 L12945,25444 L12932,25469 L12924,25519 L13215,25519 M13327,25365 L13440,25270 L13440,25519 M13327,25519 L13514,25519 M13627,25519 L13656,25519 L13656,25507 L13627,25507 L13627,25519 M13776,25320 L13793,25295 L13830,25278 L13876,25270 L13959,25270 L14005,25282 L14038,25295 L14059,25320 L14059,25365 L14038,25386 L14005,25407 L13822,25428 L13793,25444 L13781,25469 L13768,25519 L14059,25519 M14433,25519 L14433,25270 L14176,25461 L14467,25461 M14571,20043 L14683,19947 L14683,20197 M14571,20197 L14754,20197 M14957,20064 L14907,20076 L14878,20089 L14870,20114 L14870,20151 L14878,20176 L14907,20188 L14962,20197 L15061,20197 L15124,20188 L15149,20176 L15157,20151 L15157,20114 L15149,20089 L15124,20076 L15070,20064 L14957,20064 L14916,20055 L14887,20043 L14878,20018 L14878,19997 L14887,19972 L14912,19956 L14957,19947 L15070,19947 L15111,19956 L15145,19972 L15149,19997 L15149,20018 L15140,20043 L15115,20055 L15070,20064 M15273,20197 L15303,20197 L15303,20180 L15273,20180 L15273,20197 M15502,20064 L15452,20076 L15423,20089 L15415,20114 L15415,20151 L15423,20176 L15452,20188 L15506,20197 L15606,20197 L15668,20188 L15693,20176 L15702,20151 L15702,20114 L15693,20089 L15668,20076 L15614,20064 L15502,20064 L15461,20055 L15431,20043 L15423,20018 L15423,19997 L15431,19972 L15461,19956 L15502,19947 L15614,19947 L15656,19956 L15689,19972 L15693,19997 L15693,20018 L15685,20043 L15660,20055 L15614,20064 M16076,20197 L16076,19947 L15818,20134 L16109,20134 M43720,14500 L43695,14483 L43645,14475 L43529,14475 L43483,14483 L43458,14500 L43442,14541 L43442,14662 L43458,14704 L43483,14716 L43533,14724 L43633,14724 L43687,14716 L43712,14700 L43733,14679 L43733,14625 L43712,14600 L43687,14583 L43637,14575 L43529,14575 L43483,14583 L43458,14604 L43442,14625 M43849,14724 L43874,14724 L43874,14708 L43849,14708 L43849,14724 M43999,14508 L44032,14483 L44070,14475 L44186,14475 L44236,14483 L44261,14500 L44273,14525 L44273,14546 L44261,14571 L44236,14583 L44186,14591 L44090,14591 M44186,14591 L44244,14600 L44273,14616 L44282,14641 L44282,14679 L44269,14704 L44244,14716 L44182,14724 L44086,14724 L44028,14716 L43991,14695 M44402,14704 L44427,14716 L44473,14724 L44589,14724 L44639,14720 L44664,14704 L44685,14662 L44685,14541 L44664,14500 L44643,14487 L44589,14475 L44485,14475 L44440,14487 L44415,14500 L44398,14525 L44398,14579 L44415,14604 L44440,14616 L44490,14625 L44589,14625 L44639,14616 L44664,14604 L44685,14575 " style="stroke:#FF0000; fill:None;"/>
<path d="M42897,13652 L42897,13402 L43109,13402 L43155,13410 L43180,13427 L43188,13452 L43188,13498 L43180,13519 L43155,13535 L43113,13544 L42901,13544 M43113,13544 L43155,13548 L43180,13564 L43188,13589 L43188,13652 M43263,13527 L43554,13527 M43633,13452 L43650,13427 L43683,13410 L43733,13402 L43816,13402 L43862,13410 L43895,13423 L43916,13452 L43916,13494 L43895,13519 L43862,13535 L43675,13560 L43650,13577 L43633,13598 L43625,13652 L43916,13652 M43986,13498 L43986,13560 L44007,13602 L44024,13623 L44061,13647 L44099,13652 L44157,13652 L44190,13643 L44228,13623 L44244,13598 L44261,13560 L44261,13498 L44244,13456 L44223,13435 L44182,13410 L44149,13402 L44095,13402 L44057,13415 L44024,13435 L44007,13456 L43986,13498 M44614,13427 L44589,13410 L44535,13402 L44419,13402 L44377,13410 L44348,13427 L44332,13469 L44332,13589 L44348,13631 L44377,13643 L44423,13652 L44523,13652 L44577,13643 L44602,13627 L44623,13606 L44623,13552 L44602,13527 L44577,13510 L44527,13502 L44419,13502 L44377,13510 L44348,13531 L44332,13552 M44623,16978 L44623,16729 L44835,16729 L44876,16737 L44901,16754 L44914,16779 L44914,16824 L44901,16845 L44876,16862 L44839,16870 L44623,16870 M44839,16870 L44876,16878 L44905,16895 L44914,16920 L44914,16978 M44984,16858 L45275,16858 M45354,16779 L45371,16754 L45409,16737 L45454,16729 L45537,16729 L45583,16737 L45616,16754 L45637,16779 L45637,16824 L45616,16845 L45583,16866 L45400,16887 L45371,16903 L45359,16928 L45346,16978 L45637,16978 M45712,16829 L45712,16887 L45729,16928 L45750,16949 L45783,16974 L45820,16978 L45883,16978 L45912,16974 L45949,16949 L45970,16928 L45982,16887 L45982,16824 L45966,16787 L45945,16762 L45908,16741 L45870,16729 L45816,16729 L45783,16741 L45745,16762 L45733,16783 L45712,16829 M46057,16941 L46066,16957 L46091,16970 L46136,16978 L46261,16978 L46311,16970 L46336,16957 L46348,16924 L46348,16870 L46336,16837 L46311,16824 L46261,16816 L46136,16816 L46095,16824 L46057,16858 L46057,16729 L46336,16729 M51471,21365 L51471,21116 L51683,21116 L51729,21124 L51750,21141 L51762,21166 L51762,21211 L51750,21232 L51729,21249 L51688,21257 L51471,21257 M51688,21257 L51729,21261 L51754,21278 L51762,21303 L51762,21365 M51837,21240 L52124,21240 M52207,21166 L52224,21141 L52257,21124 L52307,21116 L52386,21116 L52432,21124 L52469,21137 L52490,21166 L52490,21207 L52469,21232 L52432,21249 L52249,21274 L52224,21290 L52207,21311 L52199,21365 L52490,21365 M52561,21211 L52561,21274 L52582,21315 L52598,21336 L52636,21361 L52673,21365 L52731,21365 L52765,21357 L52798,21336 L52819,21311 L52835,21274 L52835,21211 L52814,21170 L52794,21149 L52756,21124 L52723,21116 L52665,21116 L52632,21128 L52598,21149 L52582,21170 L52561,21211 M52906,21116 L53197,21116 L52981,21365 " style="stroke:#080808; fill:None;"/>
<path d="M51629,21573 L51646,21548 L51683,21536 L51729,21527 L51812,21527 L51858,21536 L51891,21548 L51912,21573 L51912,21619 L51891,21644 L51858,21660 L51675,21681 L51646,21698 L51629,21723 L51621,21777 L51912,21777 M52029,21777 L52053,21777 L52053,21760 L52029,21760 L52029,21777 M52170,21623 L52282,21527 L52282,21777 M52170,21777 L52353,21777 M52478,21557 L52515,21536 L52548,21527 L52669,21527 L52715,21536 L52740,21548 L52752,21577 L52752,21598 L52740,21619 L52715,21636 L52665,21644 L52569,21644 M52665,21644 L52723,21652 L52752,21669 L52760,21690 L52760,21731 L52748,21756 L52723,21769 L52661,21777 L52565,21777 L52507,21769 L52469,21744 " style="stroke:#FF0000; fill:None;"/>
<path d="M51430,21877 L51430,21943 M51401,21877 L51401,21939 M51388,21881 L51388,21939 " style="stroke:#080808; fill:None;"/>
<path d="M43724,15165 L44689,14716 " style="stroke:#2E8B57; fill:None;"/>
<path d="M45205,15822 L43629,12429 M42664,12878 L44240,16271 " style="stroke:#080808; fill:None;"/>
<path d="M44261,10716 L44789,11847 M44223,10733 L44261,10716 M42635,10371 L43803,9826 M34036,14371 L42635,10371 M42107,9240 L43275,8695 M41995,9294 L42107,9240 M42502,10088 L43670,9543 M42369,9805 L43537,9260 M42240,9522 L43408,8978 M42107,9240 L42635,10371 M41995,9294 L42519,10425 M43275,8695 L43803,9826 M34913,14284 L35088,14662 M34036,14371 L34460,15273 M41579,10861 L42523,12899 M43803,9826 L44223,10733 " style="stroke:#2E8B57; fill:None;"/>
<path d="M44153,17718 L44186,17718 M43841,16945 L43808,16962 " style="stroke:#A0522D; fill:None;"/>
<path d="M43841,16945 L43824,16916 M44203,16741 L44215,16770 M43824,16916 L44203,16741 M43841,16945 L44215,16770 " style="stroke:#87CEFA; fill:None;"/>
<path d="M45205,15822 L44240,16271 M45101,15598 L44136,16047 M44997,15373 L44032,15822 M44893,15144 L43924,15594 M44785,14920 L43820,15369 M44681,14691 L43716,15140 M44577,14467 L43608,14916 M44469,14242 L43504,14691 M44365,14013 L43400,14462 M44261,13789 L43296,14238 M44153,13560 L43188,14009 M44049,13336 L43084,13785 M43945,13111 L42980,13560 M43837,12882 L42872,13331 M43733,12658 L42768,13107 M43629,12429 L42664,12878 " style="stroke:#080808; fill:None;"/>
<path d="M44423,13161 L44897,12941 M43733,12338 L44710,11880 " style="stroke:#2E8B57; fill:None;"/>
<path d="M44756,11859 L44789,11847 M42523,12899 L42556,12882 M42044,11785 L42556,12882 M44244,10757 L44756,11859 M44261,10716 L44789,11847 M41999,11768 L42523,12899 " style="stroke:#87CEFA; fill:None;"/>
<path d="M42643,12841 L42523,12899 M44236,16579 L44144,16621 M44236,16579 L42523,12899 M44789,11847 L44710,11880 " style="stroke:#2E8B57; fill:None;"/>
<path d="M43612,12392 L43733,12338 " style="stroke:#A0522D; fill:None;"/>
<path d="M46706,15623 L46544,15623 M46548,15618 L44789,11847 M46490,15706 L44710,11880 " style="stroke:#2E8B57; fill:None;"/>
<path d="M45513,16167 L43733,12338 M45392,16226 L43612,12392 " style="stroke:#A0522D; fill:None;"/>
<path d="M44215,16770 L44144,16621 M44427,16675 L42643,12841 M44427,16675 L44215,16770 " style="stroke:#2E8B57; fill:None;"/>
<path d="M45513,16167 L45392,16226 " style="stroke:#A0522D; fill:None;"/>
<path d="M43841,16945 L43541,17086 M43770,16795 L43471,16933 M43841,16945 L43770,16795 M46706,15706 L46490,15706 " style="stroke:#2E8B57; fill:None;"/>
<path d="M44153,17718 L43808,16962 M44186,17718 L43841,16945 M52623,25104 L52623,25137 M52881,26817 L52906,26817 M52881,26783 L52906,26783 M52910,26779 L52906,26817 " style="stroke:#A0522D; fill:None;"/>
<path d="M23756,22359 L23756,22384 M44219,12109 L46003,15939 M46490,15706 L45513,16167 " style="stroke:#2E8B57; fill:None;"/>
<path d="M21303,20737 L21303,20687 M23756,20737 L21303,20737 M23756,17910 L23756,20737 M23607,17910 L23756,17910 M22417,17910 L22484,17910 M11618,18966 L11618,19116 " style="stroke:#A0522D; fill:None;"/>
<path d="M44161,10762 L44223,10733 M34460,15273 L43392,11119 " style="stroke:#2E8B57; fill:None;"/>
<path d="M42044,11785 L43338,11182 M44161,10762 L44261,10716 M41999,11768 L43392,11119 " style="stroke:#87CEFA; fill:None;"/>
<path d="M43770,9976 L43774,9976 M43741,10017 L43778,10001 M44065,10724 L44107,10703 M44244,10757 L44240,10753 M44174,10782 L44240,10753 M44132,10812 L44244,10757 M44119,10787 L44132,10782 M44136,10720 L44140,10716 M44111,10733 L44136,10724 M43383,11073 L43404,11061 M44174,10782 L44140,10716 M44169,10795 L44136,10720 M44132,10782 L44111,10733 M44132,10812 L44119,10787 M43454,11128 L43442,11103 M43429,11111 L43404,11061 M43429,11111 L43442,11103 M43371,11073 L43379,11069 M43404,11140 L43371,11073 M43338,11173 L43404,11140 M43342,11182 L43338,11173 M43417,11144 L43379,11069 M43342,11182 L43454,11128 M43778,10001 L43770,9976 M44065,10724 L43741,10017 M44111,10716 L44107,10703 M44115,10712 L43774,9976 M51401,21910 L51430,21910 M51430,22093 L51430,21910 M51401,22093 L51401,21910 M51713,20945 L51700,20945 M51713,20962 L51713,20945 M51700,20945 L51700,20933 M52157,21881 L52157,21897 M52170,21897 L52170,21910 M52170,21897 L52157,21897 M52157,21881 L51475,21881 M51480,21877 L51475,21897 M51463,21897 L51463,21910 M51475,21897 L51463,21897 M52170,21910 L51463,21910 M51463,21906 L51446,21906 M51446,21885 L51446,21943 M51713,20962 L51475,20962 M51480,20958 L51475,20945 M51463,20945 L51463,20933 M51475,20945 L51463,20945 M51700,20933 L51463,20933 M51463,20941 L51446,20941 M51430,20933 L51401,20933 M51401,20962 L51388,20962 M51401,20904 L51388,20904 M51430,20966 L51401,20966 M51446,20904 L51430,20904 M51446,20958 L51430,20958 M51446,20958 L51446,20904 M51430,20966 L51430,20904 M51401,20966 L51401,20904 M51388,20962 L51388,20904 M51430,21910 L51401,21910 M51401,21881 L51388,21881 M51401,21939 L51388,21939 M51430,21877 L51401,21877 M51446,21943 L51430,21943 M51446,21885 L51430,21885 " style="stroke:#080808; fill:None;"/>
<path d="M47122,11988 L46831,11988 M47122,14151 L46831,14151 M47122,14425 L47122,14151 M46831,14151 L46831,14425 M47122,14425 L46831,14425 M47122,14625 L46831,14625 M47122,14899 L47122,14625 M46831,14625 L46831,14899 M47122,14899 L46831,14899 " style="stroke:#A0522D; fill:None;"/>
<path d="M46831,9078 L46831,8803 M47122,8603 L46831,8603 M47122,8803 L46831,8803 M47122,8803 L47122,8603 M46831,9078 L46706,9078 M46831,11514 L46831,11240 M46831,11988 L46831,11714 M47122,11514 L46831,11514 M47122,11714 L46831,11714 M47122,11714 L47122,11514 M46706,11988 L46706,11240 M46831,11240 L46706,11240 M46831,11988 L46706,11988 M46831,14425 L46831,14151 M46831,14899 L46831,14625 M47122,14425 L46831,14425 M47122,14625 L46831,14625 M47122,14625 L47122,14425 M46706,14899 L46706,14151 M46831,14151 L46706,14151 M46831,14899 L46706,14899 M47122,17519 L47122,17311 M52844,17519 L52844,17311 M46831,17311 L46831,17061 M46706,17727 L46706,17061 M47122,17519 L52844,17519 M47205,17727 L46706,17727 M52677,17727 L53259,17727 M53259,17560 L53259,17311 M52844,17311 L53259,17311 M53259,17727 L53259,17311 M47122,17311 L46831,17311 " style="stroke:#2E8B57; fill:None;"/>
<path d="M19744,17535 L19760,17535 " style="stroke:#A0522D; fill:None;"/>
<path d="M19744,17036 L19328,17036 M19744,17535 L19744,17036 M23569,17535 L19744,17535 M23569,17036 L23569,17535 M23844,17036 L23569,17036 M23844,16912 L23844,17036 M23968,16912 L23844,16912 M23968,17743 L23968,16912 M19328,17743 L23968,17743 M19328,17036 L19328,17743 M11277,17743 L11277,16912 M17831,17743 L11277,17743 M17831,17036 L17831,17743 M17415,17036 L17831,17036 M17415,17535 L17415,17036 M11676,17535 L17415,17535 M11676,17036 L11676,17535 M11402,17036 L11676,17036 M11402,16912 L11402,17036 M11277,16912 L11402,16912 M42693,8969 L42880,9202 M42747,9265 L42693,8969 M34248,14824 L34913,14284 M35088,14662 L34248,14824 " style="stroke:#2E8B57; fill:None;"/>
<path d="M44722,16047 L44535,15814 M44668,15756 L44722,16047 " style="stroke:#080808; fill:None;"/>
<path d="M44219,12109 L44897,12941 M44423,13161 L44219,12109 " style="stroke:#2E8B57; fill:None;"/>
<path d="M51401,20933 L51401,20904 M51430,20933 L51401,20933 M51430,20904 L51430,20933 M51401,20904 L51430,20904 " style="stroke:#080808; fill:None;"/>
<path d="M42693,8969 L43217,10100 M34248,14824 L41787,11315 " style="stroke:#2E8B57; fill:None;"/>
<path d="M44722,16047 L43146,12654 M21078,26126 L21369,26056 M21369,26201 L21078,26126 M43404,11061 L43400,11049 M43350,10907 L43346,10891 M43329,10741 L43329,10728 L43329,10724 M43342,10574 L43346,10558 M43388,10416 L43392,10400 M43467,10271 L43475,10258 M43575,10142 L43587,10134 M43704,10042 L43720,10034 M44124,10708 L44132,10716 L44132,10720 M51475,21203 L51492,21203 M51642,21232 L51654,21236 M51792,21299 L51808,21307 M51925,21398 L51937,21411 M52029,21527 L52037,21540 M52099,21677 L52108,21694 M52137,21839 L52137,21856 M51729,20916 L51729,20933 M51688,21074 L51679,21091 M51563,21178 L51546,21182 M51455,21897 L51463,21906 L51455,21910 M51455,20933 L51463,20941 L51455,20945 " style="stroke:#080808; fill:None;"/>
<path d="M22609,26497 L22634,26513 L22679,26517 L22792,26517 L22846,26513 L22871,26497 L22891,26459 L22891,26334 L22871,26297 L22850,26280 L22796,26268 L22692,26268 L22646,26280 L22617,26297 L22600,26318 L22600,26372 L22621,26397 L22646,26409 L22692,26418 L22796,26418 L22846,26409 L22871,26397 L22891,26372 M23004,26517 L23033,26517 L23033,26505 L23004,26505 L23004,26517 M23145,26368 L23145,26426 L23166,26467 L23182,26488 L23220,26513 L23257,26517 L23316,26517 L23349,26513 L23386,26488 L23403,26463 L23420,26426 L23420,26363 L23403,26326 L23382,26301 L23340,26280 L23307,26268 L23253,26268 L23216,26280 L23182,26301 L23166,26322 L23145,26368 M23536,26363 L23644,26268 L23644,26517 M23536,26517 L23719,26517 M21789,23686 L21798,23702 L21827,23719 L21873,23727 L21997,23727 L22047,23719 L22072,23702 L22081,23669 L22081,23619 L22072,23586 L22043,23569 L21997,23561 L21868,23561 L21827,23573 L21789,23602 L21789,23478 L22072,23478 M22197,23727 L22222,23727 L22222,23710 L22197,23710 L22197,23727 M22347,23507 L22380,23486 L22417,23478 L22534,23478 L22584,23486 L22609,23498 L22621,23528 L22621,23548 L22609,23569 L22584,23586 L22534,23594 L22438,23594 M22534,23594 L22592,23602 L22621,23619 L22629,23640 L22629,23681 L22617,23702 L22592,23719 L22530,23727 L22434,23727 L22376,23719 L22338,23694 M22746,23573 L22746,23631 L22762,23673 L22783,23698 L22817,23719 L22854,23727 L22912,23727 L22945,23719 L22983,23698 L23000,23673 L23016,23631 L23016,23569 L23000,23532 L22979,23507 L22941,23486 L22904,23478 L22850,23478 L22812,23486 L22779,23511 L22762,23532 L22746,23573 " style="stroke:#FF0000; fill:None;"/>
<path d="M21615,23024 L21615,22775 L21823,22775 L21868,22783 L21893,22800 L21906,22825 L21906,22871 L21893,22891 L21868,22908 L21827,22916 L21615,22916 M21827,22916 L21868,22925 L21893,22941 L21906,22966 L21906,23024 M21977,22904 L22268,22904 M22347,22808 L22384,22787 L22417,22775 L22538,22775 L22584,22783 L22609,22800 L22621,22825 L22621,22846 L22609,22871 L22584,22887 L22534,22895 L22438,22895 M22534,22895 L22596,22904 L22621,22920 L22629,22941 L22629,22983 L22621,23004 L22596,23020 L22530,23024 L22434,23024 L22376,23020 L22338,22995 M22704,22875 L22704,22933 L22721,22974 L22742,22999 L22775,23020 L22812,23024 L22871,23024 L22904,23020 L22941,22995 L22958,22974 L22975,22933 L22975,22871 L22958,22833 L22937,22808 L22900,22787 L22862,22775 L22808,22775 L22771,22787 L22738,22812 L22721,22829 L22704,22875 M23049,22871 L23158,22775 L23158,23024 M23049,23024 L23232,23024 " style="stroke:#080808; fill:None;"/>
<path d="M45255,17423 L45271,17398 L45305,17382 L45354,17373 L45433,17373 L45479,17382 L45517,17398 L45537,17423 L45537,17465 L45517,17490 L45479,17506 L45296,17531 L45271,17548 L45255,17569 L45246,17623 L45537,17623 M45654,17469 L45762,17373 L45762,17623 M45654,17623 L45837,17623 M45953,17623 L45978,17623 L45978,17606 L45953,17606 L45953,17623 M46095,17469 L46095,17531 L46111,17573 L46132,17594 L46165,17619 L46203,17623 L46261,17623 L46294,17614 L46332,17594 L46348,17569 L46365,17531 L46365,17469 L46348,17431 L46328,17407 L46290,17382 L46253,17373 L46199,17373 L46161,17386 L46128,17407 L46111,17427 L46095,17469 M46481,17373 L46772,17373 L46556,17623 M18538,22995 L18829,22995 L18613,23245 M18945,23091 L19053,22995 L19053,23245 M18945,23245 L19128,23245 M19245,23245 L19270,23245 L19270,23228 L19245,23228 L19245,23245 M19386,23091 L19386,23153 L19403,23195 L19423,23216 L19457,23241 L19494,23245 L19556,23245 L19586,23236 L19623,23216 L19640,23191 L19656,23153 L19656,23091 L19640,23049 L19619,23029 L19581,23004 L19544,22995 L19490,22995 L19452,23008 L19419,23029 L19403,23049 L19386,23091 M19773,23091 L19773,23153 L19789,23195 L19810,23216 L19848,23241 L19885,23245 L19943,23245 L19972,23236 L20010,23216 L20030,23191 L20043,23153 L20043,23091 L20026,23049 L20006,23029 L19968,23004 L19931,22995 L19877,22995 L19843,23008 L19806,23029 L19793,23049 L19773,23091 " style="stroke:#FF0000; fill:None;"/>
<path d="M11331,26492 L11078,27195 M18787,29478 L18858,29283 M17452,28771 L11510,26609 M17382,28967 L11439,26804 " style="stroke:#2E8B57; fill:None;"/>
<path d="M46781,11240 L46831,11240 M46781,9078 L46781,11240 M46831,9078 L46781,9078 M46831,11240 L46831,9078 M46781,14151 L46831,14151 M46781,11988 L46781,14151 M46831,11988 L46781,11988 M46831,14151 L46831,11988 " style="stroke:#87CEFA; fill:None;"/>
<path d="M47122,11240 L46831,11240 M47122,9078 L47122,11240 M46831,9078 L47122,9078 M46831,11240 L46831,9078 M47122,14151 L46831,14151 M47122,11988 L47122,14151 M46831,11988 L47122,11988 M46831,14151 L46831,11988 M53259,17311 L52844,17311 " style="stroke:#A0522D; fill:None;"/>
<path d="M47205,17727 L52677,17727 M47205,17727 L46706,17727 " style="stroke:#2E8B57; fill:None;"/>
<path d="M47533,16255 L47533,16251 M47504,16259 L47504,16296 M47504,16259 L47533,16259 M46789,17061 L46706,17061 M46789,17053 L46748,17053 M46789,17061 L46789,17053 M46748,17053 L46748,16999 M46710,16987 L46710,16982 M46748,16999 L46710,16999 M46714,16995 L46710,16987 M46706,17061 L46706,16987 M46706,16309 L46706,16230 M46802,16296 L47504,16296 M46802,16259 L46802,16296 M46764,16259 L46802,16259 M46768,16255 L47533,16255 M46789,16230 L46706,16230 M46789,16238 L46748,16238 M46710,16309 L46710,16305 M46748,16292 L46710,16292 M46789,16238 L46789,16230 M46748,16292 L46748,16238 M46710,16309 L46710,16292 M53284,18421 L53305,18421 M53305,18463 L53326,18463 M53305,18463 L53305,18421 M53326,17739 L53326,18463 M53289,17739 L53326,17739 M53289,17702 L53289,17739 M53284,17706 L53284,18421 M53259,17727 L53259,17644 M53268,17727 L53268,17685 M53259,17727 L53268,17727 M53268,17685 L53322,17685 M53338,17648 L53338,17644 M53322,17685 L53322,17648 M53326,17644 L53338,17648 M53259,17644 L53338,17644 " style="stroke:#080808; fill:None;"/>
<path d="M46831,14899 L46831,16230 M46706,16230 L46706,14899 M46831,16230 L46706,16230 M46831,17061 L46706,17061 M46706,14899 L46831,14899 " style="stroke:#2E8B57; fill:None;"/>
<path d="M47122,8737 L47122,8670 M47122,14558 L47122,14492 M47122,8603 L46831,8603 M47122,8803 L46831,8803 M47122,9078 L47122,8803 M46831,8803 L46831,9078 M47122,9078 L46831,9078 M47122,11240 L46831,11240 M47122,11514 L47122,11240 M46831,11240 L46831,11514 M47122,11514 L46831,11514 M47122,11714 L46831,11714 M47122,11988 L47122,11714 M46831,11714 L46831,11988 " style="stroke:#A0522D; fill:None;"/>
<path d="M17864,18471 L17881,18471 M17814,17777 L17814,17743 M17872,17760 L17881,17760 M17872,17777 L17872,17760 M17864,18471 L17864,18484 M17864,17797 L17864,17810 M17881,17810 L17881,18471 M17864,17810 L17881,17810 M17852,17797 L17864,17797 M17852,17797 L17852,18484 M17852,17789 L17864,17789 M17856,17797 L17856,17777 M17814,17777 L17872,17777 M17814,17743 L17881,17743 M17881,17760 L17881,17743 M19311,18484 L19299,18484 M19299,18471 L19282,18471 M19344,17777 L19344,17743 M19286,17760 L19278,17760 M19286,17777 L19286,17760 M19299,18471 L19299,18484 M19299,17797 L19299,17810 M19282,17810 L19282,18471 M19299,17810 L19282,17810 M19311,17797 L19299,17797 M19311,17797 L19311,18484 M19311,17789 L19299,17789 M19303,17797 L19303,17777 M19344,17777 L19286,17777 M19344,17743 L19278,17743 M19278,17760 L19278,17743 M19095,28584 L19082,28580 M19078,28592 L19062,28588 M18870,29253 L18858,29283 M18825,29253 L18816,29249 M18829,29237 L18825,29253 M19078,28592 L19082,28580 M18845,29224 L18850,29212 M18837,29208 L19062,28588 M18850,29212 L18837,29208 M18858,29229 L18845,29224 M18858,29229 L19095,28584 M18854,29237 L18845,29233 M18854,29229 L18845,29245 M18870,29253 L18829,29237 M18858,29283 L18812,29266 M18816,29249 L18812,29266 M17718,28085 L17731,28089 M17727,28102 L17743,28106 M17461,28742 L17452,28771 M17494,28771 L17502,28775 M17502,28754 L17494,28771 M17727,28102 L17731,28089 M17498,28734 L17502,28721 M17519,28730 L17743,28106 M17502,28721 L17519,28730 M17486,28730 L17498,28734 M17486,28730 L17718,28085 M17486,28738 L17494,28742 M17494,28734 L17486,28750 M17461,28742 L17502,28754 M17452,28771 L17498,28788 M17502,28775 L17498,28788 " style="stroke:#080808; fill:None;"/>
<path d="M11078,27195 L11157,27224 " style="stroke:#87CEFA; fill:None;"/>
<path d="M17219,29162 L17298,29187 M18783,29728 L19099,29844 M18783,29728 L18708,29698 " style="stroke:#A0522D; fill:None;"/>
<path d="M17382,28967 L17452,28771 " style="stroke:#2E8B57; fill:None;"/>
<path d="M17382,28967 L17303,28937 " style="stroke:#A0522D; fill:None;"/>
<path d="M16829,29016 L16912,28800 M17219,29162 L16829,29016 M17303,28942 L17219,29162 M18708,29698 L18787,29478 M19099,29844 L18708,29698 M19178,29619 L19099,29844 M11527,26563 L11331,26492 M11439,26804 L11527,26563 M11552,27104 L11635,26875 M11356,27033 L11552,27104 M11273,27266 L11356,27033 M11078,27195 L11273,27266 M11618,25594 L11452,25594 M11618,24596 L11452,24596 " style="stroke:#2E8B57; fill:None;"/>
<path d="M11618,25594 L11618,25619 M11610,25594 L11618,25594 M11618,24596 L11610,24596 M11618,24571 L11618,24596 M12005,24596 L11993,24596 M12005,24592 L12005,24592 M11993,24596 L11993,24621 M11610,24629 L11610,24596 M11610,24629 L11610,24625 M11610,24617 L11610,24629 M11635,24617 L11610,24617 M11635,24571 L11635,24617 M11618,24571 L11635,24571 M11643,24592 L11643,24588 M11635,24592 L11647,24592 M11643,24592 L11643,24600 M12005,24592 L11647,24592 M11993,24621 L11660,24621 M11660,24596 L11647,24596 M11660,24596 L11660,24621 M11647,24592 L11647,24592 M11610,25561 L11610,25594 M11610,25561 L11610,25557 M11610,25573 L11610,25561 M11635,25573 L11610,25573 M11635,25619 L11635,25573 M11618,25619 L11635,25619 M11643,25598 L11643,25603 M11635,25598 L11647,25598 M11643,25598 L11643,25594 M11660,25594 L11647,25594 M11660,25594 L11660,25569 M11647,25598 L11647,25594 M12325,25594 L12338,25594 M11647,25598 L12338,25598 M11660,25569 L12325,25569 M12325,25594 L12325,25569 M12338,25598 L12338,25594 " style="stroke:#080808; fill:None;"/>
<path d="M11452,24596 L11452,23831 M11452,26538 L11452,25594 M11618,24596 L11618,23831 M11618,26472 L11618,25594 M23756,27598 L23756,26917 " style="stroke:#2E8B57; fill:None;"/>
<path d="M17852,18484 L17864,18484 " style="stroke:#080808; fill:None;"/>
<path d="M17128,28476 L17128,27969 M19344,17910 L21095,17910 M17095,27154 L17095,25170 M17128,27154 L17128,25170 M17095,28468 L17095,27969 " style="stroke:#A0522D; fill:None;"/>
<path d="M17943,27956 L17956,27956 M17165,27956 L17178,27956 M17956,27973 L17956,27956 M17943,27956 L17943,27939 M17178,27939 L17943,27939 M17178,27956 L17178,27939 M17165,27973 L17165,27956 M17165,27973 L17956,27973 M17157,27969 L17157,27956 M17165,27960 L17145,27960 M17128,27120 L17145,27120 M17095,27154 L17128,27154 M17128,27178 L17145,27178 M17095,27187 L17128,27187 M17078,27120 L17095,27120 M17078,27178 L17095,27178 M17078,27178 L17078,27120 M17095,27187 L17095,27120 M17128,27187 L17128,27120 M17145,27178 L17145,27120 M17095,28002 L17078,28002 M17128,27969 L17095,27969 M17095,27944 L17078,27944 M17128,27935 L17095,27935 M17145,28002 L17128,28002 M17145,27944 L17128,27944 M17145,27944 L17145,28002 M17128,27935 L17128,28002 M17095,27935 L17095,28002 M17078,27944 L17078,28002 " style="stroke:#080808; fill:None;"/>
<path d="M17128,27969 L17095,27969 " style="stroke:#A0522D; fill:None;"/>
<path d="M47504,16296 L47500,16313 M47459,16454 L47454,16471 M47384,16604 L47375,16616 M47276,16729 L47263,16741 M47147,16829 L47143,16833 L47130,16837 M46993,16895 L46976,16903 M46831,16933 L46827,16933 L46814,16933 M46664,16928 L46652,16924 M46756,16242 L46768,16251 L46764,16255 M17856,17781 L17864,17789 L17856,17793 M19303,17781 L19311,17789 L19303,17793 M18850,29229 L18854,29237 L18850,29241 M17490,28734 L17494,28742 L17490,28746 M11614,24950 L11631,24954 M11780,24970 L11797,24975 M11934,25025 L11951,25033 M12072,25120 L12084,25133 M12180,25249 L12188,25262 M12250,25395 L12254,25411 M12284,25561 L12284,25573 M11993,24621 L11993,24638 M11951,24779 L11943,24796 M11839,24900 L11826,24908 M11681,24954 L11668,24954 M23723,21598 L23706,21598 M23561,21569 L23544,21565 M23407,21498 L23395,21490 M23282,21394 L23270,21382 M23182,21257 L23178,21245 M23124,21103 L23120,21103 L23120,21087 M23070,22218 L23070,22201 M23091,22055 L23095,22039 M23158,21902 L23166,21889 M23257,21773 L23266,21764 L23270,21760 M23395,21677 L23407,21669 M23548,21615 L23565,21615 M23715,21598 L23723,21598 M11643,24588 L11647,24596 L11639,24600 M11643,25594 L11647,25598 L11639,25603 M21881,28505 L21898,28513 M22026,28584 L22039,28596 M22155,28692 L22155,28696 L22164,28705 M22251,28825 L22259,28842 M22322,28979 L22322,28983 L22326,28992 M22351,29141 L22355,29158 M22351,29308 L22351,29316 L22347,29324 M22422,28255 L22417,28272 M22334,28393 L22330,28397 L22322,28405 M22197,28488 L22189,28493 L22180,28497 M22035,28526 L22026,28530 L22018,28526 M20176,27860 L20189,27869 M20322,27939 L20334,27948 M20450,28043 L20459,28052 L20463,28056 M20554,28172 L20563,28189 M20629,28322 L20638,28334 M20671,28480 L20675,28497 M20679,28646 L20679,28663 M20654,28813 L20650,28825 M20721,27619 L20717,27632 M20638,27761 L20625,27769 M20500,27856 L20484,27860 M20338,27894 L20322,27890 M20176,27865 L20176,27860 M18118,28962 L18126,28946 M18201,28817 L18209,28804 M18309,28692 L18313,28688 L18321,28680 M18442,28592 L18459,28584 M18596,28526 L18604,28522 L18613,28522 M18758,28493 L18775,28493 M18924,28497 L18941,28497 M17727,28102 L17743,28106 M17876,28176 L17889,28189 M17997,28289 L18010,28301 M18093,28426 L18101,28438 M18147,28580 L18151,28596 M18163,28746 L18163,28754 L18159,28763 M18134,28908 L18130,28925 M18608,17856 L18608,17872 M18575,18018 L18567,18034 M18509,18172 L18504,18172 L18496,18184 M18405,18301 L18392,18313 M18280,18409 L18276,18413 L18267,18421 M18130,18484 L18118,18492 M17972,18529 L17964,18529 L17956,18529 M19299,18484 L19282,18479 M19132,18463 L19116,18459 M18978,18409 L18962,18400 M18841,18317 L18829,18305 M18729,18192 L18721,18176 M18650,18047 L18646,18030 M18613,17885 L18613,17868 M52636,21636 L52652,21636 M52798,21665 L52814,21669 M52948,21735 L52960,21744 M53076,21839 L53076,21843 L53085,21852 M53164,21981 L53172,21993 M53318,21003 L53318,21020 M53293,21170 L53289,21186 M53230,21319 L53222,21336 M53130,21453 L53122,21461 L53118,21465 M52997,21552 L52985,21561 M52844,21615 L52827,21619 M52681,21636 L52665,21636 M17128,27187 L17145,27187 M17294,27203 L17311,27208 M17452,27253 L17457,27253 L17469,27258 M17594,27337 L17610,27345 M17718,27449 L17723,27453 L17727,27461 M17810,27586 L17818,27603 M17872,27740 L17876,27748 L17881,27756 " style="stroke:#080808; fill:None;"/>
<path d="M16525,26596 L16542,26571 L16579,26555 L16625,26546 L16708,26546 L16754,26555 L16787,26571 L16808,26596 L16808,26642 L16787,26663 L16754,26680 L16571,26704 L16542,26721 L16525,26742 L16517,26796 L16808,26796 M16924,26796 L16949,26796 L16949,26779 L16924,26779 L16924,26796 M17070,26775 L17099,26792 L17140,26796 L17257,26796 L17311,26792 L17336,26775 L17353,26738 L17353,26613 L17336,26571 L17311,26559 L17261,26546 L17157,26546 L17107,26559 L17082,26571 L17066,26596 L17066,26650 L17082,26675 L17111,26688 L17157,26696 L17261,26696 L17311,26688 L17332,26675 L17353,26650 M17469,26642 L17469,26704 L17486,26746 L17506,26767 L17544,26792 L17577,26796 L17639,26796 L17669,26792 L17706,26767 L17727,26742 L17739,26704 L17739,26642 L17723,26605 L17702,26580 L17664,26559 L17627,26546 L17573,26546 L17540,26559 L17502,26580 L17490,26600 L17469,26642 " style="stroke:#FF0000; fill:None;"/>
<path d="M16604,25981 L16604,25731 L16816,25731 L16858,25740 L16883,25756 L16895,25781 L16895,25827 L16883,25848 L16858,25864 L16820,25873 L16604,25873 M16820,25873 L16858,25877 L16887,25894 L16895,25919 L16895,25981 M16966,25856 L17257,25856 M17585,25981 L17585,25731 L17332,25919 L17619,25919 M17689,25827 L17689,25889 L17710,25931 L17727,25952 L17764,25977 L17802,25981 L17860,25981 L17893,25973 L17926,25952 L17947,25927 L17964,25889 L17964,25827 L17947,25785 L17926,25765 L17885,25740 L17852,25731 L17793,25731 L17760,25744 L17727,25765 L17710,25785 L17689,25827 M18047,25765 L18080,25740 L18114,25731 L18234,25731 L18280,25740 L18305,25756 L18317,25781 L18317,25802 L18305,25827 L18280,25840 L18230,25848 L18134,25848 M18230,25848 L18292,25856 L18317,25873 L18326,25898 L18326,25935 L18317,25960 L18292,25973 L18230,25981 L18130,25981 L18072,25973 L18035,25952 " style="stroke:#080808; fill:None;"/>
</svg>
