<?xml version="1.0" encoding="UTF-8"?>
<svg
   xmlns="http://www.w3.org/2000/svg"
   xmlns:xlink="http://www.w3.org/1999/xlink"
   xmlns:sodipodi="http://sodipodi.sourceforge.net/DTD/sodipodi-0.dtd"
   xmlns:inkscape="http://www.inkscape.org/namespaces/inkscape"
   width="59.4mm"
   height="210mm"
   version="1.1">
  <title>CERN Central Library bookmark verso</title>
  <metadata xlink:href="metadata.xml"/>
  <g
     inkscape:label="Feedback"
     inkscape:groupmode="layer"
     id="layer1"
     transform="translate(0,-308.26769)"
     style="display:inline"
     sodipodi:insensitive="true">
    <text
       xml:space="preserve"
       style="font-size:14px;font-family:Verdana"
       x="8.812747"
       y="710.25452"
       id="text2825">Feedback</text>
    <text
       xml:space="preserve"
       style="font-size:9px;font-family:Verdana"
       x="9.7229052"
       y="722.98102"
       id="text2829"><tspan
         sodipodi:role="line"
         x="9.7229052"
         y="722.98102"
         id="tspan3373">Help us and the environment when</tspan><tspan
         sodipodi:role="line"
         x="9.7229052"
         y="731.98102"
         id="tspan3381">returning your book: share your thoughts</tspan><tspan
         id="tspan3287"
         sodipodi:role="line"
         x="9.7229052"
         y="740.98102">in the space below. We'll follow up at</tspan><tspan
         sodipodi:role="line"
         x="9.7229052"
         y="749.98102"
         id="tspan3415"
         style="fill:#0000cc;">library.cern.ch/feedback</tspan><tspan
         sodipodi:role="line"
         x="9.7229052"
         y="758.98102"
         id="tspan3417">and recycle the bookmark.</tspan></text>
  </g>
  <image xlink:href="CERN-logo.svg" x="130" y="320" height="71" width="71"/>
  <g
     inkscape:groupmode="layer"
     id="layer4"
     inkscape:label="Map"
     transform="translate(0,6.6406251e-6)"
     sodipodi:insensitive="true">
    <path
       id="path162122"
       style="fill:none;stroke:#000000;stroke-width:0.49960634;stroke-linecap:round;stroke-linejoin:round;"
       d="m 209.51398,76.355701 3e-4,6.739482 m -81.00058,18.765297 0.0308,6.07123 -0.61039,1e-4 0,7.32172 m 24.83382,-84.812905 1.64739,-0.762623 2.77616,-1.281508 5.30874,-1.189782 2.53284,0 -0.003,18.063654 -2.6221,0.759786 m -19.52525,-18.731728 5.27804,11.409985 M 0.96123145,51.003306 0.95845945,112.7521 M 142.88289,27.298424 l -0.85434,1.037348 m 24.95581,56.287746 0.9155,0 m -22.94216,-41.186104 2.53202,-1.799967 m -36.33536,41.582692 0,-8.054205 m -0.48832,8.054205 0,-8.054205 m 90.30432,-24.894679 0,6.528716 -0.91698,-1.73e-4 m 8.84912,-6.528543 -7.9319,0 m -0.91722,19.220037 0,-12.691494 M 20.483802,112.7521 l 102.447008,0 0,0.97865 M 0.95845918,112.7521 18.958134,112.7541 m 95.552006,-28.619295 0,0.488319 m 91.64505,-1.525671 3.35879,-0.0035 m -3.35879,0.125099 0,-0.122327 m 0,29.531945 0,-29.409653 m -24.64879,29.409653 24.64879,0 m -36.85197,0 12.20318,0 m -12.20318,1.10157 0,-1.10157 M 23.900716,45.906928 l 2.959181,0 m 25.169399,-6.131948 -2.25771,-4.271262 m 0.03056,-0.03056 -3.172766,0.03056 m -19.769499,10.40321 4.912017,-10.40321 m 16.840461,0 -16.840461,0 m 102.203542,0.0013 4.98797,9.350791 2.03168,0.01542 m -6.98898,-9.3968 -3.1732,0.03056 m -16.87104,4.271264 2.01355,-4.271264 m 15.43709,0 -15.43709,0 m 28.73877,35.511464 -3.7218,0 m 1.58638,13.606996 0,-13.606996 m 0,13.606996 -8.4215,-2.43e-4 m 6.83782,-39.751981 -0.003,26.145228 m 3.7218,-19.70792 0,19.70792 m -34.47413,12.081325 -2.68488,0 m 4.27127,0.122327 -1.58639,0 m 4.27084,-0.122327 -2.68445,0 m 0,0.122327 0,-0.122327 m -1.58639,0.122327 0,-0.122327 m -2.68488,1.525671 0,-1.525671 m 6.95572,1.525671 0,-1.525671 m 0,1.525671 -6.95572,0 m 4.88145,-9.457596 -3.0509,0 M 108.16501,39.776302 105.9073,35.50504 m 0.0305,-0.03056 -3.17277,0.03056 m 11.1964,4.271262 -5.79649,0 m 1.22036,0 0,35.389602 m 3.05089,-35.389602 0,35.389602 m -30.264421,7.93192 -2.684449,0 m 4.270833,0.122327 -1.586384,0 m 4.271265,-0.122327 -2.684881,0 m 0,0.122327 0,-0.122327 m -1.586384,0.122327 0,-0.122327 m -2.684449,1.525671 0,-1.525671 m 6.955714,1.525671 0,-1.525671 m 0,1.525671 -6.955714,0 m 4.881011,-9.457591 -3.050476,0 M 80.097038,39.776307 77.83933,35.505045 m 8.054212,4.271262 2.01354,-4.271262 m -10.067752,0 -3.142619,0 m 28.647469,0 -15.437098,0 m -2.01354,4.271262 -5.796504,0 m 1.220357,0 0,35.389602 m 3.050476,-35.389602 0,35.389602 m -30.264002,7.93192 -2.68488,0 m 4.271264,0.122327 -1.586384,0 m 4.271263,-0.122327 -2.684879,0 m 0,0.122327 0,-0.122327 m -1.586384,0.122327 0,-0.122327 m -2.68488,1.525671 0,-1.525671 m 6.956143,1.525671 0,-1.525671 m 0,1.525671 -6.956143,0 m 4.881444,-9.457591 -3.050902,0 m -1.220223,-35.389577 -2.25771,-4.271263 m 8.054208,4.271263 2.013558,-4.271263 m 16.840461,0 -16.840461,0 m -2.013558,4.271263 -5.796498,0 m 1.220362,0 0,35.389602 m 3.050902,-35.389602 0,35.389602 m 111.599588,-23.857322 -0.9155,0 m 0.0307,-0.03101 -0.0307,33.345921 m 0.9155,-33.314915 0,33.314915 m 31.85208,-14.217175 0,-0.915054 m -46.9843,-39.050669 -4.45429,-9.579444 m 14.09488,25.168971 0,3.142623 m 7.078,-22.881118 0,1.83054 -0.61022,-5e-6 0,16.779314 0.61023,0 0.001,1.708677 M 18.958052,109.5789 l 1.525668,0 m 0.03056,-0.0302 -0.03056,3.20583 m -1.525668,-3.17568 0,3.17568 m 123.009698,2.49895 23.06412,0 m -26.72515,0 3.66108,0 m 5.00332,-74.714576 0.54904,-0.24416 m -0.0307,1.342656 1.64753,-0.763049 m -7.10707,-12.539354 5.49018,11.959792 m -4.63729,-12.996367 6.25424,13.575974 m -2.16598,-0.335447 0.51845,1.098496 m 46.03696,8.633815 7.44388,0 m -33.07059,0 20.7457,0 m 0,-2.440722 -17.93896,0 m 17.93896,2.440722 0,-2.440722 m -20.7457,2.440722 0,1.03735 m -5.49162,0 5.49162,0 m 2.80674,-4.698432 -1.21897,0 m 1.21897,0 0,1.22036 m -8.29836,1.342225 0,2.135847 m -18.91517,-6.224098 1.83056,4.088251 m -0.36603,-5.735351 -1.46453,1.6471 m 1.22038,6.224098 4.27126,0 m 0,-2.135847 -3.66108,0 m 3.66108,0 0,2.135847 m 15.3153,63.94492 0.73203,0 m 0,-1.52524 4.27127,0.002 m -40.63706,-29.106735 -14.15602,-4.31e-4 m 50.52181,30.630406 0,-1.52524 m -37.83031,1.52524 0.73247,0 m -5.0033,-1.52278 4.27083,-0.002 m 0,1.52524 0,-1.52524 M 0.96116041,51.004034 l 20.62070759,0 m 0,0 2.380004,-5.125602 m 124.350328,-25.01627 -6.28228,7.472835 m 13.08711,7.139189 -6.80483,-14.612024 m 6.80483,14.612024 -6.95613,3.233914 m 6.16251,-4.881442 -6.9557,3.233912 m 6.19308,-4.911585 -6.95571,3.233912 m 6.19309,-4.881442 -6.95569,3.233912 m 6.16251,-4.881442 -6.92557,3.203339 m 6.16295,-4.881444 -6.92556,3.233914 m 6.16251,-4.881013 -6.92513,3.20334 m 6.16251,-4.881443 -6.43725,2.989755 m 5.64407,-4.637287 -2.86791,1.342225 m 58.02825,47.623377 0,-0.76234 -4.33162,0 m -61.99455,31.698182 -0.001,5.82698 0.55006,3e-4 0,7.32172"
       sodipodi:nodetypes="cccccccccccccccccccccccccccccccccccccccccccccccccccccccccccccccccccccccccccccccccccccccccccccccccccccccccccccccccccccccccccccccccccccccccccccccccccccccccccccccccccccccccccccccccccccccccccccccccsccccccccccccccccccccccccccccccccccccccccccccccccccccccccccccccccccccccccccccccccccccccccccc"/>
    <text
       xml:space="preserve"
       style="font-size:14px;font-family:Verdana"
       x="8.8120346"
       y="20.35862"
       id="text3962">Entrance</text>
    <g
       id="g3918"
       transform="matrix(1.5743113,0,0,1.5743113,-99.944705,-77.436402)">
      <path
         id="path222152"
         style="fill:none;stroke:#000000;stroke-width:0.31734911;stroke-linecap:round;stroke-linejoin:round;"
         d="m 188.48236,200.22175 6.38489,0.0204 0,4.5927 -3.45479,0 0.01,6.86217 4.80834,0.009 m -128.272272,-23.78661 0.01978,10.25079 0.408443,0 0,1.97864 -0.952052,0 0,0.61638 -3.285075,3e-5 m 114.717246,-0.44834 8.5882,-8e-5 m -8.5882,-2.16595 8.5882,-8e-5 m -28.43501,-12.13777 -1.55057,-3.47145 m 2.63252,-1.21361 -8.01007,-17.21502 -0.54132,0.26144 -4.23765,-9.14912 4.74154,-2.20316 m 12.37931,26.28923 -7.99135,-17.21501 m 13.89151,14.50922 -0.72817,-0.002 m -6.01215,0.89678 -4.33183,2.01663 m 3.86484,-3.02492 -4.33157,2.0166 m 3.86483,-3.02465 -4.33156,2.01634 m 3.86483,-3.04337 -4.35054,2.01636 m 3.8651,-3.02466 -4.33183,2.01661 m 3.8651,-3.04337 -4.33183,2.01635 m 3.8651,-3.02466 -4.35055,2.01636 m 3.8651,-3.02466 -4.33183,2.01661 m 3.8651,-3.04363 -4.33209,2.01661 m 3.8651,-3.02492 -4.33183,2.01662 m 3.84638,-3.04337 -4.33183,2.01635 m 3.8651,-3.02466 -4.33183,2.01661 m 3.8651,-3.02493 -4.33183,2.01663 m 3.84613,-3.04364 -4.33157,2.01661 m 3.86483,-3.02466 -4.33156,2.01635 m 3.86483,-3.04335 -4.33156,2.0166 m 5.28401,18.26051 2.63251,-1.21366 m -8.0475,-28.30585 5.24685,-2.44592 m -7.61793,-2.63251 5.24658,-2.44619 m -3.47294,6.25515 5.24683,-2.44619 m -5.84428,1.17645 5.24684,-2.44594 m -5.82557,1.17619 5.24656,-2.44592 m -5.84401,1.17655 2.37107,5.07833 m 2.8755,-7.52462 2.37135,5.0787 m 0,0 12.32315,26.00895 m -6.03085,0.91519 -7.07661,-15.23581 m -4.33156,2.0166 7.07634,15.23584 m -2.31521,-4.9667 4.33182,-2.01635 m -4.03322,15.42234 -3.02634,-6.64869 -69.884648,0 -2.988276,6.61135 m 0,0 -13.387352,4.6e-4 m 122.819296,10.71697 0,-0.37345 m 0,-1e-5 0,-10.30453 m 5e-5,10.67952 -2.30459,-7.4e-4 0.009,1.58465 m 2.29529,-1.58391 0,1.60427 m -30.13408,-14.22763 -1.62351,-0.001 m 1.62351,1.9432 -3.39835,0 m 3.39835,0 0,-1.94176 m 7.54308,1.94176 0,-1.94176 0,0 2.14733,-5e-4 1e-5,0 0,-3.28619 6e-4,-3.10809 -5.9e-4,-3.01465 m 20.4439,11.35283 -22.59125,-0.002 m 0,-0.89629 -1.94178,0 m -3.51025,-1.2e-4 -2.09105,1.2e-4 m -96.550092,19.157 3.492018,-3.6e-4 -3.67e-4,0.59869 0.784333,-0.001 m 0,1.97918 -0.41086,0 m 0.41086,0 0,-1.97918 m -0.41086,17.66476 0,-15.68558 m 7.841924,-10.64283 0,2.16603 m 1.082889,-2.16603 0,2.16603 m 0,-2.16603 -1.082889,0 m 1.082889,10.67999 -1.082889,0 m 1.082889,-8.51396 -1.082889,0 m 1.082889,6.34818 -1.082889,0 m 0,2.16578 0,-2.16578 m 1.082889,2.16578 0,-2.16578 m 7.506173,-8.51421 0,2.16603 m 1.082889,-2.16603 0,2.16603 m 0,-2.16603 -1.082889,0 m 1.082889,10.67999 -1.082889,0 m 1.082889,-8.51396 -1.082889,0 m 1.082889,6.34818 -1.082889,0 m 0,2.16578 0,-2.16578 m 1.082889,2.16578 0,-2.16578 m 7.50591,-8.51421 0,2.16603 m 1.082889,-2.16603 0,2.16603 m 0,-2.16603 -1.082889,0 m 1.082889,10.67999 -1.082889,0 m 1.082889,-8.51396 -1.082889,0 m 1.082889,6.34818 -1.082889,0 m 0,2.16578 0,-2.16578 m 1.082889,2.16578 0,-2.16578 m 7.505894,-8.51421 0,2.16603 m 1.0829,-2.16603 0,2.16603 m 0,-2.16603 -1.0829,0 m 1.0829,10.67999 -1.0829,0 m 1.0829,-8.51396 -1.0829,0 m 1.0829,6.34818 -1.0829,0 m 0,2.16578 0,-2.16578 m 1.0829,2.16578 0,-2.16578 m 7.50591,-8.51421 0,2.16603 m 1.08288,-2.16603 0,2.16603 m 0,-2.16603 -1.08288,0 m 1.08288,10.67999 -1.08288,0 m 1.08288,-8.51396 -1.08288,0 m 1.08288,6.34818 -1.08288,0 m 0,2.16578 0,-2.16578 m 1.08288,2.16578 0,-2.16578 m 7.50591,-8.51421 0,2.16603 m 1.08289,-2.16603 0,2.16603 m 0,-2.16603 -1.08289,0 m 1.08289,10.67999 -1.08289,0 m 1.08289,-8.51396 -1.08289,0 m 1.08289,6.34818 -1.08289,0 m 0,2.16578 0,-2.16578 m 1.08289,2.16578 0,-2.16578 m 7.50591,-8.51421 0,2.16603 m 1.08315,-2.16603 0,2.16603 m 0,-2.16603 -1.08315,0 m 1.08315,10.67999 -1.08315,0 m 1.08315,-8.51396 -1.08315,0 m 1.08315,6.34818 -1.08315,0 m 0,2.16578 0,-2.16578 m 1.08315,2.16578 0,-2.16578 m 7.50591,-8.51421 0,2.16603 m 1.0829,-2.16603 0,2.16603 m 0,-2.16603 -1.0829,0 m 1.0829,10.67999 -1.0829,0 m 1.0829,-8.51396 -1.0829,0 m 1.0829,6.34818 -1.0829,0 m 0,2.16578 0,-2.16578 m 1.0829,2.16578 0,-2.16578 m 7.5059,-8.51421 0,2.16603 m 1.08289,-2.16603 0,2.16603 m 0,-2.16603 -1.08289,0 m 1.08289,10.67999 -1.08289,0 m 1.08289,-8.51396 -1.08289,0 m 1.08289,6.34818 -1.08289,0 m 0,2.16578 0,-2.16578 m 1.08289,2.16578 0,-2.16578 m 7.50592,-8.51421 0,2.16603 m 1.08288,-2.16603 0,2.16603 m 0,-2.16603 -1.08288,0 m 1.08288,10.67999 -1.08288,0 m 1.08288,-8.51396 -1.08288,0 m 1.08288,6.34818 -1.08288,0 m -2e-5,2.16583 0,-2.16578 m 1.08289,2.16578 0,-2.16578 m 7.50591,-8.51421 0,2.16603 m 1.08288,-2.16603 0,2.16603 m 0,-2.16603 -1.08288,0 m 1.08288,10.67999 -1.08288,0 m 1.08288,-8.51396 -1.08288,0 m 1.08288,6.34818 -1.08288,0 m 0,2.16578 0,-2.16578 m 1.08288,2.16578 0,-2.16578 m 7.50618,-8.51421 0,2.16603 m 1.08262,-2.16603 0,2.16603 m 0,-2.16603 -1.08262,0 m 1.08262,10.67999 -1.08262,0 m 1.08262,-8.51396 -1.08262,0 m 1.08262,6.34818 -1.08262,0 m 0,2.16578 0,-2.16578 m 1.08262,2.16578 0,-2.16578 m 7.50617,-8.51421 0,2.16603 m 1.08289,8.51396 -1.08289,0 m 1.08289,-2.16578 -1.08289,0 m 0,2.16578 0,-2.16578 m 1.08289,2.16578 0,-2.16578 m 16.28075,17.81412 -128.271954,0 m 128.271984,0 0,-12.77362 m -8.77589,-13.47986 0,2.0912 m 1.08317,8.51396 -1.08317,0 m 1.08317,-8.51396 -1.08317,0 m 1.08317,6.34817 -1.08317,0 m 0,2.16579 0,-2.16579 m 1.08317,2.16579 0,-2.16579"
         sodipodi:nodetypes="ccccccccccccccccccccccccccccccccccccccccccccccccccccccccccccccccccccccccccccccccccccccccccccccccccccccccccccccccccccccccccccccccccccccccccccccccccccccccccccccccccccccccccccccccccccccccccccccccccccccccccccccccccccccccccccccccccccccccccccccccccccccccccccccccccccccccccccccccccccccccccccccccccccccccccccccccccccccccccccccccccccccccccccccccccccccccccc"/>
    </g>
    <text
       xml:space="preserve"
       style="font-size:14px;line-height:150%;font-family:Verdana"
       x="8.8127337"
       y="188.21172"
       id="text3966">Downstairs</text>
  </g>
  <!-- Specify margins -->
  <svg x="2mm" y="2mm" width="55.4mm" height="206mm">
    <!-- Full-size canvas below and to the right -->
    <svg x="55.4mm" y="206mm" width="100%" height="100%">
      <!-- Rotate back into page -->
      <g width="100%" height="100%" transform="rotate(180)">
        <!-- Rotate around center -->
        <image xlink:href="cc-by.svg" transform="scale(0.25) rotate(180 60 21)"/>
      </g>
    </svg>
  </svg>
</svg>
