<?xml version="1.0" encoding="UTF-8" standalone="no"?>
<!-- Created with Inkscape (http://www.inkscape.org/) -->

<svg
   xmlns:dc="http://purl.org/dc/elements/1.1/"
   xmlns:cc="http://creativecommons.org/ns#"
   xmlns:rdf="http://www.w3.org/1999/02/22-rdf-syntax-ns#"
   xmlns:svg="http://www.w3.org/2000/svg"
   xmlns="http://www.w3.org/2000/svg"
   xmlns:xlink="http://www.w3.org/1999/xlink"
   xmlns:sodipodi="http://sodipodi.sourceforge.net/DTD/sodipodi-0.dtd"
   xmlns:inkscape="http://www.inkscape.org/namespaces/inkscape"
   width="297mm"
   height="210mm"
   id="svg2816"
   version="1.1"
   inkscape:version="0.47pre4 r22446"
   sodipodi:docname="CERN_Library_bookmarks_verso.svg">
  <defs
     id="defs2818">
    <clipPath
       id="clipPath7362-0"
       clipPathUnits="userSpaceOnUse">
      <rect
         ry="0"
         rx="79.347435"
         y="0"
         x="0"
         height="744.09448"
         width="210.47244"
         id="rect7364-8"
         style="fill:#000000;fill-opacity:1;fill-rule:nonzero;stroke:none;display:inline;enable-background:new" />
    </clipPath>
  </defs>
  <sodipodi:namedview
     inkscape:document-units="mm"
     pagecolor="#ffffff"
     bordercolor="#666666"
     borderopacity="1.0"
     inkscape:pageopacity="0.0"
     inkscape:pageshadow="2"
     inkscape:zoom="0.43415836"
     inkscape:cx="196.32835"
     inkscape:cy="380"
     inkscape:current-layer="layer1"
     id="namedview2820"
     showgrid="false"
     inkscape:window-width="1280"
     inkscape:window-height="1000"
     inkscape:window-x="1920"
     inkscape:window-y="176"
     inkscape:window-maximized="1" />
  <metadata
     id="metadata2822">
    <rdf:RDF>
      <cc:Work
         rdf:about="">
        <dc:format>image/svg+xml</dc:format>
        <dc:type
           rdf:resource="http://purl.org/dc/dcmitype/StillImage" />
        <dc:title />
      </cc:Work>
    </rdf:RDF>
  </metadata>
  <g
     inkscape:label="Layer 1"
     inkscape:groupmode="layer"
     id="layer1">
    <g
       style="enable-background:new"
       id="g3097"
       inkscape:tile-cx="105.23622"
       inkscape:tile-cy="372.04724"
       inkscape:tile-w="210.47244"
       inkscape:tile-h="744.09448"
       inkscape:tile-x0="0"
       inkscape:tile-y0="0">
      <g
         style="display:inline"
         inkscape:label="Background"
         id="layer5">
        <rect
           y="0"
           x="0"
           height="744.09448"
           width="210.47244"
           id="rect5446"
           style="fill:#ffffff;fill-opacity:1;fill-rule:nonzero;stroke:none;display:inline;enable-background:new" />
      </g>
      <g
         style="display:inline"
         transform="translate(0,-308.26769)"
         id="layer1-4"
         inkscape:label="Feedback">
        <text
           sodipodi:linespacing="100%"
           id="text2825"
           y="710.25452"
           x="8.812747"
           style="font-size:14px;font-style:normal;font-variant:normal;font-weight:normal;font-stretch:normal;text-align:start;line-height:100%;writing-mode:lr-tb;text-anchor:start;fill:#000000;fill-opacity:1;stroke:none;font-family:Verdana;-inkscape-font-specification:Verdana"
           xml:space="preserve"><tspan
             y="710.25452"
             x="8.812747"
             id="tspan2827"
             sodipodi:role="line">Feedback</tspan></text>
        <text
           sodipodi:linespacing="100%"
           id="text2829"
           y="722.98102"
           x="9.7229052"
           style="font-size:9px;font-style:normal;font-variant:normal;font-weight:normal;font-stretch:normal;text-align:start;line-height:100%;writing-mode:lr-tb;text-anchor:start;fill:#000000;fill-opacity:1;stroke:none;font-family:Verdana;-inkscape-font-specification:Verdana"
           xml:space="preserve"><tspan
             id="tspan3373"
             y="722.98102"
             x="9.7229052"
             sodipodi:role="line">Help us and the environment when</tspan><tspan
             id="tspan3381"
             y="731.98102"
             x="9.7229052"
             sodipodi:role="line">returning your book: share your thoughts</tspan><tspan
             y="740.98102"
             x="9.7229052"
             sodipodi:role="line"
             id="tspan3287">in the space below. We'll follow up at</tspan><tspan
             style="fill:#0000cc;fill-opacity:1"
             id="tspan3415"
             y="749.98102"
             x="9.7229052"
             sodipodi:role="line">library.cern.ch/feedback</tspan><tspan
             id="tspan3417"
             y="758.98102"
             x="9.7229052"
             sodipodi:role="line">and recycle the bookmark.</tspan></text>
        <text
           sodipodi:linespacing="100%"
           id="text3399"
           y="767.98224"
           x="7.2352948"
           style="font-size:9px;font-style:normal;font-variant:normal;font-weight:normal;font-stretch:normal;text-align:start;line-height:100%;writing-mode:lr-tb;text-anchor:start;fill:#000000;fill-opacity:1;stroke:none;font-family:Verdana;-inkscape-font-specification:Verdana"
           xml:space="preserve"><tspan
             y="767.98224"
             x="7.2352948"
             id="tspan3401"
             sodipodi:role="line" /></text>
      </g>
      <g
         style="display:inline"
         inkscape:label="Logo"
         id="layer2">
        <path
           transform="translate(-2.3755677,-0.67856963)"
           clip-path="url(#clipPath7362-0)"
           d="m 173.80733,350.90005 c -0.19838,-0.29696 -0.49573,-0.59551 -0.89287,-0.99147 l -7.23716,-7.23794 -0.19918,0 0,8.22941 c -0.0978,-0.0998 -0.29694,-0.0998 -0.39554,-0.0998 -0.19837,0 -0.39594,0 -0.49573,0.0998 l 0,-10.40991 0.59472,0 8.03104,7.83187 0.099,0 0,-7.83187 c 0.19837,0 0.29735,0.0986 0.49573,0.0986 0.19797,0 0.29696,-0.0986 0.49573,-0.0986 l 0,10.40991 -0.49573,0 z m -15.06983,-5.75038 c 1.2888,-0.19877 2.18088,-0.99145 2.18088,-2.18167 0,-0.99147 -0.59471,-1.68478 -1.88352,-1.88354 -0.59473,-0.0986 -2.47865,0 -3.17235,0 l 0,4.1642 c 0.29696,0 2.0819,0.0986 2.87499,-0.099 z m 0,-4.65953 c 2.57762,0 3.76706,0.79308 3.76706,2.28067 0,1.78376 -1.78455,2.67662 -3.46931,2.87499 l 3.46931,3.96543 0.79309,0.89168 0.29814,0.39714 c -0.29814,-0.10018 -0.59511,-0.10018 -0.89287,-0.10018 -0.39674,0 -0.69449,0 -0.99106,0.10018 -0.39674,-0.49573 -0.69529,-0.89206 -1.09083,-1.3886 l -1.98332,-2.27987 -1.28841,-1.38861 -1.3882,0 0,5.05708 c -0.19718,-0.0998 -0.49533,-0.0998 -0.69411,-0.0998 -0.29735,0 -0.49532,0 -0.79228,0.0998 l 0,-10.40991 4.26279,0 z m -7.83308,4.55975 c 0.49573,0 0.99185,-0.099 1.4872,-0.099 0,0.099 -0.0986,0.29736 -0.0986,0.39635 0,0.10018 0.0986,0.29855 0.0986,0.39714 -0.49535,0 -0.99147,-0.0986 -1.4872,-0.0986 l -3.36951,0 0,4.46076 c 0.99066,0 2.77599,0 3.76785,-0.0986 0.49453,0 1.08886,0 1.58498,-0.0998 0,0.19837 -0.099,0.29696 -0.099,0.49573 0,0.0986 0.099,0.29735 0.099,0.39595 l -6.84043,0 0,-10.31013 6.74144,0 c 0,0.19838 -0.0994,0.29736 -0.0994,0.49573 0,0.099 0.0994,0.29736 0.0994,0.39595 -0.49534,0 -0.99146,-0.0986 -1.48599,-0.0986 l -1.68635,-0.099 -2.0815,0 0,3.86564 3.36951,0 0,3.3e-4 z m -10.21073,5.94914 c -3.66888,0 -5.94875,-2.08149 -5.94875,-5.35323 0,-3.37112 2.7756,-5.35403 6.34469,-5.35403 1.18904,0 2.47824,0.29696 3.56988,0.69451 -0.10017,0.39594 -0.19957,0.79267 -0.29775,1.18903 l -0.0998,0 c -0.29736,-0.29736 -1.48759,-1.28922 -3.27174,-1.28922 -3.07295,0 -4.56054,2.28067 -4.56054,4.75971 0,2.97357 1.88434,4.75852 4.46156,4.75852 1.88313,0 3.27213,-0.89287 3.56868,-1.19022 l -0.0982,0.99144 c -0.99107,0.59473 -2.38006,0.79349 -3.66807,0.79349 z m 2.7756,2.67741 c 0,-0.29855 0,-0.5955 0,-0.89286 l -1.09005,0 c 0,0.29736 -0.10018,0.59431 -0.10018,0.89286 0,5.25385 1.28922,9.41805 4.06561,13.48247 l 1.88314,0.89367 c -3.27133,-4.1646 -4.75852,-8.62696 -4.75852,-14.37614 z m 24.2895,-25.48053 c -8.42698,0 -15.66454,3.96583 -20.22429,10.01356 l 0.79309,0.89287 c 4.46116,-5.94874 11.50035,-9.71621 19.4312,-9.71621 2.47905,0 4.16421,0.0986 6.44449,0.89248 l 3.47049,1.28881 c 8.62537,3.17235 14.37534,12.29224 14.37534,22.10902 0,5.05548 -1.09045,8.82374 -3.66808,12.78877 l 0.29737,1.58737 c 2.57722,-3.37311 3.76745,-6.64325 4.36256,-11.1056 l 3.86645,-29.84071 -1.09124,0 -2.87499,22.70333 c -1.48679,-9.41964 -7.13818,-17.05275 -15.9615,-19.72937 l -4.56096,-1.38778 c -1.78493,-0.49654 -2.67661,-0.49654 -4.65993,-0.49654 z m -10.90563,-6.04773 c -13.28488,0 -23.99254,10.80705 -23.99254,24.09194 0,9.61682 5.35443,18.53913 13.78102,21.71229 l 2.08229,0.79268 c 2.57883,0.99184 5.25425,1.48758 8.12964,1.48758 13.28568,0 23.99295,-10.70767 23.99295,-23.99255 0,-6.04734 -1.88353,-11.00582 -5.5524,-15.17002 l 2.77639,1.28921 c 2.08231,2.87499 3.07377,5.45341 3.86685,9.02211 l 5.84856,25.38194 0.39715,2.08111 5.15566,22.40678 -1.38901,0 -4.46075,-20.22629 -0.69371,-2.28027 -4.56054,-19.82836 c -0.59511,6.24691 -3.86724,11.50075 -7.83228,15.86292 l -11.79769,12.68939 -0.89248,0.99305 -11.8979,12.88774 -1.48638,0 11.79771,-12.78916 1.3886,-1.38779 8.32799,-9.02171 c -3.86684,2.28067 -8.22901,3.56869 -12.88895,3.56869 -2.18088,0 -3.66806,-0.0986 -5.65018,-0.6941 l -3.17354,-0.99147 c -5.35443,-1.68555 -9.31946,-5.05587 -12.29424,-9.51742 l 4.16501,15.26821 -1.48719,0 -5.84976,-21.81127 c -0.6933,-2.47944 -1.18903,-5.05708 -1.18903,-7.73329 0,-13.97899 11.30159,-25.38115 25.28137,-25.47974 l 0.0986,0 c 0,0 0,0 0.0998,0 l 45.70443,0 0,1.3878 -37.4774,0 c 4.36217,1.48719 7.43632,3.56908 10.41109,7.03919 l -2.7768,-0.79349 c -4.26319,-4.0644 -9.51822,-6.2457 -15.96231,-6.2457 z m 10.90563,57.00641 c 7.83308,0 14.17777,-2.7752 18.8373,-8.22782 l -0.39674,-1.38779 c -4.46156,5.55159 -10.70726,8.42738 -18.44056,8.42738 -1.78374,0 -2.57761,-0.099 -4.163,-0.39755 l -1.09163,0.99186 c 1.98331,0.39594 3.17314,0.59392 5.25463,0.59392 z m -7.73249,-1.387 0.79309,-0.89207 c -4.26318,-1.09045 -6.9398,-2.57803 -9.91497,-5.55241 l -1.88313,-0.49533 c 3.17234,3.66808 6.14672,5.552 11.00501,6.93981"
           style="fill:#3779c6;fill-opacity:1;fill-rule:nonzero;stroke:none;display:inline;enable-background:new"
           id="path15802-0" />
      </g>
      <g
         transform="translate(0,6.6406251e-6)"
         inkscape:label="License"
         id="layer3">
        <g
           transform="matrix(0.23622047,0,0,0.23622048,175.03937,727.08661)"
           inkscape:label="Layer 1"
           id="layer1-5"
           style="enable-background:new">
          <g
             transform="matrix(0.9937728,0,0,0.9936696,-177.69267,6.25128e-7)"
             id="g260"
             inkscape:export-filename="/mnt/hgfs/Bov/Documents/Work/2007/cc/identity/srr buttons/big/by.png"
             inkscape:export-xdpi="300.23013"
             inkscape:export-ydpi="300.23013">
            <path
               id="path3817_1_"
               nodetypes="ccccccc"
               d="m 181.96579,0.51074 114.06396,0.20264 c 1.59375,0 3.01758,-0.23633 3.01758,3.18066 l -0.13965,37.56689 -119.82031,0 0,-37.70654 c 0,-1.68505 0.16309,-3.24365 2.87842,-3.24365 z"
               style="fill:#aab2ab" />
            <path
               d="m 297.29636,0 -116.229,0 c -1.24658,0 -2.26123,1.01416 -2.26123,2.26074 l 0,39.49658 c 0,0.28174 0.229,0.51025 0.51074,0.51025 l 119.73047,0 c 0.28174,0 0.51074,-0.22852 0.51074,-0.51025 l 0,-39.49658 C 299.55807,1.01416 298.54343,0 297.29636,0 z m -116.22901,1.02148 116.229,0 c 0.68408,0 1.24023,0.55566 1.24023,1.23926 0,0 0,15.94824 0,27.44971 l -83.34424,0 c -3.04492,5.50586 -8.91113,9.24414 -15.64355,9.24414 -6.73535,0 -12.6001,-3.73486 -15.64355,-9.24414 l -4.07764,0 c 0,-11.50146 0,-27.44971 0,-27.44971 1e-5,-0.68359 0.55616,-1.23926 1.23975,-1.23926 z"
               id="path263" />
            <g
               enable-background="new    "
               id="g265">
              <path
                 d="m 253.07761,32.95605 c 0.31738,0 0.60742,0.02832 0.87012,0.08398 0.26172,0.05566 0.48535,0.14746 0.67285,0.27539 0.18652,0.12695 0.33203,0.29688 0.43457,0.50781 0.10254,0.21191 0.1543,0.47266 0.1543,0.78418 0,0.33594 -0.0762,0.61523 -0.22949,0.83887 -0.15234,0.22461 -0.37891,0.40723 -0.67773,0.55078 0.41211,0.11816 0.71973,0.3252 0.92285,0.62109 0.20312,0.29589 0.30469,0.65234 0.30469,1.06934 0,0.33594 -0.0654,0.62695 -0.19629,0.87305 -0.13086,0.24512 -0.30762,0.44629 -0.52832,0.60156 -0.22168,0.15625 -0.47461,0.27148 -0.75781,0.3457 -0.28418,0.0752 -0.5752,0.1123 -0.875,0.1123 l -3.23635,0 0,-6.66406 3.14161,0 0,10e-6 z m -0.1875,2.69532 c 0.26172,0 0.47656,-0.0625 0.64551,-0.18652 0.16797,-0.12402 0.25195,-0.3252 0.25195,-0.60449 0,-0.15527 -0.0283,-0.2832 -0.084,-0.38184 -0.0566,-0.09961 -0.13086,-0.17676 -0.22461,-0.2334 -0.0937,-0.05566 -0.20117,-0.09473 -0.32227,-0.11621 -0.1211,-0.02148 -0.24805,-0.03223 -0.37793,-0.03223 l -1.37402,0 0,1.55469 1.48535,0 z m 0.0859,2.82812 c 0.14355,0 0.28027,-0.01367 0.41113,-0.04199 0.13086,-0.02832 0.24609,-0.0752 0.34668,-0.13965 0.0996,-0.06543 0.17871,-0.1543 0.23828,-0.2666 0.0596,-0.11133 0.0889,-0.25488 0.0889,-0.42871 0,-0.3418 -0.0967,-0.58594 -0.29004,-0.73242 -0.19336,-0.14551 -0.44922,-0.21875 -0.7666,-0.21875 l -1.59961,0 0,1.82812 1.57129,0 z"
                 id="path267"
                 style="fill:#ffffff" />
              <path
                 d="m 255.78854,32.95605 1.64355,0 1.56055,2.63184 1.55078,-2.63184 1.63379,0 -2.47363,4.10645 0,2.55762 -1.46875,0 0,-2.59473 -2.44629,-4.06934 z"
                 id="path269"
                 style="fill:#ffffff" />
            </g>
            <g
               id="g5908_1_"
               transform="matrix(0.872921,0,0,0.872921,50.12536,143.2144)">
              <path
                 id="path5906_1_"
                 cx="296.35416"
                 ry="22.939548"
                 cy="264.3577"
                 type="arc"
                 rx="22.939548"
                 d="m 186.90065,-141.46002 c 0.006,8.68079 -7.02786,15.7215 -15.70808,15.72711 -8.68022,0.006 -15.72206,-7.02734 -15.7271,-15.70807 0,-0.006 0,-0.0123 0,-0.019 -0.005,-8.68079 7.02786,-15.7215 15.70808,-15.72656 8.68135,-0.006 15.72206,7.02734 15.7271,15.70813 0,0.006 0,0.0123 0,0.0184 z"
                 style="fill:#ffffff" />
              <g
                 id="g5706_1_"
                 transform="translate(-289.6157,99.0653)">
                <path
                   id="path5708_1_"
                   d="m 473.57574,-253.32751 c 3.48541,3.48541 5.22839,7.75391 5.22839,12.80219 0,5.04938 -1.71277,9.27203 -5.13831,12.66791 -3.63531,3.5766 -7.93182,5.36432 -12.88947,5.36432 -4.89777,0 -9.11987,-1.77319 -12.66513,-5.31952 -3.54581,-3.54584 -5.31845,-7.78302 -5.31845,-12.71271 0,-4.92859 1.77264,-9.19598 5.31845,-12.80219 3.4552,-3.48651 7.67728,-5.22949 12.66513,-5.22949 5.0483,-10e-6 9.31404,1.74297 12.79939,5.22949 z m -23.11798,2.34484 c -2.94672,2.97638 -4.41953,6.46289 -4.41953,10.46234 0,3.99835 1.45828,7.45526 4.37424,10.37067 2.9165,2.9165 6.38849,4.37421 10.41705,4.37421 4.02856,0 7.53015,-1.47223 10.50653,-4.4184 2.82593,-2.73645 4.23944,-6.17706 4.23944,-10.32648 0,-4.11804 -1.43646,-7.61346 -4.30768,-10.48468 -2.87067,-2.87067 -6.34991,-4.30658 -10.43829,-4.30658 -4.0884,1e-5 -7.54638,1.44318 -10.37176,4.32892 z m 7.75449,8.70319 c -0.45029,-0.98169 -1.1243,-1.47284 -2.02322,-1.47284 -1.58917,0 -2.38345,1.07007 -2.38345,3.20911 0,2.13953 0.79428,3.2085 2.38345,3.2085 1.04938,0 1.79892,-0.52075 2.24866,-1.56451 l 2.20276,1.17297 c -1.04993,1.86548 -2.62509,2.79846 -4.72549,2.79846 -1.6199,0 -2.91763,-0.4967 -3.89206,-1.48901 -0.9761,-0.99341 -1.46274,-2.36273 -1.46274,-4.10852 0,-1.71503 0.50229,-3.07654 1.50748,-4.08502 1.00519,-1.00854 2.25702,-1.51257 3.75781,-1.51257 2.22012,0 3.80981,0.87488 4.77081,2.62286 l -2.38401,1.22057 z m 10.36337,0 c -0.45087,-0.98169 -1.11145,-1.47284 -1.98242,-1.47284 -1.62103,0 -2.43213,1.07007 -2.43213,3.20911 0,2.13953 0.8111,3.2085 2.43213,3.2085 1.05109,0 1.78717,-0.52075 2.20728,-1.56451 l 2.25201,1.17297 c -1.04828,1.86548 -2.62122,2.79846 -4.71771,2.79846 -1.61768,0 -2.9126,-0.4967 -3.88647,-1.48901 -0.97217,-0.99341 -1.45935,-2.36273 -1.45935,-4.10852 0,-1.71503 0.49445,-3.07654 1.48285,-4.08502 0.98785,-1.00854 2.2453,-1.51257 3.7735,-1.51257 2.21619,0 3.80365,0.87488 4.76129,2.62286 l -2.43098,1.22057 z" />
              </g>
            </g>
            <g
               id="g275">
              <circle
                 d="m 266.35788,15.31348 c 0,5.968343 -4.8383,10.80664 -10.80664,10.80664 -5.96834,0 -10.80664,-4.838297 -10.80664,-10.80664 0,-5.9683419 4.8383,-10.8066393 10.80664,-10.8066393 5.96834,0 10.80664,4.8382974 10.80664,10.8066393 z"
                 cx="255.55124"
                 cy="15.31348"
                 r="10.80664"
                 id="circle277"
                 sodipodi:cx="255.55124"
                 sodipodi:cy="15.31348"
                 sodipodi:rx="10.80664"
                 sodipodi:ry="10.80664"
                 style="fill:#ffffff" />
              <g
                 id="g279">
                <path
                   d="m 258.67819,12.18701 c 0,-0.4165 -0.33789,-0.75391 -0.75293,-0.75391 l -4.77344,0 c -0.41504,0 -0.75293,0.3374 -0.75293,0.75391 l 0,4.77295 1.33105,0 0,5.65186 3.61719,0 0,-5.65186 1.33105,0 0,-4.77295 10e-6,0 z"
                   id="path281" />
                <circle
                   d="m 257.17135,9.1723604 c 0,0.9017756 -0.73103,1.6328096 -1.63281,1.6328096 -0.90177,0 -1.63281,-0.731034 -1.63281,-1.6328096 0,-0.901776 0.73104,-1.63281 1.63281,-1.63281 0.90178,0 1.63281,0.731034 1.63281,1.63281 z"
                   cx="255.53854"
                   cy="9.1723604"
                   r="1.63281"
                   id="circle283"
                   sodipodi:cx="255.53854"
                   sodipodi:cy="9.1723604"
                   sodipodi:rx="1.63281"
                   sodipodi:ry="1.63281" />
              </g>
              <path
                 clip-rule="evenodd"
                 d="m 255.5239,3.40723 c -3.23242,0 -5.96875,1.12793 -8.20801,3.38379 -2.29785,2.3335 -3.44629,5.0957 -3.44629,8.28467 0,3.18897 1.14844,5.93164 3.44629,8.22656 2.29785,2.29443 5.03418,3.44189 8.20801,3.44189 3.21289,0 5.99805,-1.15625 8.35352,-3.47119 2.21973,-2.19727 3.33008,-4.92969 3.33008,-8.19727 0,-3.26758 -1.12988,-6.02881 -3.3877,-8.28467 -2.25977,-2.25585 -5.02442,-3.38378 -8.2959,-3.38378 z m 0.0293,2.09961 c 2.64844,0 4.89746,0.93408 6.74707,2.80127 1.86914,1.84717 2.80371,4.10303 2.80371,6.76758 0,2.68359 -0.91504,4.91064 -2.74512,6.68018 -1.92871,1.90625 -4.19629,2.85889 -6.80566,2.85889 -2.61035,0 -4.85938,-0.94287 -6.74707,-2.82959 -1.88965,-1.88672 -2.83301,-4.12305 -2.83301,-6.70947 0,-2.58691 0.9541,-4.84229 2.8623,-6.76758 1.83009,-1.8672 4.06934,-2.80128 6.71778,-2.80128 z"
                 id="path285"
                 style="fill-rule:evenodd" />
            </g>
          </g>
        </g>
      </g>
    </g>
    <use
       x="0"
       y="0"
       inkscape:tiled-clone-of="#g3097"
       xlink:href="#g3097"
       id="use3132"
       transform="translate(210.47244,0)"
       width="1052.3622"
       height="744.09448" />
    <use
       x="0"
       y="0"
       inkscape:tiled-clone-of="#g3097"
       xlink:href="#g3097"
       transform="translate(420.94489,0)"
       id="use3134"
       width="1052.3622"
       height="744.09448" />
    <use
       x="0"
       y="0"
       inkscape:tiled-clone-of="#g3097"
       xlink:href="#g3097"
       transform="translate(631.41736,0)"
       id="use3136"
       width="1052.3622"
       height="744.09448" />
    <use
       x="0"
       y="0"
       inkscape:tiled-clone-of="#g3097"
       xlink:href="#g3097"
       transform="translate(841.88977,0)"
       id="use3138"
       width="1052.3622"
       height="744.09448" />
  </g>
</svg>
